<?xml version="1.0" encoding="utf-8" standalone="no"?>
<!DOCTYPE svg PUBLIC "-//W3C//DTD SVG 1.1//EN"
  "http://www.w3.org/Graphics/SVG/1.1/DTD/svg11.dtd">
<svg xmlns:xlink="http://www.w3.org/1999/xlink" width="895.2975pt" height="611.76pt" viewBox="0 0 895.2975 611.76" xmlns="http://www.w3.org/2000/svg" version="1.1">
 <metadata>
  <rdf:RDF xmlns:dc="http://purl.org/dc/elements/1.1/" xmlns:cc="http://creativecommons.org/ns#" xmlns:rdf="http://www.w3.org/1999/02/22-rdf-syntax-ns#">
   <cc:Work>
    <dc:type rdf:resource="http://purl.org/dc/dcmitype/StillImage"/>
    <dc:date>2023-11-21T09:33:17.444347</dc:date>
    <dc:format>image/svg+xml</dc:format>
    <dc:creator>
     <cc:Agent>
      <dc:title>Matplotlib v3.8.1, https://matplotlib.org/</dc:title>
     </cc:Agent>
    </dc:creator>
   </cc:Work>
  </rdf:RDF>
 </metadata>
 <defs>
  <style type="text/css">*{stroke-linejoin: round; stroke-linecap: butt}</style>
 </defs>
 <g id="figure_1">
  <g id="patch_1">
   <path d="M -0 611.76 
L 895.2975 611.76 
L 895.2975 0 
L -0 0 
z
" style="fill: #ffffff"/>
  </g>
  <g id="axes_1">
   <g id="patch_2">
    <path d="M 51.935 575.596875 
L 888.935 575.596875 
L 888.935 21.196875 
L 51.935 21.196875 
z
" style="fill: #ffffff"/>
   </g>
   <g id="PolyCollection_1">
    <defs>
     <path id="m59a37c16ca" d="M 51.935 -345.69845 
L 51.935 -431.862518 
L 107.735 -401.481227 
L 163.535 -352.321318 
L 219.335 -340.951633 
L 275.135 -336.711299 
L 330.935 -336.05894 
L 386.735 -339.833303 
L 442.535 -338.249003 
L 498.335 -339.8799 
L 554.135 -343.980442 
L 609.935 -368.024531 
L 665.735 -379.254425 
L 721.535 -355.489919 
L 777.335 -310.057775 
L 833.135 -328.58011 
L 888.935 -370.494175 
L 888.935 -284.330108 
L 888.935 -284.330108 
L 833.135 -242.416043 
L 777.335 -223.893708 
L 721.535 -269.325851 
L 665.735 -293.090357 
L 609.935 -281.860463 
L 554.135 -257.816375 
L 498.335 -253.715833 
L 442.535 -252.084935 
L 386.735 -253.669236 
L 330.935 -249.894873 
L 275.135 -250.547232 
L 219.335 -254.787565 
L 163.535 -266.157251 
L 107.735 -315.31716 
L 51.935 -345.69845 
z
"/>
    </defs>
    <g clip-path="url(#pe5b3982af4)">
     <use xlink:href="#m59a37c16ca" x="0" y="611.76" style="fill: #8fbbda; fill-opacity: 0.3"/>
    </g>
   </g>
   <g id="PolyCollection_2">
    <defs>
     <path id="m8cfb056516" d="M 51.935 -294.48827 
L 51.935 -380.652337 
L 107.735 -330.886665 
L 163.535 -291.465544 
L 219.335 -258.008847 
L 275.135 -226.229645 
L 330.935 -193.891278 
L 386.735 -165.746647 
L 442.535 -149.717255 
L 498.335 -149.251284 
L 554.135 -166.4922 
L 609.935 -201.952571 
L 665.735 -231.262128 
L 721.535 -269.704712 
L 777.335 -369.189457 
L 833.135 -398.964986 
L 888.935 -420.166653 
L 888.935 -334.002586 
L 888.935 -334.002586 
L 833.135 -312.800918 
L 777.335 -283.02539 
L 721.535 -183.540644 
L 665.735 -145.098061 
L 609.935 -115.788504 
L 554.135 -80.328133 
L 498.335 -63.087217 
L 442.535 -63.553187 
L 386.735 -79.58258 
L 330.935 -107.72721 
L 275.135 -140.065577 
L 219.335 -171.84478 
L 163.535 -205.301476 
L 107.735 -244.722598 
L 51.935 -294.48827 
z
"/>
    </defs>
    <g clip-path="url(#pe5b3982af4)">
     <use xlink:href="#m8cfb056516" x="0" y="611.76" style="fill: #ffbf86; fill-opacity: 0.3"/>
    </g>
   </g>
   <g id="PolyCollection_3">
    <defs>
     <path id="m0a256f6862" d="M 51.935 -262.569276 
L 51.935 -348.733343 
L 107.735 -449.383016 
L 163.535 -506.557622 
L 219.335 -546.957282 
L 275.135 -563.918616 
L 330.935 -565.363125 
L 386.735 -563.965213 
L 442.535 -559.771477 
L 498.335 -554.738993 
L 554.135 -548.168806 
L 609.935 -544.347846 
L 665.735 -537.008807 
L 721.535 -523.542254 
L 777.335 -510.588268 
L 833.135 -450.245062 
L 888.935 -384.10052 
L 888.935 -297.936453 
L 888.935 -297.936453 
L 833.135 -364.080995 
L 777.335 -424.424201 
L 721.535 -437.378187 
L 665.735 -450.84474 
L 609.935 -458.183779 
L 554.135 -462.004739 
L 498.335 -468.574926 
L 442.535 -473.607409 
L 386.735 -477.801146 
L 330.935 -479.199058 
L 275.135 -477.754549 
L 219.335 -460.793215 
L 163.535 -420.393555 
L 107.735 -363.218949 
L 51.935 -262.569276 
z
"/>
    </defs>
    <g clip-path="url(#pe5b3982af4)">
     <use xlink:href="#m0a256f6862" x="0" y="611.76" style="fill: #96d096; fill-opacity: 0.3"/>
    </g>
   </g>
   <g id="PolyCollection_4">
    <defs>
     <path id="mb3e7787547" d="M 51.935 -242.858715 
L 51.935 -329.022783 
L 107.735 -351.622362 
L 163.535 -376.365406 
L 219.335 -370.540773 
L 275.135 -360.941776 
L 330.935 -351.109794 
L 386.735 -335.872552 
L 442.535 -325.062032 
L 498.335 -311.781866 
L 554.135 -299.293851 
L 609.935 -297.56976 
L 665.735 -296.404833 
L 721.535 -290.323915 
L 777.335 -270.263876 
L 833.135 -272.127759 
L 888.935 -285.174939 
L 888.935 -199.010872 
L 888.935 -199.010872 
L 833.135 -185.963692 
L 777.335 -184.099809 
L 721.535 -204.159848 
L 665.735 -210.240766 
L 609.935 -211.405693 
L 554.135 -213.129784 
L 498.335 -225.617799 
L 442.535 -238.897964 
L 386.735 -249.708485 
L 330.935 -264.945727 
L 275.135 -274.777709 
L 219.335 -284.376705 
L 163.535 -290.201339 
L 107.735 -265.458295 
L 51.935 -242.858715 
z
"/>
    </defs>
    <g clip-path="url(#pe5b3982af4)">
     <use xlink:href="#mb3e7787547" x="0" y="611.76" style="fill: #eb9393; fill-opacity: 0.3"/>
    </g>
   </g>
   <g id="PolyCollection_5">
    <defs>
     <path id="m2349f0cad2" d="M 51.935 -339.687428 
L 51.935 -425.851495 
L 107.735 -433.633206 
L 163.535 -434.798133 
L 219.335 -419.793876 
L 275.135 -421.657759 
L 330.935 -410.66085 
L 386.735 -389.226198 
L 442.535 -373.849165 
L 498.335 -363.644406 
L 554.135 -355.210336 
L 609.935 -342.535933 
L 665.735 -319.330592 
L 721.535 -298.175522 
L 777.335 -258.195235 
L 833.135 -317.233724 
L 888.935 -375.782943 
L 888.935 -289.618876 
L 888.935 -289.618876 
L 833.135 -231.069656 
L 777.335 -172.031168 
L 721.535 -212.011454 
L 665.735 -233.166525 
L 609.935 -256.371866 
L 554.135 -269.046269 
L 498.335 -277.480339 
L 442.535 -287.685097 
L 386.735 -303.062131 
L 330.935 -324.496783 
L 275.135 -335.493692 
L 219.335 -333.629809 
L 163.535 -348.634066 
L 107.735 -347.469139 
L 51.935 -339.687428 
z
"/>
    </defs>
    <g clip-path="url(#pe5b3982af4)">
     <use xlink:href="#m2349f0cad2" x="0" y="611.76" style="fill: #cab3de; fill-opacity: 0.3"/>
    </g>
   </g>
   <g id="PolyCollection_6">
    <defs>
     <path id="mc956540011" d="M 51.935 -324.54338 
L 51.935 -410.707447 
L 107.735 -386.150791 
L 163.535 -401.43463 
L 219.335 -427.016422 
L 275.135 -449.150031 
L 330.935 -462.290405 
L 386.735 -468.348024 
L 442.535 -461.172075 
L 498.335 -448.730657 
L 554.135 -438.805481 
L 609.935 -421.657759 
L 665.735 -412.151957 
L 721.535 -409.495924 
L 777.335 -380.838725 
L 833.135 -363.271629 
L 888.935 -350.620525 
L 888.935 -264.456458 
L 888.935 -264.456458 
L 833.135 -277.107562 
L 777.335 -294.674658 
L 721.535 -323.331856 
L 665.735 -325.987889 
L 609.935 -335.493692 
L 554.135 -352.641414 
L 498.335 -362.56659 
L 442.535 -375.008008 
L 386.735 -382.183957 
L 330.935 -376.126337 
L 275.135 -362.985963 
L 219.335 -340.852355 
L 163.535 -315.270563 
L 107.735 -299.986724 
L 51.935 -324.54338 
z
"/>
    </defs>
    <g clip-path="url(#pe5b3982af4)">
     <use xlink:href="#mc956540011" x="0" y="611.76" style="fill: #c6aba5; fill-opacity: 0.3"/>
    </g>
   </g>
   <g id="PolyCollection_7">
    <defs>
     <path id="mb6873644f7" d="M 51.935 -253.576042 
L 51.935 -339.740109 
L 107.735 -337.317061 
L 163.535 -325.201823 
L 219.335 -316.394976 
L 275.135 -297.429969 
L 330.935 -282.565503 
L 386.735 -265.510975 
L 442.535 -256.797323 
L 498.335 -258.661206 
L 554.135 -258.241832 
L 609.935 -268.120411 
L 665.735 -304.466126 
L 721.535 -330.700277 
L 777.335 -375.713047 
L 833.135 -447.495835 
L 888.935 -432.491578 
L 888.935 -346.327511 
L 888.935 -346.327511 
L 833.135 -361.331767 
L 777.335 -289.54898 
L 721.535 -244.53621 
L 665.735 -218.302059 
L 609.935 -181.956344 
L 554.135 -172.077765 
L 498.335 -172.497139 
L 442.535 -170.633256 
L 386.735 -179.346908 
L 330.935 -196.401436 
L 275.135 -211.265901 
L 219.335 -230.230909 
L 163.535 -239.037755 
L 107.735 -251.152994 
L 51.935 -253.576042 
z
"/>
    </defs>
    <g clip-path="url(#pe5b3982af4)">
     <use xlink:href="#mb6873644f7" x="0" y="611.76" style="fill: #f1bbe0; fill-opacity: 0.3"/>
    </g>
   </g>
   <g id="PolyCollection_8">
    <defs>
     <path id="mfd1b1efd15" d="M 51.935 -61.363125 
L 51.935 -147.527192 
L 107.735 -151.394749 
L 163.535 -164.441929 
L 219.335 -181.170277 
L 275.135 -194.357248 
L 330.935 -228.140125 
L 386.735 -277.20684 
L 442.535 -316.394976 
L 498.335 -337.084076 
L 554.135 -333.076728 
L 609.935 -308.986042 
L 665.735 -286.083582 
L 721.535 -253.81511 
L 777.335 -239.97578 
L 833.135 -197.875327 
L 888.935 -192.493365 
L 888.935 -106.329298 
L 888.935 -106.329298 
L 833.135 -111.71126 
L 777.335 -153.811713 
L 721.535 -167.651043 
L 665.735 -199.919515 
L 609.935 -222.821975 
L 554.135 -246.91266 
L 498.335 -250.920008 
L 442.535 -230.230909 
L 386.735 -191.042773 
L 330.935 -141.976057 
L 275.135 -108.193181 
L 219.335 -95.00621 
L 163.535 -78.277862 
L 107.735 -65.230682 
L 51.935 -61.363125 
z
"/>
    </defs>
    <g clip-path="url(#pe5b3982af4)">
     <use xlink:href="#mfd1b1efd15" x="0" y="611.76" style="fill: #dede90; fill-opacity: 0.3"/>
    </g>
   </g>
   <g id="PolyCollection_9">
    <defs>
     <path id="mf7f3bc6079" d="M 51.935 -219.047612 
L 51.935 -305.211679 
L 107.735 -277.439825 
L 163.535 -266.722499 
L 219.335 -258.474818 
L 275.135 -268.912561 
L 330.935 -289.228884 
L 386.735 -313.599152 
L 442.535 -338.2956 
L 498.335 -355.536516 
L 554.135 -376.039227 
L 609.935 -366.114051 
L 665.735 -353.346453 
L 721.535 -388.061271 
L 777.335 -404.486738 
L 833.135 -343.514472 
L 888.935 -307.984205 
L 888.935 -221.820138 
L 888.935 -221.820138 
L 833.135 -257.350404 
L 777.335 -318.322671 
L 721.535 -301.897204 
L 665.735 -267.182386 
L 609.935 -279.949984 
L 554.135 -289.87516 
L 498.335 -269.372448 
L 442.535 -252.131532 
L 386.735 -227.435085 
L 330.935 -203.064817 
L 275.135 -182.748494 
L 219.335 -172.31075 
L 163.535 -180.558432 
L 107.735 -191.275758 
L 51.935 -219.047612 
z
"/>
    </defs>
    <g clip-path="url(#pe5b3982af4)">
     <use xlink:href="#mf7f3bc6079" x="0" y="611.76" style="fill: #8bdee7; fill-opacity: 0.3"/>
    </g>
   </g>
   <g id="matplotlib.axis_1">
    <g id="xtick_1">
     <g id="line2d_1">
      <defs>
       <path id="m1ded4286c6" d="M 0 0 
L 0 3.5 
" style="stroke: #000000; stroke-width: 0.8"/>
      </defs>
      <g>
       <use xlink:href="#m1ded4286c6" x="51.935" y="575.596875" style="stroke: #000000; stroke-width: 0.8"/>
      </g>
     </g>
     <g id="text_1">
      <!-- 0 -->
      <g transform="translate(48.75375 590.195313) scale(0.1 -0.1)">
       <defs>
        <path id="DejaVuSans-30" d="M 2034 4250 
Q 1547 4250 1301 3770 
Q 1056 3291 1056 2328 
Q 1056 1369 1301 889 
Q 1547 409 2034 409 
Q 2525 409 2770 889 
Q 3016 1369 3016 2328 
Q 3016 3291 2770 3770 
Q 2525 4250 2034 4250 
z
M 2034 4750 
Q 2819 4750 3233 4129 
Q 3647 3509 3647 2328 
Q 3647 1150 3233 529 
Q 2819 -91 2034 -91 
Q 1250 -91 836 529 
Q 422 1150 422 2328 
Q 422 3509 836 4129 
Q 1250 4750 2034 4750 
z
" transform="scale(0.015625)"/>
       </defs>
       <use xlink:href="#DejaVuSans-30"/>
      </g>
     </g>
    </g>
    <g id="xtick_2">
     <g id="line2d_2">
      <g>
       <use xlink:href="#m1ded4286c6" x="107.735" y="575.596875" style="stroke: #000000; stroke-width: 0.8"/>
      </g>
     </g>
     <g id="text_2">
      <!-- 1 -->
      <g transform="translate(104.55375 590.195313) scale(0.1 -0.1)">
       <defs>
        <path id="DejaVuSans-31" d="M 794 531 
L 1825 531 
L 1825 4091 
L 703 3866 
L 703 4441 
L 1819 4666 
L 2450 4666 
L 2450 531 
L 3481 531 
L 3481 0 
L 794 0 
L 794 531 
z
" transform="scale(0.015625)"/>
       </defs>
       <use xlink:href="#DejaVuSans-31"/>
      </g>
     </g>
    </g>
    <g id="xtick_3">
     <g id="line2d_3">
      <g>
       <use xlink:href="#m1ded4286c6" x="163.535" y="575.596875" style="stroke: #000000; stroke-width: 0.8"/>
      </g>
     </g>
     <g id="text_3">
      <!-- 2 -->
      <g transform="translate(160.35375 590.195313) scale(0.1 -0.1)">
       <defs>
        <path id="DejaVuSans-32" d="M 1228 531 
L 3431 531 
L 3431 0 
L 469 0 
L 469 531 
Q 828 903 1448 1529 
Q 2069 2156 2228 2338 
Q 2531 2678 2651 2914 
Q 2772 3150 2772 3378 
Q 2772 3750 2511 3984 
Q 2250 4219 1831 4219 
Q 1534 4219 1204 4116 
Q 875 4013 500 3803 
L 500 4441 
Q 881 4594 1212 4672 
Q 1544 4750 1819 4750 
Q 2544 4750 2975 4387 
Q 3406 4025 3406 3419 
Q 3406 3131 3298 2873 
Q 3191 2616 2906 2266 
Q 2828 2175 2409 1742 
Q 1991 1309 1228 531 
z
" transform="scale(0.015625)"/>
       </defs>
       <use xlink:href="#DejaVuSans-32"/>
      </g>
     </g>
    </g>
    <g id="xtick_4">
     <g id="line2d_4">
      <g>
       <use xlink:href="#m1ded4286c6" x="219.335" y="575.596875" style="stroke: #000000; stroke-width: 0.8"/>
      </g>
     </g>
     <g id="text_4">
      <!-- 3 -->
      <g transform="translate(216.15375 590.195313) scale(0.1 -0.1)">
       <defs>
        <path id="DejaVuSans-33" d="M 2597 2516 
Q 3050 2419 3304 2112 
Q 3559 1806 3559 1356 
Q 3559 666 3084 287 
Q 2609 -91 1734 -91 
Q 1441 -91 1130 -33 
Q 819 25 488 141 
L 488 750 
Q 750 597 1062 519 
Q 1375 441 1716 441 
Q 2309 441 2620 675 
Q 2931 909 2931 1356 
Q 2931 1769 2642 2001 
Q 2353 2234 1838 2234 
L 1294 2234 
L 1294 2753 
L 1863 2753 
Q 2328 2753 2575 2939 
Q 2822 3125 2822 3475 
Q 2822 3834 2567 4026 
Q 2313 4219 1838 4219 
Q 1578 4219 1281 4162 
Q 984 4106 628 3988 
L 628 4550 
Q 988 4650 1302 4700 
Q 1616 4750 1894 4750 
Q 2613 4750 3031 4423 
Q 3450 4097 3450 3541 
Q 3450 3153 3228 2886 
Q 3006 2619 2597 2516 
z
" transform="scale(0.015625)"/>
       </defs>
       <use xlink:href="#DejaVuSans-33"/>
      </g>
     </g>
    </g>
    <g id="xtick_5">
     <g id="line2d_5">
      <g>
       <use xlink:href="#m1ded4286c6" x="275.135" y="575.596875" style="stroke: #000000; stroke-width: 0.8"/>
      </g>
     </g>
     <g id="text_5">
      <!-- 4 -->
      <g transform="translate(271.95375 590.195313) scale(0.1 -0.1)">
       <defs>
        <path id="DejaVuSans-34" d="M 2419 4116 
L 825 1625 
L 2419 1625 
L 2419 4116 
z
M 2253 4666 
L 3047 4666 
L 3047 1625 
L 3713 1625 
L 3713 1100 
L 3047 1100 
L 3047 0 
L 2419 0 
L 2419 1100 
L 313 1100 
L 313 1709 
L 2253 4666 
z
" transform="scale(0.015625)"/>
       </defs>
       <use xlink:href="#DejaVuSans-34"/>
      </g>
     </g>
    </g>
    <g id="xtick_6">
     <g id="line2d_6">
      <g>
       <use xlink:href="#m1ded4286c6" x="330.935" y="575.596875" style="stroke: #000000; stroke-width: 0.8"/>
      </g>
     </g>
     <g id="text_6">
      <!-- 5 -->
      <g transform="translate(327.75375 590.195313) scale(0.1 -0.1)">
       <defs>
        <path id="DejaVuSans-35" d="M 691 4666 
L 3169 4666 
L 3169 4134 
L 1269 4134 
L 1269 2991 
Q 1406 3038 1543 3061 
Q 1681 3084 1819 3084 
Q 2600 3084 3056 2656 
Q 3513 2228 3513 1497 
Q 3513 744 3044 326 
Q 2575 -91 1722 -91 
Q 1428 -91 1123 -41 
Q 819 9 494 109 
L 494 744 
Q 775 591 1075 516 
Q 1375 441 1709 441 
Q 2250 441 2565 725 
Q 2881 1009 2881 1497 
Q 2881 1984 2565 2268 
Q 2250 2553 1709 2553 
Q 1456 2553 1204 2497 
Q 953 2441 691 2322 
L 691 4666 
z
" transform="scale(0.015625)"/>
       </defs>
       <use xlink:href="#DejaVuSans-35"/>
      </g>
     </g>
    </g>
    <g id="xtick_7">
     <g id="line2d_7">
      <g>
       <use xlink:href="#m1ded4286c6" x="386.735" y="575.596875" style="stroke: #000000; stroke-width: 0.8"/>
      </g>
     </g>
     <g id="text_7">
      <!-- 6 -->
      <g transform="translate(383.55375 590.195313) scale(0.1 -0.1)">
       <defs>
        <path id="DejaVuSans-36" d="M 2113 2584 
Q 1688 2584 1439 2293 
Q 1191 2003 1191 1497 
Q 1191 994 1439 701 
Q 1688 409 2113 409 
Q 2538 409 2786 701 
Q 3034 994 3034 1497 
Q 3034 2003 2786 2293 
Q 2538 2584 2113 2584 
z
M 3366 4563 
L 3366 3988 
Q 3128 4100 2886 4159 
Q 2644 4219 2406 4219 
Q 1781 4219 1451 3797 
Q 1122 3375 1075 2522 
Q 1259 2794 1537 2939 
Q 1816 3084 2150 3084 
Q 2853 3084 3261 2657 
Q 3669 2231 3669 1497 
Q 3669 778 3244 343 
Q 2819 -91 2113 -91 
Q 1303 -91 875 529 
Q 447 1150 447 2328 
Q 447 3434 972 4092 
Q 1497 4750 2381 4750 
Q 2619 4750 2861 4703 
Q 3103 4656 3366 4563 
z
" transform="scale(0.015625)"/>
       </defs>
       <use xlink:href="#DejaVuSans-36"/>
      </g>
     </g>
    </g>
    <g id="xtick_8">
     <g id="line2d_8">
      <g>
       <use xlink:href="#m1ded4286c6" x="442.535" y="575.596875" style="stroke: #000000; stroke-width: 0.8"/>
      </g>
     </g>
     <g id="text_8">
      <!-- 7 -->
      <g transform="translate(439.35375 590.195313) scale(0.1 -0.1)">
       <defs>
        <path id="DejaVuSans-37" d="M 525 4666 
L 3525 4666 
L 3525 4397 
L 1831 0 
L 1172 0 
L 2766 4134 
L 525 4134 
L 525 4666 
z
" transform="scale(0.015625)"/>
       </defs>
       <use xlink:href="#DejaVuSans-37"/>
      </g>
     </g>
    </g>
    <g id="xtick_9">
     <g id="line2d_9">
      <g>
       <use xlink:href="#m1ded4286c6" x="498.335" y="575.596875" style="stroke: #000000; stroke-width: 0.8"/>
      </g>
     </g>
     <g id="text_9">
      <!-- 8 -->
      <g transform="translate(495.15375 590.195313) scale(0.1 -0.1)">
       <defs>
        <path id="DejaVuSans-38" d="M 2034 2216 
Q 1584 2216 1326 1975 
Q 1069 1734 1069 1313 
Q 1069 891 1326 650 
Q 1584 409 2034 409 
Q 2484 409 2743 651 
Q 3003 894 3003 1313 
Q 3003 1734 2745 1975 
Q 2488 2216 2034 2216 
z
M 1403 2484 
Q 997 2584 770 2862 
Q 544 3141 544 3541 
Q 544 4100 942 4425 
Q 1341 4750 2034 4750 
Q 2731 4750 3128 4425 
Q 3525 4100 3525 3541 
Q 3525 3141 3298 2862 
Q 3072 2584 2669 2484 
Q 3125 2378 3379 2068 
Q 3634 1759 3634 1313 
Q 3634 634 3220 271 
Q 2806 -91 2034 -91 
Q 1263 -91 848 271 
Q 434 634 434 1313 
Q 434 1759 690 2068 
Q 947 2378 1403 2484 
z
M 1172 3481 
Q 1172 3119 1398 2916 
Q 1625 2713 2034 2713 
Q 2441 2713 2670 2916 
Q 2900 3119 2900 3481 
Q 2900 3844 2670 4047 
Q 2441 4250 2034 4250 
Q 1625 4250 1398 4047 
Q 1172 3844 1172 3481 
z
" transform="scale(0.015625)"/>
       </defs>
       <use xlink:href="#DejaVuSans-38"/>
      </g>
     </g>
    </g>
    <g id="xtick_10">
     <g id="line2d_10">
      <g>
       <use xlink:href="#m1ded4286c6" x="554.135" y="575.596875" style="stroke: #000000; stroke-width: 0.8"/>
      </g>
     </g>
     <g id="text_10">
      <!-- 9 -->
      <g transform="translate(550.95375 590.195313) scale(0.1 -0.1)">
       <defs>
        <path id="DejaVuSans-39" d="M 703 97 
L 703 672 
Q 941 559 1184 500 
Q 1428 441 1663 441 
Q 2288 441 2617 861 
Q 2947 1281 2994 2138 
Q 2813 1869 2534 1725 
Q 2256 1581 1919 1581 
Q 1219 1581 811 2004 
Q 403 2428 403 3163 
Q 403 3881 828 4315 
Q 1253 4750 1959 4750 
Q 2769 4750 3195 4129 
Q 3622 3509 3622 2328 
Q 3622 1225 3098 567 
Q 2575 -91 1691 -91 
Q 1453 -91 1209 -44 
Q 966 3 703 97 
z
M 1959 2075 
Q 2384 2075 2632 2365 
Q 2881 2656 2881 3163 
Q 2881 3666 2632 3958 
Q 2384 4250 1959 4250 
Q 1534 4250 1286 3958 
Q 1038 3666 1038 3163 
Q 1038 2656 1286 2365 
Q 1534 2075 1959 2075 
z
" transform="scale(0.015625)"/>
       </defs>
       <use xlink:href="#DejaVuSans-39"/>
      </g>
     </g>
    </g>
    <g id="xtick_11">
     <g id="line2d_11">
      <g>
       <use xlink:href="#m1ded4286c6" x="609.935" y="575.596875" style="stroke: #000000; stroke-width: 0.8"/>
      </g>
     </g>
     <g id="text_11">
      <!-- 10 -->
      <g transform="translate(603.5725 590.195313) scale(0.1 -0.1)">
       <use xlink:href="#DejaVuSans-31"/>
       <use xlink:href="#DejaVuSans-30" x="63.623047"/>
      </g>
     </g>
    </g>
    <g id="xtick_12">
     <g id="line2d_12">
      <g>
       <use xlink:href="#m1ded4286c6" x="665.735" y="575.596875" style="stroke: #000000; stroke-width: 0.8"/>
      </g>
     </g>
     <g id="text_12">
      <!-- 11 -->
      <g transform="translate(659.3725 590.195313) scale(0.1 -0.1)">
       <use xlink:href="#DejaVuSans-31"/>
       <use xlink:href="#DejaVuSans-31" x="63.623047"/>
      </g>
     </g>
    </g>
    <g id="xtick_13">
     <g id="line2d_13">
      <g>
       <use xlink:href="#m1ded4286c6" x="721.535" y="575.596875" style="stroke: #000000; stroke-width: 0.8"/>
      </g>
     </g>
     <g id="text_13">
      <!-- 12 -->
      <g transform="translate(715.1725 590.195313) scale(0.1 -0.1)">
       <use xlink:href="#DejaVuSans-31"/>
       <use xlink:href="#DejaVuSans-32" x="63.623047"/>
      </g>
     </g>
    </g>
    <g id="xtick_14">
     <g id="line2d_14">
      <g>
       <use xlink:href="#m1ded4286c6" x="777.335" y="575.596875" style="stroke: #000000; stroke-width: 0.8"/>
      </g>
     </g>
     <g id="text_14">
      <!-- 13 -->
      <g transform="translate(770.9725 590.195313) scale(0.1 -0.1)">
       <use xlink:href="#DejaVuSans-31"/>
       <use xlink:href="#DejaVuSans-33" x="63.623047"/>
      </g>
     </g>
    </g>
    <g id="xtick_15">
     <g id="line2d_15">
      <g>
       <use xlink:href="#m1ded4286c6" x="833.135" y="575.596875" style="stroke: #000000; stroke-width: 0.8"/>
      </g>
     </g>
     <g id="text_15">
      <!-- 14 -->
      <g transform="translate(826.7725 590.195313) scale(0.1 -0.1)">
       <use xlink:href="#DejaVuSans-31"/>
       <use xlink:href="#DejaVuSans-34" x="63.623047"/>
      </g>
     </g>
    </g>
    <g id="xtick_16">
     <g id="line2d_16">
      <g>
       <use xlink:href="#m1ded4286c6" x="888.935" y="575.596875" style="stroke: #000000; stroke-width: 0.8"/>
      </g>
     </g>
     <g id="text_16">
      <!-- 15 -->
      <g transform="translate(882.5725 590.195313) scale(0.1 -0.1)">
       <use xlink:href="#DejaVuSans-31"/>
       <use xlink:href="#DejaVuSans-35" x="63.623047"/>
      </g>
     </g>
    </g>
    <g id="text_17">
     <!-- k -->
     <g transform="translate(465.8025 608.4325) scale(0.16 -0.16)">
      <defs>
       <path id="DejaVuSans-6b" d="M 581 4863 
L 1159 4863 
L 1159 1991 
L 2875 3500 
L 3609 3500 
L 1753 1863 
L 3688 0 
L 2938 0 
L 1159 1709 
L 1159 0 
L 581 0 
L 581 4863 
z
" transform="scale(0.015625)"/>
      </defs>
      <use xlink:href="#DejaVuSans-6b"/>
     </g>
    </g>
   </g>
   <g id="matplotlib.axis_2">
    <g id="ytick_1">
     <g id="line2d_17">
      <defs>
       <path id="mf6664f671f" d="M 0 0 
L -3.5 0 
" style="stroke: #000000; stroke-width: 0.8"/>
      </defs>
      <g>
       <use xlink:href="#mf6664f671f" x="51.935" y="523.662324" style="stroke: #000000; stroke-width: 0.8"/>
      </g>
     </g>
     <g id="text_18">
      <!-- 1000 -->
      <g transform="translate(19.485 527.461542) scale(0.1 -0.1)">
       <use xlink:href="#DejaVuSans-31"/>
       <use xlink:href="#DejaVuSans-30" x="63.623047"/>
       <use xlink:href="#DejaVuSans-30" x="127.246094"/>
       <use xlink:href="#DejaVuSans-30" x="190.869141"/>
      </g>
     </g>
    </g>
    <g id="ytick_2">
     <g id="line2d_18">
      <g>
       <use xlink:href="#mf6664f671f" x="51.935" y="437.498256" style="stroke: #000000; stroke-width: 0.8"/>
      </g>
     </g>
     <g id="text_19">
      <!-- 1200 -->
      <g transform="translate(19.485 441.297475) scale(0.1 -0.1)">
       <use xlink:href="#DejaVuSans-31"/>
       <use xlink:href="#DejaVuSans-32" x="63.623047"/>
       <use xlink:href="#DejaVuSans-30" x="127.246094"/>
       <use xlink:href="#DejaVuSans-30" x="190.869141"/>
      </g>
     </g>
    </g>
    <g id="ytick_3">
     <g id="line2d_19">
      <g>
       <use xlink:href="#mf6664f671f" x="51.935" y="351.334189" style="stroke: #000000; stroke-width: 0.8"/>
      </g>
     </g>
     <g id="text_20">
      <!-- 1400 -->
      <g transform="translate(19.485 355.133408) scale(0.1 -0.1)">
       <use xlink:href="#DejaVuSans-31"/>
       <use xlink:href="#DejaVuSans-34" x="63.623047"/>
       <use xlink:href="#DejaVuSans-30" x="127.246094"/>
       <use xlink:href="#DejaVuSans-30" x="190.869141"/>
      </g>
     </g>
    </g>
    <g id="ytick_4">
     <g id="line2d_20">
      <g>
       <use xlink:href="#mf6664f671f" x="51.935" y="265.170122" style="stroke: #000000; stroke-width: 0.8"/>
      </g>
     </g>
     <g id="text_21">
      <!-- 1600 -->
      <g transform="translate(19.485 268.969341) scale(0.1 -0.1)">
       <use xlink:href="#DejaVuSans-31"/>
       <use xlink:href="#DejaVuSans-36" x="63.623047"/>
       <use xlink:href="#DejaVuSans-30" x="127.246094"/>
       <use xlink:href="#DejaVuSans-30" x="190.869141"/>
      </g>
     </g>
    </g>
    <g id="ytick_5">
     <g id="line2d_21">
      <g>
       <use xlink:href="#mf6664f671f" x="51.935" y="179.006055" style="stroke: #000000; stroke-width: 0.8"/>
      </g>
     </g>
     <g id="text_22">
      <!-- 1800 -->
      <g transform="translate(19.485 182.805273) scale(0.1 -0.1)">
       <use xlink:href="#DejaVuSans-31"/>
       <use xlink:href="#DejaVuSans-38" x="63.623047"/>
       <use xlink:href="#DejaVuSans-30" x="127.246094"/>
       <use xlink:href="#DejaVuSans-30" x="190.869141"/>
      </g>
     </g>
    </g>
    <g id="ytick_6">
     <g id="line2d_22">
      <g>
       <use xlink:href="#mf6664f671f" x="51.935" y="92.841987" style="stroke: #000000; stroke-width: 0.8"/>
      </g>
     </g>
     <g id="text_23">
      <!-- 2000 -->
      <g transform="translate(19.485 96.641206) scale(0.1 -0.1)">
       <use xlink:href="#DejaVuSans-32"/>
       <use xlink:href="#DejaVuSans-30" x="63.623047"/>
       <use xlink:href="#DejaVuSans-30" x="127.246094"/>
       <use xlink:href="#DejaVuSans-30" x="190.869141"/>
      </g>
     </g>
    </g>
    <g id="text_24">
     <!-- Rating -->
     <g transform="translate(12.1575 324.185625) rotate(-90) scale(0.16 -0.16)">
      <defs>
       <path id="DejaVuSans-52" d="M 2841 2188 
Q 3044 2119 3236 1894 
Q 3428 1669 3622 1275 
L 4263 0 
L 3584 0 
L 2988 1197 
Q 2756 1666 2539 1819 
Q 2322 1972 1947 1972 
L 1259 1972 
L 1259 0 
L 628 0 
L 628 4666 
L 2053 4666 
Q 2853 4666 3247 4331 
Q 3641 3997 3641 3322 
Q 3641 2881 3436 2590 
Q 3231 2300 2841 2188 
z
M 1259 4147 
L 1259 2491 
L 2053 2491 
Q 2509 2491 2742 2702 
Q 2975 2913 2975 3322 
Q 2975 3731 2742 3939 
Q 2509 4147 2053 4147 
L 1259 4147 
z
" transform="scale(0.015625)"/>
       <path id="DejaVuSans-61" d="M 2194 1759 
Q 1497 1759 1228 1600 
Q 959 1441 959 1056 
Q 959 750 1161 570 
Q 1363 391 1709 391 
Q 2188 391 2477 730 
Q 2766 1069 2766 1631 
L 2766 1759 
L 2194 1759 
z
M 3341 1997 
L 3341 0 
L 2766 0 
L 2766 531 
Q 2569 213 2275 61 
Q 1981 -91 1556 -91 
Q 1019 -91 701 211 
Q 384 513 384 1019 
Q 384 1609 779 1909 
Q 1175 2209 1959 2209 
L 2766 2209 
L 2766 2266 
Q 2766 2663 2505 2880 
Q 2244 3097 1772 3097 
Q 1472 3097 1187 3025 
Q 903 2953 641 2809 
L 641 3341 
Q 956 3463 1253 3523 
Q 1550 3584 1831 3584 
Q 2591 3584 2966 3190 
Q 3341 2797 3341 1997 
z
" transform="scale(0.015625)"/>
       <path id="DejaVuSans-74" d="M 1172 4494 
L 1172 3500 
L 2356 3500 
L 2356 3053 
L 1172 3053 
L 1172 1153 
Q 1172 725 1289 603 
Q 1406 481 1766 481 
L 2356 481 
L 2356 0 
L 1766 0 
Q 1100 0 847 248 
Q 594 497 594 1153 
L 594 3053 
L 172 3053 
L 172 3500 
L 594 3500 
L 594 4494 
L 1172 4494 
z
" transform="scale(0.015625)"/>
       <path id="DejaVuSans-69" d="M 603 3500 
L 1178 3500 
L 1178 0 
L 603 0 
L 603 3500 
z
M 603 4863 
L 1178 4863 
L 1178 4134 
L 603 4134 
L 603 4863 
z
" transform="scale(0.015625)"/>
       <path id="DejaVuSans-6e" d="M 3513 2113 
L 3513 0 
L 2938 0 
L 2938 2094 
Q 2938 2591 2744 2837 
Q 2550 3084 2163 3084 
Q 1697 3084 1428 2787 
Q 1159 2491 1159 1978 
L 1159 0 
L 581 0 
L 581 3500 
L 1159 3500 
L 1159 2956 
Q 1366 3272 1645 3428 
Q 1925 3584 2291 3584 
Q 2894 3584 3203 3211 
Q 3513 2838 3513 2113 
z
" transform="scale(0.015625)"/>
       <path id="DejaVuSans-67" d="M 2906 1791 
Q 2906 2416 2648 2759 
Q 2391 3103 1925 3103 
Q 1463 3103 1205 2759 
Q 947 2416 947 1791 
Q 947 1169 1205 825 
Q 1463 481 1925 481 
Q 2391 481 2648 825 
Q 2906 1169 2906 1791 
z
M 3481 434 
Q 3481 -459 3084 -895 
Q 2688 -1331 1869 -1331 
Q 1566 -1331 1297 -1286 
Q 1028 -1241 775 -1147 
L 775 -588 
Q 1028 -725 1275 -790 
Q 1522 -856 1778 -856 
Q 2344 -856 2625 -561 
Q 2906 -266 2906 331 
L 2906 616 
Q 2728 306 2450 153 
Q 2172 0 1784 0 
Q 1141 0 747 490 
Q 353 981 353 1791 
Q 353 2603 747 3093 
Q 1141 3584 1784 3584 
Q 2172 3584 2450 3431 
Q 2728 3278 2906 2969 
L 2906 3500 
L 3481 3500 
L 3481 434 
z
" transform="scale(0.015625)"/>
      </defs>
      <use xlink:href="#DejaVuSans-52"/>
      <use xlink:href="#DejaVuSans-61" x="67.232422"/>
      <use xlink:href="#DejaVuSans-74" x="128.511719"/>
      <use xlink:href="#DejaVuSans-69" x="167.720703"/>
      <use xlink:href="#DejaVuSans-6e" x="195.503906"/>
      <use xlink:href="#DejaVuSans-67" x="258.882812"/>
     </g>
    </g>
   </g>
   <g id="line2d_23">
    <path d="M 51.935 222.979516 
L 107.735 253.360806 
L 163.535 302.520716 
L 219.335 313.890401 
L 275.135 318.130734 
L 330.935 318.783093 
L 386.735 315.008731 
L 442.535 316.593031 
L 498.335 314.962134 
L 554.135 310.861591 
L 609.935 286.817503 
L 665.735 275.587609 
L 721.535 299.352115 
L 777.335 344.784259 
L 833.135 326.261923 
L 888.935 284.347858 
" clip-path="url(#pe5b3982af4)" style="fill: none; stroke: #1f77b4; stroke-width: 2; stroke-linecap: square"/>
    <defs>
     <path id="mb3156c20fe" d="M 0 2 
C 0.530406 2 1.03916 1.789267 1.414214 1.414214 
C 1.789267 1.03916 2 0.530406 2 0 
C 2 -0.530406 1.789267 -1.03916 1.414214 -1.414214 
C 1.03916 -1.789267 0.530406 -2 0 -2 
C -0.530406 -2 -1.03916 -1.789267 -1.414214 -1.414214 
C -1.789267 -1.03916 -2 -0.530406 -2 0 
C -2 0.530406 -1.789267 1.03916 -1.414214 1.414214 
C -1.03916 1.789267 -0.530406 2 0 2 
z
" style="stroke: #1f77b4"/>
    </defs>
    <g clip-path="url(#pe5b3982af4)">
     <use xlink:href="#mb3156c20fe" x="51.935" y="222.979516" style="fill: #1f77b4; stroke: #1f77b4"/>
     <use xlink:href="#mb3156c20fe" x="107.735" y="253.360806" style="fill: #1f77b4; stroke: #1f77b4"/>
     <use xlink:href="#mb3156c20fe" x="163.535" y="302.520716" style="fill: #1f77b4; stroke: #1f77b4"/>
     <use xlink:href="#mb3156c20fe" x="219.335" y="313.890401" style="fill: #1f77b4; stroke: #1f77b4"/>
     <use xlink:href="#mb3156c20fe" x="275.135" y="318.130734" style="fill: #1f77b4; stroke: #1f77b4"/>
     <use xlink:href="#mb3156c20fe" x="330.935" y="318.783093" style="fill: #1f77b4; stroke: #1f77b4"/>
     <use xlink:href="#mb3156c20fe" x="386.735" y="315.008731" style="fill: #1f77b4; stroke: #1f77b4"/>
     <use xlink:href="#mb3156c20fe" x="442.535" y="316.593031" style="fill: #1f77b4; stroke: #1f77b4"/>
     <use xlink:href="#mb3156c20fe" x="498.335" y="314.962134" style="fill: #1f77b4; stroke: #1f77b4"/>
     <use xlink:href="#mb3156c20fe" x="554.135" y="310.861591" style="fill: #1f77b4; stroke: #1f77b4"/>
     <use xlink:href="#mb3156c20fe" x="609.935" y="286.817503" style="fill: #1f77b4; stroke: #1f77b4"/>
     <use xlink:href="#mb3156c20fe" x="665.735" y="275.587609" style="fill: #1f77b4; stroke: #1f77b4"/>
     <use xlink:href="#mb3156c20fe" x="721.535" y="299.352115" style="fill: #1f77b4; stroke: #1f77b4"/>
     <use xlink:href="#mb3156c20fe" x="777.335" y="344.784259" style="fill: #1f77b4; stroke: #1f77b4"/>
     <use xlink:href="#mb3156c20fe" x="833.135" y="326.261923" style="fill: #1f77b4; stroke: #1f77b4"/>
     <use xlink:href="#mb3156c20fe" x="888.935" y="284.347858" style="fill: #1f77b4; stroke: #1f77b4"/>
    </g>
   </g>
   <g id="line2d_24">
    <path d="M 51.935 274.189697 
L 107.735 323.955368 
L 163.535 363.37649 
L 219.335 396.833187 
L 275.135 428.612389 
L 330.935 460.950756 
L 386.735 489.095387 
L 442.535 505.124779 
L 498.335 505.59075 
L 554.135 488.349834 
L 609.935 452.889463 
L 665.735 423.579905 
L 721.535 385.137322 
L 777.335 285.652576 
L 833.135 255.877048 
L 888.935 234.675381 
" clip-path="url(#pe5b3982af4)" style="fill: none; stroke-dasharray: 7.4,3.2; stroke-dashoffset: 0; stroke: #ff7f0e; stroke-width: 2"/>
    <defs>
     <path id="mcf4390a12a" d="M -0.49999 0.49999 
L 0.50001 0.49999 
L 0.50001 -0.50001 
L -0.49999 -0.50001 
z
"/>
    </defs>
    <g clip-path="url(#pe5b3982af4)">
     <use xlink:href="#mcf4390a12a" x="51.935" y="274.189697" style="fill: #ff7f0e"/>
     <use xlink:href="#mcf4390a12a" x="107.735" y="323.955368" style="fill: #ff7f0e"/>
     <use xlink:href="#mcf4390a12a" x="163.535" y="363.37649" style="fill: #ff7f0e"/>
     <use xlink:href="#mcf4390a12a" x="219.335" y="396.833187" style="fill: #ff7f0e"/>
     <use xlink:href="#mcf4390a12a" x="275.135" y="428.612389" style="fill: #ff7f0e"/>
     <use xlink:href="#mcf4390a12a" x="330.935" y="460.950756" style="fill: #ff7f0e"/>
     <use xlink:href="#mcf4390a12a" x="386.735" y="489.095387" style="fill: #ff7f0e"/>
     <use xlink:href="#mcf4390a12a" x="442.535" y="505.124779" style="fill: #ff7f0e"/>
     <use xlink:href="#mcf4390a12a" x="498.335" y="505.59075" style="fill: #ff7f0e"/>
     <use xlink:href="#mcf4390a12a" x="554.135" y="488.349834" style="fill: #ff7f0e"/>
     <use xlink:href="#mcf4390a12a" x="609.935" y="452.889463" style="fill: #ff7f0e"/>
     <use xlink:href="#mcf4390a12a" x="665.735" y="423.579905" style="fill: #ff7f0e"/>
     <use xlink:href="#mcf4390a12a" x="721.535" y="385.137322" style="fill: #ff7f0e"/>
     <use xlink:href="#mcf4390a12a" x="777.335" y="285.652576" style="fill: #ff7f0e"/>
     <use xlink:href="#mcf4390a12a" x="833.135" y="255.877048" style="fill: #ff7f0e"/>
     <use xlink:href="#mcf4390a12a" x="888.935" y="234.675381" style="fill: #ff7f0e"/>
    </g>
   </g>
   <g id="line2d_25">
    <path d="M 51.935 306.10869 
L 107.735 205.459018 
L 163.535 148.284412 
L 219.335 107.884752 
L 275.135 90.923418 
L 330.935 89.478909 
L 386.735 90.876821 
L 442.535 95.070557 
L 498.335 100.103041 
L 554.135 106.673228 
L 609.935 110.494188 
L 665.735 117.833226 
L 721.535 131.29978 
L 777.335 144.253765 
L 833.135 204.596972 
L 888.935 270.741514 
" clip-path="url(#pe5b3982af4)" style="fill: none; stroke-dasharray: 12.8,3.2,2,3.2; stroke-dashoffset: 0; stroke: #2ca02c; stroke-width: 2"/>
    <defs>
     <path id="m8d2da33779" d="M 0 4 
C 1.060812 4 2.078319 3.578535 2.828427 2.828427 
C 3.578535 2.078319 4 1.060812 4 0 
C 4 -1.060812 3.578535 -2.078319 2.828427 -2.828427 
C 2.078319 -3.578535 1.060812 -4 0 -4 
C -1.060812 -4 -2.078319 -3.578535 -2.828427 -2.828427 
C -3.578535 -2.078319 -4 -1.060812 -4 0 
C -4 1.060812 -3.578535 2.078319 -2.828427 2.828427 
C -2.078319 3.578535 -1.060812 4 0 4 
z
" style="stroke: #2ca02c"/>
    </defs>
    <g clip-path="url(#pe5b3982af4)">
     <use xlink:href="#m8d2da33779" x="51.935" y="306.10869" style="fill: #2ca02c; stroke: #2ca02c"/>
     <use xlink:href="#m8d2da33779" x="107.735" y="205.459018" style="fill: #2ca02c; stroke: #2ca02c"/>
     <use xlink:href="#m8d2da33779" x="163.535" y="148.284412" style="fill: #2ca02c; stroke: #2ca02c"/>
     <use xlink:href="#m8d2da33779" x="219.335" y="107.884752" style="fill: #2ca02c; stroke: #2ca02c"/>
     <use xlink:href="#m8d2da33779" x="275.135" y="90.923418" style="fill: #2ca02c; stroke: #2ca02c"/>
     <use xlink:href="#m8d2da33779" x="330.935" y="89.478909" style="fill: #2ca02c; stroke: #2ca02c"/>
     <use xlink:href="#m8d2da33779" x="386.735" y="90.876821" style="fill: #2ca02c; stroke: #2ca02c"/>
     <use xlink:href="#m8d2da33779" x="442.535" y="95.070557" style="fill: #2ca02c; stroke: #2ca02c"/>
     <use xlink:href="#m8d2da33779" x="498.335" y="100.103041" style="fill: #2ca02c; stroke: #2ca02c"/>
     <use xlink:href="#m8d2da33779" x="554.135" y="106.673228" style="fill: #2ca02c; stroke: #2ca02c"/>
     <use xlink:href="#m8d2da33779" x="609.935" y="110.494188" style="fill: #2ca02c; stroke: #2ca02c"/>
     <use xlink:href="#m8d2da33779" x="665.735" y="117.833226" style="fill: #2ca02c; stroke: #2ca02c"/>
     <use xlink:href="#m8d2da33779" x="721.535" y="131.29978" style="fill: #2ca02c; stroke: #2ca02c"/>
     <use xlink:href="#m8d2da33779" x="777.335" y="144.253765" style="fill: #2ca02c; stroke: #2ca02c"/>
     <use xlink:href="#m8d2da33779" x="833.135" y="204.596972" style="fill: #2ca02c; stroke: #2ca02c"/>
     <use xlink:href="#m8d2da33779" x="888.935" y="270.741514" style="fill: #2ca02c; stroke: #2ca02c"/>
    </g>
   </g>
   <g id="line2d_26">
    <path d="M 51.935 325.819251 
L 107.735 303.219672 
L 163.535 278.476627 
L 219.335 284.301261 
L 275.135 293.900258 
L 330.935 303.73224 
L 386.735 318.969482 
L 442.535 329.780002 
L 498.335 343.060167 
L 554.135 355.548182 
L 609.935 357.272274 
L 665.735 358.437201 
L 721.535 364.518118 
L 777.335 384.578157 
L 833.135 382.714274 
L 888.935 369.667095 
" clip-path="url(#pe5b3982af4)" style="fill: none; stroke-dasharray: 2,3.3; stroke-dashoffset: 0; stroke: #d62728; stroke-width: 2"/>
    <defs>
     <path id="m7bdf4744a8" d="M -0 4 
L 4 -4 
L -4 -4 
z
" style="stroke: #d62728; stroke-linejoin: miter"/>
    </defs>
    <g clip-path="url(#pe5b3982af4)">
     <use xlink:href="#m7bdf4744a8" x="51.935" y="325.819251" style="fill: #d62728; stroke: #d62728; stroke-linejoin: miter"/>
     <use xlink:href="#m7bdf4744a8" x="107.735" y="303.219672" style="fill: #d62728; stroke: #d62728; stroke-linejoin: miter"/>
     <use xlink:href="#m7bdf4744a8" x="163.535" y="278.476627" style="fill: #d62728; stroke: #d62728; stroke-linejoin: miter"/>
     <use xlink:href="#m7bdf4744a8" x="219.335" y="284.301261" style="fill: #d62728; stroke: #d62728; stroke-linejoin: miter"/>
     <use xlink:href="#m7bdf4744a8" x="275.135" y="293.900258" style="fill: #d62728; stroke: #d62728; stroke-linejoin: miter"/>
     <use xlink:href="#m7bdf4744a8" x="330.935" y="303.73224" style="fill: #d62728; stroke: #d62728; stroke-linejoin: miter"/>
     <use xlink:href="#m7bdf4744a8" x="386.735" y="318.969482" style="fill: #d62728; stroke: #d62728; stroke-linejoin: miter"/>
     <use xlink:href="#m7bdf4744a8" x="442.535" y="329.780002" style="fill: #d62728; stroke: #d62728; stroke-linejoin: miter"/>
     <use xlink:href="#m7bdf4744a8" x="498.335" y="343.060167" style="fill: #d62728; stroke: #d62728; stroke-linejoin: miter"/>
     <use xlink:href="#m7bdf4744a8" x="554.135" y="355.548182" style="fill: #d62728; stroke: #d62728; stroke-linejoin: miter"/>
     <use xlink:href="#m7bdf4744a8" x="609.935" y="357.272274" style="fill: #d62728; stroke: #d62728; stroke-linejoin: miter"/>
     <use xlink:href="#m7bdf4744a8" x="665.735" y="358.437201" style="fill: #d62728; stroke: #d62728; stroke-linejoin: miter"/>
     <use xlink:href="#m7bdf4744a8" x="721.535" y="364.518118" style="fill: #d62728; stroke: #d62728; stroke-linejoin: miter"/>
     <use xlink:href="#m7bdf4744a8" x="777.335" y="384.578157" style="fill: #d62728; stroke: #d62728; stroke-linejoin: miter"/>
     <use xlink:href="#m7bdf4744a8" x="833.135" y="382.714274" style="fill: #d62728; stroke: #d62728; stroke-linejoin: miter"/>
     <use xlink:href="#m7bdf4744a8" x="888.935" y="369.667095" style="fill: #d62728; stroke: #d62728; stroke-linejoin: miter"/>
    </g>
   </g>
   <g id="line2d_27">
    <path d="M 51.935 228.990538 
L 107.735 221.208827 
L 163.535 220.043901 
L 219.335 235.048157 
L 275.135 233.184275 
L 330.935 244.181183 
L 386.735 265.615836 
L 442.535 280.992869 
L 498.335 291.197628 
L 554.135 299.631697 
L 609.935 312.306101 
L 665.735 335.511442 
L 721.535 356.666512 
L 777.335 396.646799 
L 833.135 337.60831 
L 888.935 279.059091 
" clip-path="url(#pe5b3982af4)" style="fill: none; stroke: #9467bd; stroke-width: 2; stroke-linecap: square"/>
    <defs>
     <path id="mfc956aa347" d="M 0 -4 
L -4 4 
L 4 4 
z
" style="stroke: #9467bd; stroke-linejoin: miter"/>
    </defs>
    <g clip-path="url(#pe5b3982af4)">
     <use xlink:href="#mfc956aa347" x="51.935" y="228.990538" style="fill: #9467bd; stroke: #9467bd; stroke-linejoin: miter"/>
     <use xlink:href="#mfc956aa347" x="107.735" y="221.208827" style="fill: #9467bd; stroke: #9467bd; stroke-linejoin: miter"/>
     <use xlink:href="#mfc956aa347" x="163.535" y="220.043901" style="fill: #9467bd; stroke: #9467bd; stroke-linejoin: miter"/>
     <use xlink:href="#mfc956aa347" x="219.335" y="235.048157" style="fill: #9467bd; stroke: #9467bd; stroke-linejoin: miter"/>
     <use xlink:href="#mfc956aa347" x="275.135" y="233.184275" style="fill: #9467bd; stroke: #9467bd; stroke-linejoin: miter"/>
     <use xlink:href="#mfc956aa347" x="330.935" y="244.181183" style="fill: #9467bd; stroke: #9467bd; stroke-linejoin: miter"/>
     <use xlink:href="#mfc956aa347" x="386.735" y="265.615836" style="fill: #9467bd; stroke: #9467bd; stroke-linejoin: miter"/>
     <use xlink:href="#mfc956aa347" x="442.535" y="280.992869" style="fill: #9467bd; stroke: #9467bd; stroke-linejoin: miter"/>
     <use xlink:href="#mfc956aa347" x="498.335" y="291.197628" style="fill: #9467bd; stroke: #9467bd; stroke-linejoin: miter"/>
     <use xlink:href="#mfc956aa347" x="554.135" y="299.631697" style="fill: #9467bd; stroke: #9467bd; stroke-linejoin: miter"/>
     <use xlink:href="#mfc956aa347" x="609.935" y="312.306101" style="fill: #9467bd; stroke: #9467bd; stroke-linejoin: miter"/>
     <use xlink:href="#mfc956aa347" x="665.735" y="335.511442" style="fill: #9467bd; stroke: #9467bd; stroke-linejoin: miter"/>
     <use xlink:href="#mfc956aa347" x="721.535" y="356.666512" style="fill: #9467bd; stroke: #9467bd; stroke-linejoin: miter"/>
     <use xlink:href="#mfc956aa347" x="777.335" y="396.646799" style="fill: #9467bd; stroke: #9467bd; stroke-linejoin: miter"/>
     <use xlink:href="#mfc956aa347" x="833.135" y="337.60831" style="fill: #9467bd; stroke: #9467bd; stroke-linejoin: miter"/>
     <use xlink:href="#mfc956aa347" x="888.935" y="279.059091" style="fill: #9467bd; stroke: #9467bd; stroke-linejoin: miter"/>
    </g>
   </g>
   <g id="line2d_28">
    <path d="M 51.935 244.134586 
L 107.735 268.691242 
L 163.535 253.407403 
L 219.335 227.825611 
L 275.135 205.692003 
L 330.935 192.551629 
L 386.735 186.49401 
L 442.535 193.669959 
L 498.335 206.111377 
L 554.135 216.036553 
L 609.935 233.184275 
L 665.735 242.690077 
L 721.535 245.34611 
L 777.335 274.003309 
L 833.135 291.570404 
L 888.935 304.221509 
" clip-path="url(#pe5b3982af4)" style="fill: none; stroke-dasharray: 7.4,3.2; stroke-dashoffset: 0; stroke: #8c564b; stroke-width: 2"/>
    <defs>
     <path id="mb7235a732c" d="M -4 -0 
L 4 4 
L 4 -4 
z
" style="stroke: #8c564b; stroke-linejoin: miter"/>
    </defs>
    <g clip-path="url(#pe5b3982af4)">
     <use xlink:href="#mb7235a732c" x="51.935" y="244.134586" style="fill: #8c564b; stroke: #8c564b; stroke-linejoin: miter"/>
     <use xlink:href="#mb7235a732c" x="107.735" y="268.691242" style="fill: #8c564b; stroke: #8c564b; stroke-linejoin: miter"/>
     <use xlink:href="#mb7235a732c" x="163.535" y="253.407403" style="fill: #8c564b; stroke: #8c564b; stroke-linejoin: miter"/>
     <use xlink:href="#mb7235a732c" x="219.335" y="227.825611" style="fill: #8c564b; stroke: #8c564b; stroke-linejoin: miter"/>
     <use xlink:href="#mb7235a732c" x="275.135" y="205.692003" style="fill: #8c564b; stroke: #8c564b; stroke-linejoin: miter"/>
     <use xlink:href="#mb7235a732c" x="330.935" y="192.551629" style="fill: #8c564b; stroke: #8c564b; stroke-linejoin: miter"/>
     <use xlink:href="#mb7235a732c" x="386.735" y="186.49401" style="fill: #8c564b; stroke: #8c564b; stroke-linejoin: miter"/>
     <use xlink:href="#mb7235a732c" x="442.535" y="193.669959" style="fill: #8c564b; stroke: #8c564b; stroke-linejoin: miter"/>
     <use xlink:href="#mb7235a732c" x="498.335" y="206.111377" style="fill: #8c564b; stroke: #8c564b; stroke-linejoin: miter"/>
     <use xlink:href="#mb7235a732c" x="554.135" y="216.036553" style="fill: #8c564b; stroke: #8c564b; stroke-linejoin: miter"/>
     <use xlink:href="#mb7235a732c" x="609.935" y="233.184275" style="fill: #8c564b; stroke: #8c564b; stroke-linejoin: miter"/>
     <use xlink:href="#mb7235a732c" x="665.735" y="242.690077" style="fill: #8c564b; stroke: #8c564b; stroke-linejoin: miter"/>
     <use xlink:href="#mb7235a732c" x="721.535" y="245.34611" style="fill: #8c564b; stroke: #8c564b; stroke-linejoin: miter"/>
     <use xlink:href="#mb7235a732c" x="777.335" y="274.003309" style="fill: #8c564b; stroke: #8c564b; stroke-linejoin: miter"/>
     <use xlink:href="#mb7235a732c" x="833.135" y="291.570404" style="fill: #8c564b; stroke: #8c564b; stroke-linejoin: miter"/>
     <use xlink:href="#mb7235a732c" x="888.935" y="304.221509" style="fill: #8c564b; stroke: #8c564b; stroke-linejoin: miter"/>
    </g>
   </g>
   <g id="line2d_29">
    <path d="M 51.935 315.101925 
L 107.735 317.524973 
L 163.535 329.640211 
L 219.335 338.447057 
L 275.135 357.412065 
L 330.935 372.276531 
L 386.735 389.331058 
L 442.535 398.044711 
L 498.335 396.180828 
L 554.135 396.600201 
L 609.935 386.721622 
L 665.735 350.375907 
L 721.535 324.141757 
L 777.335 279.128986 
L 833.135 207.346199 
L 888.935 222.350456 
" clip-path="url(#pe5b3982af4)" style="fill: none; stroke-dasharray: 12.8,3.2,2,3.2; stroke-dashoffset: 0; stroke: #e377c2; stroke-width: 2"/>
    <defs>
     <path id="m18fa1a6f96" d="M 4 0 
L -4 -4 
L -4 4 
z
" style="stroke: #e377c2; stroke-linejoin: miter"/>
    </defs>
    <g clip-path="url(#pe5b3982af4)">
     <use xlink:href="#m18fa1a6f96" x="51.935" y="315.101925" style="fill: #e377c2; stroke: #e377c2; stroke-linejoin: miter"/>
     <use xlink:href="#m18fa1a6f96" x="107.735" y="317.524973" style="fill: #e377c2; stroke: #e377c2; stroke-linejoin: miter"/>
     <use xlink:href="#m18fa1a6f96" x="163.535" y="329.640211" style="fill: #e377c2; stroke: #e377c2; stroke-linejoin: miter"/>
     <use xlink:href="#m18fa1a6f96" x="219.335" y="338.447057" style="fill: #e377c2; stroke: #e377c2; stroke-linejoin: miter"/>
     <use xlink:href="#m18fa1a6f96" x="275.135" y="357.412065" style="fill: #e377c2; stroke: #e377c2; stroke-linejoin: miter"/>
     <use xlink:href="#m18fa1a6f96" x="330.935" y="372.276531" style="fill: #e377c2; stroke: #e377c2; stroke-linejoin: miter"/>
     <use xlink:href="#m18fa1a6f96" x="386.735" y="389.331058" style="fill: #e377c2; stroke: #e377c2; stroke-linejoin: miter"/>
     <use xlink:href="#m18fa1a6f96" x="442.535" y="398.044711" style="fill: #e377c2; stroke: #e377c2; stroke-linejoin: miter"/>
     <use xlink:href="#m18fa1a6f96" x="498.335" y="396.180828" style="fill: #e377c2; stroke: #e377c2; stroke-linejoin: miter"/>
     <use xlink:href="#m18fa1a6f96" x="554.135" y="396.600201" style="fill: #e377c2; stroke: #e377c2; stroke-linejoin: miter"/>
     <use xlink:href="#m18fa1a6f96" x="609.935" y="386.721622" style="fill: #e377c2; stroke: #e377c2; stroke-linejoin: miter"/>
     <use xlink:href="#m18fa1a6f96" x="665.735" y="350.375907" style="fill: #e377c2; stroke: #e377c2; stroke-linejoin: miter"/>
     <use xlink:href="#m18fa1a6f96" x="721.535" y="324.141757" style="fill: #e377c2; stroke: #e377c2; stroke-linejoin: miter"/>
     <use xlink:href="#m18fa1a6f96" x="777.335" y="279.128986" style="fill: #e377c2; stroke: #e377c2; stroke-linejoin: miter"/>
     <use xlink:href="#m18fa1a6f96" x="833.135" y="207.346199" style="fill: #e377c2; stroke: #e377c2; stroke-linejoin: miter"/>
     <use xlink:href="#m18fa1a6f96" x="888.935" y="222.350456" style="fill: #e377c2; stroke: #e377c2; stroke-linejoin: miter"/>
    </g>
   </g>
   <g id="line2d_30">
    <path d="M 51.935 507.314841 
L 107.735 503.447284 
L 163.535 490.400105 
L 219.335 473.671756 
L 275.135 460.484785 
L 330.935 426.701909 
L 386.735 377.635194 
L 442.535 338.447057 
L 498.335 317.757958 
L 554.135 321.765306 
L 609.935 345.855991 
L 665.735 368.758452 
L 721.535 401.026923 
L 777.335 414.866253 
L 833.135 456.966706 
L 888.935 462.348668 
" clip-path="url(#pe5b3982af4)" style="fill: none; stroke-dasharray: 2,3.3; stroke-dashoffset: 0; stroke: #bcbd22; stroke-width: 2"/>
    <defs>
     <path id="ma1388a3816" d="M -4 4 
L 4 4 
L 4 -4 
L -4 -4 
z
" style="stroke: #bcbd22; stroke-linejoin: miter"/>
    </defs>
    <g clip-path="url(#pe5b3982af4)">
     <use xlink:href="#ma1388a3816" x="51.935" y="507.314841" style="fill: #bcbd22; stroke: #bcbd22; stroke-linejoin: miter"/>
     <use xlink:href="#ma1388a3816" x="107.735" y="503.447284" style="fill: #bcbd22; stroke: #bcbd22; stroke-linejoin: miter"/>
     <use xlink:href="#ma1388a3816" x="163.535" y="490.400105" style="fill: #bcbd22; stroke: #bcbd22; stroke-linejoin: miter"/>
     <use xlink:href="#ma1388a3816" x="219.335" y="473.671756" style="fill: #bcbd22; stroke: #bcbd22; stroke-linejoin: miter"/>
     <use xlink:href="#ma1388a3816" x="275.135" y="460.484785" style="fill: #bcbd22; stroke: #bcbd22; stroke-linejoin: miter"/>
     <use xlink:href="#ma1388a3816" x="330.935" y="426.701909" style="fill: #bcbd22; stroke: #bcbd22; stroke-linejoin: miter"/>
     <use xlink:href="#ma1388a3816" x="386.735" y="377.635194" style="fill: #bcbd22; stroke: #bcbd22; stroke-linejoin: miter"/>
     <use xlink:href="#ma1388a3816" x="442.535" y="338.447057" style="fill: #bcbd22; stroke: #bcbd22; stroke-linejoin: miter"/>
     <use xlink:href="#ma1388a3816" x="498.335" y="317.757958" style="fill: #bcbd22; stroke: #bcbd22; stroke-linejoin: miter"/>
     <use xlink:href="#ma1388a3816" x="554.135" y="321.765306" style="fill: #bcbd22; stroke: #bcbd22; stroke-linejoin: miter"/>
     <use xlink:href="#ma1388a3816" x="609.935" y="345.855991" style="fill: #bcbd22; stroke: #bcbd22; stroke-linejoin: miter"/>
     <use xlink:href="#ma1388a3816" x="665.735" y="368.758452" style="fill: #bcbd22; stroke: #bcbd22; stroke-linejoin: miter"/>
     <use xlink:href="#ma1388a3816" x="721.535" y="401.026923" style="fill: #bcbd22; stroke: #bcbd22; stroke-linejoin: miter"/>
     <use xlink:href="#ma1388a3816" x="777.335" y="414.866253" style="fill: #bcbd22; stroke: #bcbd22; stroke-linejoin: miter"/>
     <use xlink:href="#ma1388a3816" x="833.135" y="456.966706" style="fill: #bcbd22; stroke: #bcbd22; stroke-linejoin: miter"/>
     <use xlink:href="#ma1388a3816" x="888.935" y="462.348668" style="fill: #bcbd22; stroke: #bcbd22; stroke-linejoin: miter"/>
    </g>
   </g>
   <g id="line2d_31">
    <path d="M 51.935 349.630354 
L 107.735 377.402208 
L 163.535 388.119535 
L 219.335 396.367216 
L 275.135 385.929472 
L 330.935 365.613149 
L 386.735 341.242881 
L 442.535 316.546434 
L 498.335 299.305518 
L 554.135 278.802807 
L 609.935 288.727983 
L 665.735 301.49558 
L 721.535 266.780763 
L 777.335 250.355295 
L 833.135 311.327562 
L 888.935 346.857828 
" clip-path="url(#pe5b3982af4)" style="fill: none; stroke: #17becf; stroke-width: 2; stroke-linecap: square"/>
    <defs>
     <path id="m2462d875e1" d="M 0 -4 
L -3.804226 -1.236068 
L -2.351141 3.236068 
L 2.351141 3.236068 
L 3.804226 -1.236068 
z
" style="stroke: #17becf; stroke-linejoin: miter"/>
    </defs>
    <g clip-path="url(#pe5b3982af4)">
     <use xlink:href="#m2462d875e1" x="51.935" y="349.630354" style="fill: #17becf; stroke: #17becf; stroke-linejoin: miter"/>
     <use xlink:href="#m2462d875e1" x="107.735" y="377.402208" style="fill: #17becf; stroke: #17becf; stroke-linejoin: miter"/>
     <use xlink:href="#m2462d875e1" x="163.535" y="388.119535" style="fill: #17becf; stroke: #17becf; stroke-linejoin: miter"/>
     <use xlink:href="#m2462d875e1" x="219.335" y="396.367216" style="fill: #17becf; stroke: #17becf; stroke-linejoin: miter"/>
     <use xlink:href="#m2462d875e1" x="275.135" y="385.929472" style="fill: #17becf; stroke: #17becf; stroke-linejoin: miter"/>
     <use xlink:href="#m2462d875e1" x="330.935" y="365.613149" style="fill: #17becf; stroke: #17becf; stroke-linejoin: miter"/>
     <use xlink:href="#m2462d875e1" x="386.735" y="341.242881" style="fill: #17becf; stroke: #17becf; stroke-linejoin: miter"/>
     <use xlink:href="#m2462d875e1" x="442.535" y="316.546434" style="fill: #17becf; stroke: #17becf; stroke-linejoin: miter"/>
     <use xlink:href="#m2462d875e1" x="498.335" y="299.305518" style="fill: #17becf; stroke: #17becf; stroke-linejoin: miter"/>
     <use xlink:href="#m2462d875e1" x="554.135" y="278.802807" style="fill: #17becf; stroke: #17becf; stroke-linejoin: miter"/>
     <use xlink:href="#m2462d875e1" x="609.935" y="288.727983" style="fill: #17becf; stroke: #17becf; stroke-linejoin: miter"/>
     <use xlink:href="#m2462d875e1" x="665.735" y="301.49558" style="fill: #17becf; stroke: #17becf; stroke-linejoin: miter"/>
     <use xlink:href="#m2462d875e1" x="721.535" y="266.780763" style="fill: #17becf; stroke: #17becf; stroke-linejoin: miter"/>
     <use xlink:href="#m2462d875e1" x="777.335" y="250.355295" style="fill: #17becf; stroke: #17becf; stroke-linejoin: miter"/>
     <use xlink:href="#m2462d875e1" x="833.135" y="311.327562" style="fill: #17becf; stroke: #17becf; stroke-linejoin: miter"/>
     <use xlink:href="#m2462d875e1" x="888.935" y="346.857828" style="fill: #17becf; stroke: #17becf; stroke-linejoin: miter"/>
    </g>
   </g>
   <g id="line2d_32">
    <path d="M 51.935 575.596875 
L 51.935 21.196875 
" clip-path="url(#pe5b3982af4)" style="fill: none; stroke-dasharray: 3.7,1.6; stroke-dashoffset: 0; stroke: #000000; stroke-opacity: 0.5"/>
   </g>
   <g id="line2d_33">
    <path d="M 107.735 575.596875 
L 107.735 21.196875 
" clip-path="url(#pe5b3982af4)" style="fill: none; stroke-dasharray: 3.7,1.6; stroke-dashoffset: 0; stroke: #000000; stroke-opacity: 0.5"/>
   </g>
   <g id="line2d_34">
    <path d="M 163.535 575.596875 
L 163.535 21.196875 
" clip-path="url(#pe5b3982af4)" style="fill: none; stroke-dasharray: 3.7,1.6; stroke-dashoffset: 0; stroke: #000000; stroke-opacity: 0.5"/>
   </g>
   <g id="line2d_35">
    <path d="M 219.335 575.596875 
L 219.335 21.196875 
" clip-path="url(#pe5b3982af4)" style="fill: none; stroke-dasharray: 3.7,1.6; stroke-dashoffset: 0; stroke: #000000; stroke-opacity: 0.5"/>
   </g>
   <g id="line2d_36">
    <path d="M 275.135 575.596875 
L 275.135 21.196875 
" clip-path="url(#pe5b3982af4)" style="fill: none; stroke-dasharray: 3.7,1.6; stroke-dashoffset: 0; stroke: #000000; stroke-opacity: 0.5"/>
   </g>
   <g id="line2d_37">
    <path d="M 330.935 575.596875 
L 330.935 21.196875 
" clip-path="url(#pe5b3982af4)" style="fill: none; stroke-dasharray: 3.7,1.6; stroke-dashoffset: 0; stroke: #000000; stroke-opacity: 0.5"/>
   </g>
   <g id="line2d_38">
    <path d="M 386.735 575.596875 
L 386.735 21.196875 
" clip-path="url(#pe5b3982af4)" style="fill: none; stroke-dasharray: 3.7,1.6; stroke-dashoffset: 0; stroke: #000000; stroke-opacity: 0.5"/>
   </g>
   <g id="line2d_39">
    <path d="M 442.535 575.596875 
L 442.535 21.196875 
" clip-path="url(#pe5b3982af4)" style="fill: none; stroke-dasharray: 3.7,1.6; stroke-dashoffset: 0; stroke: #000000; stroke-opacity: 0.5"/>
   </g>
   <g id="line2d_40">
    <path d="M 498.335 575.596875 
L 498.335 21.196875 
" clip-path="url(#pe5b3982af4)" style="fill: none; stroke-dasharray: 3.7,1.6; stroke-dashoffset: 0; stroke: #000000; stroke-opacity: 0.5"/>
   </g>
   <g id="line2d_41">
    <path d="M 554.135 575.596875 
L 554.135 21.196875 
" clip-path="url(#pe5b3982af4)" style="fill: none; stroke-dasharray: 3.7,1.6; stroke-dashoffset: 0; stroke: #000000; stroke-opacity: 0.5"/>
   </g>
   <g id="line2d_42">
    <path d="M 609.935 575.596875 
L 609.935 21.196875 
" clip-path="url(#pe5b3982af4)" style="fill: none; stroke-dasharray: 3.7,1.6; stroke-dashoffset: 0; stroke: #000000; stroke-opacity: 0.5"/>
   </g>
   <g id="line2d_43">
    <path d="M 665.735 575.596875 
L 665.735 21.196875 
" clip-path="url(#pe5b3982af4)" style="fill: none; stroke-dasharray: 3.7,1.6; stroke-dashoffset: 0; stroke: #000000; stroke-opacity: 0.5"/>
   </g>
   <g id="line2d_44">
    <path d="M 721.535 575.596875 
L 721.535 21.196875 
" clip-path="url(#pe5b3982af4)" style="fill: none; stroke-dasharray: 3.7,1.6; stroke-dashoffset: 0; stroke: #000000; stroke-opacity: 0.5"/>
   </g>
   <g id="line2d_45">
    <path d="M 777.335 575.596875 
L 777.335 21.196875 
" clip-path="url(#pe5b3982af4)" style="fill: none; stroke-dasharray: 3.7,1.6; stroke-dashoffset: 0; stroke: #000000; stroke-opacity: 0.5"/>
   </g>
   <g id="line2d_46">
    <path d="M 833.135 575.596875 
L 833.135 21.196875 
" clip-path="url(#pe5b3982af4)" style="fill: none; stroke-dasharray: 3.7,1.6; stroke-dashoffset: 0; stroke: #000000; stroke-opacity: 0.5"/>
   </g>
   <g id="line2d_47">
    <path d="M 888.935 575.596875 
L 888.935 21.196875 
" clip-path="url(#pe5b3982af4)" style="fill: none; stroke-dasharray: 3.7,1.6; stroke-dashoffset: 0; stroke: #000000; stroke-opacity: 0.5"/>
   </g>
   <g id="patch_3">
    <path d="M 51.935 575.596875 
L 51.935 21.196875 
" style="fill: none; stroke: #000000; stroke-width: 0.8; stroke-linejoin: miter; stroke-linecap: square"/>
   </g>
   <g id="patch_4">
    <path d="M 888.935 575.596875 
L 888.935 21.196875 
" style="fill: none; stroke: #000000; stroke-width: 0.8; stroke-linejoin: miter; stroke-linecap: square"/>
   </g>
   <g id="patch_5">
    <path d="M 51.935 575.596875 
L 888.935 575.596875 
" style="fill: none; stroke: #000000; stroke-width: 0.8; stroke-linejoin: miter; stroke-linecap: square"/>
   </g>
   <g id="patch_6">
    <path d="M 51.935 21.196875 
L 888.935 21.196875 
" style="fill: none; stroke: #000000; stroke-width: 0.8; stroke-linejoin: miter; stroke-linecap: square"/>
   </g>
   <g id="text_25">
    <!-- CEC 2017 Non-Rotated Shifted Rating Interval bands -->
    <g transform="translate(206.863125 15.196875) scale(0.2 -0.2)">
     <defs>
      <path id="DejaVuSans-43" d="M 4122 4306 
L 4122 3641 
Q 3803 3938 3442 4084 
Q 3081 4231 2675 4231 
Q 1875 4231 1450 3742 
Q 1025 3253 1025 2328 
Q 1025 1406 1450 917 
Q 1875 428 2675 428 
Q 3081 428 3442 575 
Q 3803 722 4122 1019 
L 4122 359 
Q 3791 134 3420 21 
Q 3050 -91 2638 -91 
Q 1578 -91 968 557 
Q 359 1206 359 2328 
Q 359 3453 968 4101 
Q 1578 4750 2638 4750 
Q 3056 4750 3426 4639 
Q 3797 4528 4122 4306 
z
" transform="scale(0.015625)"/>
      <path id="DejaVuSans-45" d="M 628 4666 
L 3578 4666 
L 3578 4134 
L 1259 4134 
L 1259 2753 
L 3481 2753 
L 3481 2222 
L 1259 2222 
L 1259 531 
L 3634 531 
L 3634 0 
L 628 0 
L 628 4666 
z
" transform="scale(0.015625)"/>
      <path id="DejaVuSans-20" transform="scale(0.015625)"/>
      <path id="DejaVuSans-4e" d="M 628 4666 
L 1478 4666 
L 3547 763 
L 3547 4666 
L 4159 4666 
L 4159 0 
L 3309 0 
L 1241 3903 
L 1241 0 
L 628 0 
L 628 4666 
z
" transform="scale(0.015625)"/>
      <path id="DejaVuSans-6f" d="M 1959 3097 
Q 1497 3097 1228 2736 
Q 959 2375 959 1747 
Q 959 1119 1226 758 
Q 1494 397 1959 397 
Q 2419 397 2687 759 
Q 2956 1122 2956 1747 
Q 2956 2369 2687 2733 
Q 2419 3097 1959 3097 
z
M 1959 3584 
Q 2709 3584 3137 3096 
Q 3566 2609 3566 1747 
Q 3566 888 3137 398 
Q 2709 -91 1959 -91 
Q 1206 -91 779 398 
Q 353 888 353 1747 
Q 353 2609 779 3096 
Q 1206 3584 1959 3584 
z
" transform="scale(0.015625)"/>
      <path id="DejaVuSans-2d" d="M 313 2009 
L 1997 2009 
L 1997 1497 
L 313 1497 
L 313 2009 
z
" transform="scale(0.015625)"/>
      <path id="DejaVuSans-65" d="M 3597 1894 
L 3597 1613 
L 953 1613 
Q 991 1019 1311 708 
Q 1631 397 2203 397 
Q 2534 397 2845 478 
Q 3156 559 3463 722 
L 3463 178 
Q 3153 47 2828 -22 
Q 2503 -91 2169 -91 
Q 1331 -91 842 396 
Q 353 884 353 1716 
Q 353 2575 817 3079 
Q 1281 3584 2069 3584 
Q 2775 3584 3186 3129 
Q 3597 2675 3597 1894 
z
M 3022 2063 
Q 3016 2534 2758 2815 
Q 2500 3097 2075 3097 
Q 1594 3097 1305 2825 
Q 1016 2553 972 2059 
L 3022 2063 
z
" transform="scale(0.015625)"/>
      <path id="DejaVuSans-64" d="M 2906 2969 
L 2906 4863 
L 3481 4863 
L 3481 0 
L 2906 0 
L 2906 525 
Q 2725 213 2448 61 
Q 2172 -91 1784 -91 
Q 1150 -91 751 415 
Q 353 922 353 1747 
Q 353 2572 751 3078 
Q 1150 3584 1784 3584 
Q 2172 3584 2448 3432 
Q 2725 3281 2906 2969 
z
M 947 1747 
Q 947 1113 1208 752 
Q 1469 391 1925 391 
Q 2381 391 2643 752 
Q 2906 1113 2906 1747 
Q 2906 2381 2643 2742 
Q 2381 3103 1925 3103 
Q 1469 3103 1208 2742 
Q 947 2381 947 1747 
z
" transform="scale(0.015625)"/>
      <path id="DejaVuSans-53" d="M 3425 4513 
L 3425 3897 
Q 3066 4069 2747 4153 
Q 2428 4238 2131 4238 
Q 1616 4238 1336 4038 
Q 1056 3838 1056 3469 
Q 1056 3159 1242 3001 
Q 1428 2844 1947 2747 
L 2328 2669 
Q 3034 2534 3370 2195 
Q 3706 1856 3706 1288 
Q 3706 609 3251 259 
Q 2797 -91 1919 -91 
Q 1588 -91 1214 -16 
Q 841 59 441 206 
L 441 856 
Q 825 641 1194 531 
Q 1563 422 1919 422 
Q 2459 422 2753 634 
Q 3047 847 3047 1241 
Q 3047 1584 2836 1778 
Q 2625 1972 2144 2069 
L 1759 2144 
Q 1053 2284 737 2584 
Q 422 2884 422 3419 
Q 422 4038 858 4394 
Q 1294 4750 2059 4750 
Q 2388 4750 2728 4690 
Q 3069 4631 3425 4513 
z
" transform="scale(0.015625)"/>
      <path id="DejaVuSans-68" d="M 3513 2113 
L 3513 0 
L 2938 0 
L 2938 2094 
Q 2938 2591 2744 2837 
Q 2550 3084 2163 3084 
Q 1697 3084 1428 2787 
Q 1159 2491 1159 1978 
L 1159 0 
L 581 0 
L 581 4863 
L 1159 4863 
L 1159 2956 
Q 1366 3272 1645 3428 
Q 1925 3584 2291 3584 
Q 2894 3584 3203 3211 
Q 3513 2838 3513 2113 
z
" transform="scale(0.015625)"/>
      <path id="DejaVuSans-66" d="M 2375 4863 
L 2375 4384 
L 1825 4384 
Q 1516 4384 1395 4259 
Q 1275 4134 1275 3809 
L 1275 3500 
L 2222 3500 
L 2222 3053 
L 1275 3053 
L 1275 0 
L 697 0 
L 697 3053 
L 147 3053 
L 147 3500 
L 697 3500 
L 697 3744 
Q 697 4328 969 4595 
Q 1241 4863 1831 4863 
L 2375 4863 
z
" transform="scale(0.015625)"/>
      <path id="DejaVuSans-49" d="M 628 4666 
L 1259 4666 
L 1259 0 
L 628 0 
L 628 4666 
z
" transform="scale(0.015625)"/>
      <path id="DejaVuSans-72" d="M 2631 2963 
Q 2534 3019 2420 3045 
Q 2306 3072 2169 3072 
Q 1681 3072 1420 2755 
Q 1159 2438 1159 1844 
L 1159 0 
L 581 0 
L 581 3500 
L 1159 3500 
L 1159 2956 
Q 1341 3275 1631 3429 
Q 1922 3584 2338 3584 
Q 2397 3584 2469 3576 
Q 2541 3569 2628 3553 
L 2631 2963 
z
" transform="scale(0.015625)"/>
      <path id="DejaVuSans-76" d="M 191 3500 
L 800 3500 
L 1894 563 
L 2988 3500 
L 3597 3500 
L 2284 0 
L 1503 0 
L 191 3500 
z
" transform="scale(0.015625)"/>
      <path id="DejaVuSans-6c" d="M 603 4863 
L 1178 4863 
L 1178 0 
L 603 0 
L 603 4863 
z
" transform="scale(0.015625)"/>
      <path id="DejaVuSans-62" d="M 3116 1747 
Q 3116 2381 2855 2742 
Q 2594 3103 2138 3103 
Q 1681 3103 1420 2742 
Q 1159 2381 1159 1747 
Q 1159 1113 1420 752 
Q 1681 391 2138 391 
Q 2594 391 2855 752 
Q 3116 1113 3116 1747 
z
M 1159 2969 
Q 1341 3281 1617 3432 
Q 1894 3584 2278 3584 
Q 2916 3584 3314 3078 
Q 3713 2572 3713 1747 
Q 3713 922 3314 415 
Q 2916 -91 2278 -91 
Q 1894 -91 1617 61 
Q 1341 213 1159 525 
L 1159 0 
L 581 0 
L 581 4863 
L 1159 4863 
L 1159 2969 
z
" transform="scale(0.015625)"/>
      <path id="DejaVuSans-73" d="M 2834 3397 
L 2834 2853 
Q 2591 2978 2328 3040 
Q 2066 3103 1784 3103 
Q 1356 3103 1142 2972 
Q 928 2841 928 2578 
Q 928 2378 1081 2264 
Q 1234 2150 1697 2047 
L 1894 2003 
Q 2506 1872 2764 1633 
Q 3022 1394 3022 966 
Q 3022 478 2636 193 
Q 2250 -91 1575 -91 
Q 1294 -91 989 -36 
Q 684 19 347 128 
L 347 722 
Q 666 556 975 473 
Q 1284 391 1588 391 
Q 1994 391 2212 530 
Q 2431 669 2431 922 
Q 2431 1156 2273 1281 
Q 2116 1406 1581 1522 
L 1381 1569 
Q 847 1681 609 1914 
Q 372 2147 372 2553 
Q 372 3047 722 3315 
Q 1072 3584 1716 3584 
Q 2034 3584 2315 3537 
Q 2597 3491 2834 3397 
z
" transform="scale(0.015625)"/>
     </defs>
     <use xlink:href="#DejaVuSans-43"/>
     <use xlink:href="#DejaVuSans-45" x="69.824219"/>
     <use xlink:href="#DejaVuSans-43" x="133.007812"/>
     <use xlink:href="#DejaVuSans-20" x="202.832031"/>
     <use xlink:href="#DejaVuSans-32" x="234.619141"/>
     <use xlink:href="#DejaVuSans-30" x="298.242188"/>
     <use xlink:href="#DejaVuSans-31" x="361.865234"/>
     <use xlink:href="#DejaVuSans-37" x="425.488281"/>
     <use xlink:href="#DejaVuSans-20" x="489.111328"/>
     <use xlink:href="#DejaVuSans-4e" x="520.898438"/>
     <use xlink:href="#DejaVuSans-6f" x="595.703125"/>
     <use xlink:href="#DejaVuSans-6e" x="656.884766"/>
     <use xlink:href="#DejaVuSans-2d" x="720.263672"/>
     <use xlink:href="#DejaVuSans-52" x="756.347656"/>
     <use xlink:href="#DejaVuSans-6f" x="821.330078"/>
     <use xlink:href="#DejaVuSans-74" x="882.511719"/>
     <use xlink:href="#DejaVuSans-61" x="921.720703"/>
     <use xlink:href="#DejaVuSans-74" x="983"/>
     <use xlink:href="#DejaVuSans-65" x="1022.208984"/>
     <use xlink:href="#DejaVuSans-64" x="1083.732422"/>
     <use xlink:href="#DejaVuSans-20" x="1147.208984"/>
     <use xlink:href="#DejaVuSans-53" x="1178.996094"/>
     <use xlink:href="#DejaVuSans-68" x="1242.472656"/>
     <use xlink:href="#DejaVuSans-69" x="1305.851562"/>
     <use xlink:href="#DejaVuSans-66" x="1333.634766"/>
     <use xlink:href="#DejaVuSans-74" x="1367.089844"/>
     <use xlink:href="#DejaVuSans-65" x="1406.298828"/>
     <use xlink:href="#DejaVuSans-64" x="1467.822266"/>
     <use xlink:href="#DejaVuSans-20" x="1531.298828"/>
     <use xlink:href="#DejaVuSans-52" x="1563.085938"/>
     <use xlink:href="#DejaVuSans-61" x="1630.318359"/>
     <use xlink:href="#DejaVuSans-74" x="1691.597656"/>
     <use xlink:href="#DejaVuSans-69" x="1730.806641"/>
     <use xlink:href="#DejaVuSans-6e" x="1758.589844"/>
     <use xlink:href="#DejaVuSans-67" x="1821.96875"/>
     <use xlink:href="#DejaVuSans-20" x="1885.445312"/>
     <use xlink:href="#DejaVuSans-49" x="1917.232422"/>
     <use xlink:href="#DejaVuSans-6e" x="1946.724609"/>
     <use xlink:href="#DejaVuSans-74" x="2010.103516"/>
     <use xlink:href="#DejaVuSans-65" x="2049.3125"/>
     <use xlink:href="#DejaVuSans-72" x="2110.835938"/>
     <use xlink:href="#DejaVuSans-76" x="2151.949219"/>
     <use xlink:href="#DejaVuSans-61" x="2211.128906"/>
     <use xlink:href="#DejaVuSans-6c" x="2272.408203"/>
     <use xlink:href="#DejaVuSans-20" x="2300.191406"/>
     <use xlink:href="#DejaVuSans-62" x="2331.978516"/>
     <use xlink:href="#DejaVuSans-61" x="2395.455078"/>
     <use xlink:href="#DejaVuSans-6e" x="2456.734375"/>
     <use xlink:href="#DejaVuSans-64" x="2520.113281"/>
     <use xlink:href="#DejaVuSans-73" x="2583.589844"/>
    </g>
   </g>
   <g id="legend_1">
    <g id="patch_7">
     <path d="M 58.935 161.3 
L 199.781875 161.3 
Q 201.781875 161.3 201.781875 159.3 
L 201.781875 28.196875 
Q 201.781875 26.196875 199.781875 26.196875 
L 58.935 26.196875 
Q 56.935 26.196875 56.935 28.196875 
L 56.935 159.3 
Q 56.935 161.3 58.935 161.3 
z
" style="fill: #ffffff; opacity: 0.8; stroke: #cccccc; stroke-linejoin: miter"/>
    </g>
    <g id="patch_8">
     <path d="M 60.935 37.795313 
L 80.935 37.795313 
L 80.935 30.795313 
L 60.935 30.795313 
z
" style="fill: #8fbbda; fill-opacity: 0.3"/>
    </g>
    <g id="line2d_48">
     <path d="M 60.935 34.295313 
L 70.935 34.295313 
L 80.935 34.295313 
" style="fill: none; stroke: #1f77b4; stroke-width: 2; stroke-linecap: square"/>
     <g>
      <use xlink:href="#mb3156c20fe" x="70.935" y="34.295313" style="fill: #1f77b4; stroke: #1f77b4"/>
     </g>
    </g>
    <g id="text_26">
     <!-- APGSK-IMODE -->
     <g transform="translate(88.935 37.795313) scale(0.1 -0.1)">
      <defs>
       <path id="DejaVuSans-41" d="M 2188 4044 
L 1331 1722 
L 3047 1722 
L 2188 4044 
z
M 1831 4666 
L 2547 4666 
L 4325 0 
L 3669 0 
L 3244 1197 
L 1141 1197 
L 716 0 
L 50 0 
L 1831 4666 
z
" transform="scale(0.015625)"/>
       <path id="DejaVuSans-50" d="M 1259 4147 
L 1259 2394 
L 2053 2394 
Q 2494 2394 2734 2622 
Q 2975 2850 2975 3272 
Q 2975 3691 2734 3919 
Q 2494 4147 2053 4147 
L 1259 4147 
z
M 628 4666 
L 2053 4666 
Q 2838 4666 3239 4311 
Q 3641 3956 3641 3272 
Q 3641 2581 3239 2228 
Q 2838 1875 2053 1875 
L 1259 1875 
L 1259 0 
L 628 0 
L 628 4666 
z
" transform="scale(0.015625)"/>
       <path id="DejaVuSans-47" d="M 3809 666 
L 3809 1919 
L 2778 1919 
L 2778 2438 
L 4434 2438 
L 4434 434 
Q 4069 175 3628 42 
Q 3188 -91 2688 -91 
Q 1594 -91 976 548 
Q 359 1188 359 2328 
Q 359 3472 976 4111 
Q 1594 4750 2688 4750 
Q 3144 4750 3555 4637 
Q 3966 4525 4313 4306 
L 4313 3634 
Q 3963 3931 3569 4081 
Q 3175 4231 2741 4231 
Q 1884 4231 1454 3753 
Q 1025 3275 1025 2328 
Q 1025 1384 1454 906 
Q 1884 428 2741 428 
Q 3075 428 3337 486 
Q 3600 544 3809 666 
z
" transform="scale(0.015625)"/>
       <path id="DejaVuSans-4b" d="M 628 4666 
L 1259 4666 
L 1259 2694 
L 3353 4666 
L 4166 4666 
L 1850 2491 
L 4331 0 
L 3500 0 
L 1259 2247 
L 1259 0 
L 628 0 
L 628 4666 
z
" transform="scale(0.015625)"/>
       <path id="DejaVuSans-4d" d="M 628 4666 
L 1569 4666 
L 2759 1491 
L 3956 4666 
L 4897 4666 
L 4897 0 
L 4281 0 
L 4281 4097 
L 3078 897 
L 2444 897 
L 1241 4097 
L 1241 0 
L 628 0 
L 628 4666 
z
" transform="scale(0.015625)"/>
       <path id="DejaVuSans-4f" d="M 2522 4238 
Q 1834 4238 1429 3725 
Q 1025 3213 1025 2328 
Q 1025 1447 1429 934 
Q 1834 422 2522 422 
Q 3209 422 3611 934 
Q 4013 1447 4013 2328 
Q 4013 3213 3611 3725 
Q 3209 4238 2522 4238 
z
M 2522 4750 
Q 3503 4750 4090 4092 
Q 4678 3434 4678 2328 
Q 4678 1225 4090 567 
Q 3503 -91 2522 -91 
Q 1538 -91 948 565 
Q 359 1222 359 2328 
Q 359 3434 948 4092 
Q 1538 4750 2522 4750 
z
" transform="scale(0.015625)"/>
       <path id="DejaVuSans-44" d="M 1259 4147 
L 1259 519 
L 2022 519 
Q 2988 519 3436 956 
Q 3884 1394 3884 2338 
Q 3884 3275 3436 3711 
Q 2988 4147 2022 4147 
L 1259 4147 
z
M 628 4666 
L 1925 4666 
Q 3281 4666 3915 4102 
Q 4550 3538 4550 2338 
Q 4550 1131 3912 565 
Q 3275 0 1925 0 
L 628 0 
L 628 4666 
z
" transform="scale(0.015625)"/>
      </defs>
      <use xlink:href="#DejaVuSans-41"/>
      <use xlink:href="#DejaVuSans-50" x="68.408203"/>
      <use xlink:href="#DejaVuSans-47" x="128.710938"/>
      <use xlink:href="#DejaVuSans-53" x="206.201172"/>
      <use xlink:href="#DejaVuSans-4b" x="269.677734"/>
      <use xlink:href="#DejaVuSans-2d" x="324.753906"/>
      <use xlink:href="#DejaVuSans-49" x="360.837891"/>
      <use xlink:href="#DejaVuSans-4d" x="390.330078"/>
      <use xlink:href="#DejaVuSans-4f" x="476.609375"/>
      <use xlink:href="#DejaVuSans-44" x="555.320312"/>
      <use xlink:href="#DejaVuSans-45" x="632.322266"/>
     </g>
    </g>
    <g id="patch_9">
     <path d="M 60.935 52.473438 
L 80.935 52.473438 
L 80.935 45.473438 
L 60.935 45.473438 
z
" style="fill: #ffbf86; fill-opacity: 0.3"/>
    </g>
    <g id="line2d_49">
     <path d="M 60.935 48.973438 
L 70.935 48.973438 
L 80.935 48.973438 
" style="fill: none; stroke-dasharray: 7.4,3.2; stroke-dashoffset: 0; stroke: #ff7f0e; stroke-width: 2"/>
     <g>
      <use xlink:href="#mcf4390a12a" x="70.935" y="48.973438" style="fill: #ff7f0e"/>
     </g>
    </g>
    <g id="text_27">
     <!-- DEDMNA -->
     <g transform="translate(88.935 52.473438) scale(0.1 -0.1)">
      <use xlink:href="#DejaVuSans-44"/>
      <use xlink:href="#DejaVuSans-45" x="77.001953"/>
      <use xlink:href="#DejaVuSans-44" x="140.185547"/>
      <use xlink:href="#DejaVuSans-4d" x="217.1875"/>
      <use xlink:href="#DejaVuSans-4e" x="303.466797"/>
      <use xlink:href="#DejaVuSans-41" x="378.271484"/>
     </g>
    </g>
    <g id="patch_10">
     <path d="M 60.935 67.151563 
L 80.935 67.151563 
L 80.935 60.151563 
L 60.935 60.151563 
z
" style="fill: #96d096; fill-opacity: 0.3"/>
    </g>
    <g id="line2d_50">
     <path d="M 60.935 63.651563 
L 70.935 63.651563 
L 80.935 63.651563 
" style="fill: none; stroke-dasharray: 12.8,3.2,2,3.2; stroke-dashoffset: 0; stroke: #2ca02c; stroke-width: 2"/>
     <g>
      <use xlink:href="#m8d2da33779" x="70.935" y="63.651563" style="fill: #2ca02c; stroke: #2ca02c"/>
     </g>
    </g>
    <g id="text_28">
     <!-- j21 -->
     <g transform="translate(88.935 67.151563) scale(0.1 -0.1)">
      <defs>
       <path id="DejaVuSans-6a" d="M 603 3500 
L 1178 3500 
L 1178 -63 
Q 1178 -731 923 -1031 
Q 669 -1331 103 -1331 
L -116 -1331 
L -116 -844 
L 38 -844 
Q 366 -844 484 -692 
Q 603 -541 603 -63 
L 603 3500 
z
M 603 4863 
L 1178 4863 
L 1178 4134 
L 603 4134 
L 603 4863 
z
" transform="scale(0.015625)"/>
      </defs>
      <use xlink:href="#DejaVuSans-6a"/>
      <use xlink:href="#DejaVuSans-32" x="27.783203"/>
      <use xlink:href="#DejaVuSans-31" x="91.40625"/>
     </g>
    </g>
    <g id="patch_11">
     <path d="M 60.935 81.829688 
L 80.935 81.829688 
L 80.935 74.829688 
L 60.935 74.829688 
z
" style="fill: #eb9393; fill-opacity: 0.3"/>
    </g>
    <g id="line2d_51">
     <path d="M 60.935 78.329688 
L 70.935 78.329688 
L 80.935 78.329688 
" style="fill: none; stroke-dasharray: 2,3.3; stroke-dashoffset: 0; stroke: #d62728; stroke-width: 2"/>
     <g>
      <use xlink:href="#m7bdf4744a8" x="70.935" y="78.329688" style="fill: #d62728; stroke: #d62728; stroke-linejoin: miter"/>
     </g>
    </g>
    <g id="text_29">
     <!-- LSHADE -->
     <g transform="translate(88.935 81.829688) scale(0.1 -0.1)">
      <defs>
       <path id="DejaVuSans-4c" d="M 628 4666 
L 1259 4666 
L 1259 531 
L 3531 531 
L 3531 0 
L 628 0 
L 628 4666 
z
" transform="scale(0.015625)"/>
       <path id="DejaVuSans-48" d="M 628 4666 
L 1259 4666 
L 1259 2753 
L 3553 2753 
L 3553 4666 
L 4184 4666 
L 4184 0 
L 3553 0 
L 3553 2222 
L 1259 2222 
L 1259 0 
L 628 0 
L 628 4666 
z
" transform="scale(0.015625)"/>
      </defs>
      <use xlink:href="#DejaVuSans-4c"/>
      <use xlink:href="#DejaVuSans-53" x="55.712891"/>
      <use xlink:href="#DejaVuSans-48" x="119.189453"/>
      <use xlink:href="#DejaVuSans-41" x="194.384766"/>
      <use xlink:href="#DejaVuSans-44" x="262.792969"/>
      <use xlink:href="#DejaVuSans-45" x="339.794922"/>
     </g>
    </g>
    <g id="patch_12">
     <path d="M 60.935 96.507813 
L 80.935 96.507813 
L 80.935 89.507813 
L 60.935 89.507813 
z
" style="fill: #cab3de; fill-opacity: 0.3"/>
    </g>
    <g id="line2d_52">
     <path d="M 60.935 93.007813 
L 70.935 93.007813 
L 80.935 93.007813 
" style="fill: none; stroke: #9467bd; stroke-width: 2; stroke-linecap: square"/>
     <g>
      <use xlink:href="#mfc956aa347" x="70.935" y="93.007813" style="fill: #9467bd; stroke: #9467bd; stroke-linejoin: miter"/>
     </g>
    </g>
    <g id="text_30">
     <!-- MadDE -->
     <g transform="translate(88.935 96.507813) scale(0.1 -0.1)">
      <use xlink:href="#DejaVuSans-4d"/>
      <use xlink:href="#DejaVuSans-61" x="86.279297"/>
      <use xlink:href="#DejaVuSans-64" x="147.558594"/>
      <use xlink:href="#DejaVuSans-44" x="211.035156"/>
      <use xlink:href="#DejaVuSans-45" x="288.037109"/>
     </g>
    </g>
    <g id="patch_13">
     <path d="M 60.935 111.185938 
L 80.935 111.185938 
L 80.935 104.185938 
L 60.935 104.185938 
z
" style="fill: #c6aba5; fill-opacity: 0.3"/>
    </g>
    <g id="line2d_53">
     <path d="M 60.935 107.685938 
L 70.935 107.685938 
L 80.935 107.685938 
" style="fill: none; stroke-dasharray: 7.4,3.2; stroke-dashoffset: 0; stroke: #8c564b; stroke-width: 2"/>
     <g>
      <use xlink:href="#mb7235a732c" x="70.935" y="107.685938" style="fill: #8c564b; stroke: #8c564b; stroke-linejoin: miter"/>
     </g>
    </g>
    <g id="text_31">
     <!-- MLS-LSHADE -->
     <g transform="translate(88.935 111.185938) scale(0.1 -0.1)">
      <use xlink:href="#DejaVuSans-4d"/>
      <use xlink:href="#DejaVuSans-4c" x="86.279297"/>
      <use xlink:href="#DejaVuSans-53" x="141.992188"/>
      <use xlink:href="#DejaVuSans-2d" x="205.46875"/>
      <use xlink:href="#DejaVuSans-4c" x="241.552734"/>
      <use xlink:href="#DejaVuSans-53" x="297.265625"/>
      <use xlink:href="#DejaVuSans-48" x="360.742188"/>
      <use xlink:href="#DejaVuSans-41" x="435.9375"/>
      <use xlink:href="#DejaVuSans-44" x="504.345703"/>
      <use xlink:href="#DejaVuSans-45" x="581.347656"/>
     </g>
    </g>
    <g id="patch_14">
     <path d="M 60.935 125.864063 
L 80.935 125.864063 
L 80.935 118.864063 
L 60.935 118.864063 
z
" style="fill: #f1bbe0; fill-opacity: 0.3"/>
    </g>
    <g id="line2d_54">
     <path d="M 60.935 122.364063 
L 70.935 122.364063 
L 80.935 122.364063 
" style="fill: none; stroke-dasharray: 12.8,3.2,2,3.2; stroke-dashoffset: 0; stroke: #e377c2; stroke-width: 2"/>
     <g>
      <use xlink:href="#m18fa1a6f96" x="70.935" y="122.364063" style="fill: #e377c2; stroke: #e377c2; stroke-linejoin: miter"/>
     </g>
    </g>
    <g id="text_32">
     <!-- NL-SHADE-RSP -->
     <g transform="translate(88.935 125.864063) scale(0.1 -0.1)">
      <use xlink:href="#DejaVuSans-4e"/>
      <use xlink:href="#DejaVuSans-4c" x="74.804688"/>
      <use xlink:href="#DejaVuSans-2d" x="128.767578"/>
      <use xlink:href="#DejaVuSans-53" x="164.851562"/>
      <use xlink:href="#DejaVuSans-48" x="228.328125"/>
      <use xlink:href="#DejaVuSans-41" x="303.523438"/>
      <use xlink:href="#DejaVuSans-44" x="371.931641"/>
      <use xlink:href="#DejaVuSans-45" x="448.933594"/>
      <use xlink:href="#DejaVuSans-2d" x="512.117188"/>
      <use xlink:href="#DejaVuSans-52" x="548.201172"/>
      <use xlink:href="#DejaVuSans-53" x="617.683594"/>
      <use xlink:href="#DejaVuSans-50" x="681.160156"/>
     </g>
    </g>
    <g id="patch_15">
     <path d="M 60.935 140.542188 
L 80.935 140.542188 
L 80.935 133.542188 
L 60.935 133.542188 
z
" style="fill: #dede90; fill-opacity: 0.3"/>
    </g>
    <g id="line2d_55">
     <path d="M 60.935 137.042188 
L 70.935 137.042188 
L 80.935 137.042188 
" style="fill: none; stroke-dasharray: 2,3.3; stroke-dashoffset: 0; stroke: #bcbd22; stroke-width: 2"/>
     <g>
      <use xlink:href="#ma1388a3816" x="70.935" y="137.042188" style="fill: #bcbd22; stroke: #bcbd22; stroke-linejoin: miter"/>
     </g>
    </g>
    <g id="text_33">
     <!-- RB-IPOP-CMAES-PPMF -->
     <g transform="translate(88.935 140.542188) scale(0.1 -0.1)">
      <defs>
       <path id="DejaVuSans-42" d="M 1259 2228 
L 1259 519 
L 2272 519 
Q 2781 519 3026 730 
Q 3272 941 3272 1375 
Q 3272 1813 3026 2020 
Q 2781 2228 2272 2228 
L 1259 2228 
z
M 1259 4147 
L 1259 2741 
L 2194 2741 
Q 2656 2741 2882 2914 
Q 3109 3088 3109 3444 
Q 3109 3797 2882 3972 
Q 2656 4147 2194 4147 
L 1259 4147 
z
M 628 4666 
L 2241 4666 
Q 2963 4666 3353 4366 
Q 3744 4066 3744 3513 
Q 3744 3084 3544 2831 
Q 3344 2578 2956 2516 
Q 3422 2416 3680 2098 
Q 3938 1781 3938 1306 
Q 3938 681 3513 340 
Q 3088 0 2303 0 
L 628 0 
L 628 4666 
z
" transform="scale(0.015625)"/>
       <path id="DejaVuSans-46" d="M 628 4666 
L 3309 4666 
L 3309 4134 
L 1259 4134 
L 1259 2759 
L 3109 2759 
L 3109 2228 
L 1259 2228 
L 1259 0 
L 628 0 
L 628 4666 
z
" transform="scale(0.015625)"/>
      </defs>
      <use xlink:href="#DejaVuSans-52"/>
      <use xlink:href="#DejaVuSans-42" x="69.482422"/>
      <use xlink:href="#DejaVuSans-2d" x="138.085938"/>
      <use xlink:href="#DejaVuSans-49" x="174.169922"/>
      <use xlink:href="#DejaVuSans-50" x="203.662109"/>
      <use xlink:href="#DejaVuSans-4f" x="263.964844"/>
      <use xlink:href="#DejaVuSans-50" x="342.675781"/>
      <use xlink:href="#DejaVuSans-2d" x="400.728516"/>
      <use xlink:href="#DejaVuSans-43" x="436.8125"/>
      <use xlink:href="#DejaVuSans-4d" x="506.636719"/>
      <use xlink:href="#DejaVuSans-41" x="592.916016"/>
      <use xlink:href="#DejaVuSans-45" x="661.324219"/>
      <use xlink:href="#DejaVuSans-53" x="724.507812"/>
      <use xlink:href="#DejaVuSans-2d" x="787.984375"/>
      <use xlink:href="#DejaVuSans-50" x="824.068359"/>
      <use xlink:href="#DejaVuSans-50" x="884.371094"/>
      <use xlink:href="#DejaVuSans-4d" x="944.673828"/>
      <use xlink:href="#DejaVuSans-46" x="1030.953125"/>
     </g>
    </g>
    <g id="patch_16">
     <path d="M 60.935 155.220313 
L 80.935 155.220313 
L 80.935 148.220313 
L 60.935 148.220313 
z
" style="fill: #8bdee7; fill-opacity: 0.3"/>
    </g>
    <g id="line2d_56">
     <path d="M 60.935 151.720313 
L 70.935 151.720313 
L 80.935 151.720313 
" style="fill: none; stroke: #17becf; stroke-width: 2; stroke-linecap: square"/>
     <g>
      <use xlink:href="#m2462d875e1" x="70.935" y="151.720313" style="fill: #17becf; stroke: #17becf; stroke-linejoin: miter"/>
     </g>
    </g>
    <g id="text_34">
     <!-- SOMA-CLP -->
     <g transform="translate(88.935 155.220313) scale(0.1 -0.1)">
      <use xlink:href="#DejaVuSans-53"/>
      <use xlink:href="#DejaVuSans-4f" x="63.476562"/>
      <use xlink:href="#DejaVuSans-4d" x="142.1875"/>
      <use xlink:href="#DejaVuSans-41" x="228.466797"/>
      <use xlink:href="#DejaVuSans-2d" x="294.625"/>
      <use xlink:href="#DejaVuSans-43" x="330.708984"/>
      <use xlink:href="#DejaVuSans-4c" x="400.533203"/>
      <use xlink:href="#DejaVuSans-50" x="456.246094"/>
     </g>
    </g>
   </g>
  </g>
 </g>
 <defs>
  <clipPath id="pe5b3982af4">
   <rect x="51.935" y="21.196875" width="837" height="554.4"/>
  </clipPath>
 </defs>
</svg>
