<?xml version="1.0" encoding="utf-8" standalone="no"?>
<!DOCTYPE svg PUBLIC "-//W3C//DTD SVG 1.1//EN"
  "http://www.w3.org/Graphics/SVG/1.1/DTD/svg11.dtd">
<svg xmlns:xlink="http://www.w3.org/1999/xlink" width="895.2975pt" height="590.563125pt" viewBox="0 0 895.2975 590.563125" xmlns="http://www.w3.org/2000/svg" version="1.1">
 <metadata>
  <rdf:RDF xmlns:dc="http://purl.org/dc/elements/1.1/" xmlns:cc="http://creativecommons.org/ns#" xmlns:rdf="http://www.w3.org/1999/02/22-rdf-syntax-ns#">
   <cc:Work>
    <dc:type rdf:resource="http://purl.org/dc/dcmitype/StillImage"/>
    <dc:date>2023-12-27T11:25:34.292875</dc:date>
    <dc:format>image/svg+xml</dc:format>
    <dc:creator>
     <cc:Agent>
      <dc:title>Matplotlib v3.8.1, https://matplotlib.org/</dc:title>
     </cc:Agent>
    </dc:creator>
   </cc:Work>
  </rdf:RDF>
 </metadata>
 <defs>
  <style type="text/css">*{stroke-linejoin: round; stroke-linecap: butt}</style>
 </defs>
 <g id="figure_1">
  <g id="patch_1">
   <path d="M -0 590.563125 
L 895.2975 590.563125 
L 895.2975 0 
L -0 0 
z
" style="fill: #ffffff"/>
  </g>
  <g id="axes_1">
   <g id="patch_2">
    <path d="M 51.935 554.4 
L 888.935 554.4 
L 888.935 0 
L 51.935 0 
z
" style="fill: #ffffff"/>
   </g>
   <g id="PolyCollection_1">
    <defs>
     <path id="m001ea5e2d2" d="M 51.935 -354.439365 
L 51.935 -442.326009 
L 107.735 -407.6598 
L 163.535 -357.924426 
L 219.335 -350.603759 
L 275.135 -348.797361 
L 330.935 -348.797361 
L 386.735 -347.846625 
L 442.535 -344.340786 
L 498.335 -343.675271 
L 554.135 -342.819608 
L 609.935 -368.560784 
L 665.735 -383.23777 
L 721.535 -380.159763 
L 777.335 -382.144424 
L 833.135 -401.884079 
L 888.935 -420.304588 
L 888.935 -332.417943 
L 888.935 -332.417943 
L 833.135 -313.997434 
L 777.335 -294.257779 
L 721.535 -292.273118 
L 665.735 -295.351126 
L 609.935 -280.674139 
L 554.135 -254.932964 
L 498.335 -255.788626 
L 442.535 -256.454141 
L 386.735 -259.95998 
L 330.935 -260.910716 
L 275.135 -260.910716 
L 219.335 -262.717114 
L 163.535 -270.037781 
L 107.735 -319.773155 
L 51.935 -354.439365 
z
"/>
    </defs>
    <g clip-path="url(#pb2662eef7a)">
     <use xlink:href="#m001ea5e2d2" x="0" y="590.563125" style="fill: #8fbbda; fill-opacity: 0.3"/>
    </g>
   </g>
   <g id="PolyCollection_2">
    <defs>
     <path id="m58c8a31632" d="M 51.935 -298.999575 
L 51.935 -386.886219 
L 107.735 -328.772485 
L 163.535 -288.080986 
L 219.335 -253.105788 
L 275.135 -221.363091 
L 330.935 -190.915773 
L 386.735 -164.782418 
L 442.535 -151.281968 
L 498.335 -149.24977 
L 554.135 -160.765559 
L 609.935 -184.427 
L 665.735 -210.655428 
L 721.535 -239.664758 
L 777.335 -296.126589 
L 833.135 -339.278117 
L 888.935 -362.773179 
L 888.935 -274.886534 
L 888.935 -274.886534 
L 833.135 -251.391472 
L 777.335 -208.239945 
L 721.535 -151.778114 
L 665.735 -122.768783 
L 609.935 -96.540355 
L 554.135 -72.878914 
L 498.335 -61.363125 
L 442.535 -63.395323 
L 386.735 -76.895774 
L 330.935 -103.029128 
L 275.135 -133.476447 
L 219.335 -165.219143 
L 163.535 -200.194342 
L 107.735 -240.88584 
L 51.935 -298.999575 
z
"/>
    </defs>
    <g clip-path="url(#pb2662eef7a)">
     <use xlink:href="#m58c8a31632" x="0" y="590.563125" style="fill: #ffbf86; fill-opacity: 0.3"/>
    </g>
   </g>
   <g id="PolyCollection_3">
    <defs>
     <path id="m5a806f4ebb" d="M 51.935 -269.60995 
L 51.935 -357.496595 
L 107.735 -458.916352 
L 163.535 -508.485347 
L 219.335 -547.572479 
L 275.135 -562.950633 
L 330.935 -565.363125 
L 386.735 -565.137325 
L 442.535 -559.682478 
L 498.335 -548.249878 
L 554.135 -532.503314 
L 609.935 -521.623329 
L 665.735 -513.262795 
L 721.535 -494.467934 
L 777.335 -472.589123 
L 833.135 -424.743336 
L 888.935 -351.150432 
L 888.935 -263.263787 
L 888.935 -263.263787 
L 833.135 -336.856692 
L 777.335 -384.702478 
L 721.535 -406.581289 
L 665.735 -425.37615 
L 609.935 -433.736685 
L 554.135 -444.616669 
L 498.335 -460.363233 
L 442.535 -471.795833 
L 386.735 -477.250681 
L 330.935 -477.47648 
L 275.135 -475.063988 
L 219.335 -459.685834 
L 163.535 -420.598702 
L 107.735 -371.029707 
L 51.935 -269.60995 
z
"/>
    </defs>
    <g clip-path="url(#pb2662eef7a)">
     <use xlink:href="#m5a806f4ebb" x="0" y="590.563125" style="fill: #96d096; fill-opacity: 0.3"/>
    </g>
   </g>
   <g id="PolyCollection_4">
    <defs>
     <path id="m5b4e80a7e3" d="M 51.935 -250.369431 
L 51.935 -338.256076 
L 107.735 -355.55947 
L 163.535 -377.081755 
L 219.335 -366.62366 
L 275.135 -354.917723 
L 330.935 -342.534388 
L 386.735 -326.954202 
L 442.535 -317.078433 
L 498.335 -310.435165 
L 554.135 -302.056805 
L 609.935 -299.466049 
L 665.735 -293.197134 
L 721.535 -287.373876 
L 777.335 -271.775865 
L 833.135 -294.587585 
L 888.935 -380.68861 
L 888.935 -292.801965 
L 888.935 -292.801965 
L 833.135 -206.700941 
L 777.335 -183.88922 
L 721.535 -199.487232 
L 665.735 -205.310489 
L 609.935 -211.579405 
L 554.135 -214.17016 
L 498.335 -222.548521 
L 442.535 -229.191788 
L 386.735 -239.067558 
L 330.935 -254.647743 
L 275.135 -267.031079 
L 219.335 -278.737015 
L 163.535 -289.19511 
L 107.735 -267.672825 
L 51.935 -250.369431 
z
"/>
    </defs>
    <g clip-path="url(#pb2662eef7a)">
     <use xlink:href="#m5b4e80a7e3" x="0" y="590.563125" style="fill: #eb9393; fill-opacity: 0.3"/>
    </g>
   </g>
   <g id="PolyCollection_5">
    <defs>
     <path id="m5f29eeda7f" d="M 51.935 -346.631446 
L 51.935 -434.51809 
L 107.735 -471.775055 
L 163.535 -487.652346 
L 219.335 -477.408166 
L 275.135 -477.598313 
L 330.935 -474.235085 
L 386.735 -464.276125 
L 442.535 -459.950277 
L 498.335 -459.974045 
L 554.135 -463.337274 
L 609.935 -458.001268 
L 665.735 -444.120523 
L 721.535 -429.6218 
L 777.335 -412.692758 
L 833.135 -413.542479 
L 888.935 -420.560098 
L 888.935 -332.673454 
L 888.935 -332.673454 
L 833.135 -325.655834 
L 777.335 -324.806114 
L 721.535 -341.735156 
L 665.735 -356.233879 
L 609.935 -370.114624 
L 554.135 -375.450629 
L 498.335 -372.087401 
L 442.535 -372.063632 
L 386.735 -376.389481 
L 330.935 -386.34844 
L 275.135 -389.711668 
L 219.335 -389.521521 
L 163.535 -399.765701 
L 107.735 -383.888411 
L 51.935 -346.631446 
z
"/>
    </defs>
    <g clip-path="url(#pb2662eef7a)">
     <use xlink:href="#m5f29eeda7f" x="0" y="590.563125" style="fill: #cab3de; fill-opacity: 0.3"/>
    </g>
   </g>
   <g id="PolyCollection_6">
    <defs>
     <path id="m4c56af05ee" d="M 51.935 -327.022517 
L 51.935 -414.909161 
L 107.735 -388.977839 
L 163.535 -394.908054 
L 219.335 -418.308042 
L 275.135 -438.427992 
L 330.935 -447.376794 
L 386.735 -447.246068 
L 442.535 -438.582487 
L 498.335 -428.766138 
L 554.135 -426.947855 
L 609.935 -418.931963 
L 665.735 -426.258572 
L 721.535 -435.379695 
L 777.335 -430.572536 
L 833.135 -418.5279 
L 888.935 -388.365802 
L 888.935 -300.479158 
L 888.935 -300.479158 
L 833.135 -330.641256 
L 777.335 -342.685892 
L 721.535 -347.49305 
L 665.735 -338.371927 
L 609.935 -331.045318 
L 554.135 -339.061211 
L 498.335 -340.879493 
L 442.535 -350.695842 
L 386.735 -359.359423 
L 330.935 -359.490149 
L 275.135 -350.541347 
L 219.335 -330.421398 
L 163.535 -307.021409 
L 107.735 -301.091194 
L 51.935 -327.022517 
z
"/>
    </defs>
    <g clip-path="url(#pb2662eef7a)">
     <use xlink:href="#m4c56af05ee" x="0" y="590.563125" style="fill: #c6aba5; fill-opacity: 0.3"/>
    </g>
   </g>
   <g id="PolyCollection_7">
    <defs>
     <path id="m48a9b6e460" d="M 51.935 -258.082277 
L 51.935 -345.968921 
L 107.735 -335.344447 
L 163.535 -328.083201 
L 219.335 -317.363653 
L 275.135 -298.396471 
L 330.935 -285.252547 
L 386.735 -272.690948 
L 442.535 -262.589379 
L 498.335 -259.891665 
L 554.135 -257.52671 
L 609.935 -261.412843 
L 665.735 -285.989367 
L 721.535 -299.168944 
L 777.335 -325.860856 
L 833.135 -375.905219 
L 888.935 -386.57723 
L 888.935 -298.690586 
L 888.935 -298.690586 
L 833.135 -288.018575 
L 777.335 -237.974211 
L 721.535 -211.2823 
L 665.735 -198.102722 
L 609.935 -173.526198 
L 554.135 -169.640065 
L 498.335 -172.005021 
L 442.535 -174.702734 
L 386.735 -184.804303 
L 330.935 -197.365902 
L 275.135 -210.509827 
L 219.335 -229.477009 
L 163.535 -240.196557 
L 107.735 -247.457802 
L 51.935 -258.082277 
z
"/>
    </defs>
    <g clip-path="url(#pb2662eef7a)">
     <use xlink:href="#m48a9b6e460" x="0" y="590.563125" style="fill: #f1bbe0; fill-opacity: 0.3"/>
    </g>
   </g>
   <g id="PolyCollection_8">
    <defs>
     <path id="m656aa1aee4" d="M 51.935 -72.771956 
L 51.935 -160.658601 
L 107.735 -165.994607 
L 163.535 -181.82436 
L 219.335 -200.268637 
L 275.135 -218.736683 
L 330.935 -252.475925 
L 386.735 -299.834459 
L 442.535 -341.38162 
L 498.335 -364.044788 
L 554.135 -366.243365 
L 609.935 -347.383141 
L 665.735 -331.939624 
L 721.535 -303.964219 
L 777.335 -281.188151 
L 833.135 -231.797418 
L 888.935 -216.722311 
L 888.935 -128.835667 
L 888.935 -128.835667 
L 833.135 -143.910774 
L 777.335 -193.301506 
L 721.535 -216.077574 
L 665.735 -244.052979 
L 609.935 -259.496496 
L 554.135 -278.356721 
L 498.335 -276.158144 
L 442.535 -253.494976 
L 386.735 -211.947815 
L 330.935 -164.58928 
L 275.135 -130.850038 
L 219.335 -112.381993 
L 163.535 -93.937715 
L 107.735 -78.107962 
L 51.935 -72.771956 
z
"/>
    </defs>
    <g clip-path="url(#pb2662eef7a)">
     <use xlink:href="#m656aa1aee4" x="0" y="590.563125" style="fill: #dede90; fill-opacity: 0.3"/>
    </g>
   </g>
   <g id="PolyCollection_9">
    <defs>
     <path id="maaba4c47be" d="M 51.935 -228.027136 
L 51.935 -315.913781 
L 107.735 -283.933401 
L 163.535 -272.892979 
L 219.335 -265.67927 
L 275.135 -275.745187 
L 330.935 -289.982458 
L 386.735 -308.165283 
L 442.535 -322.046028 
L 498.335 -332.646734 
L 554.135 -344.732964 
L 609.935 -337.127077 
L 665.735 -308.272241 
L 721.535 -327.132465 
L 777.335 -323.983152 
L 833.135 -296.66732 
L 888.935 -269.791203 
L 888.935 -181.904559 
L 888.935 -181.904559 
L 833.135 -208.780676 
L 777.335 -236.096508 
L 721.535 -239.245821 
L 665.735 -220.385596 
L 609.935 -249.240432 
L 554.135 -256.84632 
L 498.335 -244.760089 
L 442.535 -234.159383 
L 386.735 -220.278638 
L 330.935 -202.095813 
L 275.135 -187.858543 
L 219.335 -177.792626 
L 163.535 -185.006335 
L 107.735 -196.046756 
L 51.935 -228.027136 
z
"/>
    </defs>
    <g clip-path="url(#pb2662eef7a)">
     <use xlink:href="#maaba4c47be" x="0" y="590.563125" style="fill: #8bdee7; fill-opacity: 0.3"/>
    </g>
   </g>
   <g id="matplotlib.axis_1">
    <g id="xtick_1">
     <g id="line2d_1">
      <defs>
       <path id="m89da9aba9a" d="M 0 0 
L 0 3.5 
" style="stroke: #000000; stroke-width: 0.8"/>
      </defs>
      <g>
       <use xlink:href="#m89da9aba9a" x="51.935" y="554.4" style="stroke: #000000; stroke-width: 0.8"/>
      </g>
     </g>
     <g id="text_1">
      <!-- 0 -->
      <g transform="translate(48.75375 568.998438) scale(0.1 -0.1)">
       <defs>
        <path id="DejaVuSans-30" d="M 2034 4250 
Q 1547 4250 1301 3770 
Q 1056 3291 1056 2328 
Q 1056 1369 1301 889 
Q 1547 409 2034 409 
Q 2525 409 2770 889 
Q 3016 1369 3016 2328 
Q 3016 3291 2770 3770 
Q 2525 4250 2034 4250 
z
M 2034 4750 
Q 2819 4750 3233 4129 
Q 3647 3509 3647 2328 
Q 3647 1150 3233 529 
Q 2819 -91 2034 -91 
Q 1250 -91 836 529 
Q 422 1150 422 2328 
Q 422 3509 836 4129 
Q 1250 4750 2034 4750 
z
" transform="scale(0.015625)"/>
       </defs>
       <use xlink:href="#DejaVuSans-30"/>
      </g>
     </g>
    </g>
    <g id="xtick_2">
     <g id="line2d_2">
      <g>
       <use xlink:href="#m89da9aba9a" x="107.735" y="554.4" style="stroke: #000000; stroke-width: 0.8"/>
      </g>
     </g>
     <g id="text_2">
      <!-- 1 -->
      <g transform="translate(104.55375 568.998438) scale(0.1 -0.1)">
       <defs>
        <path id="DejaVuSans-31" d="M 794 531 
L 1825 531 
L 1825 4091 
L 703 3866 
L 703 4441 
L 1819 4666 
L 2450 4666 
L 2450 531 
L 3481 531 
L 3481 0 
L 794 0 
L 794 531 
z
" transform="scale(0.015625)"/>
       </defs>
       <use xlink:href="#DejaVuSans-31"/>
      </g>
     </g>
    </g>
    <g id="xtick_3">
     <g id="line2d_3">
      <g>
       <use xlink:href="#m89da9aba9a" x="163.535" y="554.4" style="stroke: #000000; stroke-width: 0.8"/>
      </g>
     </g>
     <g id="text_3">
      <!-- 2 -->
      <g transform="translate(160.35375 568.998438) scale(0.1 -0.1)">
       <defs>
        <path id="DejaVuSans-32" d="M 1228 531 
L 3431 531 
L 3431 0 
L 469 0 
L 469 531 
Q 828 903 1448 1529 
Q 2069 2156 2228 2338 
Q 2531 2678 2651 2914 
Q 2772 3150 2772 3378 
Q 2772 3750 2511 3984 
Q 2250 4219 1831 4219 
Q 1534 4219 1204 4116 
Q 875 4013 500 3803 
L 500 4441 
Q 881 4594 1212 4672 
Q 1544 4750 1819 4750 
Q 2544 4750 2975 4387 
Q 3406 4025 3406 3419 
Q 3406 3131 3298 2873 
Q 3191 2616 2906 2266 
Q 2828 2175 2409 1742 
Q 1991 1309 1228 531 
z
" transform="scale(0.015625)"/>
       </defs>
       <use xlink:href="#DejaVuSans-32"/>
      </g>
     </g>
    </g>
    <g id="xtick_4">
     <g id="line2d_4">
      <g>
       <use xlink:href="#m89da9aba9a" x="219.335" y="554.4" style="stroke: #000000; stroke-width: 0.8"/>
      </g>
     </g>
     <g id="text_4">
      <!-- 3 -->
      <g transform="translate(216.15375 568.998438) scale(0.1 -0.1)">
       <defs>
        <path id="DejaVuSans-33" d="M 2597 2516 
Q 3050 2419 3304 2112 
Q 3559 1806 3559 1356 
Q 3559 666 3084 287 
Q 2609 -91 1734 -91 
Q 1441 -91 1130 -33 
Q 819 25 488 141 
L 488 750 
Q 750 597 1062 519 
Q 1375 441 1716 441 
Q 2309 441 2620 675 
Q 2931 909 2931 1356 
Q 2931 1769 2642 2001 
Q 2353 2234 1838 2234 
L 1294 2234 
L 1294 2753 
L 1863 2753 
Q 2328 2753 2575 2939 
Q 2822 3125 2822 3475 
Q 2822 3834 2567 4026 
Q 2313 4219 1838 4219 
Q 1578 4219 1281 4162 
Q 984 4106 628 3988 
L 628 4550 
Q 988 4650 1302 4700 
Q 1616 4750 1894 4750 
Q 2613 4750 3031 4423 
Q 3450 4097 3450 3541 
Q 3450 3153 3228 2886 
Q 3006 2619 2597 2516 
z
" transform="scale(0.015625)"/>
       </defs>
       <use xlink:href="#DejaVuSans-33"/>
      </g>
     </g>
    </g>
    <g id="xtick_5">
     <g id="line2d_5">
      <g>
       <use xlink:href="#m89da9aba9a" x="275.135" y="554.4" style="stroke: #000000; stroke-width: 0.8"/>
      </g>
     </g>
     <g id="text_5">
      <!-- 4 -->
      <g transform="translate(271.95375 568.998438) scale(0.1 -0.1)">
       <defs>
        <path id="DejaVuSans-34" d="M 2419 4116 
L 825 1625 
L 2419 1625 
L 2419 4116 
z
M 2253 4666 
L 3047 4666 
L 3047 1625 
L 3713 1625 
L 3713 1100 
L 3047 1100 
L 3047 0 
L 2419 0 
L 2419 1100 
L 313 1100 
L 313 1709 
L 2253 4666 
z
" transform="scale(0.015625)"/>
       </defs>
       <use xlink:href="#DejaVuSans-34"/>
      </g>
     </g>
    </g>
    <g id="xtick_6">
     <g id="line2d_6">
      <g>
       <use xlink:href="#m89da9aba9a" x="330.935" y="554.4" style="stroke: #000000; stroke-width: 0.8"/>
      </g>
     </g>
     <g id="text_6">
      <!-- 5 -->
      <g transform="translate(327.75375 568.998438) scale(0.1 -0.1)">
       <defs>
        <path id="DejaVuSans-35" d="M 691 4666 
L 3169 4666 
L 3169 4134 
L 1269 4134 
L 1269 2991 
Q 1406 3038 1543 3061 
Q 1681 3084 1819 3084 
Q 2600 3084 3056 2656 
Q 3513 2228 3513 1497 
Q 3513 744 3044 326 
Q 2575 -91 1722 -91 
Q 1428 -91 1123 -41 
Q 819 9 494 109 
L 494 744 
Q 775 591 1075 516 
Q 1375 441 1709 441 
Q 2250 441 2565 725 
Q 2881 1009 2881 1497 
Q 2881 1984 2565 2268 
Q 2250 2553 1709 2553 
Q 1456 2553 1204 2497 
Q 953 2441 691 2322 
L 691 4666 
z
" transform="scale(0.015625)"/>
       </defs>
       <use xlink:href="#DejaVuSans-35"/>
      </g>
     </g>
    </g>
    <g id="xtick_7">
     <g id="line2d_7">
      <g>
       <use xlink:href="#m89da9aba9a" x="386.735" y="554.4" style="stroke: #000000; stroke-width: 0.8"/>
      </g>
     </g>
     <g id="text_7">
      <!-- 6 -->
      <g transform="translate(383.55375 568.998438) scale(0.1 -0.1)">
       <defs>
        <path id="DejaVuSans-36" d="M 2113 2584 
Q 1688 2584 1439 2293 
Q 1191 2003 1191 1497 
Q 1191 994 1439 701 
Q 1688 409 2113 409 
Q 2538 409 2786 701 
Q 3034 994 3034 1497 
Q 3034 2003 2786 2293 
Q 2538 2584 2113 2584 
z
M 3366 4563 
L 3366 3988 
Q 3128 4100 2886 4159 
Q 2644 4219 2406 4219 
Q 1781 4219 1451 3797 
Q 1122 3375 1075 2522 
Q 1259 2794 1537 2939 
Q 1816 3084 2150 3084 
Q 2853 3084 3261 2657 
Q 3669 2231 3669 1497 
Q 3669 778 3244 343 
Q 2819 -91 2113 -91 
Q 1303 -91 875 529 
Q 447 1150 447 2328 
Q 447 3434 972 4092 
Q 1497 4750 2381 4750 
Q 2619 4750 2861 4703 
Q 3103 4656 3366 4563 
z
" transform="scale(0.015625)"/>
       </defs>
       <use xlink:href="#DejaVuSans-36"/>
      </g>
     </g>
    </g>
    <g id="xtick_8">
     <g id="line2d_8">
      <g>
       <use xlink:href="#m89da9aba9a" x="442.535" y="554.4" style="stroke: #000000; stroke-width: 0.8"/>
      </g>
     </g>
     <g id="text_8">
      <!-- 7 -->
      <g transform="translate(439.35375 568.998438) scale(0.1 -0.1)">
       <defs>
        <path id="DejaVuSans-37" d="M 525 4666 
L 3525 4666 
L 3525 4397 
L 1831 0 
L 1172 0 
L 2766 4134 
L 525 4134 
L 525 4666 
z
" transform="scale(0.015625)"/>
       </defs>
       <use xlink:href="#DejaVuSans-37"/>
      </g>
     </g>
    </g>
    <g id="xtick_9">
     <g id="line2d_9">
      <g>
       <use xlink:href="#m89da9aba9a" x="498.335" y="554.4" style="stroke: #000000; stroke-width: 0.8"/>
      </g>
     </g>
     <g id="text_9">
      <!-- 8 -->
      <g transform="translate(495.15375 568.998438) scale(0.1 -0.1)">
       <defs>
        <path id="DejaVuSans-38" d="M 2034 2216 
Q 1584 2216 1326 1975 
Q 1069 1734 1069 1313 
Q 1069 891 1326 650 
Q 1584 409 2034 409 
Q 2484 409 2743 651 
Q 3003 894 3003 1313 
Q 3003 1734 2745 1975 
Q 2488 2216 2034 2216 
z
M 1403 2484 
Q 997 2584 770 2862 
Q 544 3141 544 3541 
Q 544 4100 942 4425 
Q 1341 4750 2034 4750 
Q 2731 4750 3128 4425 
Q 3525 4100 3525 3541 
Q 3525 3141 3298 2862 
Q 3072 2584 2669 2484 
Q 3125 2378 3379 2068 
Q 3634 1759 3634 1313 
Q 3634 634 3220 271 
Q 2806 -91 2034 -91 
Q 1263 -91 848 271 
Q 434 634 434 1313 
Q 434 1759 690 2068 
Q 947 2378 1403 2484 
z
M 1172 3481 
Q 1172 3119 1398 2916 
Q 1625 2713 2034 2713 
Q 2441 2713 2670 2916 
Q 2900 3119 2900 3481 
Q 2900 3844 2670 4047 
Q 2441 4250 2034 4250 
Q 1625 4250 1398 4047 
Q 1172 3844 1172 3481 
z
" transform="scale(0.015625)"/>
       </defs>
       <use xlink:href="#DejaVuSans-38"/>
      </g>
     </g>
    </g>
    <g id="xtick_10">
     <g id="line2d_10">
      <g>
       <use xlink:href="#m89da9aba9a" x="554.135" y="554.4" style="stroke: #000000; stroke-width: 0.8"/>
      </g>
     </g>
     <g id="text_10">
      <!-- 9 -->
      <g transform="translate(550.95375 568.998438) scale(0.1 -0.1)">
       <defs>
        <path id="DejaVuSans-39" d="M 703 97 
L 703 672 
Q 941 559 1184 500 
Q 1428 441 1663 441 
Q 2288 441 2617 861 
Q 2947 1281 2994 2138 
Q 2813 1869 2534 1725 
Q 2256 1581 1919 1581 
Q 1219 1581 811 2004 
Q 403 2428 403 3163 
Q 403 3881 828 4315 
Q 1253 4750 1959 4750 
Q 2769 4750 3195 4129 
Q 3622 3509 3622 2328 
Q 3622 1225 3098 567 
Q 2575 -91 1691 -91 
Q 1453 -91 1209 -44 
Q 966 3 703 97 
z
M 1959 2075 
Q 2384 2075 2632 2365 
Q 2881 2656 2881 3163 
Q 2881 3666 2632 3958 
Q 2384 4250 1959 4250 
Q 1534 4250 1286 3958 
Q 1038 3666 1038 3163 
Q 1038 2656 1286 2365 
Q 1534 2075 1959 2075 
z
" transform="scale(0.015625)"/>
       </defs>
       <use xlink:href="#DejaVuSans-39"/>
      </g>
     </g>
    </g>
    <g id="xtick_11">
     <g id="line2d_11">
      <g>
       <use xlink:href="#m89da9aba9a" x="609.935" y="554.4" style="stroke: #000000; stroke-width: 0.8"/>
      </g>
     </g>
     <g id="text_11">
      <!-- 10 -->
      <g transform="translate(603.5725 568.998438) scale(0.1 -0.1)">
       <use xlink:href="#DejaVuSans-31"/>
       <use xlink:href="#DejaVuSans-30" x="63.623047"/>
      </g>
     </g>
    </g>
    <g id="xtick_12">
     <g id="line2d_12">
      <g>
       <use xlink:href="#m89da9aba9a" x="665.735" y="554.4" style="stroke: #000000; stroke-width: 0.8"/>
      </g>
     </g>
     <g id="text_12">
      <!-- 11 -->
      <g transform="translate(659.3725 568.998438) scale(0.1 -0.1)">
       <use xlink:href="#DejaVuSans-31"/>
       <use xlink:href="#DejaVuSans-31" x="63.623047"/>
      </g>
     </g>
    </g>
    <g id="xtick_13">
     <g id="line2d_13">
      <g>
       <use xlink:href="#m89da9aba9a" x="721.535" y="554.4" style="stroke: #000000; stroke-width: 0.8"/>
      </g>
     </g>
     <g id="text_13">
      <!-- 12 -->
      <g transform="translate(715.1725 568.998438) scale(0.1 -0.1)">
       <use xlink:href="#DejaVuSans-31"/>
       <use xlink:href="#DejaVuSans-32" x="63.623047"/>
      </g>
     </g>
    </g>
    <g id="xtick_14">
     <g id="line2d_14">
      <g>
       <use xlink:href="#m89da9aba9a" x="777.335" y="554.4" style="stroke: #000000; stroke-width: 0.8"/>
      </g>
     </g>
     <g id="text_14">
      <!-- 13 -->
      <g transform="translate(770.9725 568.998438) scale(0.1 -0.1)">
       <use xlink:href="#DejaVuSans-31"/>
       <use xlink:href="#DejaVuSans-33" x="63.623047"/>
      </g>
     </g>
    </g>
    <g id="xtick_15">
     <g id="line2d_15">
      <g>
       <use xlink:href="#m89da9aba9a" x="833.135" y="554.4" style="stroke: #000000; stroke-width: 0.8"/>
      </g>
     </g>
     <g id="text_15">
      <!-- 14 -->
      <g transform="translate(826.7725 568.998438) scale(0.1 -0.1)">
       <use xlink:href="#DejaVuSans-31"/>
       <use xlink:href="#DejaVuSans-34" x="63.623047"/>
      </g>
     </g>
    </g>
    <g id="xtick_16">
     <g id="line2d_16">
      <g>
       <use xlink:href="#m89da9aba9a" x="888.935" y="554.4" style="stroke: #000000; stroke-width: 0.8"/>
      </g>
     </g>
     <g id="text_16">
      <!-- 15 -->
      <g transform="translate(882.5725 568.998438) scale(0.1 -0.1)">
       <use xlink:href="#DejaVuSans-31"/>
       <use xlink:href="#DejaVuSans-35" x="63.623047"/>
      </g>
     </g>
    </g>
    <g id="text_17">
     <!-- Cutpoint k -->
     <g transform="translate(429.065 587.235625) scale(0.16 -0.16)">
      <defs>
       <path id="DejaVuSans-43" d="M 4122 4306 
L 4122 3641 
Q 3803 3938 3442 4084 
Q 3081 4231 2675 4231 
Q 1875 4231 1450 3742 
Q 1025 3253 1025 2328 
Q 1025 1406 1450 917 
Q 1875 428 2675 428 
Q 3081 428 3442 575 
Q 3803 722 4122 1019 
L 4122 359 
Q 3791 134 3420 21 
Q 3050 -91 2638 -91 
Q 1578 -91 968 557 
Q 359 1206 359 2328 
Q 359 3453 968 4101 
Q 1578 4750 2638 4750 
Q 3056 4750 3426 4639 
Q 3797 4528 4122 4306 
z
" transform="scale(0.015625)"/>
       <path id="DejaVuSans-75" d="M 544 1381 
L 544 3500 
L 1119 3500 
L 1119 1403 
Q 1119 906 1312 657 
Q 1506 409 1894 409 
Q 2359 409 2629 706 
Q 2900 1003 2900 1516 
L 2900 3500 
L 3475 3500 
L 3475 0 
L 2900 0 
L 2900 538 
Q 2691 219 2414 64 
Q 2138 -91 1772 -91 
Q 1169 -91 856 284 
Q 544 659 544 1381 
z
M 1991 3584 
L 1991 3584 
z
" transform="scale(0.015625)"/>
       <path id="DejaVuSans-74" d="M 1172 4494 
L 1172 3500 
L 2356 3500 
L 2356 3053 
L 1172 3053 
L 1172 1153 
Q 1172 725 1289 603 
Q 1406 481 1766 481 
L 2356 481 
L 2356 0 
L 1766 0 
Q 1100 0 847 248 
Q 594 497 594 1153 
L 594 3053 
L 172 3053 
L 172 3500 
L 594 3500 
L 594 4494 
L 1172 4494 
z
" transform="scale(0.015625)"/>
       <path id="DejaVuSans-70" d="M 1159 525 
L 1159 -1331 
L 581 -1331 
L 581 3500 
L 1159 3500 
L 1159 2969 
Q 1341 3281 1617 3432 
Q 1894 3584 2278 3584 
Q 2916 3584 3314 3078 
Q 3713 2572 3713 1747 
Q 3713 922 3314 415 
Q 2916 -91 2278 -91 
Q 1894 -91 1617 61 
Q 1341 213 1159 525 
z
M 3116 1747 
Q 3116 2381 2855 2742 
Q 2594 3103 2138 3103 
Q 1681 3103 1420 2742 
Q 1159 2381 1159 1747 
Q 1159 1113 1420 752 
Q 1681 391 2138 391 
Q 2594 391 2855 752 
Q 3116 1113 3116 1747 
z
" transform="scale(0.015625)"/>
       <path id="DejaVuSans-6f" d="M 1959 3097 
Q 1497 3097 1228 2736 
Q 959 2375 959 1747 
Q 959 1119 1226 758 
Q 1494 397 1959 397 
Q 2419 397 2687 759 
Q 2956 1122 2956 1747 
Q 2956 2369 2687 2733 
Q 2419 3097 1959 3097 
z
M 1959 3584 
Q 2709 3584 3137 3096 
Q 3566 2609 3566 1747 
Q 3566 888 3137 398 
Q 2709 -91 1959 -91 
Q 1206 -91 779 398 
Q 353 888 353 1747 
Q 353 2609 779 3096 
Q 1206 3584 1959 3584 
z
" transform="scale(0.015625)"/>
       <path id="DejaVuSans-69" d="M 603 3500 
L 1178 3500 
L 1178 0 
L 603 0 
L 603 3500 
z
M 603 4863 
L 1178 4863 
L 1178 4134 
L 603 4134 
L 603 4863 
z
" transform="scale(0.015625)"/>
       <path id="DejaVuSans-6e" d="M 3513 2113 
L 3513 0 
L 2938 0 
L 2938 2094 
Q 2938 2591 2744 2837 
Q 2550 3084 2163 3084 
Q 1697 3084 1428 2787 
Q 1159 2491 1159 1978 
L 1159 0 
L 581 0 
L 581 3500 
L 1159 3500 
L 1159 2956 
Q 1366 3272 1645 3428 
Q 1925 3584 2291 3584 
Q 2894 3584 3203 3211 
Q 3513 2838 3513 2113 
z
" transform="scale(0.015625)"/>
       <path id="DejaVuSans-20" transform="scale(0.015625)"/>
       <path id="DejaVuSans-6b" d="M 581 4863 
L 1159 4863 
L 1159 1991 
L 2875 3500 
L 3609 3500 
L 1753 1863 
L 3688 0 
L 2938 0 
L 1159 1709 
L 1159 0 
L 581 0 
L 581 4863 
z
" transform="scale(0.015625)"/>
      </defs>
      <use xlink:href="#DejaVuSans-43"/>
      <use xlink:href="#DejaVuSans-75" x="69.824219"/>
      <use xlink:href="#DejaVuSans-74" x="133.203125"/>
      <use xlink:href="#DejaVuSans-70" x="172.412109"/>
      <use xlink:href="#DejaVuSans-6f" x="235.888672"/>
      <use xlink:href="#DejaVuSans-69" x="297.070312"/>
      <use xlink:href="#DejaVuSans-6e" x="324.853516"/>
      <use xlink:href="#DejaVuSans-74" x="388.232422"/>
      <use xlink:href="#DejaVuSans-20" x="427.441406"/>
      <use xlink:href="#DejaVuSans-6b" x="459.228516"/>
     </g>
    </g>
   </g>
   <g id="matplotlib.axis_2">
    <g id="ytick_1">
     <g id="line2d_17">
      <defs>
       <path id="m0dc16ef8e4" d="M 0 0 
L -3.5 0 
" style="stroke: #000000; stroke-width: 0.8"/>
      </defs>
      <g>
       <use xlink:href="#m0dc16ef8e4" x="51.935" y="499.008231" style="stroke: #000000; stroke-width: 0.8"/>
      </g>
     </g>
     <g id="text_18">
      <!-- 1000 -->
      <g transform="translate(19.485 502.807449) scale(0.1 -0.1)">
       <use xlink:href="#DejaVuSans-31"/>
       <use xlink:href="#DejaVuSans-30" x="63.623047"/>
       <use xlink:href="#DejaVuSans-30" x="127.246094"/>
       <use xlink:href="#DejaVuSans-30" x="190.869141"/>
      </g>
     </g>
    </g>
    <g id="ytick_2">
     <g id="line2d_18">
      <g>
       <use xlink:href="#m0dc16ef8e4" x="51.935" y="411.121586" style="stroke: #000000; stroke-width: 0.8"/>
      </g>
     </g>
     <g id="text_19">
      <!-- 1200 -->
      <g transform="translate(19.485 414.920805) scale(0.1 -0.1)">
       <use xlink:href="#DejaVuSans-31"/>
       <use xlink:href="#DejaVuSans-32" x="63.623047"/>
       <use xlink:href="#DejaVuSans-30" x="127.246094"/>
       <use xlink:href="#DejaVuSans-30" x="190.869141"/>
      </g>
     </g>
    </g>
    <g id="ytick_3">
     <g id="line2d_19">
      <g>
       <use xlink:href="#m0dc16ef8e4" x="51.935" y="323.234941" style="stroke: #000000; stroke-width: 0.8"/>
      </g>
     </g>
     <g id="text_20">
      <!-- 1400 -->
      <g transform="translate(19.485 327.03416) scale(0.1 -0.1)">
       <use xlink:href="#DejaVuSans-31"/>
       <use xlink:href="#DejaVuSans-34" x="63.623047"/>
       <use xlink:href="#DejaVuSans-30" x="127.246094"/>
       <use xlink:href="#DejaVuSans-30" x="190.869141"/>
      </g>
     </g>
    </g>
    <g id="ytick_4">
     <g id="line2d_20">
      <g>
       <use xlink:href="#m0dc16ef8e4" x="51.935" y="235.348297" style="stroke: #000000; stroke-width: 0.8"/>
      </g>
     </g>
     <g id="text_21">
      <!-- 1600 -->
      <g transform="translate(19.485 239.147516) scale(0.1 -0.1)">
       <use xlink:href="#DejaVuSans-31"/>
       <use xlink:href="#DejaVuSans-36" x="63.623047"/>
       <use xlink:href="#DejaVuSans-30" x="127.246094"/>
       <use xlink:href="#DejaVuSans-30" x="190.869141"/>
      </g>
     </g>
    </g>
    <g id="ytick_5">
     <g id="line2d_21">
      <g>
       <use xlink:href="#m0dc16ef8e4" x="51.935" y="147.461652" style="stroke: #000000; stroke-width: 0.8"/>
      </g>
     </g>
     <g id="text_22">
      <!-- 1800 -->
      <g transform="translate(19.485 151.260871) scale(0.1 -0.1)">
       <use xlink:href="#DejaVuSans-31"/>
       <use xlink:href="#DejaVuSans-38" x="63.623047"/>
       <use xlink:href="#DejaVuSans-30" x="127.246094"/>
       <use xlink:href="#DejaVuSans-30" x="190.869141"/>
      </g>
     </g>
    </g>
    <g id="ytick_6">
     <g id="line2d_22">
      <g>
       <use xlink:href="#m0dc16ef8e4" x="51.935" y="59.575007" style="stroke: #000000; stroke-width: 0.8"/>
      </g>
     </g>
     <g id="text_23">
      <!-- 2000 -->
      <g transform="translate(19.485 63.374226) scale(0.1 -0.1)">
       <use xlink:href="#DejaVuSans-32"/>
       <use xlink:href="#DejaVuSans-30" x="63.623047"/>
       <use xlink:href="#DejaVuSans-30" x="127.246094"/>
       <use xlink:href="#DejaVuSans-30" x="190.869141"/>
      </g>
     </g>
    </g>
    <g id="text_24">
     <!-- Rating -->
     <g transform="translate(12.1575 302.98875) rotate(-90) scale(0.16 -0.16)">
      <defs>
       <path id="DejaVuSans-52" d="M 2841 2188 
Q 3044 2119 3236 1894 
Q 3428 1669 3622 1275 
L 4263 0 
L 3584 0 
L 2988 1197 
Q 2756 1666 2539 1819 
Q 2322 1972 1947 1972 
L 1259 1972 
L 1259 0 
L 628 0 
L 628 4666 
L 2053 4666 
Q 2853 4666 3247 4331 
Q 3641 3997 3641 3322 
Q 3641 2881 3436 2590 
Q 3231 2300 2841 2188 
z
M 1259 4147 
L 1259 2491 
L 2053 2491 
Q 2509 2491 2742 2702 
Q 2975 2913 2975 3322 
Q 2975 3731 2742 3939 
Q 2509 4147 2053 4147 
L 1259 4147 
z
" transform="scale(0.015625)"/>
       <path id="DejaVuSans-61" d="M 2194 1759 
Q 1497 1759 1228 1600 
Q 959 1441 959 1056 
Q 959 750 1161 570 
Q 1363 391 1709 391 
Q 2188 391 2477 730 
Q 2766 1069 2766 1631 
L 2766 1759 
L 2194 1759 
z
M 3341 1997 
L 3341 0 
L 2766 0 
L 2766 531 
Q 2569 213 2275 61 
Q 1981 -91 1556 -91 
Q 1019 -91 701 211 
Q 384 513 384 1019 
Q 384 1609 779 1909 
Q 1175 2209 1959 2209 
L 2766 2209 
L 2766 2266 
Q 2766 2663 2505 2880 
Q 2244 3097 1772 3097 
Q 1472 3097 1187 3025 
Q 903 2953 641 2809 
L 641 3341 
Q 956 3463 1253 3523 
Q 1550 3584 1831 3584 
Q 2591 3584 2966 3190 
Q 3341 2797 3341 1997 
z
" transform="scale(0.015625)"/>
       <path id="DejaVuSans-67" d="M 2906 1791 
Q 2906 2416 2648 2759 
Q 2391 3103 1925 3103 
Q 1463 3103 1205 2759 
Q 947 2416 947 1791 
Q 947 1169 1205 825 
Q 1463 481 1925 481 
Q 2391 481 2648 825 
Q 2906 1169 2906 1791 
z
M 3481 434 
Q 3481 -459 3084 -895 
Q 2688 -1331 1869 -1331 
Q 1566 -1331 1297 -1286 
Q 1028 -1241 775 -1147 
L 775 -588 
Q 1028 -725 1275 -790 
Q 1522 -856 1778 -856 
Q 2344 -856 2625 -561 
Q 2906 -266 2906 331 
L 2906 616 
Q 2728 306 2450 153 
Q 2172 0 1784 0 
Q 1141 0 747 490 
Q 353 981 353 1791 
Q 353 2603 747 3093 
Q 1141 3584 1784 3584 
Q 2172 3584 2450 3431 
Q 2728 3278 2906 2969 
L 2906 3500 
L 3481 3500 
L 3481 434 
z
" transform="scale(0.015625)"/>
      </defs>
      <use xlink:href="#DejaVuSans-52"/>
      <use xlink:href="#DejaVuSans-61" x="67.232422"/>
      <use xlink:href="#DejaVuSans-74" x="128.511719"/>
      <use xlink:href="#DejaVuSans-69" x="167.720703"/>
      <use xlink:href="#DejaVuSans-6e" x="195.503906"/>
      <use xlink:href="#DejaVuSans-67" x="258.882812"/>
     </g>
    </g>
   </g>
   <g id="line2d_23">
    <path d="M 51.935 192.180438 
L 107.735 226.846647 
L 163.535 276.582022 
L 219.335 283.902688 
L 275.135 285.709087 
L 330.935 285.709087 
L 386.735 286.659823 
L 442.535 290.165661 
L 498.335 290.831177 
L 554.135 291.686839 
L 609.935 265.945663 
L 665.735 251.268677 
L 721.535 254.346685 
L 777.335 252.362023 
L 833.135 232.622368 
L 888.935 214.201859 
" clip-path="url(#pb2662eef7a)" style="fill: none; stroke: #1f77b4; stroke-width: 2; stroke-linecap: square"/>
    <defs>
     <path id="m6aedb7f02a" d="M 0 2 
C 0.530406 2 1.03916 1.789267 1.414214 1.414214 
C 1.789267 1.03916 2 0.530406 2 0 
C 2 -0.530406 1.789267 -1.03916 1.414214 -1.414214 
C 1.03916 -1.789267 0.530406 -2 0 -2 
C -0.530406 -2 -1.03916 -1.789267 -1.414214 -1.414214 
C -1.789267 -1.03916 -2 -0.530406 -2 0 
C -2 0.530406 -1.789267 1.03916 -1.414214 1.414214 
C -1.03916 1.789267 -0.530406 2 0 2 
z
" style="stroke: #1f77b4"/>
    </defs>
    <g clip-path="url(#pb2662eef7a)">
     <use xlink:href="#m6aedb7f02a" x="51.935" y="192.180438" style="fill: #1f77b4; stroke: #1f77b4"/>
     <use xlink:href="#m6aedb7f02a" x="107.735" y="226.846647" style="fill: #1f77b4; stroke: #1f77b4"/>
     <use xlink:href="#m6aedb7f02a" x="163.535" y="276.582022" style="fill: #1f77b4; stroke: #1f77b4"/>
     <use xlink:href="#m6aedb7f02a" x="219.335" y="283.902688" style="fill: #1f77b4; stroke: #1f77b4"/>
     <use xlink:href="#m6aedb7f02a" x="275.135" y="285.709087" style="fill: #1f77b4; stroke: #1f77b4"/>
     <use xlink:href="#m6aedb7f02a" x="330.935" y="285.709087" style="fill: #1f77b4; stroke: #1f77b4"/>
     <use xlink:href="#m6aedb7f02a" x="386.735" y="286.659823" style="fill: #1f77b4; stroke: #1f77b4"/>
     <use xlink:href="#m6aedb7f02a" x="442.535" y="290.165661" style="fill: #1f77b4; stroke: #1f77b4"/>
     <use xlink:href="#m6aedb7f02a" x="498.335" y="290.831177" style="fill: #1f77b4; stroke: #1f77b4"/>
     <use xlink:href="#m6aedb7f02a" x="554.135" y="291.686839" style="fill: #1f77b4; stroke: #1f77b4"/>
     <use xlink:href="#m6aedb7f02a" x="609.935" y="265.945663" style="fill: #1f77b4; stroke: #1f77b4"/>
     <use xlink:href="#m6aedb7f02a" x="665.735" y="251.268677" style="fill: #1f77b4; stroke: #1f77b4"/>
     <use xlink:href="#m6aedb7f02a" x="721.535" y="254.346685" style="fill: #1f77b4; stroke: #1f77b4"/>
     <use xlink:href="#m6aedb7f02a" x="777.335" y="252.362023" style="fill: #1f77b4; stroke: #1f77b4"/>
     <use xlink:href="#m6aedb7f02a" x="833.135" y="232.622368" style="fill: #1f77b4; stroke: #1f77b4"/>
     <use xlink:href="#m6aedb7f02a" x="888.935" y="214.201859" style="fill: #1f77b4; stroke: #1f77b4"/>
    </g>
   </g>
   <g id="line2d_24">
    <path d="M 51.935 247.620228 
L 107.735 305.733963 
L 163.535 346.425461 
L 219.335 381.40066 
L 275.135 413.143356 
L 330.935 443.590675 
L 386.735 469.724029 
L 442.535 483.22448 
L 498.335 485.256678 
L 554.135 473.740889 
L 609.935 450.079448 
L 665.735 423.85102 
L 721.535 394.841689 
L 777.335 338.379858 
L 833.135 295.22833 
L 888.935 271.733268 
" clip-path="url(#pb2662eef7a)" style="fill: none; stroke-dasharray: 7.4,3.2; stroke-dashoffset: 0; stroke: #ff7f0e; stroke-width: 2"/>
    <defs>
     <path id="mbcc2eb961e" d="M -0.49999 0.49999 
L 0.50001 0.49999 
L 0.50001 -0.50001 
L -0.49999 -0.50001 
z
"/>
    </defs>
    <g clip-path="url(#pb2662eef7a)">
     <use xlink:href="#mbcc2eb961e" x="51.935" y="247.620228" style="fill: #ff7f0e"/>
     <use xlink:href="#mbcc2eb961e" x="107.735" y="305.733963" style="fill: #ff7f0e"/>
     <use xlink:href="#mbcc2eb961e" x="163.535" y="346.425461" style="fill: #ff7f0e"/>
     <use xlink:href="#mbcc2eb961e" x="219.335" y="381.40066" style="fill: #ff7f0e"/>
     <use xlink:href="#mbcc2eb961e" x="275.135" y="413.143356" style="fill: #ff7f0e"/>
     <use xlink:href="#mbcc2eb961e" x="330.935" y="443.590675" style="fill: #ff7f0e"/>
     <use xlink:href="#mbcc2eb961e" x="386.735" y="469.724029" style="fill: #ff7f0e"/>
     <use xlink:href="#mbcc2eb961e" x="442.535" y="483.22448" style="fill: #ff7f0e"/>
     <use xlink:href="#mbcc2eb961e" x="498.335" y="485.256678" style="fill: #ff7f0e"/>
     <use xlink:href="#mbcc2eb961e" x="554.135" y="473.740889" style="fill: #ff7f0e"/>
     <use xlink:href="#mbcc2eb961e" x="609.935" y="450.079448" style="fill: #ff7f0e"/>
     <use xlink:href="#mbcc2eb961e" x="665.735" y="423.85102" style="fill: #ff7f0e"/>
     <use xlink:href="#mbcc2eb961e" x="721.535" y="394.841689" style="fill: #ff7f0e"/>
     <use xlink:href="#mbcc2eb961e" x="777.335" y="338.379858" style="fill: #ff7f0e"/>
     <use xlink:href="#mbcc2eb961e" x="833.135" y="295.22833" style="fill: #ff7f0e"/>
     <use xlink:href="#mbcc2eb961e" x="888.935" y="271.733268" style="fill: #ff7f0e"/>
    </g>
   </g>
   <g id="line2d_25">
    <path d="M 51.935 277.009853 
L 107.735 175.590096 
L 163.535 126.0211 
L 219.335 86.933969 
L 275.135 71.555815 
L 330.935 69.143322 
L 386.735 69.369122 
L 442.535 74.82397 
L 498.335 86.256569 
L 554.135 102.003133 
L 609.935 112.883118 
L 665.735 121.243652 
L 721.535 140.038513 
L 777.335 161.917324 
L 833.135 209.763111 
L 888.935 283.356015 
" clip-path="url(#pb2662eef7a)" style="fill: none; stroke-dasharray: 12.8,3.2,2,3.2; stroke-dashoffset: 0; stroke: #2ca02c; stroke-width: 2"/>
    <defs>
     <path id="mdafd3abeab" d="M 0 4 
C 1.060812 4 2.078319 3.578535 2.828427 2.828427 
C 3.578535 2.078319 4 1.060812 4 0 
C 4 -1.060812 3.578535 -2.078319 2.828427 -2.828427 
C 2.078319 -3.578535 1.060812 -4 0 -4 
C -1.060812 -4 -2.078319 -3.578535 -2.828427 -2.828427 
C -3.578535 -2.078319 -4 -1.060812 -4 0 
C -4 1.060812 -3.578535 2.078319 -2.828427 2.828427 
C -2.078319 3.578535 -1.060812 4 0 4 
z
" style="stroke: #2ca02c"/>
    </defs>
    <g clip-path="url(#pb2662eef7a)">
     <use xlink:href="#mdafd3abeab" x="51.935" y="277.009853" style="fill: #2ca02c; stroke: #2ca02c"/>
     <use xlink:href="#mdafd3abeab" x="107.735" y="175.590096" style="fill: #2ca02c; stroke: #2ca02c"/>
     <use xlink:href="#mdafd3abeab" x="163.535" y="126.0211" style="fill: #2ca02c; stroke: #2ca02c"/>
     <use xlink:href="#mdafd3abeab" x="219.335" y="86.933969" style="fill: #2ca02c; stroke: #2ca02c"/>
     <use xlink:href="#mdafd3abeab" x="275.135" y="71.555815" style="fill: #2ca02c; stroke: #2ca02c"/>
     <use xlink:href="#mdafd3abeab" x="330.935" y="69.143322" style="fill: #2ca02c; stroke: #2ca02c"/>
     <use xlink:href="#mdafd3abeab" x="386.735" y="69.369122" style="fill: #2ca02c; stroke: #2ca02c"/>
     <use xlink:href="#mdafd3abeab" x="442.535" y="74.82397" style="fill: #2ca02c; stroke: #2ca02c"/>
     <use xlink:href="#mdafd3abeab" x="498.335" y="86.256569" style="fill: #2ca02c; stroke: #2ca02c"/>
     <use xlink:href="#mdafd3abeab" x="554.135" y="102.003133" style="fill: #2ca02c; stroke: #2ca02c"/>
     <use xlink:href="#mdafd3abeab" x="609.935" y="112.883118" style="fill: #2ca02c; stroke: #2ca02c"/>
     <use xlink:href="#mdafd3abeab" x="665.735" y="121.243652" style="fill: #2ca02c; stroke: #2ca02c"/>
     <use xlink:href="#mdafd3abeab" x="721.535" y="140.038513" style="fill: #2ca02c; stroke: #2ca02c"/>
     <use xlink:href="#mdafd3abeab" x="777.335" y="161.917324" style="fill: #2ca02c; stroke: #2ca02c"/>
     <use xlink:href="#mdafd3abeab" x="833.135" y="209.763111" style="fill: #2ca02c; stroke: #2ca02c"/>
     <use xlink:href="#mdafd3abeab" x="888.935" y="283.356015" style="fill: #2ca02c; stroke: #2ca02c"/>
    </g>
   </g>
   <g id="line2d_26">
    <path d="M 51.935 296.250372 
L 107.735 278.946977 
L 163.535 257.424692 
L 219.335 267.882788 
L 275.135 279.588724 
L 330.935 291.97206 
L 386.735 307.552245 
L 442.535 317.428015 
L 498.335 324.071282 
L 554.135 332.449643 
L 609.935 335.040398 
L 665.735 341.309313 
L 721.535 347.132571 
L 777.335 362.730583 
L 833.135 339.918862 
L 888.935 253.817838 
" clip-path="url(#pb2662eef7a)" style="fill: none; stroke-dasharray: 2,3.3; stroke-dashoffset: 0; stroke: #d62728; stroke-width: 2"/>
    <defs>
     <path id="m58629d93fc" d="M -0 4 
L 4 -4 
L -4 -4 
z
" style="stroke: #d62728; stroke-linejoin: miter"/>
    </defs>
    <g clip-path="url(#pb2662eef7a)">
     <use xlink:href="#m58629d93fc" x="51.935" y="296.250372" style="fill: #d62728; stroke: #d62728; stroke-linejoin: miter"/>
     <use xlink:href="#m58629d93fc" x="107.735" y="278.946977" style="fill: #d62728; stroke: #d62728; stroke-linejoin: miter"/>
     <use xlink:href="#m58629d93fc" x="163.535" y="257.424692" style="fill: #d62728; stroke: #d62728; stroke-linejoin: miter"/>
     <use xlink:href="#m58629d93fc" x="219.335" y="267.882788" style="fill: #d62728; stroke: #d62728; stroke-linejoin: miter"/>
     <use xlink:href="#m58629d93fc" x="275.135" y="279.588724" style="fill: #d62728; stroke: #d62728; stroke-linejoin: miter"/>
     <use xlink:href="#m58629d93fc" x="330.935" y="291.97206" style="fill: #d62728; stroke: #d62728; stroke-linejoin: miter"/>
     <use xlink:href="#m58629d93fc" x="386.735" y="307.552245" style="fill: #d62728; stroke: #d62728; stroke-linejoin: miter"/>
     <use xlink:href="#m58629d93fc" x="442.535" y="317.428015" style="fill: #d62728; stroke: #d62728; stroke-linejoin: miter"/>
     <use xlink:href="#m58629d93fc" x="498.335" y="324.071282" style="fill: #d62728; stroke: #d62728; stroke-linejoin: miter"/>
     <use xlink:href="#m58629d93fc" x="554.135" y="332.449643" style="fill: #d62728; stroke: #d62728; stroke-linejoin: miter"/>
     <use xlink:href="#m58629d93fc" x="609.935" y="335.040398" style="fill: #d62728; stroke: #d62728; stroke-linejoin: miter"/>
     <use xlink:href="#m58629d93fc" x="665.735" y="341.309313" style="fill: #d62728; stroke: #d62728; stroke-linejoin: miter"/>
     <use xlink:href="#m58629d93fc" x="721.535" y="347.132571" style="fill: #d62728; stroke: #d62728; stroke-linejoin: miter"/>
     <use xlink:href="#m58629d93fc" x="777.335" y="362.730583" style="fill: #d62728; stroke: #d62728; stroke-linejoin: miter"/>
     <use xlink:href="#m58629d93fc" x="833.135" y="339.918862" style="fill: #d62728; stroke: #d62728; stroke-linejoin: miter"/>
     <use xlink:href="#m58629d93fc" x="888.935" y="253.817838" style="fill: #d62728; stroke: #d62728; stroke-linejoin: miter"/>
    </g>
   </g>
   <g id="line2d_27">
    <path d="M 51.935 199.988357 
L 107.735 162.731392 
L 163.535 146.854102 
L 219.335 157.098282 
L 275.135 156.908134 
L 330.935 160.271363 
L 386.735 170.230322 
L 442.535 174.55617 
L 498.335 174.532402 
L 554.135 171.169174 
L 609.935 176.505179 
L 665.735 190.385924 
L 721.535 204.884647 
L 777.335 221.813689 
L 833.135 220.963969 
L 888.935 213.946349 
" clip-path="url(#pb2662eef7a)" style="fill: none; stroke: #9467bd; stroke-width: 2; stroke-linecap: square"/>
    <defs>
     <path id="m313bde2c44" d="M 0 -4 
L -4 4 
L 4 4 
z
" style="stroke: #9467bd; stroke-linejoin: miter"/>
    </defs>
    <g clip-path="url(#pb2662eef7a)">
     <use xlink:href="#m313bde2c44" x="51.935" y="199.988357" style="fill: #9467bd; stroke: #9467bd; stroke-linejoin: miter"/>
     <use xlink:href="#m313bde2c44" x="107.735" y="162.731392" style="fill: #9467bd; stroke: #9467bd; stroke-linejoin: miter"/>
     <use xlink:href="#m313bde2c44" x="163.535" y="146.854102" style="fill: #9467bd; stroke: #9467bd; stroke-linejoin: miter"/>
     <use xlink:href="#m313bde2c44" x="219.335" y="157.098282" style="fill: #9467bd; stroke: #9467bd; stroke-linejoin: miter"/>
     <use xlink:href="#m313bde2c44" x="275.135" y="156.908134" style="fill: #9467bd; stroke: #9467bd; stroke-linejoin: miter"/>
     <use xlink:href="#m313bde2c44" x="330.935" y="160.271363" style="fill: #9467bd; stroke: #9467bd; stroke-linejoin: miter"/>
     <use xlink:href="#m313bde2c44" x="386.735" y="170.230322" style="fill: #9467bd; stroke: #9467bd; stroke-linejoin: miter"/>
     <use xlink:href="#m313bde2c44" x="442.535" y="174.55617" style="fill: #9467bd; stroke: #9467bd; stroke-linejoin: miter"/>
     <use xlink:href="#m313bde2c44" x="498.335" y="174.532402" style="fill: #9467bd; stroke: #9467bd; stroke-linejoin: miter"/>
     <use xlink:href="#m313bde2c44" x="554.135" y="171.169174" style="fill: #9467bd; stroke: #9467bd; stroke-linejoin: miter"/>
     <use xlink:href="#m313bde2c44" x="609.935" y="176.505179" style="fill: #9467bd; stroke: #9467bd; stroke-linejoin: miter"/>
     <use xlink:href="#m313bde2c44" x="665.735" y="190.385924" style="fill: #9467bd; stroke: #9467bd; stroke-linejoin: miter"/>
     <use xlink:href="#m313bde2c44" x="721.535" y="204.884647" style="fill: #9467bd; stroke: #9467bd; stroke-linejoin: miter"/>
     <use xlink:href="#m313bde2c44" x="777.335" y="221.813689" style="fill: #9467bd; stroke: #9467bd; stroke-linejoin: miter"/>
     <use xlink:href="#m313bde2c44" x="833.135" y="220.963969" style="fill: #9467bd; stroke: #9467bd; stroke-linejoin: miter"/>
     <use xlink:href="#m313bde2c44" x="888.935" y="213.946349" style="fill: #9467bd; stroke: #9467bd; stroke-linejoin: miter"/>
    </g>
   </g>
   <g id="line2d_28">
    <path d="M 51.935 219.597286 
L 107.735 245.528609 
L 163.535 239.598393 
L 219.335 216.198405 
L 275.135 196.078455 
L 330.935 187.129653 
L 386.735 187.260379 
L 442.535 195.923961 
L 498.335 205.740309 
L 554.135 207.558592 
L 609.935 215.574484 
L 665.735 208.247875 
L 721.535 199.126753 
L 777.335 203.933911 
L 833.135 215.978547 
L 888.935 246.140645 
" clip-path="url(#pb2662eef7a)" style="fill: none; stroke-dasharray: 7.4,3.2; stroke-dashoffset: 0; stroke: #8c564b; stroke-width: 2"/>
    <defs>
     <path id="m93421728c1" d="M -4 -0 
L 4 4 
L 4 -4 
z
" style="stroke: #8c564b; stroke-linejoin: miter"/>
    </defs>
    <g clip-path="url(#pb2662eef7a)">
     <use xlink:href="#m93421728c1" x="51.935" y="219.597286" style="fill: #8c564b; stroke: #8c564b; stroke-linejoin: miter"/>
     <use xlink:href="#m93421728c1" x="107.735" y="245.528609" style="fill: #8c564b; stroke: #8c564b; stroke-linejoin: miter"/>
     <use xlink:href="#m93421728c1" x="163.535" y="239.598393" style="fill: #8c564b; stroke: #8c564b; stroke-linejoin: miter"/>
     <use xlink:href="#m93421728c1" x="219.335" y="216.198405" style="fill: #8c564b; stroke: #8c564b; stroke-linejoin: miter"/>
     <use xlink:href="#m93421728c1" x="275.135" y="196.078455" style="fill: #8c564b; stroke: #8c564b; stroke-linejoin: miter"/>
     <use xlink:href="#m93421728c1" x="330.935" y="187.129653" style="fill: #8c564b; stroke: #8c564b; stroke-linejoin: miter"/>
     <use xlink:href="#m93421728c1" x="386.735" y="187.260379" style="fill: #8c564b; stroke: #8c564b; stroke-linejoin: miter"/>
     <use xlink:href="#m93421728c1" x="442.535" y="195.923961" style="fill: #8c564b; stroke: #8c564b; stroke-linejoin: miter"/>
     <use xlink:href="#m93421728c1" x="498.335" y="205.740309" style="fill: #8c564b; stroke: #8c564b; stroke-linejoin: miter"/>
     <use xlink:href="#m93421728c1" x="554.135" y="207.558592" style="fill: #8c564b; stroke: #8c564b; stroke-linejoin: miter"/>
     <use xlink:href="#m93421728c1" x="609.935" y="215.574484" style="fill: #8c564b; stroke: #8c564b; stroke-linejoin: miter"/>
     <use xlink:href="#m93421728c1" x="665.735" y="208.247875" style="fill: #8c564b; stroke: #8c564b; stroke-linejoin: miter"/>
     <use xlink:href="#m93421728c1" x="721.535" y="199.126753" style="fill: #8c564b; stroke: #8c564b; stroke-linejoin: miter"/>
     <use xlink:href="#m93421728c1" x="777.335" y="203.933911" style="fill: #8c564b; stroke: #8c564b; stroke-linejoin: miter"/>
     <use xlink:href="#m93421728c1" x="833.135" y="215.978547" style="fill: #8c564b; stroke: #8c564b; stroke-linejoin: miter"/>
     <use xlink:href="#m93421728c1" x="888.935" y="246.140645" style="fill: #8c564b; stroke: #8c564b; stroke-linejoin: miter"/>
    </g>
   </g>
   <g id="line2d_29">
    <path d="M 51.935 288.537526 
L 107.735 299.162 
L 163.535 306.423246 
L 219.335 317.142794 
L 275.135 336.109976 
L 330.935 349.253901 
L 386.735 361.815499 
L 442.535 371.917069 
L 498.335 374.614782 
L 554.135 376.979738 
L 609.935 373.093604 
L 665.735 348.51708 
L 721.535 335.337503 
L 777.335 308.645591 
L 833.135 258.601228 
L 888.935 247.929217 
" clip-path="url(#pb2662eef7a)" style="fill: none; stroke-dasharray: 12.8,3.2,2,3.2; stroke-dashoffset: 0; stroke: #e377c2; stroke-width: 2"/>
    <defs>
     <path id="m87aafc44b9" d="M 4 0 
L -4 -4 
L -4 4 
z
" style="stroke: #e377c2; stroke-linejoin: miter"/>
    </defs>
    <g clip-path="url(#pb2662eef7a)">
     <use xlink:href="#m87aafc44b9" x="51.935" y="288.537526" style="fill: #e377c2; stroke: #e377c2; stroke-linejoin: miter"/>
     <use xlink:href="#m87aafc44b9" x="107.735" y="299.162" style="fill: #e377c2; stroke: #e377c2; stroke-linejoin: miter"/>
     <use xlink:href="#m87aafc44b9" x="163.535" y="306.423246" style="fill: #e377c2; stroke: #e377c2; stroke-linejoin: miter"/>
     <use xlink:href="#m87aafc44b9" x="219.335" y="317.142794" style="fill: #e377c2; stroke: #e377c2; stroke-linejoin: miter"/>
     <use xlink:href="#m87aafc44b9" x="275.135" y="336.109976" style="fill: #e377c2; stroke: #e377c2; stroke-linejoin: miter"/>
     <use xlink:href="#m87aafc44b9" x="330.935" y="349.253901" style="fill: #e377c2; stroke: #e377c2; stroke-linejoin: miter"/>
     <use xlink:href="#m87aafc44b9" x="386.735" y="361.815499" style="fill: #e377c2; stroke: #e377c2; stroke-linejoin: miter"/>
     <use xlink:href="#m87aafc44b9" x="442.535" y="371.917069" style="fill: #e377c2; stroke: #e377c2; stroke-linejoin: miter"/>
     <use xlink:href="#m87aafc44b9" x="498.335" y="374.614782" style="fill: #e377c2; stroke: #e377c2; stroke-linejoin: miter"/>
     <use xlink:href="#m87aafc44b9" x="554.135" y="376.979738" style="fill: #e377c2; stroke: #e377c2; stroke-linejoin: miter"/>
     <use xlink:href="#m87aafc44b9" x="609.935" y="373.093604" style="fill: #e377c2; stroke: #e377c2; stroke-linejoin: miter"/>
     <use xlink:href="#m87aafc44b9" x="665.735" y="348.51708" style="fill: #e377c2; stroke: #e377c2; stroke-linejoin: miter"/>
     <use xlink:href="#m87aafc44b9" x="721.535" y="335.337503" style="fill: #e377c2; stroke: #e377c2; stroke-linejoin: miter"/>
     <use xlink:href="#m87aafc44b9" x="777.335" y="308.645591" style="fill: #e377c2; stroke: #e377c2; stroke-linejoin: miter"/>
     <use xlink:href="#m87aafc44b9" x="833.135" y="258.601228" style="fill: #e377c2; stroke: #e377c2; stroke-linejoin: miter"/>
     <use xlink:href="#m87aafc44b9" x="888.935" y="247.929217" style="fill: #e377c2; stroke: #e377c2; stroke-linejoin: miter"/>
    </g>
   </g>
   <g id="line2d_30">
    <path d="M 51.935 473.847846 
L 107.735 468.511841 
L 163.535 452.682087 
L 219.335 434.23781 
L 275.135 415.769764 
L 330.935 382.030522 
L 386.735 334.671988 
L 442.535 293.124827 
L 498.335 270.461659 
L 554.135 268.263082 
L 609.935 287.123306 
L 665.735 302.566823 
L 721.535 330.542229 
L 777.335 353.318297 
L 833.135 402.709029 
L 888.935 417.784136 
" clip-path="url(#pb2662eef7a)" style="fill: none; stroke-dasharray: 2,3.3; stroke-dashoffset: 0; stroke: #bcbd22; stroke-width: 2"/>
    <defs>
     <path id="m940c79415c" d="M -4 4 
L 4 4 
L 4 -4 
L -4 -4 
z
" style="stroke: #bcbd22; stroke-linejoin: miter"/>
    </defs>
    <g clip-path="url(#pb2662eef7a)">
     <use xlink:href="#m940c79415c" x="51.935" y="473.847846" style="fill: #bcbd22; stroke: #bcbd22; stroke-linejoin: miter"/>
     <use xlink:href="#m940c79415c" x="107.735" y="468.511841" style="fill: #bcbd22; stroke: #bcbd22; stroke-linejoin: miter"/>
     <use xlink:href="#m940c79415c" x="163.535" y="452.682087" style="fill: #bcbd22; stroke: #bcbd22; stroke-linejoin: miter"/>
     <use xlink:href="#m940c79415c" x="219.335" y="434.23781" style="fill: #bcbd22; stroke: #bcbd22; stroke-linejoin: miter"/>
     <use xlink:href="#m940c79415c" x="275.135" y="415.769764" style="fill: #bcbd22; stroke: #bcbd22; stroke-linejoin: miter"/>
     <use xlink:href="#m940c79415c" x="330.935" y="382.030522" style="fill: #bcbd22; stroke: #bcbd22; stroke-linejoin: miter"/>
     <use xlink:href="#m940c79415c" x="386.735" y="334.671988" style="fill: #bcbd22; stroke: #bcbd22; stroke-linejoin: miter"/>
     <use xlink:href="#m940c79415c" x="442.535" y="293.124827" style="fill: #bcbd22; stroke: #bcbd22; stroke-linejoin: miter"/>
     <use xlink:href="#m940c79415c" x="498.335" y="270.461659" style="fill: #bcbd22; stroke: #bcbd22; stroke-linejoin: miter"/>
     <use xlink:href="#m940c79415c" x="554.135" y="268.263082" style="fill: #bcbd22; stroke: #bcbd22; stroke-linejoin: miter"/>
     <use xlink:href="#m940c79415c" x="609.935" y="287.123306" style="fill: #bcbd22; stroke: #bcbd22; stroke-linejoin: miter"/>
     <use xlink:href="#m940c79415c" x="665.735" y="302.566823" style="fill: #bcbd22; stroke: #bcbd22; stroke-linejoin: miter"/>
     <use xlink:href="#m940c79415c" x="721.535" y="330.542229" style="fill: #bcbd22; stroke: #bcbd22; stroke-linejoin: miter"/>
     <use xlink:href="#m940c79415c" x="777.335" y="353.318297" style="fill: #bcbd22; stroke: #bcbd22; stroke-linejoin: miter"/>
     <use xlink:href="#m940c79415c" x="833.135" y="402.709029" style="fill: #bcbd22; stroke: #bcbd22; stroke-linejoin: miter"/>
     <use xlink:href="#m940c79415c" x="888.935" y="417.784136" style="fill: #bcbd22; stroke: #bcbd22; stroke-linejoin: miter"/>
    </g>
   </g>
   <g id="line2d_31">
    <path d="M 51.935 318.592666 
L 107.735 350.573047 
L 163.535 361.613468 
L 219.335 368.827177 
L 275.135 358.76126 
L 330.935 344.523989 
L 386.735 326.341164 
L 442.535 312.460419 
L 498.335 301.859714 
L 554.135 289.773483 
L 609.935 297.37937 
L 665.735 326.234206 
L 721.535 307.373982 
L 777.335 310.523295 
L 833.135 337.839127 
L 888.935 364.715244 
" clip-path="url(#pb2662eef7a)" style="fill: none; stroke: #17becf; stroke-width: 2; stroke-linecap: square"/>
    <defs>
     <path id="m51fd6bb5a1" d="M 0 -4 
L -3.804226 -1.236068 
L -2.351141 3.236068 
L 2.351141 3.236068 
L 3.804226 -1.236068 
z
" style="stroke: #17becf; stroke-linejoin: miter"/>
    </defs>
    <g clip-path="url(#pb2662eef7a)">
     <use xlink:href="#m51fd6bb5a1" x="51.935" y="318.592666" style="fill: #17becf; stroke: #17becf; stroke-linejoin: miter"/>
     <use xlink:href="#m51fd6bb5a1" x="107.735" y="350.573047" style="fill: #17becf; stroke: #17becf; stroke-linejoin: miter"/>
     <use xlink:href="#m51fd6bb5a1" x="163.535" y="361.613468" style="fill: #17becf; stroke: #17becf; stroke-linejoin: miter"/>
     <use xlink:href="#m51fd6bb5a1" x="219.335" y="368.827177" style="fill: #17becf; stroke: #17becf; stroke-linejoin: miter"/>
     <use xlink:href="#m51fd6bb5a1" x="275.135" y="358.76126" style="fill: #17becf; stroke: #17becf; stroke-linejoin: miter"/>
     <use xlink:href="#m51fd6bb5a1" x="330.935" y="344.523989" style="fill: #17becf; stroke: #17becf; stroke-linejoin: miter"/>
     <use xlink:href="#m51fd6bb5a1" x="386.735" y="326.341164" style="fill: #17becf; stroke: #17becf; stroke-linejoin: miter"/>
     <use xlink:href="#m51fd6bb5a1" x="442.535" y="312.460419" style="fill: #17becf; stroke: #17becf; stroke-linejoin: miter"/>
     <use xlink:href="#m51fd6bb5a1" x="498.335" y="301.859714" style="fill: #17becf; stroke: #17becf; stroke-linejoin: miter"/>
     <use xlink:href="#m51fd6bb5a1" x="554.135" y="289.773483" style="fill: #17becf; stroke: #17becf; stroke-linejoin: miter"/>
     <use xlink:href="#m51fd6bb5a1" x="609.935" y="297.37937" style="fill: #17becf; stroke: #17becf; stroke-linejoin: miter"/>
     <use xlink:href="#m51fd6bb5a1" x="665.735" y="326.234206" style="fill: #17becf; stroke: #17becf; stroke-linejoin: miter"/>
     <use xlink:href="#m51fd6bb5a1" x="721.535" y="307.373982" style="fill: #17becf; stroke: #17becf; stroke-linejoin: miter"/>
     <use xlink:href="#m51fd6bb5a1" x="777.335" y="310.523295" style="fill: #17becf; stroke: #17becf; stroke-linejoin: miter"/>
     <use xlink:href="#m51fd6bb5a1" x="833.135" y="337.839127" style="fill: #17becf; stroke: #17becf; stroke-linejoin: miter"/>
     <use xlink:href="#m51fd6bb5a1" x="888.935" y="364.715244" style="fill: #17becf; stroke: #17becf; stroke-linejoin: miter"/>
    </g>
   </g>
   <g id="line2d_32">
    <path d="M 51.935 554.4 
L 51.935 0 
" clip-path="url(#pb2662eef7a)" style="fill: none; stroke-dasharray: 3.7,1.6; stroke-dashoffset: 0; stroke: #000000; stroke-opacity: 0.5"/>
   </g>
   <g id="line2d_33">
    <path d="M 107.735 554.4 
L 107.735 0 
" clip-path="url(#pb2662eef7a)" style="fill: none; stroke-dasharray: 3.7,1.6; stroke-dashoffset: 0; stroke: #000000; stroke-opacity: 0.5"/>
   </g>
   <g id="line2d_34">
    <path d="M 163.535 554.4 
L 163.535 0 
" clip-path="url(#pb2662eef7a)" style="fill: none; stroke-dasharray: 3.7,1.6; stroke-dashoffset: 0; stroke: #000000; stroke-opacity: 0.5"/>
   </g>
   <g id="line2d_35">
    <path d="M 219.335 554.4 
L 219.335 0 
" clip-path="url(#pb2662eef7a)" style="fill: none; stroke-dasharray: 3.7,1.6; stroke-dashoffset: 0; stroke: #000000; stroke-opacity: 0.5"/>
   </g>
   <g id="line2d_36">
    <path d="M 275.135 554.4 
L 275.135 0 
" clip-path="url(#pb2662eef7a)" style="fill: none; stroke-dasharray: 3.7,1.6; stroke-dashoffset: 0; stroke: #000000; stroke-opacity: 0.5"/>
   </g>
   <g id="line2d_37">
    <path d="M 330.935 554.4 
L 330.935 0 
" clip-path="url(#pb2662eef7a)" style="fill: none; stroke-dasharray: 3.7,1.6; stroke-dashoffset: 0; stroke: #000000; stroke-opacity: 0.5"/>
   </g>
   <g id="line2d_38">
    <path d="M 386.735 554.4 
L 386.735 0 
" clip-path="url(#pb2662eef7a)" style="fill: none; stroke-dasharray: 3.7,1.6; stroke-dashoffset: 0; stroke: #000000; stroke-opacity: 0.5"/>
   </g>
   <g id="line2d_39">
    <path d="M 442.535 554.4 
L 442.535 0 
" clip-path="url(#pb2662eef7a)" style="fill: none; stroke-dasharray: 3.7,1.6; stroke-dashoffset: 0; stroke: #000000; stroke-opacity: 0.5"/>
   </g>
   <g id="line2d_40">
    <path d="M 498.335 554.4 
L 498.335 0 
" clip-path="url(#pb2662eef7a)" style="fill: none; stroke-dasharray: 3.7,1.6; stroke-dashoffset: 0; stroke: #000000; stroke-opacity: 0.5"/>
   </g>
   <g id="line2d_41">
    <path d="M 554.135 554.4 
L 554.135 0 
" clip-path="url(#pb2662eef7a)" style="fill: none; stroke-dasharray: 3.7,1.6; stroke-dashoffset: 0; stroke: #000000; stroke-opacity: 0.5"/>
   </g>
   <g id="line2d_42">
    <path d="M 609.935 554.4 
L 609.935 0 
" clip-path="url(#pb2662eef7a)" style="fill: none; stroke-dasharray: 3.7,1.6; stroke-dashoffset: 0; stroke: #000000; stroke-opacity: 0.5"/>
   </g>
   <g id="line2d_43">
    <path d="M 665.735 554.4 
L 665.735 0 
" clip-path="url(#pb2662eef7a)" style="fill: none; stroke-dasharray: 3.7,1.6; stroke-dashoffset: 0; stroke: #000000; stroke-opacity: 0.5"/>
   </g>
   <g id="line2d_44">
    <path d="M 721.535 554.4 
L 721.535 0 
" clip-path="url(#pb2662eef7a)" style="fill: none; stroke-dasharray: 3.7,1.6; stroke-dashoffset: 0; stroke: #000000; stroke-opacity: 0.5"/>
   </g>
   <g id="line2d_45">
    <path d="M 777.335 554.4 
L 777.335 0 
" clip-path="url(#pb2662eef7a)" style="fill: none; stroke-dasharray: 3.7,1.6; stroke-dashoffset: 0; stroke: #000000; stroke-opacity: 0.5"/>
   </g>
   <g id="line2d_46">
    <path d="M 833.135 554.4 
L 833.135 0 
" clip-path="url(#pb2662eef7a)" style="fill: none; stroke-dasharray: 3.7,1.6; stroke-dashoffset: 0; stroke: #000000; stroke-opacity: 0.5"/>
   </g>
   <g id="line2d_47">
    <path d="M 888.935 554.4 
L 888.935 0 
" clip-path="url(#pb2662eef7a)" style="fill: none; stroke-dasharray: 3.7,1.6; stroke-dashoffset: 0; stroke: #000000; stroke-opacity: 0.5"/>
   </g>
   <g id="patch_3">
    <path d="M 51.935 554.4 
L 51.935 0 
" style="fill: none; stroke: #000000; stroke-width: 0.8; stroke-linejoin: miter; stroke-linecap: square"/>
   </g>
   <g id="patch_4">
    <path d="M 888.935 554.4 
L 888.935 0 
" style="fill: none; stroke: #000000; stroke-width: 0.8; stroke-linejoin: miter; stroke-linecap: square"/>
   </g>
   <g id="patch_5">
    <path d="M 51.935 554.4 
L 888.935 554.4 
" style="fill: none; stroke: #000000; stroke-width: 0.8; stroke-linejoin: miter; stroke-linecap: square"/>
   </g>
   <g id="patch_6">
    <path d="M 51.935 0 
L 888.935 0 
" style="fill: none; stroke: #000000; stroke-width: 0.8; stroke-linejoin: miter; stroke-linecap: square"/>
   </g>
   <g id="legend_1">
    <g id="patch_7">
     <path d="M 58.935 140.103125 
L 199.781875 140.103125 
Q 201.781875 140.103125 201.781875 138.103125 
L 201.781875 7 
Q 201.781875 5 199.781875 5 
L 58.935 5 
Q 56.935 5 56.935 7 
L 56.935 138.103125 
Q 56.935 140.103125 58.935 140.103125 
z
" style="fill: #ffffff; opacity: 0.8; stroke: #cccccc; stroke-linejoin: miter"/>
    </g>
    <g id="patch_8">
     <path d="M 60.935 16.598438 
L 80.935 16.598438 
L 80.935 9.598438 
L 60.935 9.598438 
z
" style="fill: #8fbbda; fill-opacity: 0.3"/>
    </g>
    <g id="line2d_48">
     <path d="M 60.935 13.098438 
L 70.935 13.098438 
L 80.935 13.098438 
" style="fill: none; stroke: #1f77b4; stroke-width: 2; stroke-linecap: square"/>
     <g>
      <use xlink:href="#m6aedb7f02a" x="70.935" y="13.098438" style="fill: #1f77b4; stroke: #1f77b4"/>
     </g>
    </g>
    <g id="text_25">
     <!-- APGSK-IMODE -->
     <g transform="translate(88.935 16.598438) scale(0.1 -0.1)">
      <defs>
       <path id="DejaVuSans-41" d="M 2188 4044 
L 1331 1722 
L 3047 1722 
L 2188 4044 
z
M 1831 4666 
L 2547 4666 
L 4325 0 
L 3669 0 
L 3244 1197 
L 1141 1197 
L 716 0 
L 50 0 
L 1831 4666 
z
" transform="scale(0.015625)"/>
       <path id="DejaVuSans-50" d="M 1259 4147 
L 1259 2394 
L 2053 2394 
Q 2494 2394 2734 2622 
Q 2975 2850 2975 3272 
Q 2975 3691 2734 3919 
Q 2494 4147 2053 4147 
L 1259 4147 
z
M 628 4666 
L 2053 4666 
Q 2838 4666 3239 4311 
Q 3641 3956 3641 3272 
Q 3641 2581 3239 2228 
Q 2838 1875 2053 1875 
L 1259 1875 
L 1259 0 
L 628 0 
L 628 4666 
z
" transform="scale(0.015625)"/>
       <path id="DejaVuSans-47" d="M 3809 666 
L 3809 1919 
L 2778 1919 
L 2778 2438 
L 4434 2438 
L 4434 434 
Q 4069 175 3628 42 
Q 3188 -91 2688 -91 
Q 1594 -91 976 548 
Q 359 1188 359 2328 
Q 359 3472 976 4111 
Q 1594 4750 2688 4750 
Q 3144 4750 3555 4637 
Q 3966 4525 4313 4306 
L 4313 3634 
Q 3963 3931 3569 4081 
Q 3175 4231 2741 4231 
Q 1884 4231 1454 3753 
Q 1025 3275 1025 2328 
Q 1025 1384 1454 906 
Q 1884 428 2741 428 
Q 3075 428 3337 486 
Q 3600 544 3809 666 
z
" transform="scale(0.015625)"/>
       <path id="DejaVuSans-53" d="M 3425 4513 
L 3425 3897 
Q 3066 4069 2747 4153 
Q 2428 4238 2131 4238 
Q 1616 4238 1336 4038 
Q 1056 3838 1056 3469 
Q 1056 3159 1242 3001 
Q 1428 2844 1947 2747 
L 2328 2669 
Q 3034 2534 3370 2195 
Q 3706 1856 3706 1288 
Q 3706 609 3251 259 
Q 2797 -91 1919 -91 
Q 1588 -91 1214 -16 
Q 841 59 441 206 
L 441 856 
Q 825 641 1194 531 
Q 1563 422 1919 422 
Q 2459 422 2753 634 
Q 3047 847 3047 1241 
Q 3047 1584 2836 1778 
Q 2625 1972 2144 2069 
L 1759 2144 
Q 1053 2284 737 2584 
Q 422 2884 422 3419 
Q 422 4038 858 4394 
Q 1294 4750 2059 4750 
Q 2388 4750 2728 4690 
Q 3069 4631 3425 4513 
z
" transform="scale(0.015625)"/>
       <path id="DejaVuSans-4b" d="M 628 4666 
L 1259 4666 
L 1259 2694 
L 3353 4666 
L 4166 4666 
L 1850 2491 
L 4331 0 
L 3500 0 
L 1259 2247 
L 1259 0 
L 628 0 
L 628 4666 
z
" transform="scale(0.015625)"/>
       <path id="DejaVuSans-2d" d="M 313 2009 
L 1997 2009 
L 1997 1497 
L 313 1497 
L 313 2009 
z
" transform="scale(0.015625)"/>
       <path id="DejaVuSans-49" d="M 628 4666 
L 1259 4666 
L 1259 0 
L 628 0 
L 628 4666 
z
" transform="scale(0.015625)"/>
       <path id="DejaVuSans-4d" d="M 628 4666 
L 1569 4666 
L 2759 1491 
L 3956 4666 
L 4897 4666 
L 4897 0 
L 4281 0 
L 4281 4097 
L 3078 897 
L 2444 897 
L 1241 4097 
L 1241 0 
L 628 0 
L 628 4666 
z
" transform="scale(0.015625)"/>
       <path id="DejaVuSans-4f" d="M 2522 4238 
Q 1834 4238 1429 3725 
Q 1025 3213 1025 2328 
Q 1025 1447 1429 934 
Q 1834 422 2522 422 
Q 3209 422 3611 934 
Q 4013 1447 4013 2328 
Q 4013 3213 3611 3725 
Q 3209 4238 2522 4238 
z
M 2522 4750 
Q 3503 4750 4090 4092 
Q 4678 3434 4678 2328 
Q 4678 1225 4090 567 
Q 3503 -91 2522 -91 
Q 1538 -91 948 565 
Q 359 1222 359 2328 
Q 359 3434 948 4092 
Q 1538 4750 2522 4750 
z
" transform="scale(0.015625)"/>
       <path id="DejaVuSans-44" d="M 1259 4147 
L 1259 519 
L 2022 519 
Q 2988 519 3436 956 
Q 3884 1394 3884 2338 
Q 3884 3275 3436 3711 
Q 2988 4147 2022 4147 
L 1259 4147 
z
M 628 4666 
L 1925 4666 
Q 3281 4666 3915 4102 
Q 4550 3538 4550 2338 
Q 4550 1131 3912 565 
Q 3275 0 1925 0 
L 628 0 
L 628 4666 
z
" transform="scale(0.015625)"/>
       <path id="DejaVuSans-45" d="M 628 4666 
L 3578 4666 
L 3578 4134 
L 1259 4134 
L 1259 2753 
L 3481 2753 
L 3481 2222 
L 1259 2222 
L 1259 531 
L 3634 531 
L 3634 0 
L 628 0 
L 628 4666 
z
" transform="scale(0.015625)"/>
      </defs>
      <use xlink:href="#DejaVuSans-41"/>
      <use xlink:href="#DejaVuSans-50" x="68.408203"/>
      <use xlink:href="#DejaVuSans-47" x="128.710938"/>
      <use xlink:href="#DejaVuSans-53" x="206.201172"/>
      <use xlink:href="#DejaVuSans-4b" x="269.677734"/>
      <use xlink:href="#DejaVuSans-2d" x="324.753906"/>
      <use xlink:href="#DejaVuSans-49" x="360.837891"/>
      <use xlink:href="#DejaVuSans-4d" x="390.330078"/>
      <use xlink:href="#DejaVuSans-4f" x="476.609375"/>
      <use xlink:href="#DejaVuSans-44" x="555.320312"/>
      <use xlink:href="#DejaVuSans-45" x="632.322266"/>
     </g>
    </g>
    <g id="patch_9">
     <path d="M 60.935 31.276563 
L 80.935 31.276563 
L 80.935 24.276563 
L 60.935 24.276563 
z
" style="fill: #ffbf86; fill-opacity: 0.3"/>
    </g>
    <g id="line2d_49">
     <path d="M 60.935 27.776563 
L 70.935 27.776563 
L 80.935 27.776563 
" style="fill: none; stroke-dasharray: 7.4,3.2; stroke-dashoffset: 0; stroke: #ff7f0e; stroke-width: 2"/>
     <g>
      <use xlink:href="#mbcc2eb961e" x="70.935" y="27.776563" style="fill: #ff7f0e"/>
     </g>
    </g>
    <g id="text_26">
     <!-- DEDMNA -->
     <g transform="translate(88.935 31.276563) scale(0.1 -0.1)">
      <defs>
       <path id="DejaVuSans-4e" d="M 628 4666 
L 1478 4666 
L 3547 763 
L 3547 4666 
L 4159 4666 
L 4159 0 
L 3309 0 
L 1241 3903 
L 1241 0 
L 628 0 
L 628 4666 
z
" transform="scale(0.015625)"/>
      </defs>
      <use xlink:href="#DejaVuSans-44"/>
      <use xlink:href="#DejaVuSans-45" x="77.001953"/>
      <use xlink:href="#DejaVuSans-44" x="140.185547"/>
      <use xlink:href="#DejaVuSans-4d" x="217.1875"/>
      <use xlink:href="#DejaVuSans-4e" x="303.466797"/>
      <use xlink:href="#DejaVuSans-41" x="378.271484"/>
     </g>
    </g>
    <g id="patch_10">
     <path d="M 60.935 45.954688 
L 80.935 45.954688 
L 80.935 38.954688 
L 60.935 38.954688 
z
" style="fill: #96d096; fill-opacity: 0.3"/>
    </g>
    <g id="line2d_50">
     <path d="M 60.935 42.454688 
L 70.935 42.454688 
L 80.935 42.454688 
" style="fill: none; stroke-dasharray: 12.8,3.2,2,3.2; stroke-dashoffset: 0; stroke: #2ca02c; stroke-width: 2"/>
     <g>
      <use xlink:href="#mdafd3abeab" x="70.935" y="42.454688" style="fill: #2ca02c; stroke: #2ca02c"/>
     </g>
    </g>
    <g id="text_27">
     <!-- j21 -->
     <g transform="translate(88.935 45.954688) scale(0.1 -0.1)">
      <defs>
       <path id="DejaVuSans-6a" d="M 603 3500 
L 1178 3500 
L 1178 -63 
Q 1178 -731 923 -1031 
Q 669 -1331 103 -1331 
L -116 -1331 
L -116 -844 
L 38 -844 
Q 366 -844 484 -692 
Q 603 -541 603 -63 
L 603 3500 
z
M 603 4863 
L 1178 4863 
L 1178 4134 
L 603 4134 
L 603 4863 
z
" transform="scale(0.015625)"/>
      </defs>
      <use xlink:href="#DejaVuSans-6a"/>
      <use xlink:href="#DejaVuSans-32" x="27.783203"/>
      <use xlink:href="#DejaVuSans-31" x="91.40625"/>
     </g>
    </g>
    <g id="patch_11">
     <path d="M 60.935 60.632812 
L 80.935 60.632812 
L 80.935 53.632812 
L 60.935 53.632812 
z
" style="fill: #eb9393; fill-opacity: 0.3"/>
    </g>
    <g id="line2d_51">
     <path d="M 60.935 57.132812 
L 70.935 57.132812 
L 80.935 57.132812 
" style="fill: none; stroke-dasharray: 2,3.3; stroke-dashoffset: 0; stroke: #d62728; stroke-width: 2"/>
     <g>
      <use xlink:href="#m58629d93fc" x="70.935" y="57.132812" style="fill: #d62728; stroke: #d62728; stroke-linejoin: miter"/>
     </g>
    </g>
    <g id="text_28">
     <!-- LSHADE -->
     <g transform="translate(88.935 60.632812) scale(0.1 -0.1)">
      <defs>
       <path id="DejaVuSans-4c" d="M 628 4666 
L 1259 4666 
L 1259 531 
L 3531 531 
L 3531 0 
L 628 0 
L 628 4666 
z
" transform="scale(0.015625)"/>
       <path id="DejaVuSans-48" d="M 628 4666 
L 1259 4666 
L 1259 2753 
L 3553 2753 
L 3553 4666 
L 4184 4666 
L 4184 0 
L 3553 0 
L 3553 2222 
L 1259 2222 
L 1259 0 
L 628 0 
L 628 4666 
z
" transform="scale(0.015625)"/>
      </defs>
      <use xlink:href="#DejaVuSans-4c"/>
      <use xlink:href="#DejaVuSans-53" x="55.712891"/>
      <use xlink:href="#DejaVuSans-48" x="119.189453"/>
      <use xlink:href="#DejaVuSans-41" x="194.384766"/>
      <use xlink:href="#DejaVuSans-44" x="262.792969"/>
      <use xlink:href="#DejaVuSans-45" x="339.794922"/>
     </g>
    </g>
    <g id="patch_12">
     <path d="M 60.935 75.310938 
L 80.935 75.310938 
L 80.935 68.310938 
L 60.935 68.310938 
z
" style="fill: #cab3de; fill-opacity: 0.3"/>
    </g>
    <g id="line2d_52">
     <path d="M 60.935 71.810938 
L 70.935 71.810938 
L 80.935 71.810938 
" style="fill: none; stroke: #9467bd; stroke-width: 2; stroke-linecap: square"/>
     <g>
      <use xlink:href="#m313bde2c44" x="70.935" y="71.810938" style="fill: #9467bd; stroke: #9467bd; stroke-linejoin: miter"/>
     </g>
    </g>
    <g id="text_29">
     <!-- MadDE -->
     <g transform="translate(88.935 75.310938) scale(0.1 -0.1)">
      <defs>
       <path id="DejaVuSans-64" d="M 2906 2969 
L 2906 4863 
L 3481 4863 
L 3481 0 
L 2906 0 
L 2906 525 
Q 2725 213 2448 61 
Q 2172 -91 1784 -91 
Q 1150 -91 751 415 
Q 353 922 353 1747 
Q 353 2572 751 3078 
Q 1150 3584 1784 3584 
Q 2172 3584 2448 3432 
Q 2725 3281 2906 2969 
z
M 947 1747 
Q 947 1113 1208 752 
Q 1469 391 1925 391 
Q 2381 391 2643 752 
Q 2906 1113 2906 1747 
Q 2906 2381 2643 2742 
Q 2381 3103 1925 3103 
Q 1469 3103 1208 2742 
Q 947 2381 947 1747 
z
" transform="scale(0.015625)"/>
      </defs>
      <use xlink:href="#DejaVuSans-4d"/>
      <use xlink:href="#DejaVuSans-61" x="86.279297"/>
      <use xlink:href="#DejaVuSans-64" x="147.558594"/>
      <use xlink:href="#DejaVuSans-44" x="211.035156"/>
      <use xlink:href="#DejaVuSans-45" x="288.037109"/>
     </g>
    </g>
    <g id="patch_13">
     <path d="M 60.935 89.989063 
L 80.935 89.989063 
L 80.935 82.989063 
L 60.935 82.989063 
z
" style="fill: #c6aba5; fill-opacity: 0.3"/>
    </g>
    <g id="line2d_53">
     <path d="M 60.935 86.489063 
L 70.935 86.489063 
L 80.935 86.489063 
" style="fill: none; stroke-dasharray: 7.4,3.2; stroke-dashoffset: 0; stroke: #8c564b; stroke-width: 2"/>
     <g>
      <use xlink:href="#m93421728c1" x="70.935" y="86.489063" style="fill: #8c564b; stroke: #8c564b; stroke-linejoin: miter"/>
     </g>
    </g>
    <g id="text_30">
     <!-- MLS-LSHADE -->
     <g transform="translate(88.935 89.989063) scale(0.1 -0.1)">
      <use xlink:href="#DejaVuSans-4d"/>
      <use xlink:href="#DejaVuSans-4c" x="86.279297"/>
      <use xlink:href="#DejaVuSans-53" x="141.992188"/>
      <use xlink:href="#DejaVuSans-2d" x="205.46875"/>
      <use xlink:href="#DejaVuSans-4c" x="241.552734"/>
      <use xlink:href="#DejaVuSans-53" x="297.265625"/>
      <use xlink:href="#DejaVuSans-48" x="360.742188"/>
      <use xlink:href="#DejaVuSans-41" x="435.9375"/>
      <use xlink:href="#DejaVuSans-44" x="504.345703"/>
      <use xlink:href="#DejaVuSans-45" x="581.347656"/>
     </g>
    </g>
    <g id="patch_14">
     <path d="M 60.935 104.667188 
L 80.935 104.667188 
L 80.935 97.667188 
L 60.935 97.667188 
z
" style="fill: #f1bbe0; fill-opacity: 0.3"/>
    </g>
    <g id="line2d_54">
     <path d="M 60.935 101.167188 
L 70.935 101.167188 
L 80.935 101.167188 
" style="fill: none; stroke-dasharray: 12.8,3.2,2,3.2; stroke-dashoffset: 0; stroke: #e377c2; stroke-width: 2"/>
     <g>
      <use xlink:href="#m87aafc44b9" x="70.935" y="101.167188" style="fill: #e377c2; stroke: #e377c2; stroke-linejoin: miter"/>
     </g>
    </g>
    <g id="text_31">
     <!-- NL-SHADE-RSP -->
     <g transform="translate(88.935 104.667188) scale(0.1 -0.1)">
      <use xlink:href="#DejaVuSans-4e"/>
      <use xlink:href="#DejaVuSans-4c" x="74.804688"/>
      <use xlink:href="#DejaVuSans-2d" x="128.767578"/>
      <use xlink:href="#DejaVuSans-53" x="164.851562"/>
      <use xlink:href="#DejaVuSans-48" x="228.328125"/>
      <use xlink:href="#DejaVuSans-41" x="303.523438"/>
      <use xlink:href="#DejaVuSans-44" x="371.931641"/>
      <use xlink:href="#DejaVuSans-45" x="448.933594"/>
      <use xlink:href="#DejaVuSans-2d" x="512.117188"/>
      <use xlink:href="#DejaVuSans-52" x="548.201172"/>
      <use xlink:href="#DejaVuSans-53" x="617.683594"/>
      <use xlink:href="#DejaVuSans-50" x="681.160156"/>
     </g>
    </g>
    <g id="patch_15">
     <path d="M 60.935 119.345313 
L 80.935 119.345313 
L 80.935 112.345313 
L 60.935 112.345313 
z
" style="fill: #dede90; fill-opacity: 0.3"/>
    </g>
    <g id="line2d_55">
     <path d="M 60.935 115.845313 
L 70.935 115.845313 
L 80.935 115.845313 
" style="fill: none; stroke-dasharray: 2,3.3; stroke-dashoffset: 0; stroke: #bcbd22; stroke-width: 2"/>
     <g>
      <use xlink:href="#m940c79415c" x="70.935" y="115.845313" style="fill: #bcbd22; stroke: #bcbd22; stroke-linejoin: miter"/>
     </g>
    </g>
    <g id="text_32">
     <!-- RB-IPOP-CMAES-PPMF -->
     <g transform="translate(88.935 119.345313) scale(0.1 -0.1)">
      <defs>
       <path id="DejaVuSans-42" d="M 1259 2228 
L 1259 519 
L 2272 519 
Q 2781 519 3026 730 
Q 3272 941 3272 1375 
Q 3272 1813 3026 2020 
Q 2781 2228 2272 2228 
L 1259 2228 
z
M 1259 4147 
L 1259 2741 
L 2194 2741 
Q 2656 2741 2882 2914 
Q 3109 3088 3109 3444 
Q 3109 3797 2882 3972 
Q 2656 4147 2194 4147 
L 1259 4147 
z
M 628 4666 
L 2241 4666 
Q 2963 4666 3353 4366 
Q 3744 4066 3744 3513 
Q 3744 3084 3544 2831 
Q 3344 2578 2956 2516 
Q 3422 2416 3680 2098 
Q 3938 1781 3938 1306 
Q 3938 681 3513 340 
Q 3088 0 2303 0 
L 628 0 
L 628 4666 
z
" transform="scale(0.015625)"/>
       <path id="DejaVuSans-46" d="M 628 4666 
L 3309 4666 
L 3309 4134 
L 1259 4134 
L 1259 2759 
L 3109 2759 
L 3109 2228 
L 1259 2228 
L 1259 0 
L 628 0 
L 628 4666 
z
" transform="scale(0.015625)"/>
      </defs>
      <use xlink:href="#DejaVuSans-52"/>
      <use xlink:href="#DejaVuSans-42" x="69.482422"/>
      <use xlink:href="#DejaVuSans-2d" x="138.085938"/>
      <use xlink:href="#DejaVuSans-49" x="174.169922"/>
      <use xlink:href="#DejaVuSans-50" x="203.662109"/>
      <use xlink:href="#DejaVuSans-4f" x="263.964844"/>
      <use xlink:href="#DejaVuSans-50" x="342.675781"/>
      <use xlink:href="#DejaVuSans-2d" x="400.728516"/>
      <use xlink:href="#DejaVuSans-43" x="436.8125"/>
      <use xlink:href="#DejaVuSans-4d" x="506.636719"/>
      <use xlink:href="#DejaVuSans-41" x="592.916016"/>
      <use xlink:href="#DejaVuSans-45" x="661.324219"/>
      <use xlink:href="#DejaVuSans-53" x="724.507812"/>
      <use xlink:href="#DejaVuSans-2d" x="787.984375"/>
      <use xlink:href="#DejaVuSans-50" x="824.068359"/>
      <use xlink:href="#DejaVuSans-50" x="884.371094"/>
      <use xlink:href="#DejaVuSans-4d" x="944.673828"/>
      <use xlink:href="#DejaVuSans-46" x="1030.953125"/>
     </g>
    </g>
    <g id="patch_16">
     <path d="M 60.935 134.023438 
L 80.935 134.023438 
L 80.935 127.023438 
L 60.935 127.023438 
z
" style="fill: #8bdee7; fill-opacity: 0.3"/>
    </g>
    <g id="line2d_56">
     <path d="M 60.935 130.523438 
L 70.935 130.523438 
L 80.935 130.523438 
" style="fill: none; stroke: #17becf; stroke-width: 2; stroke-linecap: square"/>
     <g>
      <use xlink:href="#m51fd6bb5a1" x="70.935" y="130.523438" style="fill: #17becf; stroke: #17becf; stroke-linejoin: miter"/>
     </g>
    </g>
    <g id="text_33">
     <!-- SOMA-CLP -->
     <g transform="translate(88.935 134.023438) scale(0.1 -0.1)">
      <use xlink:href="#DejaVuSans-53"/>
      <use xlink:href="#DejaVuSans-4f" x="63.476562"/>
      <use xlink:href="#DejaVuSans-4d" x="142.1875"/>
      <use xlink:href="#DejaVuSans-41" x="228.466797"/>
      <use xlink:href="#DejaVuSans-2d" x="294.625"/>
      <use xlink:href="#DejaVuSans-43" x="330.708984"/>
      <use xlink:href="#DejaVuSans-4c" x="400.533203"/>
      <use xlink:href="#DejaVuSans-50" x="456.246094"/>
     </g>
    </g>
   </g>
  </g>
 </g>
 <defs>
  <clipPath id="pb2662eef7a">
   <rect x="51.935" y="0" width="837" height="554.4"/>
  </clipPath>
 </defs>
</svg>
