<?xml version="1.0" encoding="utf-8" standalone="no"?>
<!DOCTYPE svg PUBLIC "-//W3C//DTD SVG 1.1//EN"
  "http://www.w3.org/Graphics/SVG/1.1/DTD/svg11.dtd">
<svg xmlns:xlink="http://www.w3.org/1999/xlink" width="895.2975pt" height="611.76pt" viewBox="0 0 895.2975 611.76" xmlns="http://www.w3.org/2000/svg" version="1.1">
 <metadata>
  <rdf:RDF xmlns:dc="http://purl.org/dc/elements/1.1/" xmlns:cc="http://creativecommons.org/ns#" xmlns:rdf="http://www.w3.org/1999/02/22-rdf-syntax-ns#">
   <cc:Work>
    <dc:type rdf:resource="http://purl.org/dc/dcmitype/StillImage"/>
    <dc:date>2023-11-21T09:31:00.585217</dc:date>
    <dc:format>image/svg+xml</dc:format>
    <dc:creator>
     <cc:Agent>
      <dc:title>Matplotlib v3.8.1, https://matplotlib.org/</dc:title>
     </cc:Agent>
    </dc:creator>
   </cc:Work>
  </rdf:RDF>
 </metadata>
 <defs>
  <style type="text/css">*{stroke-linejoin: round; stroke-linecap: butt}</style>
 </defs>
 <g id="figure_1">
  <g id="patch_1">
   <path d="M -0 611.76 
L 895.2975 611.76 
L 895.2975 0 
L -0 0 
z
" style="fill: #ffffff"/>
  </g>
  <g id="axes_1">
   <g id="patch_2">
    <path d="M 51.935 575.596875 
L 888.935 575.596875 
L 888.935 21.196875 
L 51.935 21.196875 
z
" style="fill: #ffffff"/>
   </g>
   <g id="PolyCollection_1">
    <defs>
     <path id="me33fdaa895" d="M 51.935 -349.635362 
L 51.935 -437.011093 
L 107.735 -408.112983 
L 163.535 -358.752269 
L 219.335 -346.866947 
L 275.135 -343.724307 
L 330.935 -344.007853 
L 386.735 -345.898163 
L 442.535 -343.2281 
L 498.335 -342.755523 
L 554.135 -344.858492 
L 609.935 -364.446827 
L 665.735 -373.827489 
L 721.535 -353.246742 
L 777.335 -323.403477 
L 833.135 -334.520861 
L 888.935 -379.47479 
L 888.935 -292.099059 
L 888.935 -292.099059 
L 833.135 -247.14513 
L 777.335 -236.027746 
L 721.535 -265.871011 
L 665.735 -286.451759 
L 609.935 -277.071097 
L 554.135 -257.482762 
L 498.335 -255.379792 
L 442.535 -255.85237 
L 386.735 -258.522432 
L 330.935 -256.632122 
L 275.135 -256.348576 
L 219.335 -259.491216 
L 163.535 -271.376538 
L 107.735 -320.737252 
L 51.935 -349.635362 
z
"/>
    </defs>
    <g clip-path="url(#p98c9f8f66b)">
     <use xlink:href="#me33fdaa895" x="0" y="611.76" style="fill: #8fbbda; fill-opacity: 0.3"/>
    </g>
   </g>
   <g id="PolyCollection_2">
    <defs>
     <path id="m7684dbea0f" d="M 51.935 -295.714277 
L 51.935 -383.090007 
L 107.735 -331.815355 
L 163.535 -291.150067 
L 219.335 -256.084821 
L 275.135 -224.634792 
L 330.935 -192.688557 
L 386.735 -165.964303 
L 442.535 -151.314403 
L 498.335 -148.738856 
L 554.135 -161.262158 
L 609.935 -186.237875 
L 665.735 -217.522502 
L 721.535 -257.57344 
L 777.335 -330.76387 
L 833.135 -364.529528 
L 888.935 -396.948341 
L 888.935 -309.57261 
L 888.935 -309.57261 
L 833.135 -277.153798 
L 777.335 -243.38814 
L 721.535 -170.197709 
L 665.735 -130.146771 
L 609.935 -98.862145 
L 554.135 -73.886427 
L 498.335 -61.363125 
L 442.535 -63.938672 
L 386.735 -78.588573 
L 330.935 -105.312827 
L 275.135 -137.259062 
L 219.335 -168.70909 
L 163.535 -203.774336 
L 107.735 -244.439624 
L 51.935 -295.714277 
z
"/>
    </defs>
    <g clip-path="url(#p98c9f8f66b)">
     <use xlink:href="#m7684dbea0f" x="0" y="611.76" style="fill: #ffbf86; fill-opacity: 0.3"/>
    </g>
   </g>
   <g id="PolyCollection_3">
    <defs>
     <path id="ma6835147bc" d="M 51.935 -266.438104 
L 51.935 -353.813835 
L 107.735 -450.101488 
L 163.535 -506.314574 
L 219.335 -550.335162 
L 275.135 -564.84329 
L 330.935 -565.363125 
L 386.735 -564.772403 
L 442.535 -561.039041 
L 498.335 -553.73772 
L 554.135 -543.695449 
L 609.935 -535.448973 
L 665.735 -528.880147 
L 721.535 -518.046309 
L 777.335 -512.316308 
L 833.135 -470.091513 
L 888.935 -395.306134 
L 888.935 -307.930403 
L 888.935 -307.930403 
L 833.135 -382.715783 
L 777.335 -424.940577 
L 721.535 -430.670578 
L 665.735 -441.504416 
L 609.935 -448.073243 
L 554.135 -456.319719 
L 498.335 -466.361989 
L 442.535 -473.663311 
L 386.735 -477.396673 
L 330.935 -477.987394 
L 275.135 -477.467559 
L 219.335 -462.959432 
L 163.535 -418.938843 
L 107.735 -362.725757 
L 51.935 -266.438104 
z
"/>
    </defs>
    <g clip-path="url(#p98c9f8f66b)">
     <use xlink:href="#ma6835147bc" x="0" y="611.76" style="fill: #96d096; fill-opacity: 0.3"/>
    </g>
   </g>
   <g id="PolyCollection_4">
    <defs>
     <path id="m47a04ab758" d="M 51.935 -244.935831 
L 51.935 -332.311561 
L 107.735 -355.278825 
L 163.535 -382.61743 
L 219.335 -374.559984 
L 275.135 -364.021508 
L 330.935 -353.483031 
L 386.735 -338.431439 
L 442.535 -326.238941 
L 498.335 -315.298774 
L 554.135 -304.665781 
L 609.935 -301.948461 
L 665.735 -295.745882 
L 721.535 -293.205778 
L 777.335 -278.851239 
L 833.135 -306.520648 
L 888.935 -301.33411 
L 888.935 -213.95838 
L 888.935 -213.95838 
L 833.135 -219.144917 
L 777.335 -191.475508 
L 721.535 -205.830048 
L 665.735 -208.370152 
L 609.935 -214.57273 
L 554.135 -217.290051 
L 498.335 -227.923043 
L 442.535 -238.863211 
L 386.735 -251.055709 
L 330.935 -266.1073 
L 275.135 -276.645777 
L 219.335 -287.184254 
L 163.535 -295.241699 
L 107.735 -267.903094 
L 51.935 -244.935831 
z
"/>
    </defs>
    <g clip-path="url(#p98c9f8f66b)">
     <use xlink:href="#m47a04ab758" x="0" y="611.76" style="fill: #eb9393; fill-opacity: 0.3"/>
    </g>
   </g>
   <g id="PolyCollection_5">
    <defs>
     <path id="m3e85492a57" d="M 51.935 -341.554288 
L 51.935 -428.930019 
L 107.735 -439.303093 
L 163.535 -439.728413 
L 219.335 -424.51142 
L 275.135 -423.235461 
L 330.935 -414.0202 
L 386.735 -392.04535 
L 442.535 -376.521181 
L 498.335 -365.793673 
L 554.135 -359.933713 
L 609.935 -349.466122 
L 665.735 -325.860879 
L 721.535 -304.47675 
L 777.335 -283.11625 
L 833.135 -317.980651 
L 888.935 -379.841037 
L 888.935 -292.465307 
L 888.935 -292.465307 
L 833.135 -230.60492 
L 777.335 -195.740519 
L 721.535 -217.10102 
L 665.735 -238.485149 
L 609.935 -262.090392 
L 554.135 -272.557982 
L 498.335 -278.417942 
L 442.535 -289.14545 
L 386.735 -304.669619 
L 330.935 -326.64447 
L 275.135 -335.85973 
L 219.335 -337.135689 
L 163.535 -352.352682 
L 107.735 -351.927363 
L 51.935 -341.554288 
z
"/>
    </defs>
    <g clip-path="url(#p98c9f8f66b)">
     <use xlink:href="#m3e85492a57" x="0" y="611.76" style="fill: #cab3de; fill-opacity: 0.3"/>
    </g>
   </g>
   <g id="PolyCollection_6">
    <defs>
     <path id="m59f7e942da" d="M 51.935 -329.550821 
L 51.935 -416.926552 
L 107.735 -392.636071 
L 163.535 -401.733187 
L 219.335 -428.26841 
L 275.135 -454.023881 
L 330.935 -467.917657 
L 386.735 -472.218112 
L 442.535 -462.601161 
L 498.335 -453.929365 
L 554.135 -450.668581 
L 609.935 -441.406063 
L 665.735 -442.422105 
L 721.535 -444.607775 
L 777.335 -427.027894 
L 833.135 -409.11721 
L 888.935 -360.229074 
L 888.935 -272.853343 
L 888.935 -272.853343 
L 833.135 -321.741479 
L 777.335 -339.652164 
L 721.535 -357.232044 
L 665.735 -355.046374 
L 609.935 -354.030332 
L 554.135 -363.29285 
L 498.335 -366.553634 
L 442.535 -375.22543 
L 386.735 -384.842381 
L 330.935 -380.541927 
L 275.135 -366.64815 
L 219.335 -340.89268 
L 163.535 -314.357456 
L 107.735 -305.260341 
L 51.935 -329.550821 
z
"/>
    </defs>
    <g clip-path="url(#p98c9f8f66b)">
     <use xlink:href="#m59f7e942da" x="0" y="611.76" style="fill: #c6aba5; fill-opacity: 0.3"/>
    </g>
   </g>
   <g id="PolyCollection_7">
    <defs>
     <path id="m218985040b" d="M 51.935 -254.080204 
L 51.935 -341.455935 
L 107.735 -338.927646 
L 163.535 -331.697211 
L 219.335 -320.544383 
L 275.135 -301.924832 
L 330.935 -288.645406 
L 386.735 -275.673156 
L 442.535 -265.819916 
L 498.335 -266.599669 
L 554.135 -266.056205 
L 609.935 -273.357526 
L 665.735 -305.918112 
L 721.535 -327.467643 
L 777.335 -359.248475 
L 833.135 -399.47663 
L 888.935 -429.875174 
L 888.935 -342.499443 
L 888.935 -342.499443 
L 833.135 -312.100899 
L 777.335 -271.872745 
L 721.535 -240.091912 
L 665.735 -218.542381 
L 609.935 -185.981795 
L 554.135 -178.680474 
L 498.335 -179.223938 
L 442.535 -178.444185 
L 386.735 -188.297425 
L 330.935 -201.269676 
L 275.135 -214.549102 
L 219.335 -233.168653 
L 163.535 -244.32148 
L 107.735 -251.551915 
L 51.935 -254.080204 
z
"/>
    </defs>
    <g clip-path="url(#p98c9f8f66b)">
     <use xlink:href="#m218985040b" x="0" y="611.76" style="fill: #f1bbe0; fill-opacity: 0.3"/>
    </g>
   </g>
   <g id="PolyCollection_8">
    <defs>
     <path id="mca6178280b" d="M 51.935 -62.568197 
L 51.935 -149.943928 
L 107.735 -155.260424 
L 163.535 -168.917912 
L 219.335 -187.088515 
L 275.135 -203.203405 
L 330.935 -237.299868 
L 386.735 -284.463096 
L 442.535 -329.854159 
L 498.335 -357.783485 
L 554.135 -358.823156 
L 609.935 -343.157214 
L 665.735 -324.809395 
L 721.535 -301.783059 
L 777.335 -282.809075 
L 833.135 -230.187577 
L 888.935 -218.030523 
L 888.935 -130.654792 
L 888.935 -130.654792 
L 833.135 -142.811846 
L 777.335 -195.433344 
L 721.535 -214.407328 
L 665.735 -237.433664 
L 609.935 -255.781483 
L 554.135 -271.447425 
L 498.335 -270.407755 
L 442.535 -242.478428 
L 386.735 -197.087365 
L 330.935 -149.924137 
L 275.135 -115.827675 
L 219.335 -99.712784 
L 163.535 -81.542182 
L 107.735 -67.884694 
L 51.935 -62.568197 
z
"/>
    </defs>
    <g clip-path="url(#p98c9f8f66b)">
     <use xlink:href="#mca6178280b" x="0" y="611.76" style="fill: #dede90; fill-opacity: 0.3"/>
    </g>
   </g>
   <g id="PolyCollection_9">
    <defs>
     <path id="mb6a03ae4e3" d="M 51.935 -225.820073 
L 51.935 -313.195804 
L 107.735 -285.242849 
L 163.535 -275.767671 
L 219.335 -268.419092 
L 275.135 -277.067259 
L 330.935 -293.253036 
L 386.735 -317.212712 
L 442.535 -340.061831 
L 498.335 -352.041669 
L 554.135 -366.715199 
L 609.935 -361.209672 
L 665.735 -341.692224 
L 721.535 -356.271238 
L 777.335 -359.142145 
L 833.135 -324.254116 
L 888.935 -295.639552 
L 888.935 -208.263822 
L 888.935 -208.263822 
L 833.135 -236.878385 
L 777.335 -271.766415 
L 721.535 -268.895507 
L 665.735 -254.316493 
L 609.935 -273.833941 
L 554.135 -279.339468 
L 498.335 -264.665939 
L 442.535 -252.686101 
L 386.735 -229.836982 
L 330.935 -205.877306 
L 275.135 -189.691528 
L 219.335 -181.043361 
L 163.535 -188.39194 
L 107.735 -197.867118 
L 51.935 -225.820073 
z
"/>
    </defs>
    <g clip-path="url(#p98c9f8f66b)">
     <use xlink:href="#mb6a03ae4e3" x="0" y="611.76" style="fill: #8bdee7; fill-opacity: 0.3"/>
    </g>
   </g>
   <g id="matplotlib.axis_1">
    <g id="xtick_1">
     <g id="line2d_1">
      <defs>
       <path id="m7a6a8ce711" d="M 0 0 
L 0 3.5 
" style="stroke: #000000; stroke-width: 0.8"/>
      </defs>
      <g>
       <use xlink:href="#m7a6a8ce711" x="51.935" y="575.596875" style="stroke: #000000; stroke-width: 0.8"/>
      </g>
     </g>
     <g id="text_1">
      <!-- 0 -->
      <g transform="translate(48.75375 590.195313) scale(0.1 -0.1)">
       <defs>
        <path id="DejaVuSans-30" d="M 2034 4250 
Q 1547 4250 1301 3770 
Q 1056 3291 1056 2328 
Q 1056 1369 1301 889 
Q 1547 409 2034 409 
Q 2525 409 2770 889 
Q 3016 1369 3016 2328 
Q 3016 3291 2770 3770 
Q 2525 4250 2034 4250 
z
M 2034 4750 
Q 2819 4750 3233 4129 
Q 3647 3509 3647 2328 
Q 3647 1150 3233 529 
Q 2819 -91 2034 -91 
Q 1250 -91 836 529 
Q 422 1150 422 2328 
Q 422 3509 836 4129 
Q 1250 4750 2034 4750 
z
" transform="scale(0.015625)"/>
       </defs>
       <use xlink:href="#DejaVuSans-30"/>
      </g>
     </g>
    </g>
    <g id="xtick_2">
     <g id="line2d_2">
      <g>
       <use xlink:href="#m7a6a8ce711" x="107.735" y="575.596875" style="stroke: #000000; stroke-width: 0.8"/>
      </g>
     </g>
     <g id="text_2">
      <!-- 1 -->
      <g transform="translate(104.55375 590.195313) scale(0.1 -0.1)">
       <defs>
        <path id="DejaVuSans-31" d="M 794 531 
L 1825 531 
L 1825 4091 
L 703 3866 
L 703 4441 
L 1819 4666 
L 2450 4666 
L 2450 531 
L 3481 531 
L 3481 0 
L 794 0 
L 794 531 
z
" transform="scale(0.015625)"/>
       </defs>
       <use xlink:href="#DejaVuSans-31"/>
      </g>
     </g>
    </g>
    <g id="xtick_3">
     <g id="line2d_3">
      <g>
       <use xlink:href="#m7a6a8ce711" x="163.535" y="575.596875" style="stroke: #000000; stroke-width: 0.8"/>
      </g>
     </g>
     <g id="text_3">
      <!-- 2 -->
      <g transform="translate(160.35375 590.195313) scale(0.1 -0.1)">
       <defs>
        <path id="DejaVuSans-32" d="M 1228 531 
L 3431 531 
L 3431 0 
L 469 0 
L 469 531 
Q 828 903 1448 1529 
Q 2069 2156 2228 2338 
Q 2531 2678 2651 2914 
Q 2772 3150 2772 3378 
Q 2772 3750 2511 3984 
Q 2250 4219 1831 4219 
Q 1534 4219 1204 4116 
Q 875 4013 500 3803 
L 500 4441 
Q 881 4594 1212 4672 
Q 1544 4750 1819 4750 
Q 2544 4750 2975 4387 
Q 3406 4025 3406 3419 
Q 3406 3131 3298 2873 
Q 3191 2616 2906 2266 
Q 2828 2175 2409 1742 
Q 1991 1309 1228 531 
z
" transform="scale(0.015625)"/>
       </defs>
       <use xlink:href="#DejaVuSans-32"/>
      </g>
     </g>
    </g>
    <g id="xtick_4">
     <g id="line2d_4">
      <g>
       <use xlink:href="#m7a6a8ce711" x="219.335" y="575.596875" style="stroke: #000000; stroke-width: 0.8"/>
      </g>
     </g>
     <g id="text_4">
      <!-- 3 -->
      <g transform="translate(216.15375 590.195313) scale(0.1 -0.1)">
       <defs>
        <path id="DejaVuSans-33" d="M 2597 2516 
Q 3050 2419 3304 2112 
Q 3559 1806 3559 1356 
Q 3559 666 3084 287 
Q 2609 -91 1734 -91 
Q 1441 -91 1130 -33 
Q 819 25 488 141 
L 488 750 
Q 750 597 1062 519 
Q 1375 441 1716 441 
Q 2309 441 2620 675 
Q 2931 909 2931 1356 
Q 2931 1769 2642 2001 
Q 2353 2234 1838 2234 
L 1294 2234 
L 1294 2753 
L 1863 2753 
Q 2328 2753 2575 2939 
Q 2822 3125 2822 3475 
Q 2822 3834 2567 4026 
Q 2313 4219 1838 4219 
Q 1578 4219 1281 4162 
Q 984 4106 628 3988 
L 628 4550 
Q 988 4650 1302 4700 
Q 1616 4750 1894 4750 
Q 2613 4750 3031 4423 
Q 3450 4097 3450 3541 
Q 3450 3153 3228 2886 
Q 3006 2619 2597 2516 
z
" transform="scale(0.015625)"/>
       </defs>
       <use xlink:href="#DejaVuSans-33"/>
      </g>
     </g>
    </g>
    <g id="xtick_5">
     <g id="line2d_5">
      <g>
       <use xlink:href="#m7a6a8ce711" x="275.135" y="575.596875" style="stroke: #000000; stroke-width: 0.8"/>
      </g>
     </g>
     <g id="text_5">
      <!-- 4 -->
      <g transform="translate(271.95375 590.195313) scale(0.1 -0.1)">
       <defs>
        <path id="DejaVuSans-34" d="M 2419 4116 
L 825 1625 
L 2419 1625 
L 2419 4116 
z
M 2253 4666 
L 3047 4666 
L 3047 1625 
L 3713 1625 
L 3713 1100 
L 3047 1100 
L 3047 0 
L 2419 0 
L 2419 1100 
L 313 1100 
L 313 1709 
L 2253 4666 
z
" transform="scale(0.015625)"/>
       </defs>
       <use xlink:href="#DejaVuSans-34"/>
      </g>
     </g>
    </g>
    <g id="xtick_6">
     <g id="line2d_6">
      <g>
       <use xlink:href="#m7a6a8ce711" x="330.935" y="575.596875" style="stroke: #000000; stroke-width: 0.8"/>
      </g>
     </g>
     <g id="text_6">
      <!-- 5 -->
      <g transform="translate(327.75375 590.195313) scale(0.1 -0.1)">
       <defs>
        <path id="DejaVuSans-35" d="M 691 4666 
L 3169 4666 
L 3169 4134 
L 1269 4134 
L 1269 2991 
Q 1406 3038 1543 3061 
Q 1681 3084 1819 3084 
Q 2600 3084 3056 2656 
Q 3513 2228 3513 1497 
Q 3513 744 3044 326 
Q 2575 -91 1722 -91 
Q 1428 -91 1123 -41 
Q 819 9 494 109 
L 494 744 
Q 775 591 1075 516 
Q 1375 441 1709 441 
Q 2250 441 2565 725 
Q 2881 1009 2881 1497 
Q 2881 1984 2565 2268 
Q 2250 2553 1709 2553 
Q 1456 2553 1204 2497 
Q 953 2441 691 2322 
L 691 4666 
z
" transform="scale(0.015625)"/>
       </defs>
       <use xlink:href="#DejaVuSans-35"/>
      </g>
     </g>
    </g>
    <g id="xtick_7">
     <g id="line2d_7">
      <g>
       <use xlink:href="#m7a6a8ce711" x="386.735" y="575.596875" style="stroke: #000000; stroke-width: 0.8"/>
      </g>
     </g>
     <g id="text_7">
      <!-- 6 -->
      <g transform="translate(383.55375 590.195313) scale(0.1 -0.1)">
       <defs>
        <path id="DejaVuSans-36" d="M 2113 2584 
Q 1688 2584 1439 2293 
Q 1191 2003 1191 1497 
Q 1191 994 1439 701 
Q 1688 409 2113 409 
Q 2538 409 2786 701 
Q 3034 994 3034 1497 
Q 3034 2003 2786 2293 
Q 2538 2584 2113 2584 
z
M 3366 4563 
L 3366 3988 
Q 3128 4100 2886 4159 
Q 2644 4219 2406 4219 
Q 1781 4219 1451 3797 
Q 1122 3375 1075 2522 
Q 1259 2794 1537 2939 
Q 1816 3084 2150 3084 
Q 2853 3084 3261 2657 
Q 3669 2231 3669 1497 
Q 3669 778 3244 343 
Q 2819 -91 2113 -91 
Q 1303 -91 875 529 
Q 447 1150 447 2328 
Q 447 3434 972 4092 
Q 1497 4750 2381 4750 
Q 2619 4750 2861 4703 
Q 3103 4656 3366 4563 
z
" transform="scale(0.015625)"/>
       </defs>
       <use xlink:href="#DejaVuSans-36"/>
      </g>
     </g>
    </g>
    <g id="xtick_8">
     <g id="line2d_8">
      <g>
       <use xlink:href="#m7a6a8ce711" x="442.535" y="575.596875" style="stroke: #000000; stroke-width: 0.8"/>
      </g>
     </g>
     <g id="text_8">
      <!-- 7 -->
      <g transform="translate(439.35375 590.195313) scale(0.1 -0.1)">
       <defs>
        <path id="DejaVuSans-37" d="M 525 4666 
L 3525 4666 
L 3525 4397 
L 1831 0 
L 1172 0 
L 2766 4134 
L 525 4134 
L 525 4666 
z
" transform="scale(0.015625)"/>
       </defs>
       <use xlink:href="#DejaVuSans-37"/>
      </g>
     </g>
    </g>
    <g id="xtick_9">
     <g id="line2d_9">
      <g>
       <use xlink:href="#m7a6a8ce711" x="498.335" y="575.596875" style="stroke: #000000; stroke-width: 0.8"/>
      </g>
     </g>
     <g id="text_9">
      <!-- 8 -->
      <g transform="translate(495.15375 590.195313) scale(0.1 -0.1)">
       <defs>
        <path id="DejaVuSans-38" d="M 2034 2216 
Q 1584 2216 1326 1975 
Q 1069 1734 1069 1313 
Q 1069 891 1326 650 
Q 1584 409 2034 409 
Q 2484 409 2743 651 
Q 3003 894 3003 1313 
Q 3003 1734 2745 1975 
Q 2488 2216 2034 2216 
z
M 1403 2484 
Q 997 2584 770 2862 
Q 544 3141 544 3541 
Q 544 4100 942 4425 
Q 1341 4750 2034 4750 
Q 2731 4750 3128 4425 
Q 3525 4100 3525 3541 
Q 3525 3141 3298 2862 
Q 3072 2584 2669 2484 
Q 3125 2378 3379 2068 
Q 3634 1759 3634 1313 
Q 3634 634 3220 271 
Q 2806 -91 2034 -91 
Q 1263 -91 848 271 
Q 434 634 434 1313 
Q 434 1759 690 2068 
Q 947 2378 1403 2484 
z
M 1172 3481 
Q 1172 3119 1398 2916 
Q 1625 2713 2034 2713 
Q 2441 2713 2670 2916 
Q 2900 3119 2900 3481 
Q 2900 3844 2670 4047 
Q 2441 4250 2034 4250 
Q 1625 4250 1398 4047 
Q 1172 3844 1172 3481 
z
" transform="scale(0.015625)"/>
       </defs>
       <use xlink:href="#DejaVuSans-38"/>
      </g>
     </g>
    </g>
    <g id="xtick_10">
     <g id="line2d_10">
      <g>
       <use xlink:href="#m7a6a8ce711" x="554.135" y="575.596875" style="stroke: #000000; stroke-width: 0.8"/>
      </g>
     </g>
     <g id="text_10">
      <!-- 9 -->
      <g transform="translate(550.95375 590.195313) scale(0.1 -0.1)">
       <defs>
        <path id="DejaVuSans-39" d="M 703 97 
L 703 672 
Q 941 559 1184 500 
Q 1428 441 1663 441 
Q 2288 441 2617 861 
Q 2947 1281 2994 2138 
Q 2813 1869 2534 1725 
Q 2256 1581 1919 1581 
Q 1219 1581 811 2004 
Q 403 2428 403 3163 
Q 403 3881 828 4315 
Q 1253 4750 1959 4750 
Q 2769 4750 3195 4129 
Q 3622 3509 3622 2328 
Q 3622 1225 3098 567 
Q 2575 -91 1691 -91 
Q 1453 -91 1209 -44 
Q 966 3 703 97 
z
M 1959 2075 
Q 2384 2075 2632 2365 
Q 2881 2656 2881 3163 
Q 2881 3666 2632 3958 
Q 2384 4250 1959 4250 
Q 1534 4250 1286 3958 
Q 1038 3666 1038 3163 
Q 1038 2656 1286 2365 
Q 1534 2075 1959 2075 
z
" transform="scale(0.015625)"/>
       </defs>
       <use xlink:href="#DejaVuSans-39"/>
      </g>
     </g>
    </g>
    <g id="xtick_11">
     <g id="line2d_11">
      <g>
       <use xlink:href="#m7a6a8ce711" x="609.935" y="575.596875" style="stroke: #000000; stroke-width: 0.8"/>
      </g>
     </g>
     <g id="text_11">
      <!-- 10 -->
      <g transform="translate(603.5725 590.195313) scale(0.1 -0.1)">
       <use xlink:href="#DejaVuSans-31"/>
       <use xlink:href="#DejaVuSans-30" x="63.623047"/>
      </g>
     </g>
    </g>
    <g id="xtick_12">
     <g id="line2d_12">
      <g>
       <use xlink:href="#m7a6a8ce711" x="665.735" y="575.596875" style="stroke: #000000; stroke-width: 0.8"/>
      </g>
     </g>
     <g id="text_12">
      <!-- 11 -->
      <g transform="translate(659.3725 590.195313) scale(0.1 -0.1)">
       <use xlink:href="#DejaVuSans-31"/>
       <use xlink:href="#DejaVuSans-31" x="63.623047"/>
      </g>
     </g>
    </g>
    <g id="xtick_13">
     <g id="line2d_13">
      <g>
       <use xlink:href="#m7a6a8ce711" x="721.535" y="575.596875" style="stroke: #000000; stroke-width: 0.8"/>
      </g>
     </g>
     <g id="text_13">
      <!-- 12 -->
      <g transform="translate(715.1725 590.195313) scale(0.1 -0.1)">
       <use xlink:href="#DejaVuSans-31"/>
       <use xlink:href="#DejaVuSans-32" x="63.623047"/>
      </g>
     </g>
    </g>
    <g id="xtick_14">
     <g id="line2d_14">
      <g>
       <use xlink:href="#m7a6a8ce711" x="777.335" y="575.596875" style="stroke: #000000; stroke-width: 0.8"/>
      </g>
     </g>
     <g id="text_14">
      <!-- 13 -->
      <g transform="translate(770.9725 590.195313) scale(0.1 -0.1)">
       <use xlink:href="#DejaVuSans-31"/>
       <use xlink:href="#DejaVuSans-33" x="63.623047"/>
      </g>
     </g>
    </g>
    <g id="xtick_15">
     <g id="line2d_15">
      <g>
       <use xlink:href="#m7a6a8ce711" x="833.135" y="575.596875" style="stroke: #000000; stroke-width: 0.8"/>
      </g>
     </g>
     <g id="text_15">
      <!-- 14 -->
      <g transform="translate(826.7725 590.195313) scale(0.1 -0.1)">
       <use xlink:href="#DejaVuSans-31"/>
       <use xlink:href="#DejaVuSans-34" x="63.623047"/>
      </g>
     </g>
    </g>
    <g id="xtick_16">
     <g id="line2d_16">
      <g>
       <use xlink:href="#m7a6a8ce711" x="888.935" y="575.596875" style="stroke: #000000; stroke-width: 0.8"/>
      </g>
     </g>
     <g id="text_16">
      <!-- 15 -->
      <g transform="translate(882.5725 590.195313) scale(0.1 -0.1)">
       <use xlink:href="#DejaVuSans-31"/>
       <use xlink:href="#DejaVuSans-35" x="63.623047"/>
      </g>
     </g>
    </g>
    <g id="text_17">
     <!-- k -->
     <g transform="translate(465.8025 608.4325) scale(0.16 -0.16)">
      <defs>
       <path id="DejaVuSans-6b" d="M 581 4863 
L 1159 4863 
L 1159 1991 
L 2875 3500 
L 3609 3500 
L 1753 1863 
L 3688 0 
L 2938 0 
L 1159 1709 
L 1159 0 
L 581 0 
L 581 4863 
z
" transform="scale(0.015625)"/>
      </defs>
      <use xlink:href="#DejaVuSans-6b"/>
     </g>
    </g>
   </g>
   <g id="matplotlib.axis_2">
    <g id="ytick_1">
     <g id="line2d_17">
      <defs>
       <path id="m68a4de88b2" d="M 0 0 
L -3.5 0 
" style="stroke: #000000; stroke-width: 0.8"/>
      </defs>
      <g>
       <use xlink:href="#m68a4de88b2" x="51.935" y="523.14511" style="stroke: #000000; stroke-width: 0.8"/>
      </g>
     </g>
     <g id="text_18">
      <!-- 1000 -->
      <g transform="translate(19.485 526.944329) scale(0.1 -0.1)">
       <use xlink:href="#DejaVuSans-31"/>
       <use xlink:href="#DejaVuSans-30" x="63.623047"/>
       <use xlink:href="#DejaVuSans-30" x="127.246094"/>
       <use xlink:href="#DejaVuSans-30" x="190.869141"/>
      </g>
     </g>
    </g>
    <g id="ytick_2">
     <g id="line2d_18">
      <g>
       <use xlink:href="#m68a4de88b2" x="51.935" y="435.76938" style="stroke: #000000; stroke-width: 0.8"/>
      </g>
     </g>
     <g id="text_19">
      <!-- 1200 -->
      <g transform="translate(19.485 439.568599) scale(0.1 -0.1)">
       <use xlink:href="#DejaVuSans-31"/>
       <use xlink:href="#DejaVuSans-32" x="63.623047"/>
       <use xlink:href="#DejaVuSans-30" x="127.246094"/>
       <use xlink:href="#DejaVuSans-30" x="190.869141"/>
      </g>
     </g>
    </g>
    <g id="ytick_3">
     <g id="line2d_19">
      <g>
       <use xlink:href="#m68a4de88b2" x="51.935" y="348.393649" style="stroke: #000000; stroke-width: 0.8"/>
      </g>
     </g>
     <g id="text_20">
      <!-- 1400 -->
      <g transform="translate(19.485 352.192868) scale(0.1 -0.1)">
       <use xlink:href="#DejaVuSans-31"/>
       <use xlink:href="#DejaVuSans-34" x="63.623047"/>
       <use xlink:href="#DejaVuSans-30" x="127.246094"/>
       <use xlink:href="#DejaVuSans-30" x="190.869141"/>
      </g>
     </g>
    </g>
    <g id="ytick_4">
     <g id="line2d_20">
      <g>
       <use xlink:href="#m68a4de88b2" x="51.935" y="261.017918" style="stroke: #000000; stroke-width: 0.8"/>
      </g>
     </g>
     <g id="text_21">
      <!-- 1600 -->
      <g transform="translate(19.485 264.817137) scale(0.1 -0.1)">
       <use xlink:href="#DejaVuSans-31"/>
       <use xlink:href="#DejaVuSans-36" x="63.623047"/>
       <use xlink:href="#DejaVuSans-30" x="127.246094"/>
       <use xlink:href="#DejaVuSans-30" x="190.869141"/>
      </g>
     </g>
    </g>
    <g id="ytick_5">
     <g id="line2d_21">
      <g>
       <use xlink:href="#m68a4de88b2" x="51.935" y="173.642188" style="stroke: #000000; stroke-width: 0.8"/>
      </g>
     </g>
     <g id="text_22">
      <!-- 1800 -->
      <g transform="translate(19.485 177.441407) scale(0.1 -0.1)">
       <use xlink:href="#DejaVuSans-31"/>
       <use xlink:href="#DejaVuSans-38" x="63.623047"/>
       <use xlink:href="#DejaVuSans-30" x="127.246094"/>
       <use xlink:href="#DejaVuSans-30" x="190.869141"/>
      </g>
     </g>
    </g>
    <g id="ytick_6">
     <g id="line2d_22">
      <g>
       <use xlink:href="#m68a4de88b2" x="51.935" y="86.266457" style="stroke: #000000; stroke-width: 0.8"/>
      </g>
     </g>
     <g id="text_23">
      <!-- 2000 -->
      <g transform="translate(19.485 90.065676) scale(0.1 -0.1)">
       <use xlink:href="#DejaVuSans-32"/>
       <use xlink:href="#DejaVuSans-30" x="63.623047"/>
       <use xlink:href="#DejaVuSans-30" x="127.246094"/>
       <use xlink:href="#DejaVuSans-30" x="190.869141"/>
      </g>
     </g>
    </g>
    <g id="text_24">
     <!-- Rating -->
     <g transform="translate(12.1575 324.185625) rotate(-90) scale(0.16 -0.16)">
      <defs>
       <path id="DejaVuSans-52" d="M 2841 2188 
Q 3044 2119 3236 1894 
Q 3428 1669 3622 1275 
L 4263 0 
L 3584 0 
L 2988 1197 
Q 2756 1666 2539 1819 
Q 2322 1972 1947 1972 
L 1259 1972 
L 1259 0 
L 628 0 
L 628 4666 
L 2053 4666 
Q 2853 4666 3247 4331 
Q 3641 3997 3641 3322 
Q 3641 2881 3436 2590 
Q 3231 2300 2841 2188 
z
M 1259 4147 
L 1259 2491 
L 2053 2491 
Q 2509 2491 2742 2702 
Q 2975 2913 2975 3322 
Q 2975 3731 2742 3939 
Q 2509 4147 2053 4147 
L 1259 4147 
z
" transform="scale(0.015625)"/>
       <path id="DejaVuSans-61" d="M 2194 1759 
Q 1497 1759 1228 1600 
Q 959 1441 959 1056 
Q 959 750 1161 570 
Q 1363 391 1709 391 
Q 2188 391 2477 730 
Q 2766 1069 2766 1631 
L 2766 1759 
L 2194 1759 
z
M 3341 1997 
L 3341 0 
L 2766 0 
L 2766 531 
Q 2569 213 2275 61 
Q 1981 -91 1556 -91 
Q 1019 -91 701 211 
Q 384 513 384 1019 
Q 384 1609 779 1909 
Q 1175 2209 1959 2209 
L 2766 2209 
L 2766 2266 
Q 2766 2663 2505 2880 
Q 2244 3097 1772 3097 
Q 1472 3097 1187 3025 
Q 903 2953 641 2809 
L 641 3341 
Q 956 3463 1253 3523 
Q 1550 3584 1831 3584 
Q 2591 3584 2966 3190 
Q 3341 2797 3341 1997 
z
" transform="scale(0.015625)"/>
       <path id="DejaVuSans-74" d="M 1172 4494 
L 1172 3500 
L 2356 3500 
L 2356 3053 
L 1172 3053 
L 1172 1153 
Q 1172 725 1289 603 
Q 1406 481 1766 481 
L 2356 481 
L 2356 0 
L 1766 0 
Q 1100 0 847 248 
Q 594 497 594 1153 
L 594 3053 
L 172 3053 
L 172 3500 
L 594 3500 
L 594 4494 
L 1172 4494 
z
" transform="scale(0.015625)"/>
       <path id="DejaVuSans-69" d="M 603 3500 
L 1178 3500 
L 1178 0 
L 603 0 
L 603 3500 
z
M 603 4863 
L 1178 4863 
L 1178 4134 
L 603 4134 
L 603 4863 
z
" transform="scale(0.015625)"/>
       <path id="DejaVuSans-6e" d="M 3513 2113 
L 3513 0 
L 2938 0 
L 2938 2094 
Q 2938 2591 2744 2837 
Q 2550 3084 2163 3084 
Q 1697 3084 1428 2787 
Q 1159 2491 1159 1978 
L 1159 0 
L 581 0 
L 581 3500 
L 1159 3500 
L 1159 2956 
Q 1366 3272 1645 3428 
Q 1925 3584 2291 3584 
Q 2894 3584 3203 3211 
Q 3513 2838 3513 2113 
z
" transform="scale(0.015625)"/>
       <path id="DejaVuSans-67" d="M 2906 1791 
Q 2906 2416 2648 2759 
Q 2391 3103 1925 3103 
Q 1463 3103 1205 2759 
Q 947 2416 947 1791 
Q 947 1169 1205 825 
Q 1463 481 1925 481 
Q 2391 481 2648 825 
Q 2906 1169 2906 1791 
z
M 3481 434 
Q 3481 -459 3084 -895 
Q 2688 -1331 1869 -1331 
Q 1566 -1331 1297 -1286 
Q 1028 -1241 775 -1147 
L 775 -588 
Q 1028 -725 1275 -790 
Q 1522 -856 1778 -856 
Q 2344 -856 2625 -561 
Q 2906 -266 2906 331 
L 2906 616 
Q 2728 306 2450 153 
Q 2172 0 1784 0 
Q 1141 0 747 490 
Q 353 981 353 1791 
Q 353 2603 747 3093 
Q 1141 3584 1784 3584 
Q 2172 3584 2450 3431 
Q 2728 3278 2906 2969 
L 2906 3500 
L 3481 3500 
L 3481 434 
z
" transform="scale(0.015625)"/>
      </defs>
      <use xlink:href="#DejaVuSans-52"/>
      <use xlink:href="#DejaVuSans-61" x="67.232422"/>
      <use xlink:href="#DejaVuSans-74" x="128.511719"/>
      <use xlink:href="#DejaVuSans-69" x="167.720703"/>
      <use xlink:href="#DejaVuSans-6e" x="195.503906"/>
      <use xlink:href="#DejaVuSans-67" x="258.882812"/>
     </g>
    </g>
   </g>
   <g id="line2d_23">
    <path d="M 51.935 218.436772 
L 107.735 247.334883 
L 163.535 296.695596 
L 219.335 308.580919 
L 275.135 311.723559 
L 330.935 311.440012 
L 386.735 309.549703 
L 442.535 312.219765 
L 498.335 312.692342 
L 554.135 310.589373 
L 609.935 291.001038 
L 665.735 281.620376 
L 721.535 302.201123 
L 777.335 332.044389 
L 833.135 320.927004 
L 888.935 275.973076 
" clip-path="url(#p98c9f8f66b)" style="fill: none; stroke: #1f77b4; stroke-width: 2; stroke-linecap: square"/>
    <defs>
     <path id="m07be9611cf" d="M 0 2 
C 0.530406 2 1.03916 1.789267 1.414214 1.414214 
C 1.789267 1.03916 2 0.530406 2 0 
C 2 -0.530406 1.789267 -1.03916 1.414214 -1.414214 
C 1.03916 -1.789267 0.530406 -2 0 -2 
C -0.530406 -2 -1.03916 -1.789267 -1.414214 -1.414214 
C -1.789267 -1.03916 -2 -0.530406 -2 0 
C -2 0.530406 -1.789267 1.03916 -1.414214 1.414214 
C -1.03916 1.789267 -0.530406 2 0 2 
z
" style="stroke: #1f77b4"/>
    </defs>
    <g clip-path="url(#p98c9f8f66b)">
     <use xlink:href="#m07be9611cf" x="51.935" y="218.436772" style="fill: #1f77b4; stroke: #1f77b4"/>
     <use xlink:href="#m07be9611cf" x="107.735" y="247.334883" style="fill: #1f77b4; stroke: #1f77b4"/>
     <use xlink:href="#m07be9611cf" x="163.535" y="296.695596" style="fill: #1f77b4; stroke: #1f77b4"/>
     <use xlink:href="#m07be9611cf" x="219.335" y="308.580919" style="fill: #1f77b4; stroke: #1f77b4"/>
     <use xlink:href="#m07be9611cf" x="275.135" y="311.723559" style="fill: #1f77b4; stroke: #1f77b4"/>
     <use xlink:href="#m07be9611cf" x="330.935" y="311.440012" style="fill: #1f77b4; stroke: #1f77b4"/>
     <use xlink:href="#m07be9611cf" x="386.735" y="309.549703" style="fill: #1f77b4; stroke: #1f77b4"/>
     <use xlink:href="#m07be9611cf" x="442.535" y="312.219765" style="fill: #1f77b4; stroke: #1f77b4"/>
     <use xlink:href="#m07be9611cf" x="498.335" y="312.692342" style="fill: #1f77b4; stroke: #1f77b4"/>
     <use xlink:href="#m07be9611cf" x="554.135" y="310.589373" style="fill: #1f77b4; stroke: #1f77b4"/>
     <use xlink:href="#m07be9611cf" x="609.935" y="291.001038" style="fill: #1f77b4; stroke: #1f77b4"/>
     <use xlink:href="#m07be9611cf" x="665.735" y="281.620376" style="fill: #1f77b4; stroke: #1f77b4"/>
     <use xlink:href="#m07be9611cf" x="721.535" y="302.201123" style="fill: #1f77b4; stroke: #1f77b4"/>
     <use xlink:href="#m07be9611cf" x="777.335" y="332.044389" style="fill: #1f77b4; stroke: #1f77b4"/>
     <use xlink:href="#m07be9611cf" x="833.135" y="320.927004" style="fill: #1f77b4; stroke: #1f77b4"/>
     <use xlink:href="#m07be9611cf" x="888.935" y="275.973076" style="fill: #1f77b4; stroke: #1f77b4"/>
    </g>
   </g>
   <g id="line2d_24">
    <path d="M 51.935 272.357858 
L 107.735 323.63251 
L 163.535 364.297799 
L 219.335 399.363045 
L 275.135 430.813073 
L 330.935 462.759308 
L 386.735 489.483562 
L 442.535 504.133463 
L 498.335 506.70901 
L 554.135 494.185708 
L 609.935 469.20999 
L 665.735 437.925364 
L 721.535 397.874426 
L 777.335 324.683995 
L 833.135 290.918337 
L 888.935 258.499525 
" clip-path="url(#p98c9f8f66b)" style="fill: none; stroke-dasharray: 7.4,3.2; stroke-dashoffset: 0; stroke: #ff7f0e; stroke-width: 2"/>
    <defs>
     <path id="m85af101e79" d="M -0.49999 0.49999 
L 0.50001 0.49999 
L 0.50001 -0.50001 
L -0.49999 -0.50001 
z
"/>
    </defs>
    <g clip-path="url(#p98c9f8f66b)">
     <use xlink:href="#m85af101e79" x="51.935" y="272.357858" style="fill: #ff7f0e"/>
     <use xlink:href="#m85af101e79" x="107.735" y="323.63251" style="fill: #ff7f0e"/>
     <use xlink:href="#m85af101e79" x="163.535" y="364.297799" style="fill: #ff7f0e"/>
     <use xlink:href="#m85af101e79" x="219.335" y="399.363045" style="fill: #ff7f0e"/>
     <use xlink:href="#m85af101e79" x="275.135" y="430.813073" style="fill: #ff7f0e"/>
     <use xlink:href="#m85af101e79" x="330.935" y="462.759308" style="fill: #ff7f0e"/>
     <use xlink:href="#m85af101e79" x="386.735" y="489.483562" style="fill: #ff7f0e"/>
     <use xlink:href="#m85af101e79" x="442.535" y="504.133463" style="fill: #ff7f0e"/>
     <use xlink:href="#m85af101e79" x="498.335" y="506.70901" style="fill: #ff7f0e"/>
     <use xlink:href="#m85af101e79" x="554.135" y="494.185708" style="fill: #ff7f0e"/>
     <use xlink:href="#m85af101e79" x="609.935" y="469.20999" style="fill: #ff7f0e"/>
     <use xlink:href="#m85af101e79" x="665.735" y="437.925364" style="fill: #ff7f0e"/>
     <use xlink:href="#m85af101e79" x="721.535" y="397.874426" style="fill: #ff7f0e"/>
     <use xlink:href="#m85af101e79" x="777.335" y="324.683995" style="fill: #ff7f0e"/>
     <use xlink:href="#m85af101e79" x="833.135" y="290.918337" style="fill: #ff7f0e"/>
     <use xlink:href="#m85af101e79" x="888.935" y="258.499525" style="fill: #ff7f0e"/>
    </g>
   </g>
   <g id="line2d_25">
    <path d="M 51.935 301.63403 
L 107.735 205.346377 
L 163.535 149.133291 
L 219.335 105.112703 
L 275.135 90.604576 
L 330.935 90.08474 
L 386.735 90.675462 
L 442.535 94.408824 
L 498.335 101.710145 
L 554.135 111.752416 
L 609.935 119.998892 
L 665.735 126.567719 
L 721.535 137.401556 
L 777.335 143.131558 
L 833.135 185.356352 
L 888.935 260.141731 
" clip-path="url(#p98c9f8f66b)" style="fill: none; stroke-dasharray: 12.8,3.2,2,3.2; stroke-dashoffset: 0; stroke: #2ca02c; stroke-width: 2"/>
    <defs>
     <path id="m585f343917" d="M 0 4 
C 1.060812 4 2.078319 3.578535 2.828427 2.828427 
C 3.578535 2.078319 4 1.060812 4 0 
C 4 -1.060812 3.578535 -2.078319 2.828427 -2.828427 
C 2.078319 -3.578535 1.060812 -4 0 -4 
C -1.060812 -4 -2.078319 -3.578535 -2.828427 -2.828427 
C -3.578535 -2.078319 -4 -1.060812 -4 0 
C -4 1.060812 -3.578535 2.078319 -2.828427 2.828427 
C -2.078319 3.578535 -1.060812 4 0 4 
z
" style="stroke: #2ca02c"/>
    </defs>
    <g clip-path="url(#p98c9f8f66b)">
     <use xlink:href="#m585f343917" x="51.935" y="301.63403" style="fill: #2ca02c; stroke: #2ca02c"/>
     <use xlink:href="#m585f343917" x="107.735" y="205.346377" style="fill: #2ca02c; stroke: #2ca02c"/>
     <use xlink:href="#m585f343917" x="163.535" y="149.133291" style="fill: #2ca02c; stroke: #2ca02c"/>
     <use xlink:href="#m585f343917" x="219.335" y="105.112703" style="fill: #2ca02c; stroke: #2ca02c"/>
     <use xlink:href="#m585f343917" x="275.135" y="90.604576" style="fill: #2ca02c; stroke: #2ca02c"/>
     <use xlink:href="#m585f343917" x="330.935" y="90.08474" style="fill: #2ca02c; stroke: #2ca02c"/>
     <use xlink:href="#m585f343917" x="386.735" y="90.675462" style="fill: #2ca02c; stroke: #2ca02c"/>
     <use xlink:href="#m585f343917" x="442.535" y="94.408824" style="fill: #2ca02c; stroke: #2ca02c"/>
     <use xlink:href="#m585f343917" x="498.335" y="101.710145" style="fill: #2ca02c; stroke: #2ca02c"/>
     <use xlink:href="#m585f343917" x="554.135" y="111.752416" style="fill: #2ca02c; stroke: #2ca02c"/>
     <use xlink:href="#m585f343917" x="609.935" y="119.998892" style="fill: #2ca02c; stroke: #2ca02c"/>
     <use xlink:href="#m585f343917" x="665.735" y="126.567719" style="fill: #2ca02c; stroke: #2ca02c"/>
     <use xlink:href="#m585f343917" x="721.535" y="137.401556" style="fill: #2ca02c; stroke: #2ca02c"/>
     <use xlink:href="#m585f343917" x="777.335" y="143.131558" style="fill: #2ca02c; stroke: #2ca02c"/>
     <use xlink:href="#m585f343917" x="833.135" y="185.356352" style="fill: #2ca02c; stroke: #2ca02c"/>
     <use xlink:href="#m585f343917" x="888.935" y="260.141731" style="fill: #2ca02c; stroke: #2ca02c"/>
    </g>
   </g>
   <g id="line2d_26">
    <path d="M 51.935 323.136304 
L 107.735 300.16904 
L 163.535 272.830436 
L 219.335 280.887881 
L 275.135 291.426358 
L 330.935 301.964835 
L 386.735 317.016426 
L 442.535 329.208924 
L 498.335 340.149092 
L 554.135 350.782084 
L 609.935 353.499404 
L 665.735 359.701983 
L 721.535 362.242087 
L 777.335 376.596627 
L 833.135 348.927218 
L 888.935 354.113755 
" clip-path="url(#p98c9f8f66b)" style="fill: none; stroke-dasharray: 2,3.3; stroke-dashoffset: 0; stroke: #d62728; stroke-width: 2"/>
    <defs>
     <path id="mcb99e2a2db" d="M -0 4 
L 4 -4 
L -4 -4 
z
" style="stroke: #d62728; stroke-linejoin: miter"/>
    </defs>
    <g clip-path="url(#p98c9f8f66b)">
     <use xlink:href="#mcb99e2a2db" x="51.935" y="323.136304" style="fill: #d62728; stroke: #d62728; stroke-linejoin: miter"/>
     <use xlink:href="#mcb99e2a2db" x="107.735" y="300.16904" style="fill: #d62728; stroke: #d62728; stroke-linejoin: miter"/>
     <use xlink:href="#mcb99e2a2db" x="163.535" y="272.830436" style="fill: #d62728; stroke: #d62728; stroke-linejoin: miter"/>
     <use xlink:href="#mcb99e2a2db" x="219.335" y="280.887881" style="fill: #d62728; stroke: #d62728; stroke-linejoin: miter"/>
     <use xlink:href="#mcb99e2a2db" x="275.135" y="291.426358" style="fill: #d62728; stroke: #d62728; stroke-linejoin: miter"/>
     <use xlink:href="#mcb99e2a2db" x="330.935" y="301.964835" style="fill: #d62728; stroke: #d62728; stroke-linejoin: miter"/>
     <use xlink:href="#mcb99e2a2db" x="386.735" y="317.016426" style="fill: #d62728; stroke: #d62728; stroke-linejoin: miter"/>
     <use xlink:href="#mcb99e2a2db" x="442.535" y="329.208924" style="fill: #d62728; stroke: #d62728; stroke-linejoin: miter"/>
     <use xlink:href="#mcb99e2a2db" x="498.335" y="340.149092" style="fill: #d62728; stroke: #d62728; stroke-linejoin: miter"/>
     <use xlink:href="#mcb99e2a2db" x="554.135" y="350.782084" style="fill: #d62728; stroke: #d62728; stroke-linejoin: miter"/>
     <use xlink:href="#mcb99e2a2db" x="609.935" y="353.499404" style="fill: #d62728; stroke: #d62728; stroke-linejoin: miter"/>
     <use xlink:href="#mcb99e2a2db" x="665.735" y="359.701983" style="fill: #d62728; stroke: #d62728; stroke-linejoin: miter"/>
     <use xlink:href="#mcb99e2a2db" x="721.535" y="362.242087" style="fill: #d62728; stroke: #d62728; stroke-linejoin: miter"/>
     <use xlink:href="#mcb99e2a2db" x="777.335" y="376.596627" style="fill: #d62728; stroke: #d62728; stroke-linejoin: miter"/>
     <use xlink:href="#mcb99e2a2db" x="833.135" y="348.927218" style="fill: #d62728; stroke: #d62728; stroke-linejoin: miter"/>
     <use xlink:href="#mcb99e2a2db" x="888.935" y="354.113755" style="fill: #d62728; stroke: #d62728; stroke-linejoin: miter"/>
    </g>
   </g>
   <g id="line2d_27">
    <path d="M 51.935 226.517847 
L 107.735 216.144772 
L 163.535 215.719452 
L 219.335 230.936446 
L 275.135 232.212405 
L 330.935 241.427665 
L 386.735 263.402516 
L 442.535 278.926685 
L 498.335 289.654192 
L 554.135 295.514153 
L 609.935 305.981743 
L 665.735 329.586986 
L 721.535 350.971115 
L 777.335 372.331615 
L 833.135 337.467215 
L 888.935 275.606828 
" clip-path="url(#p98c9f8f66b)" style="fill: none; stroke: #9467bd; stroke-width: 2; stroke-linecap: square"/>
    <defs>
     <path id="m987b0d3d5a" d="M 0 -4 
L -4 4 
L 4 4 
z
" style="stroke: #9467bd; stroke-linejoin: miter"/>
    </defs>
    <g clip-path="url(#p98c9f8f66b)">
     <use xlink:href="#m987b0d3d5a" x="51.935" y="226.517847" style="fill: #9467bd; stroke: #9467bd; stroke-linejoin: miter"/>
     <use xlink:href="#m987b0d3d5a" x="107.735" y="216.144772" style="fill: #9467bd; stroke: #9467bd; stroke-linejoin: miter"/>
     <use xlink:href="#m987b0d3d5a" x="163.535" y="215.719452" style="fill: #9467bd; stroke: #9467bd; stroke-linejoin: miter"/>
     <use xlink:href="#m987b0d3d5a" x="219.335" y="230.936446" style="fill: #9467bd; stroke: #9467bd; stroke-linejoin: miter"/>
     <use xlink:href="#m987b0d3d5a" x="275.135" y="232.212405" style="fill: #9467bd; stroke: #9467bd; stroke-linejoin: miter"/>
     <use xlink:href="#m987b0d3d5a" x="330.935" y="241.427665" style="fill: #9467bd; stroke: #9467bd; stroke-linejoin: miter"/>
     <use xlink:href="#m987b0d3d5a" x="386.735" y="263.402516" style="fill: #9467bd; stroke: #9467bd; stroke-linejoin: miter"/>
     <use xlink:href="#m987b0d3d5a" x="442.535" y="278.926685" style="fill: #9467bd; stroke: #9467bd; stroke-linejoin: miter"/>
     <use xlink:href="#m987b0d3d5a" x="498.335" y="289.654192" style="fill: #9467bd; stroke: #9467bd; stroke-linejoin: miter"/>
     <use xlink:href="#m987b0d3d5a" x="554.135" y="295.514153" style="fill: #9467bd; stroke: #9467bd; stroke-linejoin: miter"/>
     <use xlink:href="#m987b0d3d5a" x="609.935" y="305.981743" style="fill: #9467bd; stroke: #9467bd; stroke-linejoin: miter"/>
     <use xlink:href="#m987b0d3d5a" x="665.735" y="329.586986" style="fill: #9467bd; stroke: #9467bd; stroke-linejoin: miter"/>
     <use xlink:href="#m987b0d3d5a" x="721.535" y="350.971115" style="fill: #9467bd; stroke: #9467bd; stroke-linejoin: miter"/>
     <use xlink:href="#m987b0d3d5a" x="777.335" y="372.331615" style="fill: #9467bd; stroke: #9467bd; stroke-linejoin: miter"/>
     <use xlink:href="#m987b0d3d5a" x="833.135" y="337.467215" style="fill: #9467bd; stroke: #9467bd; stroke-linejoin: miter"/>
     <use xlink:href="#m987b0d3d5a" x="888.935" y="275.606828" style="fill: #9467bd; stroke: #9467bd; stroke-linejoin: miter"/>
    </g>
   </g>
   <g id="line2d_28">
    <path d="M 51.935 238.521314 
L 107.735 262.811794 
L 163.535 253.714678 
L 219.335 227.179455 
L 275.135 201.423985 
L 330.935 187.530208 
L 386.735 183.229753 
L 442.535 192.846704 
L 498.335 201.5185 
L 554.135 204.779285 
L 609.935 214.041802 
L 665.735 213.025761 
L 721.535 210.84009 
L 777.335 228.419971 
L 833.135 246.330656 
L 888.935 295.218792 
" clip-path="url(#p98c9f8f66b)" style="fill: none; stroke-dasharray: 7.4,3.2; stroke-dashoffset: 0; stroke: #8c564b; stroke-width: 2"/>
    <defs>
     <path id="m1c429d9304" d="M -4 -0 
L 4 4 
L 4 -4 
z
" style="stroke: #8c564b; stroke-linejoin: miter"/>
    </defs>
    <g clip-path="url(#p98c9f8f66b)">
     <use xlink:href="#m1c429d9304" x="51.935" y="238.521314" style="fill: #8c564b; stroke: #8c564b; stroke-linejoin: miter"/>
     <use xlink:href="#m1c429d9304" x="107.735" y="262.811794" style="fill: #8c564b; stroke: #8c564b; stroke-linejoin: miter"/>
     <use xlink:href="#m1c429d9304" x="163.535" y="253.714678" style="fill: #8c564b; stroke: #8c564b; stroke-linejoin: miter"/>
     <use xlink:href="#m1c429d9304" x="219.335" y="227.179455" style="fill: #8c564b; stroke: #8c564b; stroke-linejoin: miter"/>
     <use xlink:href="#m1c429d9304" x="275.135" y="201.423985" style="fill: #8c564b; stroke: #8c564b; stroke-linejoin: miter"/>
     <use xlink:href="#m1c429d9304" x="330.935" y="187.530208" style="fill: #8c564b; stroke: #8c564b; stroke-linejoin: miter"/>
     <use xlink:href="#m1c429d9304" x="386.735" y="183.229753" style="fill: #8c564b; stroke: #8c564b; stroke-linejoin: miter"/>
     <use xlink:href="#m1c429d9304" x="442.535" y="192.846704" style="fill: #8c564b; stroke: #8c564b; stroke-linejoin: miter"/>
     <use xlink:href="#m1c429d9304" x="498.335" y="201.5185" style="fill: #8c564b; stroke: #8c564b; stroke-linejoin: miter"/>
     <use xlink:href="#m1c429d9304" x="554.135" y="204.779285" style="fill: #8c564b; stroke: #8c564b; stroke-linejoin: miter"/>
     <use xlink:href="#m1c429d9304" x="609.935" y="214.041802" style="fill: #8c564b; stroke: #8c564b; stroke-linejoin: miter"/>
     <use xlink:href="#m1c429d9304" x="665.735" y="213.025761" style="fill: #8c564b; stroke: #8c564b; stroke-linejoin: miter"/>
     <use xlink:href="#m1c429d9304" x="721.535" y="210.84009" style="fill: #8c564b; stroke: #8c564b; stroke-linejoin: miter"/>
     <use xlink:href="#m1c429d9304" x="777.335" y="228.419971" style="fill: #8c564b; stroke: #8c564b; stroke-linejoin: miter"/>
     <use xlink:href="#m1c429d9304" x="833.135" y="246.330656" style="fill: #8c564b; stroke: #8c564b; stroke-linejoin: miter"/>
     <use xlink:href="#m1c429d9304" x="888.935" y="295.218792" style="fill: #8c564b; stroke: #8c564b; stroke-linejoin: miter"/>
    </g>
   </g>
   <g id="line2d_29">
    <path d="M 51.935 313.99193 
L 107.735 316.52022 
L 163.535 323.750655 
L 219.335 334.903482 
L 275.135 353.523033 
L 330.935 366.802459 
L 386.735 379.77471 
L 442.535 389.627949 
L 498.335 388.848197 
L 554.135 389.391661 
L 609.935 382.090339 
L 665.735 349.529754 
L 721.535 327.980223 
L 777.335 296.19939 
L 833.135 255.971236 
L 888.935 225.572692 
" clip-path="url(#p98c9f8f66b)" style="fill: none; stroke-dasharray: 12.8,3.2,2,3.2; stroke-dashoffset: 0; stroke: #e377c2; stroke-width: 2"/>
    <defs>
     <path id="m407346382a" d="M 4 0 
L -4 -4 
L -4 4 
z
" style="stroke: #e377c2; stroke-linejoin: miter"/>
    </defs>
    <g clip-path="url(#p98c9f8f66b)">
     <use xlink:href="#m407346382a" x="51.935" y="313.99193" style="fill: #e377c2; stroke: #e377c2; stroke-linejoin: miter"/>
     <use xlink:href="#m407346382a" x="107.735" y="316.52022" style="fill: #e377c2; stroke: #e377c2; stroke-linejoin: miter"/>
     <use xlink:href="#m407346382a" x="163.535" y="323.750655" style="fill: #e377c2; stroke: #e377c2; stroke-linejoin: miter"/>
     <use xlink:href="#m407346382a" x="219.335" y="334.903482" style="fill: #e377c2; stroke: #e377c2; stroke-linejoin: miter"/>
     <use xlink:href="#m407346382a" x="275.135" y="353.523033" style="fill: #e377c2; stroke: #e377c2; stroke-linejoin: miter"/>
     <use xlink:href="#m407346382a" x="330.935" y="366.802459" style="fill: #e377c2; stroke: #e377c2; stroke-linejoin: miter"/>
     <use xlink:href="#m407346382a" x="386.735" y="379.77471" style="fill: #e377c2; stroke: #e377c2; stroke-linejoin: miter"/>
     <use xlink:href="#m407346382a" x="442.535" y="389.627949" style="fill: #e377c2; stroke: #e377c2; stroke-linejoin: miter"/>
     <use xlink:href="#m407346382a" x="498.335" y="388.848197" style="fill: #e377c2; stroke: #e377c2; stroke-linejoin: miter"/>
     <use xlink:href="#m407346382a" x="554.135" y="389.391661" style="fill: #e377c2; stroke: #e377c2; stroke-linejoin: miter"/>
     <use xlink:href="#m407346382a" x="609.935" y="382.090339" style="fill: #e377c2; stroke: #e377c2; stroke-linejoin: miter"/>
     <use xlink:href="#m407346382a" x="665.735" y="349.529754" style="fill: #e377c2; stroke: #e377c2; stroke-linejoin: miter"/>
     <use xlink:href="#m407346382a" x="721.535" y="327.980223" style="fill: #e377c2; stroke: #e377c2; stroke-linejoin: miter"/>
     <use xlink:href="#m407346382a" x="777.335" y="296.19939" style="fill: #e377c2; stroke: #e377c2; stroke-linejoin: miter"/>
     <use xlink:href="#m407346382a" x="833.135" y="255.971236" style="fill: #e377c2; stroke: #e377c2; stroke-linejoin: miter"/>
     <use xlink:href="#m407346382a" x="888.935" y="225.572692" style="fill: #e377c2; stroke: #e377c2; stroke-linejoin: miter"/>
    </g>
   </g>
   <g id="line2d_30">
    <path d="M 51.935 505.503937 
L 107.735 500.187441 
L 163.535 486.529953 
L 219.335 468.359351 
L 275.135 452.24446 
L 330.935 418.147998 
L 386.735 370.984769 
L 442.535 325.593707 
L 498.335 297.66438 
L 554.135 296.62471 
L 609.935 312.290652 
L 665.735 330.638471 
L 721.535 353.664806 
L 777.335 372.638791 
L 833.135 425.260288 
L 888.935 437.417343 
" clip-path="url(#p98c9f8f66b)" style="fill: none; stroke-dasharray: 2,3.3; stroke-dashoffset: 0; stroke: #bcbd22; stroke-width: 2"/>
    <defs>
     <path id="m9cec9edcb3" d="M -4 4 
L 4 4 
L 4 -4 
L -4 -4 
z
" style="stroke: #bcbd22; stroke-linejoin: miter"/>
    </defs>
    <g clip-path="url(#p98c9f8f66b)">
     <use xlink:href="#m9cec9edcb3" x="51.935" y="505.503937" style="fill: #bcbd22; stroke: #bcbd22; stroke-linejoin: miter"/>
     <use xlink:href="#m9cec9edcb3" x="107.735" y="500.187441" style="fill: #bcbd22; stroke: #bcbd22; stroke-linejoin: miter"/>
     <use xlink:href="#m9cec9edcb3" x="163.535" y="486.529953" style="fill: #bcbd22; stroke: #bcbd22; stroke-linejoin: miter"/>
     <use xlink:href="#m9cec9edcb3" x="219.335" y="468.359351" style="fill: #bcbd22; stroke: #bcbd22; stroke-linejoin: miter"/>
     <use xlink:href="#m9cec9edcb3" x="275.135" y="452.24446" style="fill: #bcbd22; stroke: #bcbd22; stroke-linejoin: miter"/>
     <use xlink:href="#m9cec9edcb3" x="330.935" y="418.147998" style="fill: #bcbd22; stroke: #bcbd22; stroke-linejoin: miter"/>
     <use xlink:href="#m9cec9edcb3" x="386.735" y="370.984769" style="fill: #bcbd22; stroke: #bcbd22; stroke-linejoin: miter"/>
     <use xlink:href="#m9cec9edcb3" x="442.535" y="325.593707" style="fill: #bcbd22; stroke: #bcbd22; stroke-linejoin: miter"/>
     <use xlink:href="#m9cec9edcb3" x="498.335" y="297.66438" style="fill: #bcbd22; stroke: #bcbd22; stroke-linejoin: miter"/>
     <use xlink:href="#m9cec9edcb3" x="554.135" y="296.62471" style="fill: #bcbd22; stroke: #bcbd22; stroke-linejoin: miter"/>
     <use xlink:href="#m9cec9edcb3" x="609.935" y="312.290652" style="fill: #bcbd22; stroke: #bcbd22; stroke-linejoin: miter"/>
     <use xlink:href="#m9cec9edcb3" x="665.735" y="330.638471" style="fill: #bcbd22; stroke: #bcbd22; stroke-linejoin: miter"/>
     <use xlink:href="#m9cec9edcb3" x="721.535" y="353.664806" style="fill: #bcbd22; stroke: #bcbd22; stroke-linejoin: miter"/>
     <use xlink:href="#m9cec9edcb3" x="777.335" y="372.638791" style="fill: #bcbd22; stroke: #bcbd22; stroke-linejoin: miter"/>
     <use xlink:href="#m9cec9edcb3" x="833.135" y="425.260288" style="fill: #bcbd22; stroke: #bcbd22; stroke-linejoin: miter"/>
     <use xlink:href="#m9cec9edcb3" x="888.935" y="437.417343" style="fill: #bcbd22; stroke: #bcbd22; stroke-linejoin: miter"/>
    </g>
   </g>
   <g id="line2d_31">
    <path d="M 51.935 342.252061 
L 107.735 370.205017 
L 163.535 379.680194 
L 219.335 387.028773 
L 275.135 378.380606 
L 330.935 362.194829 
L 386.735 338.235153 
L 442.535 315.386034 
L 498.335 303.406196 
L 554.135 288.732666 
L 609.935 294.238194 
L 665.735 313.755642 
L 721.535 299.176628 
L 777.335 296.30572 
L 833.135 331.193749 
L 888.935 359.808313 
" clip-path="url(#p98c9f8f66b)" style="fill: none; stroke: #17becf; stroke-width: 2; stroke-linecap: square"/>
    <defs>
     <path id="m22599d4b6c" d="M 0 -4 
L -3.804226 -1.236068 
L -2.351141 3.236068 
L 2.351141 3.236068 
L 3.804226 -1.236068 
z
" style="stroke: #17becf; stroke-linejoin: miter"/>
    </defs>
    <g clip-path="url(#p98c9f8f66b)">
     <use xlink:href="#m22599d4b6c" x="51.935" y="342.252061" style="fill: #17becf; stroke: #17becf; stroke-linejoin: miter"/>
     <use xlink:href="#m22599d4b6c" x="107.735" y="370.205017" style="fill: #17becf; stroke: #17becf; stroke-linejoin: miter"/>
     <use xlink:href="#m22599d4b6c" x="163.535" y="379.680194" style="fill: #17becf; stroke: #17becf; stroke-linejoin: miter"/>
     <use xlink:href="#m22599d4b6c" x="219.335" y="387.028773" style="fill: #17becf; stroke: #17becf; stroke-linejoin: miter"/>
     <use xlink:href="#m22599d4b6c" x="275.135" y="378.380606" style="fill: #17becf; stroke: #17becf; stroke-linejoin: miter"/>
     <use xlink:href="#m22599d4b6c" x="330.935" y="362.194829" style="fill: #17becf; stroke: #17becf; stroke-linejoin: miter"/>
     <use xlink:href="#m22599d4b6c" x="386.735" y="338.235153" style="fill: #17becf; stroke: #17becf; stroke-linejoin: miter"/>
     <use xlink:href="#m22599d4b6c" x="442.535" y="315.386034" style="fill: #17becf; stroke: #17becf; stroke-linejoin: miter"/>
     <use xlink:href="#m22599d4b6c" x="498.335" y="303.406196" style="fill: #17becf; stroke: #17becf; stroke-linejoin: miter"/>
     <use xlink:href="#m22599d4b6c" x="554.135" y="288.732666" style="fill: #17becf; stroke: #17becf; stroke-linejoin: miter"/>
     <use xlink:href="#m22599d4b6c" x="609.935" y="294.238194" style="fill: #17becf; stroke: #17becf; stroke-linejoin: miter"/>
     <use xlink:href="#m22599d4b6c" x="665.735" y="313.755642" style="fill: #17becf; stroke: #17becf; stroke-linejoin: miter"/>
     <use xlink:href="#m22599d4b6c" x="721.535" y="299.176628" style="fill: #17becf; stroke: #17becf; stroke-linejoin: miter"/>
     <use xlink:href="#m22599d4b6c" x="777.335" y="296.30572" style="fill: #17becf; stroke: #17becf; stroke-linejoin: miter"/>
     <use xlink:href="#m22599d4b6c" x="833.135" y="331.193749" style="fill: #17becf; stroke: #17becf; stroke-linejoin: miter"/>
     <use xlink:href="#m22599d4b6c" x="888.935" y="359.808313" style="fill: #17becf; stroke: #17becf; stroke-linejoin: miter"/>
    </g>
   </g>
   <g id="line2d_32">
    <path d="M 51.935 575.596875 
L 51.935 21.196875 
" clip-path="url(#p98c9f8f66b)" style="fill: none; stroke-dasharray: 3.7,1.6; stroke-dashoffset: 0; stroke: #000000; stroke-opacity: 0.5"/>
   </g>
   <g id="line2d_33">
    <path d="M 107.735 575.596875 
L 107.735 21.196875 
" clip-path="url(#p98c9f8f66b)" style="fill: none; stroke-dasharray: 3.7,1.6; stroke-dashoffset: 0; stroke: #000000; stroke-opacity: 0.5"/>
   </g>
   <g id="line2d_34">
    <path d="M 163.535 575.596875 
L 163.535 21.196875 
" clip-path="url(#p98c9f8f66b)" style="fill: none; stroke-dasharray: 3.7,1.6; stroke-dashoffset: 0; stroke: #000000; stroke-opacity: 0.5"/>
   </g>
   <g id="line2d_35">
    <path d="M 219.335 575.596875 
L 219.335 21.196875 
" clip-path="url(#p98c9f8f66b)" style="fill: none; stroke-dasharray: 3.7,1.6; stroke-dashoffset: 0; stroke: #000000; stroke-opacity: 0.5"/>
   </g>
   <g id="line2d_36">
    <path d="M 275.135 575.596875 
L 275.135 21.196875 
" clip-path="url(#p98c9f8f66b)" style="fill: none; stroke-dasharray: 3.7,1.6; stroke-dashoffset: 0; stroke: #000000; stroke-opacity: 0.5"/>
   </g>
   <g id="line2d_37">
    <path d="M 330.935 575.596875 
L 330.935 21.196875 
" clip-path="url(#p98c9f8f66b)" style="fill: none; stroke-dasharray: 3.7,1.6; stroke-dashoffset: 0; stroke: #000000; stroke-opacity: 0.5"/>
   </g>
   <g id="line2d_38">
    <path d="M 386.735 575.596875 
L 386.735 21.196875 
" clip-path="url(#p98c9f8f66b)" style="fill: none; stroke-dasharray: 3.7,1.6; stroke-dashoffset: 0; stroke: #000000; stroke-opacity: 0.5"/>
   </g>
   <g id="line2d_39">
    <path d="M 442.535 575.596875 
L 442.535 21.196875 
" clip-path="url(#p98c9f8f66b)" style="fill: none; stroke-dasharray: 3.7,1.6; stroke-dashoffset: 0; stroke: #000000; stroke-opacity: 0.5"/>
   </g>
   <g id="line2d_40">
    <path d="M 498.335 575.596875 
L 498.335 21.196875 
" clip-path="url(#p98c9f8f66b)" style="fill: none; stroke-dasharray: 3.7,1.6; stroke-dashoffset: 0; stroke: #000000; stroke-opacity: 0.5"/>
   </g>
   <g id="line2d_41">
    <path d="M 554.135 575.596875 
L 554.135 21.196875 
" clip-path="url(#p98c9f8f66b)" style="fill: none; stroke-dasharray: 3.7,1.6; stroke-dashoffset: 0; stroke: #000000; stroke-opacity: 0.5"/>
   </g>
   <g id="line2d_42">
    <path d="M 609.935 575.596875 
L 609.935 21.196875 
" clip-path="url(#p98c9f8f66b)" style="fill: none; stroke-dasharray: 3.7,1.6; stroke-dashoffset: 0; stroke: #000000; stroke-opacity: 0.5"/>
   </g>
   <g id="line2d_43">
    <path d="M 665.735 575.596875 
L 665.735 21.196875 
" clip-path="url(#p98c9f8f66b)" style="fill: none; stroke-dasharray: 3.7,1.6; stroke-dashoffset: 0; stroke: #000000; stroke-opacity: 0.5"/>
   </g>
   <g id="line2d_44">
    <path d="M 721.535 575.596875 
L 721.535 21.196875 
" clip-path="url(#p98c9f8f66b)" style="fill: none; stroke-dasharray: 3.7,1.6; stroke-dashoffset: 0; stroke: #000000; stroke-opacity: 0.5"/>
   </g>
   <g id="line2d_45">
    <path d="M 777.335 575.596875 
L 777.335 21.196875 
" clip-path="url(#p98c9f8f66b)" style="fill: none; stroke-dasharray: 3.7,1.6; stroke-dashoffset: 0; stroke: #000000; stroke-opacity: 0.5"/>
   </g>
   <g id="line2d_46">
    <path d="M 833.135 575.596875 
L 833.135 21.196875 
" clip-path="url(#p98c9f8f66b)" style="fill: none; stroke-dasharray: 3.7,1.6; stroke-dashoffset: 0; stroke: #000000; stroke-opacity: 0.5"/>
   </g>
   <g id="line2d_47">
    <path d="M 888.935 575.596875 
L 888.935 21.196875 
" clip-path="url(#p98c9f8f66b)" style="fill: none; stroke-dasharray: 3.7,1.6; stroke-dashoffset: 0; stroke: #000000; stroke-opacity: 0.5"/>
   </g>
   <g id="patch_3">
    <path d="M 51.935 575.596875 
L 51.935 21.196875 
" style="fill: none; stroke: #000000; stroke-width: 0.8; stroke-linejoin: miter; stroke-linecap: square"/>
   </g>
   <g id="patch_4">
    <path d="M 888.935 575.596875 
L 888.935 21.196875 
" style="fill: none; stroke: #000000; stroke-width: 0.8; stroke-linejoin: miter; stroke-linecap: square"/>
   </g>
   <g id="patch_5">
    <path d="M 51.935 575.596875 
L 888.935 575.596875 
" style="fill: none; stroke: #000000; stroke-width: 0.8; stroke-linejoin: miter; stroke-linecap: square"/>
   </g>
   <g id="patch_6">
    <path d="M 51.935 21.196875 
L 888.935 21.196875 
" style="fill: none; stroke: #000000; stroke-width: 0.8; stroke-linejoin: miter; stroke-linecap: square"/>
   </g>
   <g id="text_25">
    <!-- CEC 2017 Shifted Rating Interval bands -->
    <g transform="translate(272.674062 15.196875) scale(0.2 -0.2)">
     <defs>
      <path id="DejaVuSans-43" d="M 4122 4306 
L 4122 3641 
Q 3803 3938 3442 4084 
Q 3081 4231 2675 4231 
Q 1875 4231 1450 3742 
Q 1025 3253 1025 2328 
Q 1025 1406 1450 917 
Q 1875 428 2675 428 
Q 3081 428 3442 575 
Q 3803 722 4122 1019 
L 4122 359 
Q 3791 134 3420 21 
Q 3050 -91 2638 -91 
Q 1578 -91 968 557 
Q 359 1206 359 2328 
Q 359 3453 968 4101 
Q 1578 4750 2638 4750 
Q 3056 4750 3426 4639 
Q 3797 4528 4122 4306 
z
" transform="scale(0.015625)"/>
      <path id="DejaVuSans-45" d="M 628 4666 
L 3578 4666 
L 3578 4134 
L 1259 4134 
L 1259 2753 
L 3481 2753 
L 3481 2222 
L 1259 2222 
L 1259 531 
L 3634 531 
L 3634 0 
L 628 0 
L 628 4666 
z
" transform="scale(0.015625)"/>
      <path id="DejaVuSans-20" transform="scale(0.015625)"/>
      <path id="DejaVuSans-53" d="M 3425 4513 
L 3425 3897 
Q 3066 4069 2747 4153 
Q 2428 4238 2131 4238 
Q 1616 4238 1336 4038 
Q 1056 3838 1056 3469 
Q 1056 3159 1242 3001 
Q 1428 2844 1947 2747 
L 2328 2669 
Q 3034 2534 3370 2195 
Q 3706 1856 3706 1288 
Q 3706 609 3251 259 
Q 2797 -91 1919 -91 
Q 1588 -91 1214 -16 
Q 841 59 441 206 
L 441 856 
Q 825 641 1194 531 
Q 1563 422 1919 422 
Q 2459 422 2753 634 
Q 3047 847 3047 1241 
Q 3047 1584 2836 1778 
Q 2625 1972 2144 2069 
L 1759 2144 
Q 1053 2284 737 2584 
Q 422 2884 422 3419 
Q 422 4038 858 4394 
Q 1294 4750 2059 4750 
Q 2388 4750 2728 4690 
Q 3069 4631 3425 4513 
z
" transform="scale(0.015625)"/>
      <path id="DejaVuSans-68" d="M 3513 2113 
L 3513 0 
L 2938 0 
L 2938 2094 
Q 2938 2591 2744 2837 
Q 2550 3084 2163 3084 
Q 1697 3084 1428 2787 
Q 1159 2491 1159 1978 
L 1159 0 
L 581 0 
L 581 4863 
L 1159 4863 
L 1159 2956 
Q 1366 3272 1645 3428 
Q 1925 3584 2291 3584 
Q 2894 3584 3203 3211 
Q 3513 2838 3513 2113 
z
" transform="scale(0.015625)"/>
      <path id="DejaVuSans-66" d="M 2375 4863 
L 2375 4384 
L 1825 4384 
Q 1516 4384 1395 4259 
Q 1275 4134 1275 3809 
L 1275 3500 
L 2222 3500 
L 2222 3053 
L 1275 3053 
L 1275 0 
L 697 0 
L 697 3053 
L 147 3053 
L 147 3500 
L 697 3500 
L 697 3744 
Q 697 4328 969 4595 
Q 1241 4863 1831 4863 
L 2375 4863 
z
" transform="scale(0.015625)"/>
      <path id="DejaVuSans-65" d="M 3597 1894 
L 3597 1613 
L 953 1613 
Q 991 1019 1311 708 
Q 1631 397 2203 397 
Q 2534 397 2845 478 
Q 3156 559 3463 722 
L 3463 178 
Q 3153 47 2828 -22 
Q 2503 -91 2169 -91 
Q 1331 -91 842 396 
Q 353 884 353 1716 
Q 353 2575 817 3079 
Q 1281 3584 2069 3584 
Q 2775 3584 3186 3129 
Q 3597 2675 3597 1894 
z
M 3022 2063 
Q 3016 2534 2758 2815 
Q 2500 3097 2075 3097 
Q 1594 3097 1305 2825 
Q 1016 2553 972 2059 
L 3022 2063 
z
" transform="scale(0.015625)"/>
      <path id="DejaVuSans-64" d="M 2906 2969 
L 2906 4863 
L 3481 4863 
L 3481 0 
L 2906 0 
L 2906 525 
Q 2725 213 2448 61 
Q 2172 -91 1784 -91 
Q 1150 -91 751 415 
Q 353 922 353 1747 
Q 353 2572 751 3078 
Q 1150 3584 1784 3584 
Q 2172 3584 2448 3432 
Q 2725 3281 2906 2969 
z
M 947 1747 
Q 947 1113 1208 752 
Q 1469 391 1925 391 
Q 2381 391 2643 752 
Q 2906 1113 2906 1747 
Q 2906 2381 2643 2742 
Q 2381 3103 1925 3103 
Q 1469 3103 1208 2742 
Q 947 2381 947 1747 
z
" transform="scale(0.015625)"/>
      <path id="DejaVuSans-49" d="M 628 4666 
L 1259 4666 
L 1259 0 
L 628 0 
L 628 4666 
z
" transform="scale(0.015625)"/>
      <path id="DejaVuSans-72" d="M 2631 2963 
Q 2534 3019 2420 3045 
Q 2306 3072 2169 3072 
Q 1681 3072 1420 2755 
Q 1159 2438 1159 1844 
L 1159 0 
L 581 0 
L 581 3500 
L 1159 3500 
L 1159 2956 
Q 1341 3275 1631 3429 
Q 1922 3584 2338 3584 
Q 2397 3584 2469 3576 
Q 2541 3569 2628 3553 
L 2631 2963 
z
" transform="scale(0.015625)"/>
      <path id="DejaVuSans-76" d="M 191 3500 
L 800 3500 
L 1894 563 
L 2988 3500 
L 3597 3500 
L 2284 0 
L 1503 0 
L 191 3500 
z
" transform="scale(0.015625)"/>
      <path id="DejaVuSans-6c" d="M 603 4863 
L 1178 4863 
L 1178 0 
L 603 0 
L 603 4863 
z
" transform="scale(0.015625)"/>
      <path id="DejaVuSans-62" d="M 3116 1747 
Q 3116 2381 2855 2742 
Q 2594 3103 2138 3103 
Q 1681 3103 1420 2742 
Q 1159 2381 1159 1747 
Q 1159 1113 1420 752 
Q 1681 391 2138 391 
Q 2594 391 2855 752 
Q 3116 1113 3116 1747 
z
M 1159 2969 
Q 1341 3281 1617 3432 
Q 1894 3584 2278 3584 
Q 2916 3584 3314 3078 
Q 3713 2572 3713 1747 
Q 3713 922 3314 415 
Q 2916 -91 2278 -91 
Q 1894 -91 1617 61 
Q 1341 213 1159 525 
L 1159 0 
L 581 0 
L 581 4863 
L 1159 4863 
L 1159 2969 
z
" transform="scale(0.015625)"/>
      <path id="DejaVuSans-73" d="M 2834 3397 
L 2834 2853 
Q 2591 2978 2328 3040 
Q 2066 3103 1784 3103 
Q 1356 3103 1142 2972 
Q 928 2841 928 2578 
Q 928 2378 1081 2264 
Q 1234 2150 1697 2047 
L 1894 2003 
Q 2506 1872 2764 1633 
Q 3022 1394 3022 966 
Q 3022 478 2636 193 
Q 2250 -91 1575 -91 
Q 1294 -91 989 -36 
Q 684 19 347 128 
L 347 722 
Q 666 556 975 473 
Q 1284 391 1588 391 
Q 1994 391 2212 530 
Q 2431 669 2431 922 
Q 2431 1156 2273 1281 
Q 2116 1406 1581 1522 
L 1381 1569 
Q 847 1681 609 1914 
Q 372 2147 372 2553 
Q 372 3047 722 3315 
Q 1072 3584 1716 3584 
Q 2034 3584 2315 3537 
Q 2597 3491 2834 3397 
z
" transform="scale(0.015625)"/>
     </defs>
     <use xlink:href="#DejaVuSans-43"/>
     <use xlink:href="#DejaVuSans-45" x="69.824219"/>
     <use xlink:href="#DejaVuSans-43" x="133.007812"/>
     <use xlink:href="#DejaVuSans-20" x="202.832031"/>
     <use xlink:href="#DejaVuSans-32" x="234.619141"/>
     <use xlink:href="#DejaVuSans-30" x="298.242188"/>
     <use xlink:href="#DejaVuSans-31" x="361.865234"/>
     <use xlink:href="#DejaVuSans-37" x="425.488281"/>
     <use xlink:href="#DejaVuSans-20" x="489.111328"/>
     <use xlink:href="#DejaVuSans-53" x="520.898438"/>
     <use xlink:href="#DejaVuSans-68" x="584.375"/>
     <use xlink:href="#DejaVuSans-69" x="647.753906"/>
     <use xlink:href="#DejaVuSans-66" x="675.537109"/>
     <use xlink:href="#DejaVuSans-74" x="708.992188"/>
     <use xlink:href="#DejaVuSans-65" x="748.201172"/>
     <use xlink:href="#DejaVuSans-64" x="809.724609"/>
     <use xlink:href="#DejaVuSans-20" x="873.201172"/>
     <use xlink:href="#DejaVuSans-52" x="904.988281"/>
     <use xlink:href="#DejaVuSans-61" x="972.220703"/>
     <use xlink:href="#DejaVuSans-74" x="1033.5"/>
     <use xlink:href="#DejaVuSans-69" x="1072.708984"/>
     <use xlink:href="#DejaVuSans-6e" x="1100.492188"/>
     <use xlink:href="#DejaVuSans-67" x="1163.871094"/>
     <use xlink:href="#DejaVuSans-20" x="1227.347656"/>
     <use xlink:href="#DejaVuSans-49" x="1259.134766"/>
     <use xlink:href="#DejaVuSans-6e" x="1288.626953"/>
     <use xlink:href="#DejaVuSans-74" x="1352.005859"/>
     <use xlink:href="#DejaVuSans-65" x="1391.214844"/>
     <use xlink:href="#DejaVuSans-72" x="1452.738281"/>
     <use xlink:href="#DejaVuSans-76" x="1493.851562"/>
     <use xlink:href="#DejaVuSans-61" x="1553.03125"/>
     <use xlink:href="#DejaVuSans-6c" x="1614.310547"/>
     <use xlink:href="#DejaVuSans-20" x="1642.09375"/>
     <use xlink:href="#DejaVuSans-62" x="1673.880859"/>
     <use xlink:href="#DejaVuSans-61" x="1737.357422"/>
     <use xlink:href="#DejaVuSans-6e" x="1798.636719"/>
     <use xlink:href="#DejaVuSans-64" x="1862.015625"/>
     <use xlink:href="#DejaVuSans-73" x="1925.492188"/>
    </g>
   </g>
   <g id="legend_1">
    <g id="patch_7">
     <path d="M 58.935 161.3 
L 199.781875 161.3 
Q 201.781875 161.3 201.781875 159.3 
L 201.781875 28.196875 
Q 201.781875 26.196875 199.781875 26.196875 
L 58.935 26.196875 
Q 56.935 26.196875 56.935 28.196875 
L 56.935 159.3 
Q 56.935 161.3 58.935 161.3 
z
" style="fill: #ffffff; opacity: 0.8; stroke: #cccccc; stroke-linejoin: miter"/>
    </g>
    <g id="patch_8">
     <path d="M 60.935 37.795313 
L 80.935 37.795313 
L 80.935 30.795313 
L 60.935 30.795313 
z
" style="fill: #8fbbda; fill-opacity: 0.3"/>
    </g>
    <g id="line2d_48">
     <path d="M 60.935 34.295313 
L 70.935 34.295313 
L 80.935 34.295313 
" style="fill: none; stroke: #1f77b4; stroke-width: 2; stroke-linecap: square"/>
     <g>
      <use xlink:href="#m07be9611cf" x="70.935" y="34.295313" style="fill: #1f77b4; stroke: #1f77b4"/>
     </g>
    </g>
    <g id="text_26">
     <!-- APGSK-IMODE -->
     <g transform="translate(88.935 37.795313) scale(0.1 -0.1)">
      <defs>
       <path id="DejaVuSans-41" d="M 2188 4044 
L 1331 1722 
L 3047 1722 
L 2188 4044 
z
M 1831 4666 
L 2547 4666 
L 4325 0 
L 3669 0 
L 3244 1197 
L 1141 1197 
L 716 0 
L 50 0 
L 1831 4666 
z
" transform="scale(0.015625)"/>
       <path id="DejaVuSans-50" d="M 1259 4147 
L 1259 2394 
L 2053 2394 
Q 2494 2394 2734 2622 
Q 2975 2850 2975 3272 
Q 2975 3691 2734 3919 
Q 2494 4147 2053 4147 
L 1259 4147 
z
M 628 4666 
L 2053 4666 
Q 2838 4666 3239 4311 
Q 3641 3956 3641 3272 
Q 3641 2581 3239 2228 
Q 2838 1875 2053 1875 
L 1259 1875 
L 1259 0 
L 628 0 
L 628 4666 
z
" transform="scale(0.015625)"/>
       <path id="DejaVuSans-47" d="M 3809 666 
L 3809 1919 
L 2778 1919 
L 2778 2438 
L 4434 2438 
L 4434 434 
Q 4069 175 3628 42 
Q 3188 -91 2688 -91 
Q 1594 -91 976 548 
Q 359 1188 359 2328 
Q 359 3472 976 4111 
Q 1594 4750 2688 4750 
Q 3144 4750 3555 4637 
Q 3966 4525 4313 4306 
L 4313 3634 
Q 3963 3931 3569 4081 
Q 3175 4231 2741 4231 
Q 1884 4231 1454 3753 
Q 1025 3275 1025 2328 
Q 1025 1384 1454 906 
Q 1884 428 2741 428 
Q 3075 428 3337 486 
Q 3600 544 3809 666 
z
" transform="scale(0.015625)"/>
       <path id="DejaVuSans-4b" d="M 628 4666 
L 1259 4666 
L 1259 2694 
L 3353 4666 
L 4166 4666 
L 1850 2491 
L 4331 0 
L 3500 0 
L 1259 2247 
L 1259 0 
L 628 0 
L 628 4666 
z
" transform="scale(0.015625)"/>
       <path id="DejaVuSans-2d" d="M 313 2009 
L 1997 2009 
L 1997 1497 
L 313 1497 
L 313 2009 
z
" transform="scale(0.015625)"/>
       <path id="DejaVuSans-4d" d="M 628 4666 
L 1569 4666 
L 2759 1491 
L 3956 4666 
L 4897 4666 
L 4897 0 
L 4281 0 
L 4281 4097 
L 3078 897 
L 2444 897 
L 1241 4097 
L 1241 0 
L 628 0 
L 628 4666 
z
" transform="scale(0.015625)"/>
       <path id="DejaVuSans-4f" d="M 2522 4238 
Q 1834 4238 1429 3725 
Q 1025 3213 1025 2328 
Q 1025 1447 1429 934 
Q 1834 422 2522 422 
Q 3209 422 3611 934 
Q 4013 1447 4013 2328 
Q 4013 3213 3611 3725 
Q 3209 4238 2522 4238 
z
M 2522 4750 
Q 3503 4750 4090 4092 
Q 4678 3434 4678 2328 
Q 4678 1225 4090 567 
Q 3503 -91 2522 -91 
Q 1538 -91 948 565 
Q 359 1222 359 2328 
Q 359 3434 948 4092 
Q 1538 4750 2522 4750 
z
" transform="scale(0.015625)"/>
       <path id="DejaVuSans-44" d="M 1259 4147 
L 1259 519 
L 2022 519 
Q 2988 519 3436 956 
Q 3884 1394 3884 2338 
Q 3884 3275 3436 3711 
Q 2988 4147 2022 4147 
L 1259 4147 
z
M 628 4666 
L 1925 4666 
Q 3281 4666 3915 4102 
Q 4550 3538 4550 2338 
Q 4550 1131 3912 565 
Q 3275 0 1925 0 
L 628 0 
L 628 4666 
z
" transform="scale(0.015625)"/>
      </defs>
      <use xlink:href="#DejaVuSans-41"/>
      <use xlink:href="#DejaVuSans-50" x="68.408203"/>
      <use xlink:href="#DejaVuSans-47" x="128.710938"/>
      <use xlink:href="#DejaVuSans-53" x="206.201172"/>
      <use xlink:href="#DejaVuSans-4b" x="269.677734"/>
      <use xlink:href="#DejaVuSans-2d" x="324.753906"/>
      <use xlink:href="#DejaVuSans-49" x="360.837891"/>
      <use xlink:href="#DejaVuSans-4d" x="390.330078"/>
      <use xlink:href="#DejaVuSans-4f" x="476.609375"/>
      <use xlink:href="#DejaVuSans-44" x="555.320312"/>
      <use xlink:href="#DejaVuSans-45" x="632.322266"/>
     </g>
    </g>
    <g id="patch_9">
     <path d="M 60.935 52.473438 
L 80.935 52.473438 
L 80.935 45.473438 
L 60.935 45.473438 
z
" style="fill: #ffbf86; fill-opacity: 0.3"/>
    </g>
    <g id="line2d_49">
     <path d="M 60.935 48.973438 
L 70.935 48.973438 
L 80.935 48.973438 
" style="fill: none; stroke-dasharray: 7.4,3.2; stroke-dashoffset: 0; stroke: #ff7f0e; stroke-width: 2"/>
     <g>
      <use xlink:href="#m85af101e79" x="70.935" y="48.973438" style="fill: #ff7f0e"/>
     </g>
    </g>
    <g id="text_27">
     <!-- DEDMNA -->
     <g transform="translate(88.935 52.473438) scale(0.1 -0.1)">
      <defs>
       <path id="DejaVuSans-4e" d="M 628 4666 
L 1478 4666 
L 3547 763 
L 3547 4666 
L 4159 4666 
L 4159 0 
L 3309 0 
L 1241 3903 
L 1241 0 
L 628 0 
L 628 4666 
z
" transform="scale(0.015625)"/>
      </defs>
      <use xlink:href="#DejaVuSans-44"/>
      <use xlink:href="#DejaVuSans-45" x="77.001953"/>
      <use xlink:href="#DejaVuSans-44" x="140.185547"/>
      <use xlink:href="#DejaVuSans-4d" x="217.1875"/>
      <use xlink:href="#DejaVuSans-4e" x="303.466797"/>
      <use xlink:href="#DejaVuSans-41" x="378.271484"/>
     </g>
    </g>
    <g id="patch_10">
     <path d="M 60.935 67.151563 
L 80.935 67.151563 
L 80.935 60.151563 
L 60.935 60.151563 
z
" style="fill: #96d096; fill-opacity: 0.3"/>
    </g>
    <g id="line2d_50">
     <path d="M 60.935 63.651563 
L 70.935 63.651563 
L 80.935 63.651563 
" style="fill: none; stroke-dasharray: 12.8,3.2,2,3.2; stroke-dashoffset: 0; stroke: #2ca02c; stroke-width: 2"/>
     <g>
      <use xlink:href="#m585f343917" x="70.935" y="63.651563" style="fill: #2ca02c; stroke: #2ca02c"/>
     </g>
    </g>
    <g id="text_28">
     <!-- j21 -->
     <g transform="translate(88.935 67.151563) scale(0.1 -0.1)">
      <defs>
       <path id="DejaVuSans-6a" d="M 603 3500 
L 1178 3500 
L 1178 -63 
Q 1178 -731 923 -1031 
Q 669 -1331 103 -1331 
L -116 -1331 
L -116 -844 
L 38 -844 
Q 366 -844 484 -692 
Q 603 -541 603 -63 
L 603 3500 
z
M 603 4863 
L 1178 4863 
L 1178 4134 
L 603 4134 
L 603 4863 
z
" transform="scale(0.015625)"/>
      </defs>
      <use xlink:href="#DejaVuSans-6a"/>
      <use xlink:href="#DejaVuSans-32" x="27.783203"/>
      <use xlink:href="#DejaVuSans-31" x="91.40625"/>
     </g>
    </g>
    <g id="patch_11">
     <path d="M 60.935 81.829688 
L 80.935 81.829688 
L 80.935 74.829688 
L 60.935 74.829688 
z
" style="fill: #eb9393; fill-opacity: 0.3"/>
    </g>
    <g id="line2d_51">
     <path d="M 60.935 78.329688 
L 70.935 78.329688 
L 80.935 78.329688 
" style="fill: none; stroke-dasharray: 2,3.3; stroke-dashoffset: 0; stroke: #d62728; stroke-width: 2"/>
     <g>
      <use xlink:href="#mcb99e2a2db" x="70.935" y="78.329688" style="fill: #d62728; stroke: #d62728; stroke-linejoin: miter"/>
     </g>
    </g>
    <g id="text_29">
     <!-- LSHADE -->
     <g transform="translate(88.935 81.829688) scale(0.1 -0.1)">
      <defs>
       <path id="DejaVuSans-4c" d="M 628 4666 
L 1259 4666 
L 1259 531 
L 3531 531 
L 3531 0 
L 628 0 
L 628 4666 
z
" transform="scale(0.015625)"/>
       <path id="DejaVuSans-48" d="M 628 4666 
L 1259 4666 
L 1259 2753 
L 3553 2753 
L 3553 4666 
L 4184 4666 
L 4184 0 
L 3553 0 
L 3553 2222 
L 1259 2222 
L 1259 0 
L 628 0 
L 628 4666 
z
" transform="scale(0.015625)"/>
      </defs>
      <use xlink:href="#DejaVuSans-4c"/>
      <use xlink:href="#DejaVuSans-53" x="55.712891"/>
      <use xlink:href="#DejaVuSans-48" x="119.189453"/>
      <use xlink:href="#DejaVuSans-41" x="194.384766"/>
      <use xlink:href="#DejaVuSans-44" x="262.792969"/>
      <use xlink:href="#DejaVuSans-45" x="339.794922"/>
     </g>
    </g>
    <g id="patch_12">
     <path d="M 60.935 96.507813 
L 80.935 96.507813 
L 80.935 89.507813 
L 60.935 89.507813 
z
" style="fill: #cab3de; fill-opacity: 0.3"/>
    </g>
    <g id="line2d_52">
     <path d="M 60.935 93.007813 
L 70.935 93.007813 
L 80.935 93.007813 
" style="fill: none; stroke: #9467bd; stroke-width: 2; stroke-linecap: square"/>
     <g>
      <use xlink:href="#m987b0d3d5a" x="70.935" y="93.007813" style="fill: #9467bd; stroke: #9467bd; stroke-linejoin: miter"/>
     </g>
    </g>
    <g id="text_30">
     <!-- MadDE -->
     <g transform="translate(88.935 96.507813) scale(0.1 -0.1)">
      <use xlink:href="#DejaVuSans-4d"/>
      <use xlink:href="#DejaVuSans-61" x="86.279297"/>
      <use xlink:href="#DejaVuSans-64" x="147.558594"/>
      <use xlink:href="#DejaVuSans-44" x="211.035156"/>
      <use xlink:href="#DejaVuSans-45" x="288.037109"/>
     </g>
    </g>
    <g id="patch_13">
     <path d="M 60.935 111.185938 
L 80.935 111.185938 
L 80.935 104.185938 
L 60.935 104.185938 
z
" style="fill: #c6aba5; fill-opacity: 0.3"/>
    </g>
    <g id="line2d_53">
     <path d="M 60.935 107.685938 
L 70.935 107.685938 
L 80.935 107.685938 
" style="fill: none; stroke-dasharray: 7.4,3.2; stroke-dashoffset: 0; stroke: #8c564b; stroke-width: 2"/>
     <g>
      <use xlink:href="#m1c429d9304" x="70.935" y="107.685938" style="fill: #8c564b; stroke: #8c564b; stroke-linejoin: miter"/>
     </g>
    </g>
    <g id="text_31">
     <!-- MLS-LSHADE -->
     <g transform="translate(88.935 111.185938) scale(0.1 -0.1)">
      <use xlink:href="#DejaVuSans-4d"/>
      <use xlink:href="#DejaVuSans-4c" x="86.279297"/>
      <use xlink:href="#DejaVuSans-53" x="141.992188"/>
      <use xlink:href="#DejaVuSans-2d" x="205.46875"/>
      <use xlink:href="#DejaVuSans-4c" x="241.552734"/>
      <use xlink:href="#DejaVuSans-53" x="297.265625"/>
      <use xlink:href="#DejaVuSans-48" x="360.742188"/>
      <use xlink:href="#DejaVuSans-41" x="435.9375"/>
      <use xlink:href="#DejaVuSans-44" x="504.345703"/>
      <use xlink:href="#DejaVuSans-45" x="581.347656"/>
     </g>
    </g>
    <g id="patch_14">
     <path d="M 60.935 125.864063 
L 80.935 125.864063 
L 80.935 118.864063 
L 60.935 118.864063 
z
" style="fill: #f1bbe0; fill-opacity: 0.3"/>
    </g>
    <g id="line2d_54">
     <path d="M 60.935 122.364063 
L 70.935 122.364063 
L 80.935 122.364063 
" style="fill: none; stroke-dasharray: 12.8,3.2,2,3.2; stroke-dashoffset: 0; stroke: #e377c2; stroke-width: 2"/>
     <g>
      <use xlink:href="#m407346382a" x="70.935" y="122.364063" style="fill: #e377c2; stroke: #e377c2; stroke-linejoin: miter"/>
     </g>
    </g>
    <g id="text_32">
     <!-- NL-SHADE-RSP -->
     <g transform="translate(88.935 125.864063) scale(0.1 -0.1)">
      <use xlink:href="#DejaVuSans-4e"/>
      <use xlink:href="#DejaVuSans-4c" x="74.804688"/>
      <use xlink:href="#DejaVuSans-2d" x="128.767578"/>
      <use xlink:href="#DejaVuSans-53" x="164.851562"/>
      <use xlink:href="#DejaVuSans-48" x="228.328125"/>
      <use xlink:href="#DejaVuSans-41" x="303.523438"/>
      <use xlink:href="#DejaVuSans-44" x="371.931641"/>
      <use xlink:href="#DejaVuSans-45" x="448.933594"/>
      <use xlink:href="#DejaVuSans-2d" x="512.117188"/>
      <use xlink:href="#DejaVuSans-52" x="548.201172"/>
      <use xlink:href="#DejaVuSans-53" x="617.683594"/>
      <use xlink:href="#DejaVuSans-50" x="681.160156"/>
     </g>
    </g>
    <g id="patch_15">
     <path d="M 60.935 140.542188 
L 80.935 140.542188 
L 80.935 133.542188 
L 60.935 133.542188 
z
" style="fill: #dede90; fill-opacity: 0.3"/>
    </g>
    <g id="line2d_55">
     <path d="M 60.935 137.042188 
L 70.935 137.042188 
L 80.935 137.042188 
" style="fill: none; stroke-dasharray: 2,3.3; stroke-dashoffset: 0; stroke: #bcbd22; stroke-width: 2"/>
     <g>
      <use xlink:href="#m9cec9edcb3" x="70.935" y="137.042188" style="fill: #bcbd22; stroke: #bcbd22; stroke-linejoin: miter"/>
     </g>
    </g>
    <g id="text_33">
     <!-- RB-IPOP-CMAES-PPMF -->
     <g transform="translate(88.935 140.542188) scale(0.1 -0.1)">
      <defs>
       <path id="DejaVuSans-42" d="M 1259 2228 
L 1259 519 
L 2272 519 
Q 2781 519 3026 730 
Q 3272 941 3272 1375 
Q 3272 1813 3026 2020 
Q 2781 2228 2272 2228 
L 1259 2228 
z
M 1259 4147 
L 1259 2741 
L 2194 2741 
Q 2656 2741 2882 2914 
Q 3109 3088 3109 3444 
Q 3109 3797 2882 3972 
Q 2656 4147 2194 4147 
L 1259 4147 
z
M 628 4666 
L 2241 4666 
Q 2963 4666 3353 4366 
Q 3744 4066 3744 3513 
Q 3744 3084 3544 2831 
Q 3344 2578 2956 2516 
Q 3422 2416 3680 2098 
Q 3938 1781 3938 1306 
Q 3938 681 3513 340 
Q 3088 0 2303 0 
L 628 0 
L 628 4666 
z
" transform="scale(0.015625)"/>
       <path id="DejaVuSans-46" d="M 628 4666 
L 3309 4666 
L 3309 4134 
L 1259 4134 
L 1259 2759 
L 3109 2759 
L 3109 2228 
L 1259 2228 
L 1259 0 
L 628 0 
L 628 4666 
z
" transform="scale(0.015625)"/>
      </defs>
      <use xlink:href="#DejaVuSans-52"/>
      <use xlink:href="#DejaVuSans-42" x="69.482422"/>
      <use xlink:href="#DejaVuSans-2d" x="138.085938"/>
      <use xlink:href="#DejaVuSans-49" x="174.169922"/>
      <use xlink:href="#DejaVuSans-50" x="203.662109"/>
      <use xlink:href="#DejaVuSans-4f" x="263.964844"/>
      <use xlink:href="#DejaVuSans-50" x="342.675781"/>
      <use xlink:href="#DejaVuSans-2d" x="400.728516"/>
      <use xlink:href="#DejaVuSans-43" x="436.8125"/>
      <use xlink:href="#DejaVuSans-4d" x="506.636719"/>
      <use xlink:href="#DejaVuSans-41" x="592.916016"/>
      <use xlink:href="#DejaVuSans-45" x="661.324219"/>
      <use xlink:href="#DejaVuSans-53" x="724.507812"/>
      <use xlink:href="#DejaVuSans-2d" x="787.984375"/>
      <use xlink:href="#DejaVuSans-50" x="824.068359"/>
      <use xlink:href="#DejaVuSans-50" x="884.371094"/>
      <use xlink:href="#DejaVuSans-4d" x="944.673828"/>
      <use xlink:href="#DejaVuSans-46" x="1030.953125"/>
     </g>
    </g>
    <g id="patch_16">
     <path d="M 60.935 155.220313 
L 80.935 155.220313 
L 80.935 148.220313 
L 60.935 148.220313 
z
" style="fill: #8bdee7; fill-opacity: 0.3"/>
    </g>
    <g id="line2d_56">
     <path d="M 60.935 151.720313 
L 70.935 151.720313 
L 80.935 151.720313 
" style="fill: none; stroke: #17becf; stroke-width: 2; stroke-linecap: square"/>
     <g>
      <use xlink:href="#m22599d4b6c" x="70.935" y="151.720313" style="fill: #17becf; stroke: #17becf; stroke-linejoin: miter"/>
     </g>
    </g>
    <g id="text_34">
     <!-- SOMA-CLP -->
     <g transform="translate(88.935 155.220313) scale(0.1 -0.1)">
      <use xlink:href="#DejaVuSans-53"/>
      <use xlink:href="#DejaVuSans-4f" x="63.476562"/>
      <use xlink:href="#DejaVuSans-4d" x="142.1875"/>
      <use xlink:href="#DejaVuSans-41" x="228.466797"/>
      <use xlink:href="#DejaVuSans-2d" x="294.625"/>
      <use xlink:href="#DejaVuSans-43" x="330.708984"/>
      <use xlink:href="#DejaVuSans-4c" x="400.533203"/>
      <use xlink:href="#DejaVuSans-50" x="456.246094"/>
     </g>
    </g>
   </g>
  </g>
 </g>
 <defs>
  <clipPath id="p98c9f8f66b">
   <rect x="51.935" y="21.196875" width="837" height="554.4"/>
  </clipPath>
 </defs>
</svg>
