<?xml version="1.0" encoding="utf-8" standalone="no"?>
<!DOCTYPE svg PUBLIC "-//W3C//DTD SVG 1.1//EN"
  "http://www.w3.org/Graphics/SVG/1.1/DTD/svg11.dtd">
<svg xmlns:xlink="http://www.w3.org/1999/xlink" width="895.2975pt" height="611.76pt" viewBox="0 0 895.2975 611.76" xmlns="http://www.w3.org/2000/svg" version="1.1">
 <metadata>
  <rdf:RDF xmlns:dc="http://purl.org/dc/elements/1.1/" xmlns:cc="http://creativecommons.org/ns#" xmlns:rdf="http://www.w3.org/1999/02/22-rdf-syntax-ns#">
   <cc:Work>
    <dc:type rdf:resource="http://purl.org/dc/dcmitype/StillImage"/>
    <dc:date>2023-11-21T09:32:16.965830</dc:date>
    <dc:format>image/svg+xml</dc:format>
    <dc:creator>
     <cc:Agent>
      <dc:title>Matplotlib v3.8.1, https://matplotlib.org/</dc:title>
     </cc:Agent>
    </dc:creator>
   </cc:Work>
  </rdf:RDF>
 </metadata>
 <defs>
  <style type="text/css">*{stroke-linejoin: round; stroke-linecap: butt}</style>
 </defs>
 <g id="figure_1">
  <g id="patch_1">
   <path d="M -0 611.76 
L 895.2975 611.76 
L 895.2975 0 
L -0 0 
z
" style="fill: #ffffff"/>
  </g>
  <g id="axes_1">
   <g id="patch_2">
    <path d="M 51.935 575.596875 
L 888.935 575.596875 
L 888.935 21.196875 
L 51.935 21.196875 
z
" style="fill: #ffffff"/>
   </g>
   <g id="PolyCollection_1">
    <defs>
     <path id="m6e456d770d" d="M 51.935 -354.166323 
L 51.935 -442.41919 
L 107.735 -415.167255 
L 163.535 -365.817865 
L 219.335 -353.456654 
L 275.135 -351.452133 
L 330.935 -352.693027 
L 386.735 -352.6453 
L 442.535 -348.874892 
L 498.335 -346.249925 
L 554.135 -346.297652 
L 609.935 -361.236103 
L 665.735 -368.681466 
L 721.535 -351.452133 
L 777.335 -337.706849 
L 833.135 -341.190897 
L 888.935 -389.060759 
L 888.935 -300.807892 
L 888.935 -300.807892 
L 833.135 -252.938029 
L 777.335 -249.453981 
L 721.535 -263.199266 
L 665.735 -280.428598 
L 609.935 -272.983236 
L 554.135 -258.044784 
L 498.335 -257.997058 
L 442.535 -260.622025 
L 386.735 -264.392433 
L 330.935 -264.44016 
L 275.135 -263.199266 
L 219.335 -265.203787 
L 163.535 -277.564997 
L 107.735 -326.914387 
L 51.935 -354.166323 
z
"/>
    </defs>
    <g clip-path="url(#p2014c92e21)">
     <use xlink:href="#m6e456d770d" x="0" y="611.76" style="fill: #8fbbda; fill-opacity: 0.3"/>
    </g>
   </g>
   <g id="PolyCollection_2">
    <defs>
     <path id="m72239c8390" d="M 51.935 -297.705658 
L 51.935 -385.958525 
L 107.735 -333.363721 
L 163.535 -291.602873 
L 219.335 -255.044234 
L 275.135 -224.069617 
L 330.935 -192.66546 
L 386.735 -167.513498 
L 442.535 -154.340934 
L 498.335 -149.615992 
L 554.135 -157.252262 
L 609.935 -171.37936 
L 665.735 -204.549404 
L 721.535 -246.071618 
L 777.335 -292.00855 
L 833.135 -329.712629 
L 888.935 -373.477997 
L 888.935 -285.22513 
L 888.935 -285.22513 
L 833.135 -241.459762 
L 777.335 -203.755683 
L 721.535 -157.818751 
L 665.735 -116.296537 
L 609.935 -83.126492 
L 554.135 -68.999394 
L 498.335 -61.363125 
L 442.535 -66.088067 
L 386.735 -79.260631 
L 330.935 -104.412593 
L 275.135 -135.81675 
L 219.335 -166.791367 
L 163.535 -203.350006 
L 107.735 -245.110853 
L 51.935 -297.705658 
z
"/>
    </defs>
    <g clip-path="url(#p2014c92e21)">
     <use xlink:href="#m72239c8390" x="0" y="611.76" style="fill: #ffbf86; fill-opacity: 0.3"/>
    </g>
   </g>
   <g id="PolyCollection_3">
    <defs>
     <path id="m1c75e4788b" d="M 51.935 -271.265075 
L 51.935 -359.517943 
L 107.735 -450.91454 
L 163.535 -505.895678 
L 219.335 -553.431454 
L 275.135 -565.363125 
L 330.935 -564.933585 
L 386.735 -565.172218 
L 442.535 -561.926804 
L 498.335 -552.333741 
L 554.135 -538.779363 
L 609.935 -526.036338 
L 665.735 -520.285273 
L 721.535 -512.195601 
L 777.335 -513.889898 
L 833.135 -490.40837 
L 888.935 -407.101445 
L 888.935 -318.848578 
L 888.935 -318.848578 
L 833.135 -402.155503 
L 777.335 -425.63703 
L 721.535 -423.942733 
L 665.735 -432.032406 
L 609.935 -437.783471 
L 554.135 -450.526495 
L 498.335 -464.080873 
L 442.535 -473.673937 
L 386.735 -476.919351 
L 330.935 -476.680718 
L 275.135 -477.110258 
L 219.335 -465.178587 
L 163.535 -417.642811 
L 107.735 -362.661673 
L 51.935 -271.265075 
z
"/>
    </defs>
    <g clip-path="url(#p2014c92e21)">
     <use xlink:href="#m1c75e4788b" x="0" y="611.76" style="fill: #96d096; fill-opacity: 0.3"/>
    </g>
   </g>
   <g id="PolyCollection_4">
    <defs>
     <path id="m673105ad70" d="M 51.935 -248.022181 
L 51.935 -336.275048 
L 107.735 -359.517943 
L 163.535 -389.394846 
L 219.335 -379.085883 
L 275.135 -367.631479 
L 330.935 -356.415708 
L 386.735 -341.620437 
L 442.535 -328.066059 
L 498.335 -319.570709 
L 554.135 -310.884453 
L 609.935 -307.161772 
L 665.735 -295.826685 
L 721.535 -296.924398 
L 777.335 -288.476776 
L 833.135 -342.455654 
L 888.935 -318.616176 
L 888.935 -230.363308 
L 888.935 -230.363308 
L 833.135 -254.202786 
L 777.335 -200.223908 
L 721.535 -208.671531 
L 665.735 -207.573817 
L 609.935 -218.908904 
L 554.135 -222.631586 
L 498.335 -231.317842 
L 442.535 -239.813191 
L 386.735 -253.367569 
L 330.935 -268.162841 
L 275.135 -279.378611 
L 219.335 -290.833015 
L 163.535 -301.141979 
L 107.735 -271.265075 
L 51.935 -248.022181 
z
"/>
    </defs>
    <g clip-path="url(#p2014c92e21)">
     <use xlink:href="#m673105ad70" x="0" y="611.76" style="fill: #eb9393; fill-opacity: 0.3"/>
    </g>
   </g>
   <g id="PolyCollection_5">
    <defs>
     <path id="m6f626eff44" d="M 51.935 -344.00054 
L 51.935 -432.253407 
L 107.735 -445.235065 
L 163.535 -444.900978 
L 219.335 -429.532986 
L 275.135 -425.046678 
L 330.935 -417.696769 
L 386.735 -395.265228 
L 442.535 -379.658603 
L 498.335 -368.442832 
L 554.135 -365.245145 
L 609.935 -357.083882 
L 665.735 -333.172814 
L 721.535 -311.64808 
L 777.335 -309.452653 
L 833.135 -319.403666 
L 888.935 -384.383544 
L 888.935 -296.130677 
L 888.935 -296.130677 
L 833.135 -231.150799 
L 777.335 -221.199785 
L 721.535 -223.395213 
L 665.735 -244.919947 
L 609.935 -268.831015 
L 554.135 -276.992277 
L 498.335 -280.189965 
L 442.535 -291.405735 
L 386.735 -307.012361 
L 330.935 -329.443902 
L 275.135 -336.793811 
L 219.335 -341.280119 
L 163.535 -356.648111 
L 107.735 -356.982197 
L 51.935 -344.00054 
z
"/>
    </defs>
    <g clip-path="url(#p2014c92e21)">
     <use xlink:href="#m6f626eff44" x="0" y="611.76" style="fill: #cab3de; fill-opacity: 0.3"/>
    </g>
   </g>
   <g id="PolyCollection_6">
    <defs>
     <path id="m1d943669a3" d="M 51.935 -335.266557 
L 51.935 -423.519424 
L 107.735 -399.608356 
L 163.535 -402.328777 
L 219.335 -429.723893 
L 275.135 -459.075803 
L 330.935 -473.680168 
L 386.735 -476.161955 
L 442.535 -464.087104 
L 498.335 -459.314436 
L 554.135 -462.893937 
L 609.935 -461.748497 
L 665.735 -473.536988 
L 721.535 -480.672127 
L 777.335 -474.515385 
L 833.135 -456.331518 
L 888.935 -370.542806 
L 888.935 -282.289939 
L 888.935 -282.289939 
L 833.135 -368.078651 
L 777.335 -386.262517 
L 721.535 -392.419259 
L 665.735 -385.28412 
L 609.935 -373.49563 
L 554.135 -374.64107 
L 498.335 -371.061569 
L 442.535 -375.834237 
L 386.735 -387.909088 
L 330.935 -385.4273 
L 275.135 -370.822935 
L 219.335 -341.471026 
L 163.535 -314.07591 
L 107.735 -311.355489 
L 51.935 -335.266557 
z
"/>
    </defs>
    <g clip-path="url(#p2014c92e21)">
     <use xlink:href="#m1d943669a3" x="0" y="611.76" style="fill: #c6aba5; fill-opacity: 0.3"/>
    </g>
   </g>
   <g id="PolyCollection_7">
    <defs>
     <path id="m8bd887aaac" d="M 51.935 -255.51527 
L 51.935 -343.768137 
L 107.735 -341.14317 
L 163.535 -338.947742 
L 219.335 -325.441091 
L 275.135 -307.257225 
L 330.935 -295.659641 
L 386.735 -286.925658 
L 442.535 -275.948521 
L 498.335 -275.614435 
L 554.135 -274.946261 
L 609.935 -279.575749 
L 665.735 -308.116305 
L 721.535 -324.772918 
L 777.335 -342.86133 
L 833.135 -350.593053 
L 888.935 -427.361422 
L 888.935 -339.108555 
L 888.935 -339.108555 
L 833.135 -262.340186 
L 777.335 -254.608463 
L 721.535 -236.52005 
L 665.735 -219.863438 
L 609.935 -191.322882 
L 554.135 -186.693394 
L 498.335 -187.361567 
L 442.535 -187.695654 
L 386.735 -198.672791 
L 330.935 -207.406774 
L 275.135 -219.004358 
L 219.335 -237.188224 
L 163.535 -250.694875 
L 107.735 -252.890303 
L 51.935 -255.51527 
z
"/>
    </defs>
    <g clip-path="url(#p2014c92e21)">
     <use xlink:href="#m8bd887aaac" x="0" y="611.76" style="fill: #f1bbe0; fill-opacity: 0.3"/>
    </g>
   </g>
   <g id="PolyCollection_8">
    <defs>
     <path id="m41a149eb1b" d="M 51.935 -65.563073 
L 51.935 -153.81594 
L 107.735 -160.593129 
L 163.535 -174.815681 
L 219.335 -194.383621 
L 275.135 -213.426567 
L 330.935 -247.694325 
L 386.735 -292.700587 
L 442.535 -344.245404 
L 498.335 -379.467696 
L 554.135 -385.672165 
L 609.935 -378.704069 
L 665.735 -365.101965 
L 721.535 -351.64304 
L 777.335 -327.493339 
L 833.135 -264.327074 
L 888.935 -245.284128 
L 888.935 -157.03126 
L 888.935 -157.03126 
L 833.135 -176.074207 
L 777.335 -239.240471 
L 721.535 -263.390173 
L 665.735 -276.849097 
L 609.935 -290.451202 
L 554.135 -297.419297 
L 498.335 -291.214829 
L 442.535 -255.992537 
L 386.735 -204.44772 
L 330.935 -159.441458 
L 275.135 -125.1737 
L 219.335 -106.130753 
L 163.535 -86.562813 
L 107.735 -72.340262 
L 51.935 -65.563073 
z
"/>
    </defs>
    <g clip-path="url(#p2014c92e21)">
     <use xlink:href="#m41a149eb1b" x="0" y="611.76" style="fill: #dede90; fill-opacity: 0.3"/>
    </g>
   </g>
   <g id="PolyCollection_9">
    <defs>
     <path id="m44881fcd18" d="M 51.935 -233.799629 
L 51.935 -322.052497 
L 107.735 -294.036934 
L 163.535 -285.875671 
L 219.335 -279.480296 
L 275.135 -286.257485 
L 330.935 -298.141429 
L 386.735 -321.57523 
L 442.535 -342.43179 
L 498.335 -348.970346 
L 554.135 -357.608875 
L 609.935 -356.654342 
L 665.735 -330.309213 
L 721.535 -324.200198 
L 777.335 -313.175334 
L 833.135 -305.157251 
L 888.935 -283.751834 
L 888.935 -195.498967 
L 888.935 -195.498967 
L 833.135 -216.904384 
L 777.335 -224.922466 
L 721.535 -235.94733 
L 665.735 -242.056346 
L 609.935 -268.401474 
L 554.135 -269.356008 
L 498.335 -260.717478 
L 442.535 -254.178923 
L 386.735 -233.322363 
L 330.935 -209.888561 
L 275.135 -198.004617 
L 219.335 -191.227429 
L 163.535 -197.622804 
L 107.735 -205.784067 
L 51.935 -233.799629 
z
"/>
    </defs>
    <g clip-path="url(#p2014c92e21)">
     <use xlink:href="#m44881fcd18" x="0" y="611.76" style="fill: #8bdee7; fill-opacity: 0.3"/>
    </g>
   </g>
   <g id="matplotlib.axis_1">
    <g id="xtick_1">
     <g id="line2d_1">
      <defs>
       <path id="me832cbd2c9" d="M 0 0 
L 0 3.5 
" style="stroke: #000000; stroke-width: 0.8"/>
      </defs>
      <g>
       <use xlink:href="#me832cbd2c9" x="51.935" y="575.596875" style="stroke: #000000; stroke-width: 0.8"/>
      </g>
     </g>
     <g id="text_1">
      <!-- 0 -->
      <g transform="translate(48.75375 590.195313) scale(0.1 -0.1)">
       <defs>
        <path id="DejaVuSans-30" d="M 2034 4250 
Q 1547 4250 1301 3770 
Q 1056 3291 1056 2328 
Q 1056 1369 1301 889 
Q 1547 409 2034 409 
Q 2525 409 2770 889 
Q 3016 1369 3016 2328 
Q 3016 3291 2770 3770 
Q 2525 4250 2034 4250 
z
M 2034 4750 
Q 2819 4750 3233 4129 
Q 3647 3509 3647 2328 
Q 3647 1150 3233 529 
Q 2819 -91 2034 -91 
Q 1250 -91 836 529 
Q 422 1150 422 2328 
Q 422 3509 836 4129 
Q 1250 4750 2034 4750 
z
" transform="scale(0.015625)"/>
       </defs>
       <use xlink:href="#DejaVuSans-30"/>
      </g>
     </g>
    </g>
    <g id="xtick_2">
     <g id="line2d_2">
      <g>
       <use xlink:href="#me832cbd2c9" x="107.735" y="575.596875" style="stroke: #000000; stroke-width: 0.8"/>
      </g>
     </g>
     <g id="text_2">
      <!-- 1 -->
      <g transform="translate(104.55375 590.195313) scale(0.1 -0.1)">
       <defs>
        <path id="DejaVuSans-31" d="M 794 531 
L 1825 531 
L 1825 4091 
L 703 3866 
L 703 4441 
L 1819 4666 
L 2450 4666 
L 2450 531 
L 3481 531 
L 3481 0 
L 794 0 
L 794 531 
z
" transform="scale(0.015625)"/>
       </defs>
       <use xlink:href="#DejaVuSans-31"/>
      </g>
     </g>
    </g>
    <g id="xtick_3">
     <g id="line2d_3">
      <g>
       <use xlink:href="#me832cbd2c9" x="163.535" y="575.596875" style="stroke: #000000; stroke-width: 0.8"/>
      </g>
     </g>
     <g id="text_3">
      <!-- 2 -->
      <g transform="translate(160.35375 590.195313) scale(0.1 -0.1)">
       <defs>
        <path id="DejaVuSans-32" d="M 1228 531 
L 3431 531 
L 3431 0 
L 469 0 
L 469 531 
Q 828 903 1448 1529 
Q 2069 2156 2228 2338 
Q 2531 2678 2651 2914 
Q 2772 3150 2772 3378 
Q 2772 3750 2511 3984 
Q 2250 4219 1831 4219 
Q 1534 4219 1204 4116 
Q 875 4013 500 3803 
L 500 4441 
Q 881 4594 1212 4672 
Q 1544 4750 1819 4750 
Q 2544 4750 2975 4387 
Q 3406 4025 3406 3419 
Q 3406 3131 3298 2873 
Q 3191 2616 2906 2266 
Q 2828 2175 2409 1742 
Q 1991 1309 1228 531 
z
" transform="scale(0.015625)"/>
       </defs>
       <use xlink:href="#DejaVuSans-32"/>
      </g>
     </g>
    </g>
    <g id="xtick_4">
     <g id="line2d_4">
      <g>
       <use xlink:href="#me832cbd2c9" x="219.335" y="575.596875" style="stroke: #000000; stroke-width: 0.8"/>
      </g>
     </g>
     <g id="text_4">
      <!-- 3 -->
      <g transform="translate(216.15375 590.195313) scale(0.1 -0.1)">
       <defs>
        <path id="DejaVuSans-33" d="M 2597 2516 
Q 3050 2419 3304 2112 
Q 3559 1806 3559 1356 
Q 3559 666 3084 287 
Q 2609 -91 1734 -91 
Q 1441 -91 1130 -33 
Q 819 25 488 141 
L 488 750 
Q 750 597 1062 519 
Q 1375 441 1716 441 
Q 2309 441 2620 675 
Q 2931 909 2931 1356 
Q 2931 1769 2642 2001 
Q 2353 2234 1838 2234 
L 1294 2234 
L 1294 2753 
L 1863 2753 
Q 2328 2753 2575 2939 
Q 2822 3125 2822 3475 
Q 2822 3834 2567 4026 
Q 2313 4219 1838 4219 
Q 1578 4219 1281 4162 
Q 984 4106 628 3988 
L 628 4550 
Q 988 4650 1302 4700 
Q 1616 4750 1894 4750 
Q 2613 4750 3031 4423 
Q 3450 4097 3450 3541 
Q 3450 3153 3228 2886 
Q 3006 2619 2597 2516 
z
" transform="scale(0.015625)"/>
       </defs>
       <use xlink:href="#DejaVuSans-33"/>
      </g>
     </g>
    </g>
    <g id="xtick_5">
     <g id="line2d_5">
      <g>
       <use xlink:href="#me832cbd2c9" x="275.135" y="575.596875" style="stroke: #000000; stroke-width: 0.8"/>
      </g>
     </g>
     <g id="text_5">
      <!-- 4 -->
      <g transform="translate(271.95375 590.195313) scale(0.1 -0.1)">
       <defs>
        <path id="DejaVuSans-34" d="M 2419 4116 
L 825 1625 
L 2419 1625 
L 2419 4116 
z
M 2253 4666 
L 3047 4666 
L 3047 1625 
L 3713 1625 
L 3713 1100 
L 3047 1100 
L 3047 0 
L 2419 0 
L 2419 1100 
L 313 1100 
L 313 1709 
L 2253 4666 
z
" transform="scale(0.015625)"/>
       </defs>
       <use xlink:href="#DejaVuSans-34"/>
      </g>
     </g>
    </g>
    <g id="xtick_6">
     <g id="line2d_6">
      <g>
       <use xlink:href="#me832cbd2c9" x="330.935" y="575.596875" style="stroke: #000000; stroke-width: 0.8"/>
      </g>
     </g>
     <g id="text_6">
      <!-- 5 -->
      <g transform="translate(327.75375 590.195313) scale(0.1 -0.1)">
       <defs>
        <path id="DejaVuSans-35" d="M 691 4666 
L 3169 4666 
L 3169 4134 
L 1269 4134 
L 1269 2991 
Q 1406 3038 1543 3061 
Q 1681 3084 1819 3084 
Q 2600 3084 3056 2656 
Q 3513 2228 3513 1497 
Q 3513 744 3044 326 
Q 2575 -91 1722 -91 
Q 1428 -91 1123 -41 
Q 819 9 494 109 
L 494 744 
Q 775 591 1075 516 
Q 1375 441 1709 441 
Q 2250 441 2565 725 
Q 2881 1009 2881 1497 
Q 2881 1984 2565 2268 
Q 2250 2553 1709 2553 
Q 1456 2553 1204 2497 
Q 953 2441 691 2322 
L 691 4666 
z
" transform="scale(0.015625)"/>
       </defs>
       <use xlink:href="#DejaVuSans-35"/>
      </g>
     </g>
    </g>
    <g id="xtick_7">
     <g id="line2d_7">
      <g>
       <use xlink:href="#me832cbd2c9" x="386.735" y="575.596875" style="stroke: #000000; stroke-width: 0.8"/>
      </g>
     </g>
     <g id="text_7">
      <!-- 6 -->
      <g transform="translate(383.55375 590.195313) scale(0.1 -0.1)">
       <defs>
        <path id="DejaVuSans-36" d="M 2113 2584 
Q 1688 2584 1439 2293 
Q 1191 2003 1191 1497 
Q 1191 994 1439 701 
Q 1688 409 2113 409 
Q 2538 409 2786 701 
Q 3034 994 3034 1497 
Q 3034 2003 2786 2293 
Q 2538 2584 2113 2584 
z
M 3366 4563 
L 3366 3988 
Q 3128 4100 2886 4159 
Q 2644 4219 2406 4219 
Q 1781 4219 1451 3797 
Q 1122 3375 1075 2522 
Q 1259 2794 1537 2939 
Q 1816 3084 2150 3084 
Q 2853 3084 3261 2657 
Q 3669 2231 3669 1497 
Q 3669 778 3244 343 
Q 2819 -91 2113 -91 
Q 1303 -91 875 529 
Q 447 1150 447 2328 
Q 447 3434 972 4092 
Q 1497 4750 2381 4750 
Q 2619 4750 2861 4703 
Q 3103 4656 3366 4563 
z
" transform="scale(0.015625)"/>
       </defs>
       <use xlink:href="#DejaVuSans-36"/>
      </g>
     </g>
    </g>
    <g id="xtick_8">
     <g id="line2d_8">
      <g>
       <use xlink:href="#me832cbd2c9" x="442.535" y="575.596875" style="stroke: #000000; stroke-width: 0.8"/>
      </g>
     </g>
     <g id="text_8">
      <!-- 7 -->
      <g transform="translate(439.35375 590.195313) scale(0.1 -0.1)">
       <defs>
        <path id="DejaVuSans-37" d="M 525 4666 
L 3525 4666 
L 3525 4397 
L 1831 0 
L 1172 0 
L 2766 4134 
L 525 4134 
L 525 4666 
z
" transform="scale(0.015625)"/>
       </defs>
       <use xlink:href="#DejaVuSans-37"/>
      </g>
     </g>
    </g>
    <g id="xtick_9">
     <g id="line2d_9">
      <g>
       <use xlink:href="#me832cbd2c9" x="498.335" y="575.596875" style="stroke: #000000; stroke-width: 0.8"/>
      </g>
     </g>
     <g id="text_9">
      <!-- 8 -->
      <g transform="translate(495.15375 590.195313) scale(0.1 -0.1)">
       <defs>
        <path id="DejaVuSans-38" d="M 2034 2216 
Q 1584 2216 1326 1975 
Q 1069 1734 1069 1313 
Q 1069 891 1326 650 
Q 1584 409 2034 409 
Q 2484 409 2743 651 
Q 3003 894 3003 1313 
Q 3003 1734 2745 1975 
Q 2488 2216 2034 2216 
z
M 1403 2484 
Q 997 2584 770 2862 
Q 544 3141 544 3541 
Q 544 4100 942 4425 
Q 1341 4750 2034 4750 
Q 2731 4750 3128 4425 
Q 3525 4100 3525 3541 
Q 3525 3141 3298 2862 
Q 3072 2584 2669 2484 
Q 3125 2378 3379 2068 
Q 3634 1759 3634 1313 
Q 3634 634 3220 271 
Q 2806 -91 2034 -91 
Q 1263 -91 848 271 
Q 434 634 434 1313 
Q 434 1759 690 2068 
Q 947 2378 1403 2484 
z
M 1172 3481 
Q 1172 3119 1398 2916 
Q 1625 2713 2034 2713 
Q 2441 2713 2670 2916 
Q 2900 3119 2900 3481 
Q 2900 3844 2670 4047 
Q 2441 4250 2034 4250 
Q 1625 4250 1398 4047 
Q 1172 3844 1172 3481 
z
" transform="scale(0.015625)"/>
       </defs>
       <use xlink:href="#DejaVuSans-38"/>
      </g>
     </g>
    </g>
    <g id="xtick_10">
     <g id="line2d_10">
      <g>
       <use xlink:href="#me832cbd2c9" x="554.135" y="575.596875" style="stroke: #000000; stroke-width: 0.8"/>
      </g>
     </g>
     <g id="text_10">
      <!-- 9 -->
      <g transform="translate(550.95375 590.195313) scale(0.1 -0.1)">
       <defs>
        <path id="DejaVuSans-39" d="M 703 97 
L 703 672 
Q 941 559 1184 500 
Q 1428 441 1663 441 
Q 2288 441 2617 861 
Q 2947 1281 2994 2138 
Q 2813 1869 2534 1725 
Q 2256 1581 1919 1581 
Q 1219 1581 811 2004 
Q 403 2428 403 3163 
Q 403 3881 828 4315 
Q 1253 4750 1959 4750 
Q 2769 4750 3195 4129 
Q 3622 3509 3622 2328 
Q 3622 1225 3098 567 
Q 2575 -91 1691 -91 
Q 1453 -91 1209 -44 
Q 966 3 703 97 
z
M 1959 2075 
Q 2384 2075 2632 2365 
Q 2881 2656 2881 3163 
Q 2881 3666 2632 3958 
Q 2384 4250 1959 4250 
Q 1534 4250 1286 3958 
Q 1038 3666 1038 3163 
Q 1038 2656 1286 2365 
Q 1534 2075 1959 2075 
z
" transform="scale(0.015625)"/>
       </defs>
       <use xlink:href="#DejaVuSans-39"/>
      </g>
     </g>
    </g>
    <g id="xtick_11">
     <g id="line2d_11">
      <g>
       <use xlink:href="#me832cbd2c9" x="609.935" y="575.596875" style="stroke: #000000; stroke-width: 0.8"/>
      </g>
     </g>
     <g id="text_11">
      <!-- 10 -->
      <g transform="translate(603.5725 590.195313) scale(0.1 -0.1)">
       <use xlink:href="#DejaVuSans-31"/>
       <use xlink:href="#DejaVuSans-30" x="63.623047"/>
      </g>
     </g>
    </g>
    <g id="xtick_12">
     <g id="line2d_12">
      <g>
       <use xlink:href="#me832cbd2c9" x="665.735" y="575.596875" style="stroke: #000000; stroke-width: 0.8"/>
      </g>
     </g>
     <g id="text_12">
      <!-- 11 -->
      <g transform="translate(659.3725 590.195313) scale(0.1 -0.1)">
       <use xlink:href="#DejaVuSans-31"/>
       <use xlink:href="#DejaVuSans-31" x="63.623047"/>
      </g>
     </g>
    </g>
    <g id="xtick_13">
     <g id="line2d_13">
      <g>
       <use xlink:href="#me832cbd2c9" x="721.535" y="575.596875" style="stroke: #000000; stroke-width: 0.8"/>
      </g>
     </g>
     <g id="text_13">
      <!-- 12 -->
      <g transform="translate(715.1725 590.195313) scale(0.1 -0.1)">
       <use xlink:href="#DejaVuSans-31"/>
       <use xlink:href="#DejaVuSans-32" x="63.623047"/>
      </g>
     </g>
    </g>
    <g id="xtick_14">
     <g id="line2d_14">
      <g>
       <use xlink:href="#me832cbd2c9" x="777.335" y="575.596875" style="stroke: #000000; stroke-width: 0.8"/>
      </g>
     </g>
     <g id="text_14">
      <!-- 13 -->
      <g transform="translate(770.9725 590.195313) scale(0.1 -0.1)">
       <use xlink:href="#DejaVuSans-31"/>
       <use xlink:href="#DejaVuSans-33" x="63.623047"/>
      </g>
     </g>
    </g>
    <g id="xtick_15">
     <g id="line2d_15">
      <g>
       <use xlink:href="#me832cbd2c9" x="833.135" y="575.596875" style="stroke: #000000; stroke-width: 0.8"/>
      </g>
     </g>
     <g id="text_15">
      <!-- 14 -->
      <g transform="translate(826.7725 590.195313) scale(0.1 -0.1)">
       <use xlink:href="#DejaVuSans-31"/>
       <use xlink:href="#DejaVuSans-34" x="63.623047"/>
      </g>
     </g>
    </g>
    <g id="xtick_16">
     <g id="line2d_16">
      <g>
       <use xlink:href="#me832cbd2c9" x="888.935" y="575.596875" style="stroke: #000000; stroke-width: 0.8"/>
      </g>
     </g>
     <g id="text_16">
      <!-- 15 -->
      <g transform="translate(882.5725 590.195313) scale(0.1 -0.1)">
       <use xlink:href="#DejaVuSans-31"/>
       <use xlink:href="#DejaVuSans-35" x="63.623047"/>
      </g>
     </g>
    </g>
    <g id="text_17">
     <!-- k -->
     <g transform="translate(465.8025 608.4325) scale(0.16 -0.16)">
      <defs>
       <path id="DejaVuSans-6b" d="M 581 4863 
L 1159 4863 
L 1159 1991 
L 2875 3500 
L 3609 3500 
L 1753 1863 
L 3688 0 
L 2938 0 
L 1159 1709 
L 1159 0 
L 581 0 
L 581 4863 
z
" transform="scale(0.015625)"/>
      </defs>
      <use xlink:href="#DejaVuSans-6b"/>
     </g>
    </g>
   </g>
   <g id="matplotlib.axis_2">
    <g id="ytick_1">
     <g id="line2d_17">
      <defs>
       <path id="m620622ee95" d="M 0 0 
L -3.5 0 
" style="stroke: #000000; stroke-width: 0.8"/>
      </defs>
      <g>
       <use xlink:href="#m620622ee95" x="51.935" y="521.009701" style="stroke: #000000; stroke-width: 0.8"/>
      </g>
     </g>
     <g id="text_18">
      <!-- 1000 -->
      <g transform="translate(19.485 524.808919) scale(0.1 -0.1)">
       <use xlink:href="#DejaVuSans-31"/>
       <use xlink:href="#DejaVuSans-30" x="63.623047"/>
       <use xlink:href="#DejaVuSans-30" x="127.246094"/>
       <use xlink:href="#DejaVuSans-30" x="190.869141"/>
      </g>
     </g>
    </g>
    <g id="ytick_2">
     <g id="line2d_18">
      <g>
       <use xlink:href="#m620622ee95" x="51.935" y="432.756833" style="stroke: #000000; stroke-width: 0.8"/>
      </g>
     </g>
     <g id="text_19">
      <!-- 1200 -->
      <g transform="translate(19.485 436.556052) scale(0.1 -0.1)">
       <use xlink:href="#DejaVuSans-31"/>
       <use xlink:href="#DejaVuSans-32" x="63.623047"/>
       <use xlink:href="#DejaVuSans-30" x="127.246094"/>
       <use xlink:href="#DejaVuSans-30" x="190.869141"/>
      </g>
     </g>
    </g>
    <g id="ytick_3">
     <g id="line2d_19">
      <g>
       <use xlink:href="#m620622ee95" x="51.935" y="344.503966" style="stroke: #000000; stroke-width: 0.8"/>
      </g>
     </g>
     <g id="text_20">
      <!-- 1400 -->
      <g transform="translate(19.485 348.303185) scale(0.1 -0.1)">
       <use xlink:href="#DejaVuSans-31"/>
       <use xlink:href="#DejaVuSans-34" x="63.623047"/>
       <use xlink:href="#DejaVuSans-30" x="127.246094"/>
       <use xlink:href="#DejaVuSans-30" x="190.869141"/>
      </g>
     </g>
    </g>
    <g id="ytick_4">
     <g id="line2d_20">
      <g>
       <use xlink:href="#m620622ee95" x="51.935" y="256.251099" style="stroke: #000000; stroke-width: 0.8"/>
      </g>
     </g>
     <g id="text_21">
      <!-- 1600 -->
      <g transform="translate(19.485 260.050317) scale(0.1 -0.1)">
       <use xlink:href="#DejaVuSans-31"/>
       <use xlink:href="#DejaVuSans-36" x="63.623047"/>
       <use xlink:href="#DejaVuSans-30" x="127.246094"/>
       <use xlink:href="#DejaVuSans-30" x="190.869141"/>
      </g>
     </g>
    </g>
    <g id="ytick_5">
     <g id="line2d_21">
      <g>
       <use xlink:href="#m620622ee95" x="51.935" y="167.998231" style="stroke: #000000; stroke-width: 0.8"/>
      </g>
     </g>
     <g id="text_22">
      <!-- 1800 -->
      <g transform="translate(19.485 171.79745) scale(0.1 -0.1)">
       <use xlink:href="#DejaVuSans-31"/>
       <use xlink:href="#DejaVuSans-38" x="63.623047"/>
       <use xlink:href="#DejaVuSans-30" x="127.246094"/>
       <use xlink:href="#DejaVuSans-30" x="190.869141"/>
      </g>
     </g>
    </g>
    <g id="ytick_6">
     <g id="line2d_22">
      <g>
       <use xlink:href="#m620622ee95" x="51.935" y="79.745364" style="stroke: #000000; stroke-width: 0.8"/>
      </g>
     </g>
     <g id="text_23">
      <!-- 2000 -->
      <g transform="translate(19.485 83.544583) scale(0.1 -0.1)">
       <use xlink:href="#DejaVuSans-32"/>
       <use xlink:href="#DejaVuSans-30" x="63.623047"/>
       <use xlink:href="#DejaVuSans-30" x="127.246094"/>
       <use xlink:href="#DejaVuSans-30" x="190.869141"/>
      </g>
     </g>
    </g>
    <g id="text_24">
     <!-- Rating -->
     <g transform="translate(12.1575 324.185625) rotate(-90) scale(0.16 -0.16)">
      <defs>
       <path id="DejaVuSans-52" d="M 2841 2188 
Q 3044 2119 3236 1894 
Q 3428 1669 3622 1275 
L 4263 0 
L 3584 0 
L 2988 1197 
Q 2756 1666 2539 1819 
Q 2322 1972 1947 1972 
L 1259 1972 
L 1259 0 
L 628 0 
L 628 4666 
L 2053 4666 
Q 2853 4666 3247 4331 
Q 3641 3997 3641 3322 
Q 3641 2881 3436 2590 
Q 3231 2300 2841 2188 
z
M 1259 4147 
L 1259 2491 
L 2053 2491 
Q 2509 2491 2742 2702 
Q 2975 2913 2975 3322 
Q 2975 3731 2742 3939 
Q 2509 4147 2053 4147 
L 1259 4147 
z
" transform="scale(0.015625)"/>
       <path id="DejaVuSans-61" d="M 2194 1759 
Q 1497 1759 1228 1600 
Q 959 1441 959 1056 
Q 959 750 1161 570 
Q 1363 391 1709 391 
Q 2188 391 2477 730 
Q 2766 1069 2766 1631 
L 2766 1759 
L 2194 1759 
z
M 3341 1997 
L 3341 0 
L 2766 0 
L 2766 531 
Q 2569 213 2275 61 
Q 1981 -91 1556 -91 
Q 1019 -91 701 211 
Q 384 513 384 1019 
Q 384 1609 779 1909 
Q 1175 2209 1959 2209 
L 2766 2209 
L 2766 2266 
Q 2766 2663 2505 2880 
Q 2244 3097 1772 3097 
Q 1472 3097 1187 3025 
Q 903 2953 641 2809 
L 641 3341 
Q 956 3463 1253 3523 
Q 1550 3584 1831 3584 
Q 2591 3584 2966 3190 
Q 3341 2797 3341 1997 
z
" transform="scale(0.015625)"/>
       <path id="DejaVuSans-74" d="M 1172 4494 
L 1172 3500 
L 2356 3500 
L 2356 3053 
L 1172 3053 
L 1172 1153 
Q 1172 725 1289 603 
Q 1406 481 1766 481 
L 2356 481 
L 2356 0 
L 1766 0 
Q 1100 0 847 248 
Q 594 497 594 1153 
L 594 3053 
L 172 3053 
L 172 3500 
L 594 3500 
L 594 4494 
L 1172 4494 
z
" transform="scale(0.015625)"/>
       <path id="DejaVuSans-69" d="M 603 3500 
L 1178 3500 
L 1178 0 
L 603 0 
L 603 3500 
z
M 603 4863 
L 1178 4863 
L 1178 4134 
L 603 4134 
L 603 4863 
z
" transform="scale(0.015625)"/>
       <path id="DejaVuSans-6e" d="M 3513 2113 
L 3513 0 
L 2938 0 
L 2938 2094 
Q 2938 2591 2744 2837 
Q 2550 3084 2163 3084 
Q 1697 3084 1428 2787 
Q 1159 2491 1159 1978 
L 1159 0 
L 581 0 
L 581 3500 
L 1159 3500 
L 1159 2956 
Q 1366 3272 1645 3428 
Q 1925 3584 2291 3584 
Q 2894 3584 3203 3211 
Q 3513 2838 3513 2113 
z
" transform="scale(0.015625)"/>
       <path id="DejaVuSans-67" d="M 2906 1791 
Q 2906 2416 2648 2759 
Q 2391 3103 1925 3103 
Q 1463 3103 1205 2759 
Q 947 2416 947 1791 
Q 947 1169 1205 825 
Q 1463 481 1925 481 
Q 2391 481 2648 825 
Q 2906 1169 2906 1791 
z
M 3481 434 
Q 3481 -459 3084 -895 
Q 2688 -1331 1869 -1331 
Q 1566 -1331 1297 -1286 
Q 1028 -1241 775 -1147 
L 775 -588 
Q 1028 -725 1275 -790 
Q 1522 -856 1778 -856 
Q 2344 -856 2625 -561 
Q 2906 -266 2906 331 
L 2906 616 
Q 2728 306 2450 153 
Q 2172 0 1784 0 
Q 1141 0 747 490 
Q 353 981 353 1791 
Q 353 2603 747 3093 
Q 1141 3584 1784 3584 
Q 2172 3584 2450 3431 
Q 2728 3278 2906 2969 
L 2906 3500 
L 3481 3500 
L 3481 434 
z
" transform="scale(0.015625)"/>
      </defs>
      <use xlink:href="#DejaVuSans-52"/>
      <use xlink:href="#DejaVuSans-61" x="67.232422"/>
      <use xlink:href="#DejaVuSans-74" x="128.511719"/>
      <use xlink:href="#DejaVuSans-69" x="167.720703"/>
      <use xlink:href="#DejaVuSans-6e" x="195.503906"/>
      <use xlink:href="#DejaVuSans-67" x="258.882812"/>
     </g>
    </g>
   </g>
   <g id="line2d_23">
    <path d="M 51.935 213.467243 
L 107.735 240.719179 
L 163.535 290.068569 
L 219.335 302.42978 
L 275.135 304.4343 
L 330.935 303.193407 
L 386.735 303.241133 
L 442.535 307.011541 
L 498.335 309.636509 
L 554.135 309.588782 
L 609.935 294.65033 
L 665.735 287.204968 
L 721.535 304.4343 
L 777.335 318.179585 
L 833.135 314.695537 
L 888.935 266.825674 
" clip-path="url(#p2014c92e21)" style="fill: none; stroke: #1f77b4; stroke-width: 2; stroke-linecap: square"/>
    <defs>
     <path id="mae411c97cd" d="M 0 2 
C 0.530406 2 1.03916 1.789267 1.414214 1.414214 
C 1.789267 1.03916 2 0.530406 2 0 
C 2 -0.530406 1.789267 -1.03916 1.414214 -1.414214 
C 1.03916 -1.789267 0.530406 -2 0 -2 
C -0.530406 -2 -1.03916 -1.789267 -1.414214 -1.414214 
C -1.789267 -1.03916 -2 -0.530406 -2 0 
C -2 0.530406 -1.789267 1.03916 -1.414214 1.414214 
C -1.03916 1.789267 -0.530406 2 0 2 
z
" style="stroke: #1f77b4"/>
    </defs>
    <g clip-path="url(#p2014c92e21)">
     <use xlink:href="#mae411c97cd" x="51.935" y="213.467243" style="fill: #1f77b4; stroke: #1f77b4"/>
     <use xlink:href="#mae411c97cd" x="107.735" y="240.719179" style="fill: #1f77b4; stroke: #1f77b4"/>
     <use xlink:href="#mae411c97cd" x="163.535" y="290.068569" style="fill: #1f77b4; stroke: #1f77b4"/>
     <use xlink:href="#mae411c97cd" x="219.335" y="302.42978" style="fill: #1f77b4; stroke: #1f77b4"/>
     <use xlink:href="#mae411c97cd" x="275.135" y="304.4343" style="fill: #1f77b4; stroke: #1f77b4"/>
     <use xlink:href="#mae411c97cd" x="330.935" y="303.193407" style="fill: #1f77b4; stroke: #1f77b4"/>
     <use xlink:href="#mae411c97cd" x="386.735" y="303.241133" style="fill: #1f77b4; stroke: #1f77b4"/>
     <use xlink:href="#mae411c97cd" x="442.535" y="307.011541" style="fill: #1f77b4; stroke: #1f77b4"/>
     <use xlink:href="#mae411c97cd" x="498.335" y="309.636509" style="fill: #1f77b4; stroke: #1f77b4"/>
     <use xlink:href="#mae411c97cd" x="554.135" y="309.588782" style="fill: #1f77b4; stroke: #1f77b4"/>
     <use xlink:href="#mae411c97cd" x="609.935" y="294.65033" style="fill: #1f77b4; stroke: #1f77b4"/>
     <use xlink:href="#mae411c97cd" x="665.735" y="287.204968" style="fill: #1f77b4; stroke: #1f77b4"/>
     <use xlink:href="#mae411c97cd" x="721.535" y="304.4343" style="fill: #1f77b4; stroke: #1f77b4"/>
     <use xlink:href="#mae411c97cd" x="777.335" y="318.179585" style="fill: #1f77b4; stroke: #1f77b4"/>
     <use xlink:href="#mae411c97cd" x="833.135" y="314.695537" style="fill: #1f77b4; stroke: #1f77b4"/>
     <use xlink:href="#mae411c97cd" x="888.935" y="266.825674" style="fill: #1f77b4; stroke: #1f77b4"/>
    </g>
   </g>
   <g id="line2d_24">
    <path d="M 51.935 269.927909 
L 107.735 322.522713 
L 163.535 364.28356 
L 219.335 400.842199 
L 275.135 431.816816 
L 330.935 463.220974 
L 386.735 488.372935 
L 442.535 501.5455 
L 498.335 506.270441 
L 554.135 498.634172 
L 609.935 484.507074 
L 665.735 451.33703 
L 721.535 409.814816 
L 777.335 363.877884 
L 833.135 326.173804 
L 888.935 282.408436 
" clip-path="url(#p2014c92e21)" style="fill: none; stroke-dasharray: 7.4,3.2; stroke-dashoffset: 0; stroke: #ff7f0e; stroke-width: 2"/>
    <defs>
     <path id="m91c0af77be" d="M -0.49999 0.49999 
L 0.50001 0.49999 
L 0.50001 -0.50001 
L -0.49999 -0.50001 
z
"/>
    </defs>
    <g clip-path="url(#p2014c92e21)">
     <use xlink:href="#m91c0af77be" x="51.935" y="269.927909" style="fill: #ff7f0e"/>
     <use xlink:href="#m91c0af77be" x="107.735" y="322.522713" style="fill: #ff7f0e"/>
     <use xlink:href="#m91c0af77be" x="163.535" y="364.28356" style="fill: #ff7f0e"/>
     <use xlink:href="#m91c0af77be" x="219.335" y="400.842199" style="fill: #ff7f0e"/>
     <use xlink:href="#m91c0af77be" x="275.135" y="431.816816" style="fill: #ff7f0e"/>
     <use xlink:href="#m91c0af77be" x="330.935" y="463.220974" style="fill: #ff7f0e"/>
     <use xlink:href="#m91c0af77be" x="386.735" y="488.372935" style="fill: #ff7f0e"/>
     <use xlink:href="#m91c0af77be" x="442.535" y="501.5455" style="fill: #ff7f0e"/>
     <use xlink:href="#m91c0af77be" x="498.335" y="506.270441" style="fill: #ff7f0e"/>
     <use xlink:href="#m91c0af77be" x="554.135" y="498.634172" style="fill: #ff7f0e"/>
     <use xlink:href="#m91c0af77be" x="609.935" y="484.507074" style="fill: #ff7f0e"/>
     <use xlink:href="#m91c0af77be" x="665.735" y="451.33703" style="fill: #ff7f0e"/>
     <use xlink:href="#m91c0af77be" x="721.535" y="409.814816" style="fill: #ff7f0e"/>
     <use xlink:href="#m91c0af77be" x="777.335" y="363.877884" style="fill: #ff7f0e"/>
     <use xlink:href="#m91c0af77be" x="833.135" y="326.173804" style="fill: #ff7f0e"/>
     <use xlink:href="#m91c0af77be" x="888.935" y="282.408436" style="fill: #ff7f0e"/>
    </g>
   </g>
   <g id="line2d_25">
    <path d="M 51.935 296.368491 
L 107.735 204.971894 
L 163.535 149.990755 
L 219.335 102.454979 
L 275.135 90.523309 
L 330.935 90.952849 
L 386.735 90.714215 
L 442.535 93.95963 
L 498.335 103.552693 
L 554.135 117.107071 
L 609.935 129.850095 
L 665.735 135.60116 
L 721.535 143.690833 
L 777.335 141.996536 
L 833.135 165.478064 
L 888.935 248.784988 
" clip-path="url(#p2014c92e21)" style="fill: none; stroke-dasharray: 12.8,3.2,2,3.2; stroke-dashoffset: 0; stroke: #2ca02c; stroke-width: 2"/>
    <defs>
     <path id="mfd9dd2f97a" d="M 0 4 
C 1.060812 4 2.078319 3.578535 2.828427 2.828427 
C 3.578535 2.078319 4 1.060812 4 0 
C 4 -1.060812 3.578535 -2.078319 2.828427 -2.828427 
C 2.078319 -3.578535 1.060812 -4 0 -4 
C -1.060812 -4 -2.078319 -3.578535 -2.828427 -2.828427 
C -3.578535 -2.078319 -4 -1.060812 -4 0 
C -4 1.060812 -3.578535 2.078319 -2.828427 2.828427 
C -2.078319 3.578535 -1.060812 4 0 4 
z
" style="stroke: #2ca02c"/>
    </defs>
    <g clip-path="url(#p2014c92e21)">
     <use xlink:href="#mfd9dd2f97a" x="51.935" y="296.368491" style="fill: #2ca02c; stroke: #2ca02c"/>
     <use xlink:href="#mfd9dd2f97a" x="107.735" y="204.971894" style="fill: #2ca02c; stroke: #2ca02c"/>
     <use xlink:href="#mfd9dd2f97a" x="163.535" y="149.990755" style="fill: #2ca02c; stroke: #2ca02c"/>
     <use xlink:href="#mfd9dd2f97a" x="219.335" y="102.454979" style="fill: #2ca02c; stroke: #2ca02c"/>
     <use xlink:href="#mfd9dd2f97a" x="275.135" y="90.523309" style="fill: #2ca02c; stroke: #2ca02c"/>
     <use xlink:href="#mfd9dd2f97a" x="330.935" y="90.952849" style="fill: #2ca02c; stroke: #2ca02c"/>
     <use xlink:href="#mfd9dd2f97a" x="386.735" y="90.714215" style="fill: #2ca02c; stroke: #2ca02c"/>
     <use xlink:href="#mfd9dd2f97a" x="442.535" y="93.95963" style="fill: #2ca02c; stroke: #2ca02c"/>
     <use xlink:href="#mfd9dd2f97a" x="498.335" y="103.552693" style="fill: #2ca02c; stroke: #2ca02c"/>
     <use xlink:href="#mfd9dd2f97a" x="554.135" y="117.107071" style="fill: #2ca02c; stroke: #2ca02c"/>
     <use xlink:href="#mfd9dd2f97a" x="609.935" y="129.850095" style="fill: #2ca02c; stroke: #2ca02c"/>
     <use xlink:href="#mfd9dd2f97a" x="665.735" y="135.60116" style="fill: #2ca02c; stroke: #2ca02c"/>
     <use xlink:href="#mfd9dd2f97a" x="721.535" y="143.690833" style="fill: #2ca02c; stroke: #2ca02c"/>
     <use xlink:href="#mfd9dd2f97a" x="777.335" y="141.996536" style="fill: #2ca02c; stroke: #2ca02c"/>
     <use xlink:href="#mfd9dd2f97a" x="833.135" y="165.478064" style="fill: #2ca02c; stroke: #2ca02c"/>
     <use xlink:href="#mfd9dd2f97a" x="888.935" y="248.784988" style="fill: #2ca02c; stroke: #2ca02c"/>
    </g>
   </g>
   <g id="line2d_26">
    <path d="M 51.935 319.611385 
L 107.735 296.368491 
L 163.535 266.491588 
L 219.335 276.800551 
L 275.135 288.254955 
L 330.935 299.470725 
L 386.735 314.265997 
L 442.535 327.820375 
L 498.335 336.315724 
L 554.135 345.001981 
L 609.935 348.724662 
L 665.735 360.059749 
L 721.535 358.962035 
L 777.335 367.409658 
L 833.135 313.43078 
L 888.935 337.270258 
" clip-path="url(#p2014c92e21)" style="fill: none; stroke-dasharray: 2,3.3; stroke-dashoffset: 0; stroke: #d62728; stroke-width: 2"/>
    <defs>
     <path id="mab26d5c552" d="M -0 4 
L 4 -4 
L -4 -4 
z
" style="stroke: #d62728; stroke-linejoin: miter"/>
    </defs>
    <g clip-path="url(#p2014c92e21)">
     <use xlink:href="#mab26d5c552" x="51.935" y="319.611385" style="fill: #d62728; stroke: #d62728; stroke-linejoin: miter"/>
     <use xlink:href="#mab26d5c552" x="107.735" y="296.368491" style="fill: #d62728; stroke: #d62728; stroke-linejoin: miter"/>
     <use xlink:href="#mab26d5c552" x="163.535" y="266.491588" style="fill: #d62728; stroke: #d62728; stroke-linejoin: miter"/>
     <use xlink:href="#mab26d5c552" x="219.335" y="276.800551" style="fill: #d62728; stroke: #d62728; stroke-linejoin: miter"/>
     <use xlink:href="#mab26d5c552" x="275.135" y="288.254955" style="fill: #d62728; stroke: #d62728; stroke-linejoin: miter"/>
     <use xlink:href="#mab26d5c552" x="330.935" y="299.470725" style="fill: #d62728; stroke: #d62728; stroke-linejoin: miter"/>
     <use xlink:href="#mab26d5c552" x="386.735" y="314.265997" style="fill: #d62728; stroke: #d62728; stroke-linejoin: miter"/>
     <use xlink:href="#mab26d5c552" x="442.535" y="327.820375" style="fill: #d62728; stroke: #d62728; stroke-linejoin: miter"/>
     <use xlink:href="#mab26d5c552" x="498.335" y="336.315724" style="fill: #d62728; stroke: #d62728; stroke-linejoin: miter"/>
     <use xlink:href="#mab26d5c552" x="554.135" y="345.001981" style="fill: #d62728; stroke: #d62728; stroke-linejoin: miter"/>
     <use xlink:href="#mab26d5c552" x="609.935" y="348.724662" style="fill: #d62728; stroke: #d62728; stroke-linejoin: miter"/>
     <use xlink:href="#mab26d5c552" x="665.735" y="360.059749" style="fill: #d62728; stroke: #d62728; stroke-linejoin: miter"/>
     <use xlink:href="#mab26d5c552" x="721.535" y="358.962035" style="fill: #d62728; stroke: #d62728; stroke-linejoin: miter"/>
     <use xlink:href="#mab26d5c552" x="777.335" y="367.409658" style="fill: #d62728; stroke: #d62728; stroke-linejoin: miter"/>
     <use xlink:href="#mab26d5c552" x="833.135" y="313.43078" style="fill: #d62728; stroke: #d62728; stroke-linejoin: miter"/>
     <use xlink:href="#mab26d5c552" x="888.935" y="337.270258" style="fill: #d62728; stroke: #d62728; stroke-linejoin: miter"/>
    </g>
   </g>
   <g id="line2d_27">
    <path d="M 51.935 223.633027 
L 107.735 210.651369 
L 163.535 210.985456 
L 219.335 226.353448 
L 275.135 230.839756 
L 330.935 238.189665 
L 386.735 260.621206 
L 442.535 276.227831 
L 498.335 287.443601 
L 554.135 290.641289 
L 609.935 298.802552 
L 665.735 322.71362 
L 721.535 344.238354 
L 777.335 346.433781 
L 833.135 336.482768 
L 888.935 271.502889 
" clip-path="url(#p2014c92e21)" style="fill: none; stroke: #9467bd; stroke-width: 2; stroke-linecap: square"/>
    <defs>
     <path id="m88c0776992" d="M 0 -4 
L -4 4 
L 4 4 
z
" style="stroke: #9467bd; stroke-linejoin: miter"/>
    </defs>
    <g clip-path="url(#p2014c92e21)">
     <use xlink:href="#m88c0776992" x="51.935" y="223.633027" style="fill: #9467bd; stroke: #9467bd; stroke-linejoin: miter"/>
     <use xlink:href="#m88c0776992" x="107.735" y="210.651369" style="fill: #9467bd; stroke: #9467bd; stroke-linejoin: miter"/>
     <use xlink:href="#m88c0776992" x="163.535" y="210.985456" style="fill: #9467bd; stroke: #9467bd; stroke-linejoin: miter"/>
     <use xlink:href="#m88c0776992" x="219.335" y="226.353448" style="fill: #9467bd; stroke: #9467bd; stroke-linejoin: miter"/>
     <use xlink:href="#m88c0776992" x="275.135" y="230.839756" style="fill: #9467bd; stroke: #9467bd; stroke-linejoin: miter"/>
     <use xlink:href="#m88c0776992" x="330.935" y="238.189665" style="fill: #9467bd; stroke: #9467bd; stroke-linejoin: miter"/>
     <use xlink:href="#m88c0776992" x="386.735" y="260.621206" style="fill: #9467bd; stroke: #9467bd; stroke-linejoin: miter"/>
     <use xlink:href="#m88c0776992" x="442.535" y="276.227831" style="fill: #9467bd; stroke: #9467bd; stroke-linejoin: miter"/>
     <use xlink:href="#m88c0776992" x="498.335" y="287.443601" style="fill: #9467bd; stroke: #9467bd; stroke-linejoin: miter"/>
     <use xlink:href="#m88c0776992" x="554.135" y="290.641289" style="fill: #9467bd; stroke: #9467bd; stroke-linejoin: miter"/>
     <use xlink:href="#m88c0776992" x="609.935" y="298.802552" style="fill: #9467bd; stroke: #9467bd; stroke-linejoin: miter"/>
     <use xlink:href="#m88c0776992" x="665.735" y="322.71362" style="fill: #9467bd; stroke: #9467bd; stroke-linejoin: miter"/>
     <use xlink:href="#m88c0776992" x="721.535" y="344.238354" style="fill: #9467bd; stroke: #9467bd; stroke-linejoin: miter"/>
     <use xlink:href="#m88c0776992" x="777.335" y="346.433781" style="fill: #9467bd; stroke: #9467bd; stroke-linejoin: miter"/>
     <use xlink:href="#m88c0776992" x="833.135" y="336.482768" style="fill: #9467bd; stroke: #9467bd; stroke-linejoin: miter"/>
     <use xlink:href="#m88c0776992" x="888.935" y="271.502889" style="fill: #9467bd; stroke: #9467bd; stroke-linejoin: miter"/>
    </g>
   </g>
   <g id="line2d_28">
    <path d="M 51.935 232.36701 
L 107.735 256.278078 
L 163.535 253.557657 
L 219.335 226.162541 
L 275.135 196.810631 
L 330.935 182.206266 
L 386.735 179.724479 
L 442.535 191.799329 
L 498.335 196.571998 
L 554.135 192.992496 
L 609.935 194.137937 
L 665.735 182.349446 
L 721.535 175.214307 
L 777.335 181.371049 
L 833.135 199.554915 
L 888.935 285.343627 
" clip-path="url(#p2014c92e21)" style="fill: none; stroke-dasharray: 7.4,3.2; stroke-dashoffset: 0; stroke: #8c564b; stroke-width: 2"/>
    <defs>
     <path id="mc32de932d8" d="M -4 -0 
L 4 4 
L 4 -4 
z
" style="stroke: #8c564b; stroke-linejoin: miter"/>
    </defs>
    <g clip-path="url(#p2014c92e21)">
     <use xlink:href="#mc32de932d8" x="51.935" y="232.36701" style="fill: #8c564b; stroke: #8c564b; stroke-linejoin: miter"/>
     <use xlink:href="#mc32de932d8" x="107.735" y="256.278078" style="fill: #8c564b; stroke: #8c564b; stroke-linejoin: miter"/>
     <use xlink:href="#mc32de932d8" x="163.535" y="253.557657" style="fill: #8c564b; stroke: #8c564b; stroke-linejoin: miter"/>
     <use xlink:href="#mc32de932d8" x="219.335" y="226.162541" style="fill: #8c564b; stroke: #8c564b; stroke-linejoin: miter"/>
     <use xlink:href="#mc32de932d8" x="275.135" y="196.810631" style="fill: #8c564b; stroke: #8c564b; stroke-linejoin: miter"/>
     <use xlink:href="#mc32de932d8" x="330.935" y="182.206266" style="fill: #8c564b; stroke: #8c564b; stroke-linejoin: miter"/>
     <use xlink:href="#mc32de932d8" x="386.735" y="179.724479" style="fill: #8c564b; stroke: #8c564b; stroke-linejoin: miter"/>
     <use xlink:href="#mc32de932d8" x="442.535" y="191.799329" style="fill: #8c564b; stroke: #8c564b; stroke-linejoin: miter"/>
     <use xlink:href="#mc32de932d8" x="498.335" y="196.571998" style="fill: #8c564b; stroke: #8c564b; stroke-linejoin: miter"/>
     <use xlink:href="#mc32de932d8" x="554.135" y="192.992496" style="fill: #8c564b; stroke: #8c564b; stroke-linejoin: miter"/>
     <use xlink:href="#mc32de932d8" x="609.935" y="194.137937" style="fill: #8c564b; stroke: #8c564b; stroke-linejoin: miter"/>
     <use xlink:href="#mc32de932d8" x="665.735" y="182.349446" style="fill: #8c564b; stroke: #8c564b; stroke-linejoin: miter"/>
     <use xlink:href="#mc32de932d8" x="721.535" y="175.214307" style="fill: #8c564b; stroke: #8c564b; stroke-linejoin: miter"/>
     <use xlink:href="#mc32de932d8" x="777.335" y="181.371049" style="fill: #8c564b; stroke: #8c564b; stroke-linejoin: miter"/>
     <use xlink:href="#mc32de932d8" x="833.135" y="199.554915" style="fill: #8c564b; stroke: #8c564b; stroke-linejoin: miter"/>
     <use xlink:href="#mc32de932d8" x="888.935" y="285.343627" style="fill: #8c564b; stroke: #8c564b; stroke-linejoin: miter"/>
    </g>
   </g>
   <g id="line2d_29">
    <path d="M 51.935 312.118296 
L 107.735 314.743264 
L 163.535 316.938691 
L 219.335 330.445342 
L 275.135 348.629209 
L 330.935 360.226792 
L 386.735 368.960775 
L 442.535 379.937912 
L 498.335 380.271999 
L 554.135 380.940173 
L 609.935 376.310684 
L 665.735 347.770128 
L 721.535 331.113516 
L 777.335 313.025103 
L 833.135 305.293381 
L 888.935 228.525012 
" clip-path="url(#p2014c92e21)" style="fill: none; stroke-dasharray: 12.8,3.2,2,3.2; stroke-dashoffset: 0; stroke: #e377c2; stroke-width: 2"/>
    <defs>
     <path id="mf99b44c196" d="M 4 0 
L -4 -4 
L -4 4 
z
" style="stroke: #e377c2; stroke-linejoin: miter"/>
    </defs>
    <g clip-path="url(#p2014c92e21)">
     <use xlink:href="#mf99b44c196" x="51.935" y="312.118296" style="fill: #e377c2; stroke: #e377c2; stroke-linejoin: miter"/>
     <use xlink:href="#mf99b44c196" x="107.735" y="314.743264" style="fill: #e377c2; stroke: #e377c2; stroke-linejoin: miter"/>
     <use xlink:href="#mf99b44c196" x="163.535" y="316.938691" style="fill: #e377c2; stroke: #e377c2; stroke-linejoin: miter"/>
     <use xlink:href="#mf99b44c196" x="219.335" y="330.445342" style="fill: #e377c2; stroke: #e377c2; stroke-linejoin: miter"/>
     <use xlink:href="#mf99b44c196" x="275.135" y="348.629209" style="fill: #e377c2; stroke: #e377c2; stroke-linejoin: miter"/>
     <use xlink:href="#mf99b44c196" x="330.935" y="360.226792" style="fill: #e377c2; stroke: #e377c2; stroke-linejoin: miter"/>
     <use xlink:href="#mf99b44c196" x="386.735" y="368.960775" style="fill: #e377c2; stroke: #e377c2; stroke-linejoin: miter"/>
     <use xlink:href="#mf99b44c196" x="442.535" y="379.937912" style="fill: #e377c2; stroke: #e377c2; stroke-linejoin: miter"/>
     <use xlink:href="#mf99b44c196" x="498.335" y="380.271999" style="fill: #e377c2; stroke: #e377c2; stroke-linejoin: miter"/>
     <use xlink:href="#mf99b44c196" x="554.135" y="380.940173" style="fill: #e377c2; stroke: #e377c2; stroke-linejoin: miter"/>
     <use xlink:href="#mf99b44c196" x="609.935" y="376.310684" style="fill: #e377c2; stroke: #e377c2; stroke-linejoin: miter"/>
     <use xlink:href="#mf99b44c196" x="665.735" y="347.770128" style="fill: #e377c2; stroke: #e377c2; stroke-linejoin: miter"/>
     <use xlink:href="#mf99b44c196" x="721.535" y="331.113516" style="fill: #e377c2; stroke: #e377c2; stroke-linejoin: miter"/>
     <use xlink:href="#mf99b44c196" x="777.335" y="313.025103" style="fill: #e377c2; stroke: #e377c2; stroke-linejoin: miter"/>
     <use xlink:href="#mf99b44c196" x="833.135" y="305.293381" style="fill: #e377c2; stroke: #e377c2; stroke-linejoin: miter"/>
     <use xlink:href="#mf99b44c196" x="888.935" y="228.525012" style="fill: #e377c2; stroke: #e377c2; stroke-linejoin: miter"/>
    </g>
   </g>
   <g id="line2d_30">
    <path d="M 51.935 502.070493 
L 107.735 495.293304 
L 163.535 481.070753 
L 219.335 461.502813 
L 275.135 442.459867 
L 330.935 408.192108 
L 386.735 363.185847 
L 442.535 311.641029 
L 498.335 276.418738 
L 554.135 270.214269 
L 609.935 277.182365 
L 665.735 290.784469 
L 721.535 304.243394 
L 777.335 328.393095 
L 833.135 391.55936 
L 888.935 410.602306 
" clip-path="url(#p2014c92e21)" style="fill: none; stroke-dasharray: 2,3.3; stroke-dashoffset: 0; stroke: #bcbd22; stroke-width: 2"/>
    <defs>
     <path id="mf6db07ba34" d="M -4 4 
L 4 4 
L 4 -4 
L -4 -4 
z
" style="stroke: #bcbd22; stroke-linejoin: miter"/>
    </defs>
    <g clip-path="url(#p2014c92e21)">
     <use xlink:href="#mf6db07ba34" x="51.935" y="502.070493" style="fill: #bcbd22; stroke: #bcbd22; stroke-linejoin: miter"/>
     <use xlink:href="#mf6db07ba34" x="107.735" y="495.293304" style="fill: #bcbd22; stroke: #bcbd22; stroke-linejoin: miter"/>
     <use xlink:href="#mf6db07ba34" x="163.535" y="481.070753" style="fill: #bcbd22; stroke: #bcbd22; stroke-linejoin: miter"/>
     <use xlink:href="#mf6db07ba34" x="219.335" y="461.502813" style="fill: #bcbd22; stroke: #bcbd22; stroke-linejoin: miter"/>
     <use xlink:href="#mf6db07ba34" x="275.135" y="442.459867" style="fill: #bcbd22; stroke: #bcbd22; stroke-linejoin: miter"/>
     <use xlink:href="#mf6db07ba34" x="330.935" y="408.192108" style="fill: #bcbd22; stroke: #bcbd22; stroke-linejoin: miter"/>
     <use xlink:href="#mf6db07ba34" x="386.735" y="363.185847" style="fill: #bcbd22; stroke: #bcbd22; stroke-linejoin: miter"/>
     <use xlink:href="#mf6db07ba34" x="442.535" y="311.641029" style="fill: #bcbd22; stroke: #bcbd22; stroke-linejoin: miter"/>
     <use xlink:href="#mf6db07ba34" x="498.335" y="276.418738" style="fill: #bcbd22; stroke: #bcbd22; stroke-linejoin: miter"/>
     <use xlink:href="#mf6db07ba34" x="554.135" y="270.214269" style="fill: #bcbd22; stroke: #bcbd22; stroke-linejoin: miter"/>
     <use xlink:href="#mf6db07ba34" x="609.935" y="277.182365" style="fill: #bcbd22; stroke: #bcbd22; stroke-linejoin: miter"/>
     <use xlink:href="#mf6db07ba34" x="665.735" y="290.784469" style="fill: #bcbd22; stroke: #bcbd22; stroke-linejoin: miter"/>
     <use xlink:href="#mf6db07ba34" x="721.535" y="304.243394" style="fill: #bcbd22; stroke: #bcbd22; stroke-linejoin: miter"/>
     <use xlink:href="#mf6db07ba34" x="777.335" y="328.393095" style="fill: #bcbd22; stroke: #bcbd22; stroke-linejoin: miter"/>
     <use xlink:href="#mf6db07ba34" x="833.135" y="391.55936" style="fill: #bcbd22; stroke: #bcbd22; stroke-linejoin: miter"/>
     <use xlink:href="#mf6db07ba34" x="888.935" y="410.602306" style="fill: #bcbd22; stroke: #bcbd22; stroke-linejoin: miter"/>
    </g>
   </g>
   <g id="line2d_31">
    <path d="M 51.935 333.833937 
L 107.735 361.8495 
L 163.535 370.010762 
L 219.335 376.406138 
L 275.135 369.628949 
L 330.935 357.745005 
L 386.735 334.311204 
L 442.535 313.454643 
L 498.335 306.916088 
L 554.135 298.277558 
L 609.935 299.232092 
L 665.735 325.577221 
L 721.535 331.686236 
L 777.335 342.7111 
L 833.135 350.729183 
L 888.935 372.1346 
" clip-path="url(#p2014c92e21)" style="fill: none; stroke: #17becf; stroke-width: 2; stroke-linecap: square"/>
    <defs>
     <path id="m837078e8ef" d="M 0 -4 
L -3.804226 -1.236068 
L -2.351141 3.236068 
L 2.351141 3.236068 
L 3.804226 -1.236068 
z
" style="stroke: #17becf; stroke-linejoin: miter"/>
    </defs>
    <g clip-path="url(#p2014c92e21)">
     <use xlink:href="#m837078e8ef" x="51.935" y="333.833937" style="fill: #17becf; stroke: #17becf; stroke-linejoin: miter"/>
     <use xlink:href="#m837078e8ef" x="107.735" y="361.8495" style="fill: #17becf; stroke: #17becf; stroke-linejoin: miter"/>
     <use xlink:href="#m837078e8ef" x="163.535" y="370.010762" style="fill: #17becf; stroke: #17becf; stroke-linejoin: miter"/>
     <use xlink:href="#m837078e8ef" x="219.335" y="376.406138" style="fill: #17becf; stroke: #17becf; stroke-linejoin: miter"/>
     <use xlink:href="#m837078e8ef" x="275.135" y="369.628949" style="fill: #17becf; stroke: #17becf; stroke-linejoin: miter"/>
     <use xlink:href="#m837078e8ef" x="330.935" y="357.745005" style="fill: #17becf; stroke: #17becf; stroke-linejoin: miter"/>
     <use xlink:href="#m837078e8ef" x="386.735" y="334.311204" style="fill: #17becf; stroke: #17becf; stroke-linejoin: miter"/>
     <use xlink:href="#m837078e8ef" x="442.535" y="313.454643" style="fill: #17becf; stroke: #17becf; stroke-linejoin: miter"/>
     <use xlink:href="#m837078e8ef" x="498.335" y="306.916088" style="fill: #17becf; stroke: #17becf; stroke-linejoin: miter"/>
     <use xlink:href="#m837078e8ef" x="554.135" y="298.277558" style="fill: #17becf; stroke: #17becf; stroke-linejoin: miter"/>
     <use xlink:href="#m837078e8ef" x="609.935" y="299.232092" style="fill: #17becf; stroke: #17becf; stroke-linejoin: miter"/>
     <use xlink:href="#m837078e8ef" x="665.735" y="325.577221" style="fill: #17becf; stroke: #17becf; stroke-linejoin: miter"/>
     <use xlink:href="#m837078e8ef" x="721.535" y="331.686236" style="fill: #17becf; stroke: #17becf; stroke-linejoin: miter"/>
     <use xlink:href="#m837078e8ef" x="777.335" y="342.7111" style="fill: #17becf; stroke: #17becf; stroke-linejoin: miter"/>
     <use xlink:href="#m837078e8ef" x="833.135" y="350.729183" style="fill: #17becf; stroke: #17becf; stroke-linejoin: miter"/>
     <use xlink:href="#m837078e8ef" x="888.935" y="372.1346" style="fill: #17becf; stroke: #17becf; stroke-linejoin: miter"/>
    </g>
   </g>
   <g id="line2d_32">
    <path d="M 51.935 575.596875 
L 51.935 21.196875 
" clip-path="url(#p2014c92e21)" style="fill: none; stroke-dasharray: 3.7,1.6; stroke-dashoffset: 0; stroke: #000000; stroke-opacity: 0.5"/>
   </g>
   <g id="line2d_33">
    <path d="M 107.735 575.596875 
L 107.735 21.196875 
" clip-path="url(#p2014c92e21)" style="fill: none; stroke-dasharray: 3.7,1.6; stroke-dashoffset: 0; stroke: #000000; stroke-opacity: 0.5"/>
   </g>
   <g id="line2d_34">
    <path d="M 163.535 575.596875 
L 163.535 21.196875 
" clip-path="url(#p2014c92e21)" style="fill: none; stroke-dasharray: 3.7,1.6; stroke-dashoffset: 0; stroke: #000000; stroke-opacity: 0.5"/>
   </g>
   <g id="line2d_35">
    <path d="M 219.335 575.596875 
L 219.335 21.196875 
" clip-path="url(#p2014c92e21)" style="fill: none; stroke-dasharray: 3.7,1.6; stroke-dashoffset: 0; stroke: #000000; stroke-opacity: 0.5"/>
   </g>
   <g id="line2d_36">
    <path d="M 275.135 575.596875 
L 275.135 21.196875 
" clip-path="url(#p2014c92e21)" style="fill: none; stroke-dasharray: 3.7,1.6; stroke-dashoffset: 0; stroke: #000000; stroke-opacity: 0.5"/>
   </g>
   <g id="line2d_37">
    <path d="M 330.935 575.596875 
L 330.935 21.196875 
" clip-path="url(#p2014c92e21)" style="fill: none; stroke-dasharray: 3.7,1.6; stroke-dashoffset: 0; stroke: #000000; stroke-opacity: 0.5"/>
   </g>
   <g id="line2d_38">
    <path d="M 386.735 575.596875 
L 386.735 21.196875 
" clip-path="url(#p2014c92e21)" style="fill: none; stroke-dasharray: 3.7,1.6; stroke-dashoffset: 0; stroke: #000000; stroke-opacity: 0.5"/>
   </g>
   <g id="line2d_39">
    <path d="M 442.535 575.596875 
L 442.535 21.196875 
" clip-path="url(#p2014c92e21)" style="fill: none; stroke-dasharray: 3.7,1.6; stroke-dashoffset: 0; stroke: #000000; stroke-opacity: 0.5"/>
   </g>
   <g id="line2d_40">
    <path d="M 498.335 575.596875 
L 498.335 21.196875 
" clip-path="url(#p2014c92e21)" style="fill: none; stroke-dasharray: 3.7,1.6; stroke-dashoffset: 0; stroke: #000000; stroke-opacity: 0.5"/>
   </g>
   <g id="line2d_41">
    <path d="M 554.135 575.596875 
L 554.135 21.196875 
" clip-path="url(#p2014c92e21)" style="fill: none; stroke-dasharray: 3.7,1.6; stroke-dashoffset: 0; stroke: #000000; stroke-opacity: 0.5"/>
   </g>
   <g id="line2d_42">
    <path d="M 609.935 575.596875 
L 609.935 21.196875 
" clip-path="url(#p2014c92e21)" style="fill: none; stroke-dasharray: 3.7,1.6; stroke-dashoffset: 0; stroke: #000000; stroke-opacity: 0.5"/>
   </g>
   <g id="line2d_43">
    <path d="M 665.735 575.596875 
L 665.735 21.196875 
" clip-path="url(#p2014c92e21)" style="fill: none; stroke-dasharray: 3.7,1.6; stroke-dashoffset: 0; stroke: #000000; stroke-opacity: 0.5"/>
   </g>
   <g id="line2d_44">
    <path d="M 721.535 575.596875 
L 721.535 21.196875 
" clip-path="url(#p2014c92e21)" style="fill: none; stroke-dasharray: 3.7,1.6; stroke-dashoffset: 0; stroke: #000000; stroke-opacity: 0.5"/>
   </g>
   <g id="line2d_45">
    <path d="M 777.335 575.596875 
L 777.335 21.196875 
" clip-path="url(#p2014c92e21)" style="fill: none; stroke-dasharray: 3.7,1.6; stroke-dashoffset: 0; stroke: #000000; stroke-opacity: 0.5"/>
   </g>
   <g id="line2d_46">
    <path d="M 833.135 575.596875 
L 833.135 21.196875 
" clip-path="url(#p2014c92e21)" style="fill: none; stroke-dasharray: 3.7,1.6; stroke-dashoffset: 0; stroke: #000000; stroke-opacity: 0.5"/>
   </g>
   <g id="line2d_47">
    <path d="M 888.935 575.596875 
L 888.935 21.196875 
" clip-path="url(#p2014c92e21)" style="fill: none; stroke-dasharray: 3.7,1.6; stroke-dashoffset: 0; stroke: #000000; stroke-opacity: 0.5"/>
   </g>
   <g id="patch_3">
    <path d="M 51.935 575.596875 
L 51.935 21.196875 
" style="fill: none; stroke: #000000; stroke-width: 0.8; stroke-linejoin: miter; stroke-linecap: square"/>
   </g>
   <g id="patch_4">
    <path d="M 888.935 575.596875 
L 888.935 21.196875 
" style="fill: none; stroke: #000000; stroke-width: 0.8; stroke-linejoin: miter; stroke-linecap: square"/>
   </g>
   <g id="patch_5">
    <path d="M 51.935 575.596875 
L 888.935 575.596875 
" style="fill: none; stroke: #000000; stroke-width: 0.8; stroke-linejoin: miter; stroke-linecap: square"/>
   </g>
   <g id="patch_6">
    <path d="M 51.935 21.196875 
L 888.935 21.196875 
" style="fill: none; stroke: #000000; stroke-width: 0.8; stroke-linejoin: miter; stroke-linecap: square"/>
   </g>
   <g id="text_25">
    <!-- CEC 2017 Rotated Shifted Rating Interval bands -->
    <g transform="translate(230.408437 15.196875) scale(0.2 -0.2)">
     <defs>
      <path id="DejaVuSans-43" d="M 4122 4306 
L 4122 3641 
Q 3803 3938 3442 4084 
Q 3081 4231 2675 4231 
Q 1875 4231 1450 3742 
Q 1025 3253 1025 2328 
Q 1025 1406 1450 917 
Q 1875 428 2675 428 
Q 3081 428 3442 575 
Q 3803 722 4122 1019 
L 4122 359 
Q 3791 134 3420 21 
Q 3050 -91 2638 -91 
Q 1578 -91 968 557 
Q 359 1206 359 2328 
Q 359 3453 968 4101 
Q 1578 4750 2638 4750 
Q 3056 4750 3426 4639 
Q 3797 4528 4122 4306 
z
" transform="scale(0.015625)"/>
      <path id="DejaVuSans-45" d="M 628 4666 
L 3578 4666 
L 3578 4134 
L 1259 4134 
L 1259 2753 
L 3481 2753 
L 3481 2222 
L 1259 2222 
L 1259 531 
L 3634 531 
L 3634 0 
L 628 0 
L 628 4666 
z
" transform="scale(0.015625)"/>
      <path id="DejaVuSans-20" transform="scale(0.015625)"/>
      <path id="DejaVuSans-6f" d="M 1959 3097 
Q 1497 3097 1228 2736 
Q 959 2375 959 1747 
Q 959 1119 1226 758 
Q 1494 397 1959 397 
Q 2419 397 2687 759 
Q 2956 1122 2956 1747 
Q 2956 2369 2687 2733 
Q 2419 3097 1959 3097 
z
M 1959 3584 
Q 2709 3584 3137 3096 
Q 3566 2609 3566 1747 
Q 3566 888 3137 398 
Q 2709 -91 1959 -91 
Q 1206 -91 779 398 
Q 353 888 353 1747 
Q 353 2609 779 3096 
Q 1206 3584 1959 3584 
z
" transform="scale(0.015625)"/>
      <path id="DejaVuSans-65" d="M 3597 1894 
L 3597 1613 
L 953 1613 
Q 991 1019 1311 708 
Q 1631 397 2203 397 
Q 2534 397 2845 478 
Q 3156 559 3463 722 
L 3463 178 
Q 3153 47 2828 -22 
Q 2503 -91 2169 -91 
Q 1331 -91 842 396 
Q 353 884 353 1716 
Q 353 2575 817 3079 
Q 1281 3584 2069 3584 
Q 2775 3584 3186 3129 
Q 3597 2675 3597 1894 
z
M 3022 2063 
Q 3016 2534 2758 2815 
Q 2500 3097 2075 3097 
Q 1594 3097 1305 2825 
Q 1016 2553 972 2059 
L 3022 2063 
z
" transform="scale(0.015625)"/>
      <path id="DejaVuSans-64" d="M 2906 2969 
L 2906 4863 
L 3481 4863 
L 3481 0 
L 2906 0 
L 2906 525 
Q 2725 213 2448 61 
Q 2172 -91 1784 -91 
Q 1150 -91 751 415 
Q 353 922 353 1747 
Q 353 2572 751 3078 
Q 1150 3584 1784 3584 
Q 2172 3584 2448 3432 
Q 2725 3281 2906 2969 
z
M 947 1747 
Q 947 1113 1208 752 
Q 1469 391 1925 391 
Q 2381 391 2643 752 
Q 2906 1113 2906 1747 
Q 2906 2381 2643 2742 
Q 2381 3103 1925 3103 
Q 1469 3103 1208 2742 
Q 947 2381 947 1747 
z
" transform="scale(0.015625)"/>
      <path id="DejaVuSans-53" d="M 3425 4513 
L 3425 3897 
Q 3066 4069 2747 4153 
Q 2428 4238 2131 4238 
Q 1616 4238 1336 4038 
Q 1056 3838 1056 3469 
Q 1056 3159 1242 3001 
Q 1428 2844 1947 2747 
L 2328 2669 
Q 3034 2534 3370 2195 
Q 3706 1856 3706 1288 
Q 3706 609 3251 259 
Q 2797 -91 1919 -91 
Q 1588 -91 1214 -16 
Q 841 59 441 206 
L 441 856 
Q 825 641 1194 531 
Q 1563 422 1919 422 
Q 2459 422 2753 634 
Q 3047 847 3047 1241 
Q 3047 1584 2836 1778 
Q 2625 1972 2144 2069 
L 1759 2144 
Q 1053 2284 737 2584 
Q 422 2884 422 3419 
Q 422 4038 858 4394 
Q 1294 4750 2059 4750 
Q 2388 4750 2728 4690 
Q 3069 4631 3425 4513 
z
" transform="scale(0.015625)"/>
      <path id="DejaVuSans-68" d="M 3513 2113 
L 3513 0 
L 2938 0 
L 2938 2094 
Q 2938 2591 2744 2837 
Q 2550 3084 2163 3084 
Q 1697 3084 1428 2787 
Q 1159 2491 1159 1978 
L 1159 0 
L 581 0 
L 581 4863 
L 1159 4863 
L 1159 2956 
Q 1366 3272 1645 3428 
Q 1925 3584 2291 3584 
Q 2894 3584 3203 3211 
Q 3513 2838 3513 2113 
z
" transform="scale(0.015625)"/>
      <path id="DejaVuSans-66" d="M 2375 4863 
L 2375 4384 
L 1825 4384 
Q 1516 4384 1395 4259 
Q 1275 4134 1275 3809 
L 1275 3500 
L 2222 3500 
L 2222 3053 
L 1275 3053 
L 1275 0 
L 697 0 
L 697 3053 
L 147 3053 
L 147 3500 
L 697 3500 
L 697 3744 
Q 697 4328 969 4595 
Q 1241 4863 1831 4863 
L 2375 4863 
z
" transform="scale(0.015625)"/>
      <path id="DejaVuSans-49" d="M 628 4666 
L 1259 4666 
L 1259 0 
L 628 0 
L 628 4666 
z
" transform="scale(0.015625)"/>
      <path id="DejaVuSans-72" d="M 2631 2963 
Q 2534 3019 2420 3045 
Q 2306 3072 2169 3072 
Q 1681 3072 1420 2755 
Q 1159 2438 1159 1844 
L 1159 0 
L 581 0 
L 581 3500 
L 1159 3500 
L 1159 2956 
Q 1341 3275 1631 3429 
Q 1922 3584 2338 3584 
Q 2397 3584 2469 3576 
Q 2541 3569 2628 3553 
L 2631 2963 
z
" transform="scale(0.015625)"/>
      <path id="DejaVuSans-76" d="M 191 3500 
L 800 3500 
L 1894 563 
L 2988 3500 
L 3597 3500 
L 2284 0 
L 1503 0 
L 191 3500 
z
" transform="scale(0.015625)"/>
      <path id="DejaVuSans-6c" d="M 603 4863 
L 1178 4863 
L 1178 0 
L 603 0 
L 603 4863 
z
" transform="scale(0.015625)"/>
      <path id="DejaVuSans-62" d="M 3116 1747 
Q 3116 2381 2855 2742 
Q 2594 3103 2138 3103 
Q 1681 3103 1420 2742 
Q 1159 2381 1159 1747 
Q 1159 1113 1420 752 
Q 1681 391 2138 391 
Q 2594 391 2855 752 
Q 3116 1113 3116 1747 
z
M 1159 2969 
Q 1341 3281 1617 3432 
Q 1894 3584 2278 3584 
Q 2916 3584 3314 3078 
Q 3713 2572 3713 1747 
Q 3713 922 3314 415 
Q 2916 -91 2278 -91 
Q 1894 -91 1617 61 
Q 1341 213 1159 525 
L 1159 0 
L 581 0 
L 581 4863 
L 1159 4863 
L 1159 2969 
z
" transform="scale(0.015625)"/>
      <path id="DejaVuSans-73" d="M 2834 3397 
L 2834 2853 
Q 2591 2978 2328 3040 
Q 2066 3103 1784 3103 
Q 1356 3103 1142 2972 
Q 928 2841 928 2578 
Q 928 2378 1081 2264 
Q 1234 2150 1697 2047 
L 1894 2003 
Q 2506 1872 2764 1633 
Q 3022 1394 3022 966 
Q 3022 478 2636 193 
Q 2250 -91 1575 -91 
Q 1294 -91 989 -36 
Q 684 19 347 128 
L 347 722 
Q 666 556 975 473 
Q 1284 391 1588 391 
Q 1994 391 2212 530 
Q 2431 669 2431 922 
Q 2431 1156 2273 1281 
Q 2116 1406 1581 1522 
L 1381 1569 
Q 847 1681 609 1914 
Q 372 2147 372 2553 
Q 372 3047 722 3315 
Q 1072 3584 1716 3584 
Q 2034 3584 2315 3537 
Q 2597 3491 2834 3397 
z
" transform="scale(0.015625)"/>
     </defs>
     <use xlink:href="#DejaVuSans-43"/>
     <use xlink:href="#DejaVuSans-45" x="69.824219"/>
     <use xlink:href="#DejaVuSans-43" x="133.007812"/>
     <use xlink:href="#DejaVuSans-20" x="202.832031"/>
     <use xlink:href="#DejaVuSans-32" x="234.619141"/>
     <use xlink:href="#DejaVuSans-30" x="298.242188"/>
     <use xlink:href="#DejaVuSans-31" x="361.865234"/>
     <use xlink:href="#DejaVuSans-37" x="425.488281"/>
     <use xlink:href="#DejaVuSans-20" x="489.111328"/>
     <use xlink:href="#DejaVuSans-52" x="520.898438"/>
     <use xlink:href="#DejaVuSans-6f" x="585.880859"/>
     <use xlink:href="#DejaVuSans-74" x="647.0625"/>
     <use xlink:href="#DejaVuSans-61" x="686.271484"/>
     <use xlink:href="#DejaVuSans-74" x="747.550781"/>
     <use xlink:href="#DejaVuSans-65" x="786.759766"/>
     <use xlink:href="#DejaVuSans-64" x="848.283203"/>
     <use xlink:href="#DejaVuSans-20" x="911.759766"/>
     <use xlink:href="#DejaVuSans-53" x="943.546875"/>
     <use xlink:href="#DejaVuSans-68" x="1007.023438"/>
     <use xlink:href="#DejaVuSans-69" x="1070.402344"/>
     <use xlink:href="#DejaVuSans-66" x="1098.185547"/>
     <use xlink:href="#DejaVuSans-74" x="1131.640625"/>
     <use xlink:href="#DejaVuSans-65" x="1170.849609"/>
     <use xlink:href="#DejaVuSans-64" x="1232.373047"/>
     <use xlink:href="#DejaVuSans-20" x="1295.849609"/>
     <use xlink:href="#DejaVuSans-52" x="1327.636719"/>
     <use xlink:href="#DejaVuSans-61" x="1394.869141"/>
     <use xlink:href="#DejaVuSans-74" x="1456.148438"/>
     <use xlink:href="#DejaVuSans-69" x="1495.357422"/>
     <use xlink:href="#DejaVuSans-6e" x="1523.140625"/>
     <use xlink:href="#DejaVuSans-67" x="1586.519531"/>
     <use xlink:href="#DejaVuSans-20" x="1649.996094"/>
     <use xlink:href="#DejaVuSans-49" x="1681.783203"/>
     <use xlink:href="#DejaVuSans-6e" x="1711.275391"/>
     <use xlink:href="#DejaVuSans-74" x="1774.654297"/>
     <use xlink:href="#DejaVuSans-65" x="1813.863281"/>
     <use xlink:href="#DejaVuSans-72" x="1875.386719"/>
     <use xlink:href="#DejaVuSans-76" x="1916.5"/>
     <use xlink:href="#DejaVuSans-61" x="1975.679688"/>
     <use xlink:href="#DejaVuSans-6c" x="2036.958984"/>
     <use xlink:href="#DejaVuSans-20" x="2064.742188"/>
     <use xlink:href="#DejaVuSans-62" x="2096.529297"/>
     <use xlink:href="#DejaVuSans-61" x="2160.005859"/>
     <use xlink:href="#DejaVuSans-6e" x="2221.285156"/>
     <use xlink:href="#DejaVuSans-64" x="2284.664062"/>
     <use xlink:href="#DejaVuSans-73" x="2348.140625"/>
    </g>
   </g>
   <g id="legend_1">
    <g id="patch_7">
     <path d="M 58.935 161.3 
L 199.781875 161.3 
Q 201.781875 161.3 201.781875 159.3 
L 201.781875 28.196875 
Q 201.781875 26.196875 199.781875 26.196875 
L 58.935 26.196875 
Q 56.935 26.196875 56.935 28.196875 
L 56.935 159.3 
Q 56.935 161.3 58.935 161.3 
z
" style="fill: #ffffff; opacity: 0.8; stroke: #cccccc; stroke-linejoin: miter"/>
    </g>
    <g id="patch_8">
     <path d="M 60.935 37.795313 
L 80.935 37.795313 
L 80.935 30.795313 
L 60.935 30.795313 
z
" style="fill: #8fbbda; fill-opacity: 0.3"/>
    </g>
    <g id="line2d_48">
     <path d="M 60.935 34.295313 
L 70.935 34.295313 
L 80.935 34.295313 
" style="fill: none; stroke: #1f77b4; stroke-width: 2; stroke-linecap: square"/>
     <g>
      <use xlink:href="#mae411c97cd" x="70.935" y="34.295313" style="fill: #1f77b4; stroke: #1f77b4"/>
     </g>
    </g>
    <g id="text_26">
     <!-- APGSK-IMODE -->
     <g transform="translate(88.935 37.795313) scale(0.1 -0.1)">
      <defs>
       <path id="DejaVuSans-41" d="M 2188 4044 
L 1331 1722 
L 3047 1722 
L 2188 4044 
z
M 1831 4666 
L 2547 4666 
L 4325 0 
L 3669 0 
L 3244 1197 
L 1141 1197 
L 716 0 
L 50 0 
L 1831 4666 
z
" transform="scale(0.015625)"/>
       <path id="DejaVuSans-50" d="M 1259 4147 
L 1259 2394 
L 2053 2394 
Q 2494 2394 2734 2622 
Q 2975 2850 2975 3272 
Q 2975 3691 2734 3919 
Q 2494 4147 2053 4147 
L 1259 4147 
z
M 628 4666 
L 2053 4666 
Q 2838 4666 3239 4311 
Q 3641 3956 3641 3272 
Q 3641 2581 3239 2228 
Q 2838 1875 2053 1875 
L 1259 1875 
L 1259 0 
L 628 0 
L 628 4666 
z
" transform="scale(0.015625)"/>
       <path id="DejaVuSans-47" d="M 3809 666 
L 3809 1919 
L 2778 1919 
L 2778 2438 
L 4434 2438 
L 4434 434 
Q 4069 175 3628 42 
Q 3188 -91 2688 -91 
Q 1594 -91 976 548 
Q 359 1188 359 2328 
Q 359 3472 976 4111 
Q 1594 4750 2688 4750 
Q 3144 4750 3555 4637 
Q 3966 4525 4313 4306 
L 4313 3634 
Q 3963 3931 3569 4081 
Q 3175 4231 2741 4231 
Q 1884 4231 1454 3753 
Q 1025 3275 1025 2328 
Q 1025 1384 1454 906 
Q 1884 428 2741 428 
Q 3075 428 3337 486 
Q 3600 544 3809 666 
z
" transform="scale(0.015625)"/>
       <path id="DejaVuSans-4b" d="M 628 4666 
L 1259 4666 
L 1259 2694 
L 3353 4666 
L 4166 4666 
L 1850 2491 
L 4331 0 
L 3500 0 
L 1259 2247 
L 1259 0 
L 628 0 
L 628 4666 
z
" transform="scale(0.015625)"/>
       <path id="DejaVuSans-2d" d="M 313 2009 
L 1997 2009 
L 1997 1497 
L 313 1497 
L 313 2009 
z
" transform="scale(0.015625)"/>
       <path id="DejaVuSans-4d" d="M 628 4666 
L 1569 4666 
L 2759 1491 
L 3956 4666 
L 4897 4666 
L 4897 0 
L 4281 0 
L 4281 4097 
L 3078 897 
L 2444 897 
L 1241 4097 
L 1241 0 
L 628 0 
L 628 4666 
z
" transform="scale(0.015625)"/>
       <path id="DejaVuSans-4f" d="M 2522 4238 
Q 1834 4238 1429 3725 
Q 1025 3213 1025 2328 
Q 1025 1447 1429 934 
Q 1834 422 2522 422 
Q 3209 422 3611 934 
Q 4013 1447 4013 2328 
Q 4013 3213 3611 3725 
Q 3209 4238 2522 4238 
z
M 2522 4750 
Q 3503 4750 4090 4092 
Q 4678 3434 4678 2328 
Q 4678 1225 4090 567 
Q 3503 -91 2522 -91 
Q 1538 -91 948 565 
Q 359 1222 359 2328 
Q 359 3434 948 4092 
Q 1538 4750 2522 4750 
z
" transform="scale(0.015625)"/>
       <path id="DejaVuSans-44" d="M 1259 4147 
L 1259 519 
L 2022 519 
Q 2988 519 3436 956 
Q 3884 1394 3884 2338 
Q 3884 3275 3436 3711 
Q 2988 4147 2022 4147 
L 1259 4147 
z
M 628 4666 
L 1925 4666 
Q 3281 4666 3915 4102 
Q 4550 3538 4550 2338 
Q 4550 1131 3912 565 
Q 3275 0 1925 0 
L 628 0 
L 628 4666 
z
" transform="scale(0.015625)"/>
      </defs>
      <use xlink:href="#DejaVuSans-41"/>
      <use xlink:href="#DejaVuSans-50" x="68.408203"/>
      <use xlink:href="#DejaVuSans-47" x="128.710938"/>
      <use xlink:href="#DejaVuSans-53" x="206.201172"/>
      <use xlink:href="#DejaVuSans-4b" x="269.677734"/>
      <use xlink:href="#DejaVuSans-2d" x="324.753906"/>
      <use xlink:href="#DejaVuSans-49" x="360.837891"/>
      <use xlink:href="#DejaVuSans-4d" x="390.330078"/>
      <use xlink:href="#DejaVuSans-4f" x="476.609375"/>
      <use xlink:href="#DejaVuSans-44" x="555.320312"/>
      <use xlink:href="#DejaVuSans-45" x="632.322266"/>
     </g>
    </g>
    <g id="patch_9">
     <path d="M 60.935 52.473438 
L 80.935 52.473438 
L 80.935 45.473438 
L 60.935 45.473438 
z
" style="fill: #ffbf86; fill-opacity: 0.3"/>
    </g>
    <g id="line2d_49">
     <path d="M 60.935 48.973438 
L 70.935 48.973438 
L 80.935 48.973438 
" style="fill: none; stroke-dasharray: 7.4,3.2; stroke-dashoffset: 0; stroke: #ff7f0e; stroke-width: 2"/>
     <g>
      <use xlink:href="#m91c0af77be" x="70.935" y="48.973438" style="fill: #ff7f0e"/>
     </g>
    </g>
    <g id="text_27">
     <!-- DEDMNA -->
     <g transform="translate(88.935 52.473438) scale(0.1 -0.1)">
      <defs>
       <path id="DejaVuSans-4e" d="M 628 4666 
L 1478 4666 
L 3547 763 
L 3547 4666 
L 4159 4666 
L 4159 0 
L 3309 0 
L 1241 3903 
L 1241 0 
L 628 0 
L 628 4666 
z
" transform="scale(0.015625)"/>
      </defs>
      <use xlink:href="#DejaVuSans-44"/>
      <use xlink:href="#DejaVuSans-45" x="77.001953"/>
      <use xlink:href="#DejaVuSans-44" x="140.185547"/>
      <use xlink:href="#DejaVuSans-4d" x="217.1875"/>
      <use xlink:href="#DejaVuSans-4e" x="303.466797"/>
      <use xlink:href="#DejaVuSans-41" x="378.271484"/>
     </g>
    </g>
    <g id="patch_10">
     <path d="M 60.935 67.151563 
L 80.935 67.151563 
L 80.935 60.151563 
L 60.935 60.151563 
z
" style="fill: #96d096; fill-opacity: 0.3"/>
    </g>
    <g id="line2d_50">
     <path d="M 60.935 63.651563 
L 70.935 63.651563 
L 80.935 63.651563 
" style="fill: none; stroke-dasharray: 12.8,3.2,2,3.2; stroke-dashoffset: 0; stroke: #2ca02c; stroke-width: 2"/>
     <g>
      <use xlink:href="#mfd9dd2f97a" x="70.935" y="63.651563" style="fill: #2ca02c; stroke: #2ca02c"/>
     </g>
    </g>
    <g id="text_28">
     <!-- j21 -->
     <g transform="translate(88.935 67.151563) scale(0.1 -0.1)">
      <defs>
       <path id="DejaVuSans-6a" d="M 603 3500 
L 1178 3500 
L 1178 -63 
Q 1178 -731 923 -1031 
Q 669 -1331 103 -1331 
L -116 -1331 
L -116 -844 
L 38 -844 
Q 366 -844 484 -692 
Q 603 -541 603 -63 
L 603 3500 
z
M 603 4863 
L 1178 4863 
L 1178 4134 
L 603 4134 
L 603 4863 
z
" transform="scale(0.015625)"/>
      </defs>
      <use xlink:href="#DejaVuSans-6a"/>
      <use xlink:href="#DejaVuSans-32" x="27.783203"/>
      <use xlink:href="#DejaVuSans-31" x="91.40625"/>
     </g>
    </g>
    <g id="patch_11">
     <path d="M 60.935 81.829688 
L 80.935 81.829688 
L 80.935 74.829688 
L 60.935 74.829688 
z
" style="fill: #eb9393; fill-opacity: 0.3"/>
    </g>
    <g id="line2d_51">
     <path d="M 60.935 78.329688 
L 70.935 78.329688 
L 80.935 78.329688 
" style="fill: none; stroke-dasharray: 2,3.3; stroke-dashoffset: 0; stroke: #d62728; stroke-width: 2"/>
     <g>
      <use xlink:href="#mab26d5c552" x="70.935" y="78.329688" style="fill: #d62728; stroke: #d62728; stroke-linejoin: miter"/>
     </g>
    </g>
    <g id="text_29">
     <!-- LSHADE -->
     <g transform="translate(88.935 81.829688) scale(0.1 -0.1)">
      <defs>
       <path id="DejaVuSans-4c" d="M 628 4666 
L 1259 4666 
L 1259 531 
L 3531 531 
L 3531 0 
L 628 0 
L 628 4666 
z
" transform="scale(0.015625)"/>
       <path id="DejaVuSans-48" d="M 628 4666 
L 1259 4666 
L 1259 2753 
L 3553 2753 
L 3553 4666 
L 4184 4666 
L 4184 0 
L 3553 0 
L 3553 2222 
L 1259 2222 
L 1259 0 
L 628 0 
L 628 4666 
z
" transform="scale(0.015625)"/>
      </defs>
      <use xlink:href="#DejaVuSans-4c"/>
      <use xlink:href="#DejaVuSans-53" x="55.712891"/>
      <use xlink:href="#DejaVuSans-48" x="119.189453"/>
      <use xlink:href="#DejaVuSans-41" x="194.384766"/>
      <use xlink:href="#DejaVuSans-44" x="262.792969"/>
      <use xlink:href="#DejaVuSans-45" x="339.794922"/>
     </g>
    </g>
    <g id="patch_12">
     <path d="M 60.935 96.507813 
L 80.935 96.507813 
L 80.935 89.507813 
L 60.935 89.507813 
z
" style="fill: #cab3de; fill-opacity: 0.3"/>
    </g>
    <g id="line2d_52">
     <path d="M 60.935 93.007813 
L 70.935 93.007813 
L 80.935 93.007813 
" style="fill: none; stroke: #9467bd; stroke-width: 2; stroke-linecap: square"/>
     <g>
      <use xlink:href="#m88c0776992" x="70.935" y="93.007813" style="fill: #9467bd; stroke: #9467bd; stroke-linejoin: miter"/>
     </g>
    </g>
    <g id="text_30">
     <!-- MadDE -->
     <g transform="translate(88.935 96.507813) scale(0.1 -0.1)">
      <use xlink:href="#DejaVuSans-4d"/>
      <use xlink:href="#DejaVuSans-61" x="86.279297"/>
      <use xlink:href="#DejaVuSans-64" x="147.558594"/>
      <use xlink:href="#DejaVuSans-44" x="211.035156"/>
      <use xlink:href="#DejaVuSans-45" x="288.037109"/>
     </g>
    </g>
    <g id="patch_13">
     <path d="M 60.935 111.185938 
L 80.935 111.185938 
L 80.935 104.185938 
L 60.935 104.185938 
z
" style="fill: #c6aba5; fill-opacity: 0.3"/>
    </g>
    <g id="line2d_53">
     <path d="M 60.935 107.685938 
L 70.935 107.685938 
L 80.935 107.685938 
" style="fill: none; stroke-dasharray: 7.4,3.2; stroke-dashoffset: 0; stroke: #8c564b; stroke-width: 2"/>
     <g>
      <use xlink:href="#mc32de932d8" x="70.935" y="107.685938" style="fill: #8c564b; stroke: #8c564b; stroke-linejoin: miter"/>
     </g>
    </g>
    <g id="text_31">
     <!-- MLS-LSHADE -->
     <g transform="translate(88.935 111.185938) scale(0.1 -0.1)">
      <use xlink:href="#DejaVuSans-4d"/>
      <use xlink:href="#DejaVuSans-4c" x="86.279297"/>
      <use xlink:href="#DejaVuSans-53" x="141.992188"/>
      <use xlink:href="#DejaVuSans-2d" x="205.46875"/>
      <use xlink:href="#DejaVuSans-4c" x="241.552734"/>
      <use xlink:href="#DejaVuSans-53" x="297.265625"/>
      <use xlink:href="#DejaVuSans-48" x="360.742188"/>
      <use xlink:href="#DejaVuSans-41" x="435.9375"/>
      <use xlink:href="#DejaVuSans-44" x="504.345703"/>
      <use xlink:href="#DejaVuSans-45" x="581.347656"/>
     </g>
    </g>
    <g id="patch_14">
     <path d="M 60.935 125.864063 
L 80.935 125.864063 
L 80.935 118.864063 
L 60.935 118.864063 
z
" style="fill: #f1bbe0; fill-opacity: 0.3"/>
    </g>
    <g id="line2d_54">
     <path d="M 60.935 122.364063 
L 70.935 122.364063 
L 80.935 122.364063 
" style="fill: none; stroke-dasharray: 12.8,3.2,2,3.2; stroke-dashoffset: 0; stroke: #e377c2; stroke-width: 2"/>
     <g>
      <use xlink:href="#mf99b44c196" x="70.935" y="122.364063" style="fill: #e377c2; stroke: #e377c2; stroke-linejoin: miter"/>
     </g>
    </g>
    <g id="text_32">
     <!-- NL-SHADE-RSP -->
     <g transform="translate(88.935 125.864063) scale(0.1 -0.1)">
      <use xlink:href="#DejaVuSans-4e"/>
      <use xlink:href="#DejaVuSans-4c" x="74.804688"/>
      <use xlink:href="#DejaVuSans-2d" x="128.767578"/>
      <use xlink:href="#DejaVuSans-53" x="164.851562"/>
      <use xlink:href="#DejaVuSans-48" x="228.328125"/>
      <use xlink:href="#DejaVuSans-41" x="303.523438"/>
      <use xlink:href="#DejaVuSans-44" x="371.931641"/>
      <use xlink:href="#DejaVuSans-45" x="448.933594"/>
      <use xlink:href="#DejaVuSans-2d" x="512.117188"/>
      <use xlink:href="#DejaVuSans-52" x="548.201172"/>
      <use xlink:href="#DejaVuSans-53" x="617.683594"/>
      <use xlink:href="#DejaVuSans-50" x="681.160156"/>
     </g>
    </g>
    <g id="patch_15">
     <path d="M 60.935 140.542188 
L 80.935 140.542188 
L 80.935 133.542188 
L 60.935 133.542188 
z
" style="fill: #dede90; fill-opacity: 0.3"/>
    </g>
    <g id="line2d_55">
     <path d="M 60.935 137.042188 
L 70.935 137.042188 
L 80.935 137.042188 
" style="fill: none; stroke-dasharray: 2,3.3; stroke-dashoffset: 0; stroke: #bcbd22; stroke-width: 2"/>
     <g>
      <use xlink:href="#mf6db07ba34" x="70.935" y="137.042188" style="fill: #bcbd22; stroke: #bcbd22; stroke-linejoin: miter"/>
     </g>
    </g>
    <g id="text_33">
     <!-- RB-IPOP-CMAES-PPMF -->
     <g transform="translate(88.935 140.542188) scale(0.1 -0.1)">
      <defs>
       <path id="DejaVuSans-42" d="M 1259 2228 
L 1259 519 
L 2272 519 
Q 2781 519 3026 730 
Q 3272 941 3272 1375 
Q 3272 1813 3026 2020 
Q 2781 2228 2272 2228 
L 1259 2228 
z
M 1259 4147 
L 1259 2741 
L 2194 2741 
Q 2656 2741 2882 2914 
Q 3109 3088 3109 3444 
Q 3109 3797 2882 3972 
Q 2656 4147 2194 4147 
L 1259 4147 
z
M 628 4666 
L 2241 4666 
Q 2963 4666 3353 4366 
Q 3744 4066 3744 3513 
Q 3744 3084 3544 2831 
Q 3344 2578 2956 2516 
Q 3422 2416 3680 2098 
Q 3938 1781 3938 1306 
Q 3938 681 3513 340 
Q 3088 0 2303 0 
L 628 0 
L 628 4666 
z
" transform="scale(0.015625)"/>
       <path id="DejaVuSans-46" d="M 628 4666 
L 3309 4666 
L 3309 4134 
L 1259 4134 
L 1259 2759 
L 3109 2759 
L 3109 2228 
L 1259 2228 
L 1259 0 
L 628 0 
L 628 4666 
z
" transform="scale(0.015625)"/>
      </defs>
      <use xlink:href="#DejaVuSans-52"/>
      <use xlink:href="#DejaVuSans-42" x="69.482422"/>
      <use xlink:href="#DejaVuSans-2d" x="138.085938"/>
      <use xlink:href="#DejaVuSans-49" x="174.169922"/>
      <use xlink:href="#DejaVuSans-50" x="203.662109"/>
      <use xlink:href="#DejaVuSans-4f" x="263.964844"/>
      <use xlink:href="#DejaVuSans-50" x="342.675781"/>
      <use xlink:href="#DejaVuSans-2d" x="400.728516"/>
      <use xlink:href="#DejaVuSans-43" x="436.8125"/>
      <use xlink:href="#DejaVuSans-4d" x="506.636719"/>
      <use xlink:href="#DejaVuSans-41" x="592.916016"/>
      <use xlink:href="#DejaVuSans-45" x="661.324219"/>
      <use xlink:href="#DejaVuSans-53" x="724.507812"/>
      <use xlink:href="#DejaVuSans-2d" x="787.984375"/>
      <use xlink:href="#DejaVuSans-50" x="824.068359"/>
      <use xlink:href="#DejaVuSans-50" x="884.371094"/>
      <use xlink:href="#DejaVuSans-4d" x="944.673828"/>
      <use xlink:href="#DejaVuSans-46" x="1030.953125"/>
     </g>
    </g>
    <g id="patch_16">
     <path d="M 60.935 155.220313 
L 80.935 155.220313 
L 80.935 148.220313 
L 60.935 148.220313 
z
" style="fill: #8bdee7; fill-opacity: 0.3"/>
    </g>
    <g id="line2d_56">
     <path d="M 60.935 151.720313 
L 70.935 151.720313 
L 80.935 151.720313 
" style="fill: none; stroke: #17becf; stroke-width: 2; stroke-linecap: square"/>
     <g>
      <use xlink:href="#m837078e8ef" x="70.935" y="151.720313" style="fill: #17becf; stroke: #17becf; stroke-linejoin: miter"/>
     </g>
    </g>
    <g id="text_34">
     <!-- SOMA-CLP -->
     <g transform="translate(88.935 155.220313) scale(0.1 -0.1)">
      <use xlink:href="#DejaVuSans-53"/>
      <use xlink:href="#DejaVuSans-4f" x="63.476562"/>
      <use xlink:href="#DejaVuSans-4d" x="142.1875"/>
      <use xlink:href="#DejaVuSans-41" x="228.466797"/>
      <use xlink:href="#DejaVuSans-2d" x="294.625"/>
      <use xlink:href="#DejaVuSans-43" x="330.708984"/>
      <use xlink:href="#DejaVuSans-4c" x="400.533203"/>
      <use xlink:href="#DejaVuSans-50" x="456.246094"/>
     </g>
    </g>
   </g>
  </g>
 </g>
 <defs>
  <clipPath id="p2014c92e21">
   <rect x="51.935" y="21.196875" width="837" height="554.4"/>
  </clipPath>
 </defs>
</svg>
