<?xml version="1.0" encoding="utf-8" standalone="no"?>
<!DOCTYPE svg PUBLIC "-//W3C//DTD SVG 1.1//EN"
  "http://www.w3.org/Graphics/SVG/1.1/DTD/svg11.dtd">
<svg xmlns:xlink="http://www.w3.org/1999/xlink" width="895.2975pt" height="611.76pt" viewBox="0 0 895.2975 611.76" xmlns="http://www.w3.org/2000/svg" version="1.1">
 <metadata>
  <rdf:RDF xmlns:dc="http://purl.org/dc/elements/1.1/" xmlns:cc="http://creativecommons.org/ns#" xmlns:rdf="http://www.w3.org/1999/02/22-rdf-syntax-ns#">
   <cc:Work>
    <dc:type rdf:resource="http://purl.org/dc/dcmitype/StillImage"/>
    <dc:date>2023-11-21T09:34:31.983720</dc:date>
    <dc:format>image/svg+xml</dc:format>
    <dc:creator>
     <cc:Agent>
      <dc:title>Matplotlib v3.8.1, https://matplotlib.org/</dc:title>
     </cc:Agent>
    </dc:creator>
   </cc:Work>
  </rdf:RDF>
 </metadata>
 <defs>
  <style type="text/css">*{stroke-linejoin: round; stroke-linecap: butt}</style>
 </defs>
 <g id="figure_1">
  <g id="patch_1">
   <path d="M -0 611.76 
L 895.2975 611.76 
L 895.2975 0 
L -0 0 
z
" style="fill: #ffffff"/>
  </g>
  <g id="axes_1">
   <g id="patch_2">
    <path d="M 51.935 575.596875 
L 888.935 575.596875 
L 888.935 21.196875 
L 51.935 21.196875 
z
" style="fill: #ffffff"/>
   </g>
   <g id="PolyCollection_1">
    <defs>
     <path id="m7bc82e6fd2" d="M 51.935 -357.761829 
L 51.935 -445.718997 
L 107.735 -405.425328 
L 163.535 -355.569644 
L 219.335 -352.881813 
L 275.135 -352.429877 
L 330.935 -352.144444 
L 386.735 -348.338667 
L 442.535 -344.009595 
L 498.335 -343.153295 
L 554.135 -339.323731 
L 609.935 -371.125759 
L 665.735 -391.058518 
L 721.535 -405.615617 
L 777.335 -439.629753 
L 833.135 -467.947116 
L 888.935 -459.562512 
L 888.935 -371.605344 
L 888.935 -371.605344 
L 833.135 -379.989948 
L 777.335 -351.672585 
L 721.535 -317.658449 
L 665.735 -303.101351 
L 609.935 -283.168591 
L 554.135 -251.366564 
L 498.335 -255.196127 
L 442.535 -256.052427 
L 386.735 -260.381499 
L 330.935 -264.187276 
L 275.135 -264.47271 
L 219.335 -264.924646 
L 163.535 -267.612476 
L 107.735 -317.46816 
L 51.935 -357.761829 
z
"/>
    </defs>
    <g clip-path="url(#p9dc80c0da7)">
     <use xlink:href="#m7bc82e6fd2" x="0" y="611.76" style="fill: #8fbbda; fill-opacity: 0.3"/>
    </g>
   </g>
   <g id="PolyCollection_2">
    <defs>
     <path id="m8427653ee4" d="M 51.935 -301.079531 
L 51.935 -389.036699 
L 107.735 -324.338483 
L 163.535 -283.830739 
L 219.335 -249.126806 
L 275.135 -217.25342 
L 330.935 -188.472228 
L 386.735 -163.068664 
L 442.535 -150.795032 
L 498.335 -149.320293 
L 554.135 -159.762395 
L 609.935 -181.97862 
L 665.735 -202.981755 
L 721.535 -220.726192 
L 777.335 -260.056523 
L 833.135 -312.433535 
L 888.935 -326.824131 
L 888.935 -238.866963 
L 888.935 -238.866963 
L 833.135 -224.476367 
L 777.335 -172.099355 
L 721.535 -132.769024 
L 665.735 -115.024587 
L 609.935 -94.021453 
L 554.135 -71.805227 
L 498.335 -61.363125 
L 442.535 -62.837864 
L 386.735 -75.111496 
L 330.935 -100.51506 
L 275.135 -129.296252 
L 219.335 -161.169638 
L 163.535 -195.873571 
L 107.735 -236.381315 
L 51.935 -301.079531 
z
"/>
    </defs>
    <g clip-path="url(#p9dc80c0da7)">
     <use xlink:href="#m8427653ee4" x="0" y="611.76" style="fill: #ffbf86; fill-opacity: 0.3"/>
    </g>
   </g>
   <g id="PolyCollection_3">
    <defs>
     <path id="m65b735ac27" d="M 51.935 -271.727473 
L 51.935 -359.684641 
L 107.735 -465.746901 
L 163.535 -508.371608 
L 219.335 -542.290599 
L 275.135 -558.465153 
L 330.935 -562.770439 
L 386.735 -562.913156 
L 442.535 -555.753537 
L 498.335 -540.221208 
L 554.135 -518.81371 
L 609.935 -505.338879 
L 665.735 -495.21789 
L 721.535 -468.506089 
L 777.335 -430.483994 
L 833.135 -377.226896 
L 888.935 -305.214451 
L 888.935 -217.257283 
L 888.935 -217.257283 
L 833.135 -289.269728 
L 777.335 -342.526826 
L 721.535 -380.548921 
L 665.735 -407.260722 
L 609.935 -417.381711 
L 554.135 -430.856542 
L 498.335 -452.26404 
L 442.535 -467.796369 
L 386.735 -474.955988 
L 330.935 -474.813271 
L 275.135 -470.507986 
L 219.335 -454.333431 
L 163.535 -420.41444 
L 107.735 -377.789733 
L 51.935 -271.727473 
z
"/>
    </defs>
    <g clip-path="url(#p9dc80c0da7)">
     <use xlink:href="#m65b735ac27" x="0" y="611.76" style="fill: #96d096; fill-opacity: 0.3"/>
    </g>
   </g>
   <g id="PolyCollection_4">
    <defs>
     <path id="m7890fd4782" d="M 51.935 -254.863122 
L 51.935 -342.820289 
L 107.735 -354.332766 
L 163.535 -369.888881 
L 219.335 -357.068169 
L 275.135 -344.247456 
L 330.935 -330.070935 
L 386.735 -314.039098 
L 442.535 -306.546473 
L 498.335 -304.263007 
L 554.135 -298.197549 
L 609.935 -295.74758 
L 665.735 -289.444261 
L 721.535 -280.346074 
L 777.335 -263.576867 
L 833.135 -281.38077 
L 888.935 -458.93218 
L 888.935 -370.975013 
L 888.935 -370.975013 
L 833.135 -193.423602 
L 777.335 -175.619699 
L 721.535 -192.388906 
L 665.735 -201.487093 
L 609.935 -207.790412 
L 554.135 -210.240381 
L 498.335 -216.305839 
L 442.535 -218.589305 
L 386.735 -226.08193 
L 330.935 -242.113767 
L 275.135 -256.290288 
L 219.335 -269.111001 
L 163.535 -281.931714 
L 107.735 -266.375598 
L 51.935 -254.863122 
z
"/>
    </defs>
    <g clip-path="url(#p9dc80c0da7)">
     <use xlink:href="#m7890fd4782" x="0" y="611.76" style="fill: #eb9393; fill-opacity: 0.3"/>
    </g>
   </g>
   <g id="PolyCollection_5">
    <defs>
     <path id="ma1293ccfed" d="M 51.935 -350.269205 
L 51.935 -438.226373 
L 107.735 -502.353722 
L 163.535 -533.703814 
L 219.335 -528.518442 
L 275.135 -530.18347 
L 330.935 -532.728583 
L 386.735 -534.916906 
L 442.535 -541.886235 
L 498.335 -552.732701 
L 554.135 -565.363125 
L 609.935 -565.220408 
L 665.735 -561.200556 
L 721.535 -553.707932 
L 777.335 -541.327262 
L 833.135 -507.931565 
L 888.935 -459.705229 
L 888.935 -371.748061 
L 888.935 -371.748061 
L 833.135 -419.974397 
L 777.335 -453.370094 
L 721.535 -465.750764 
L 665.735 -473.243388 
L 609.935 -477.263241 
L 554.135 -477.405957 
L 498.335 -464.775533 
L 442.535 -453.929068 
L 386.735 -446.959738 
L 330.935 -444.771416 
L 275.135 -442.226302 
L 219.335 -440.561274 
L 163.535 -445.746646 
L 107.735 -414.396554 
L 51.935 -350.269205 
z
"/>
    </defs>
    <g clip-path="url(#p9dc80c0da7)">
     <use xlink:href="#ma1293ccfed" x="0" y="611.76" style="fill: #cab3de; fill-opacity: 0.3"/>
    </g>
   </g>
   <g id="PolyCollection_6">
    <defs>
     <path id="ma294189192" d="M 51.935 -323.105468 
L 51.935 -411.062636 
L 107.735 -383.613466 
L 163.535 -386.325083 
L 219.335 -406.448131 
L 275.135 -420.791155 
L 330.935 -424.715863 
L 386.735 -420.125144 
L 442.535 -412.466016 
L 498.335 -401.548192 
L 554.135 -401.191401 
L 609.935 -394.471825 
L 665.735 -408.113159 
L 721.535 -424.168782 
L 777.335 -432.244166 
L 833.135 -426.166815 
L 888.935 -415.01113 
L 888.935 -327.053962 
L 888.935 -327.053962 
L 833.135 -338.209647 
L 777.335 -344.286998 
L 721.535 -336.211614 
L 665.735 -320.155991 
L 609.935 -306.514657 
L 554.135 -313.234233 
L 498.335 -313.591025 
L 442.535 -324.508849 
L 386.735 -332.167976 
L 330.935 -336.758695 
L 275.135 -332.833987 
L 219.335 -318.490963 
L 163.535 -298.367915 
L 107.735 -295.656298 
L 51.935 -323.105468 
z
"/>
    </defs>
    <g clip-path="url(#p9dc80c0da7)">
     <use xlink:href="#ma294189192" x="0" y="611.76" style="fill: #c6aba5; fill-opacity: 0.3"/>
    </g>
   </g>
   <g id="PolyCollection_7">
    <defs>
     <path id="m5d62242d63" d="M 51.935 -261.095082 
L 51.935 -349.05225 
L 107.735 -330.332582 
L 163.535 -323.077819 
L 219.335 -312.849792 
L 275.135 -293.630616 
L 330.935 -280.690973 
L 386.735 -268.607629 
L 442.535 -258.308244 
L 498.335 -252.123856 
L 554.135 -247.937501 
L 609.935 -248.365651 
L 665.735 -264.778066 
L 721.535 -269.463929 
L 777.335 -290.895213 
L 833.135 -350.562668 
L 888.935 -341.321765 
L 888.935 -253.364597 
L 888.935 -253.364597 
L 833.135 -262.6055 
L 777.335 -202.938046 
L 721.535 -181.506761 
L 665.735 -176.820898 
L 609.935 -160.408483 
L 554.135 -159.980333 
L 498.335 -164.166688 
L 442.535 -170.351076 
L 386.735 -180.650462 
L 330.935 -192.733805 
L 275.135 -205.673448 
L 219.335 -224.892624 
L 163.535 -235.120651 
L 107.735 -242.375414 
L 51.935 -261.095082 
z
"/>
    </defs>
    <g clip-path="url(#p9dc80c0da7)">
     <use xlink:href="#m5d62242d63" x="0" y="611.76" style="fill: #f1bbe0; fill-opacity: 0.3"/>
    </g>
   </g>
   <g id="PolyCollection_8">
    <defs>
     <path id="mf698b5f308" d="M 51.935 -82.984698 
L 51.935 -170.941866 
L 107.735 -176.269954 
L 163.535 -194.20468 
L 219.335 -212.829204 
L 275.135 -233.570691 
L 330.935 -266.776099 
L 386.735 -314.08667 
L 442.535 -351.549791 
L 498.335 -368.79472 
L 554.135 -372.148562 
L 609.935 -350.170197 
L 665.735 -337.730062 
L 721.535 -304.917125 
L 777.335 -278.431292 
L 833.135 -232.547888 
L 888.935 -214.613162 
L 888.935 -126.655994 
L 888.935 -126.655994 
L 833.135 -144.59072 
L 777.335 -190.474125 
L 721.535 -216.959957 
L 665.735 -249.772894 
L 609.935 -262.213029 
L 554.135 -284.191394 
L 498.335 -280.837553 
L 442.535 -263.592624 
L 386.735 -226.129502 
L 330.935 -178.818931 
L 275.135 -145.613523 
L 219.335 -124.872036 
L 163.535 -106.247513 
L 107.735 -88.312786 
L 51.935 -82.984698 
z
"/>
    </defs>
    <g clip-path="url(#p9dc80c0da7)">
     <use xlink:href="#mf698b5f308" x="0" y="611.76" style="fill: #dede90; fill-opacity: 0.3"/>
    </g>
   </g>
   <g id="PolyCollection_9">
    <defs>
     <path id="m8651869965" d="M 51.935 -229.388199 
L 51.935 -317.345367 
L 107.735 -281.475914 
L 163.535 -268.916849 
L 219.335 -261.876161 
L 275.135 -273.317279 
L 330.935 -285.519553 
L 386.735 -297.793185 
L 442.535 -302.574193 
L 498.335 -311.731845 
L 554.135 -321.151144 
L 609.935 -311.470198 
L 665.735 -273.364851 
L 721.535 -296.437377 
L 777.335 -287.244046 
L 833.135 -267.691864 
L 888.935 -242.704557 
L 888.935 -154.747389 
L 888.935 -154.747389 
L 833.135 -179.734696 
L 777.335 -199.286878 
L 721.535 -208.480209 
L 665.735 -185.407683 
L 609.935 -223.51303 
L 554.135 -233.193976 
L 498.335 -223.774677 
L 442.535 -214.617025 
L 386.735 -209.836017 
L 330.935 -197.562385 
L 275.135 -185.360111 
L 219.335 -173.918993 
L 163.535 -180.959681 
L 107.735 -193.518746 
L 51.935 -229.388199 
z
"/>
    </defs>
    <g clip-path="url(#p9dc80c0da7)">
     <use xlink:href="#m8651869965" x="0" y="611.76" style="fill: #8bdee7; fill-opacity: 0.3"/>
    </g>
   </g>
   <g id="matplotlib.axis_1">
    <g id="xtick_1">
     <g id="line2d_1">
      <defs>
       <path id="m5c2166ffd7" d="M 0 0 
L 0 3.5 
" style="stroke: #000000; stroke-width: 0.8"/>
      </defs>
      <g>
       <use xlink:href="#m5c2166ffd7" x="51.935" y="575.596875" style="stroke: #000000; stroke-width: 0.8"/>
      </g>
     </g>
     <g id="text_1">
      <!-- 0 -->
      <g transform="translate(48.75375 590.195313) scale(0.1 -0.1)">
       <defs>
        <path id="DejaVuSans-30" d="M 2034 4250 
Q 1547 4250 1301 3770 
Q 1056 3291 1056 2328 
Q 1056 1369 1301 889 
Q 1547 409 2034 409 
Q 2525 409 2770 889 
Q 3016 1369 3016 2328 
Q 3016 3291 2770 3770 
Q 2525 4250 2034 4250 
z
M 2034 4750 
Q 2819 4750 3233 4129 
Q 3647 3509 3647 2328 
Q 3647 1150 3233 529 
Q 2819 -91 2034 -91 
Q 1250 -91 836 529 
Q 422 1150 422 2328 
Q 422 3509 836 4129 
Q 1250 4750 2034 4750 
z
" transform="scale(0.015625)"/>
       </defs>
       <use xlink:href="#DejaVuSans-30"/>
      </g>
     </g>
    </g>
    <g id="xtick_2">
     <g id="line2d_2">
      <g>
       <use xlink:href="#m5c2166ffd7" x="107.735" y="575.596875" style="stroke: #000000; stroke-width: 0.8"/>
      </g>
     </g>
     <g id="text_2">
      <!-- 1 -->
      <g transform="translate(104.55375 590.195313) scale(0.1 -0.1)">
       <defs>
        <path id="DejaVuSans-31" d="M 794 531 
L 1825 531 
L 1825 4091 
L 703 3866 
L 703 4441 
L 1819 4666 
L 2450 4666 
L 2450 531 
L 3481 531 
L 3481 0 
L 794 0 
L 794 531 
z
" transform="scale(0.015625)"/>
       </defs>
       <use xlink:href="#DejaVuSans-31"/>
      </g>
     </g>
    </g>
    <g id="xtick_3">
     <g id="line2d_3">
      <g>
       <use xlink:href="#m5c2166ffd7" x="163.535" y="575.596875" style="stroke: #000000; stroke-width: 0.8"/>
      </g>
     </g>
     <g id="text_3">
      <!-- 2 -->
      <g transform="translate(160.35375 590.195313) scale(0.1 -0.1)">
       <defs>
        <path id="DejaVuSans-32" d="M 1228 531 
L 3431 531 
L 3431 0 
L 469 0 
L 469 531 
Q 828 903 1448 1529 
Q 2069 2156 2228 2338 
Q 2531 2678 2651 2914 
Q 2772 3150 2772 3378 
Q 2772 3750 2511 3984 
Q 2250 4219 1831 4219 
Q 1534 4219 1204 4116 
Q 875 4013 500 3803 
L 500 4441 
Q 881 4594 1212 4672 
Q 1544 4750 1819 4750 
Q 2544 4750 2975 4387 
Q 3406 4025 3406 3419 
Q 3406 3131 3298 2873 
Q 3191 2616 2906 2266 
Q 2828 2175 2409 1742 
Q 1991 1309 1228 531 
z
" transform="scale(0.015625)"/>
       </defs>
       <use xlink:href="#DejaVuSans-32"/>
      </g>
     </g>
    </g>
    <g id="xtick_4">
     <g id="line2d_4">
      <g>
       <use xlink:href="#m5c2166ffd7" x="219.335" y="575.596875" style="stroke: #000000; stroke-width: 0.8"/>
      </g>
     </g>
     <g id="text_4">
      <!-- 3 -->
      <g transform="translate(216.15375 590.195313) scale(0.1 -0.1)">
       <defs>
        <path id="DejaVuSans-33" d="M 2597 2516 
Q 3050 2419 3304 2112 
Q 3559 1806 3559 1356 
Q 3559 666 3084 287 
Q 2609 -91 1734 -91 
Q 1441 -91 1130 -33 
Q 819 25 488 141 
L 488 750 
Q 750 597 1062 519 
Q 1375 441 1716 441 
Q 2309 441 2620 675 
Q 2931 909 2931 1356 
Q 2931 1769 2642 2001 
Q 2353 2234 1838 2234 
L 1294 2234 
L 1294 2753 
L 1863 2753 
Q 2328 2753 2575 2939 
Q 2822 3125 2822 3475 
Q 2822 3834 2567 4026 
Q 2313 4219 1838 4219 
Q 1578 4219 1281 4162 
Q 984 4106 628 3988 
L 628 4550 
Q 988 4650 1302 4700 
Q 1616 4750 1894 4750 
Q 2613 4750 3031 4423 
Q 3450 4097 3450 3541 
Q 3450 3153 3228 2886 
Q 3006 2619 2597 2516 
z
" transform="scale(0.015625)"/>
       </defs>
       <use xlink:href="#DejaVuSans-33"/>
      </g>
     </g>
    </g>
    <g id="xtick_5">
     <g id="line2d_5">
      <g>
       <use xlink:href="#m5c2166ffd7" x="275.135" y="575.596875" style="stroke: #000000; stroke-width: 0.8"/>
      </g>
     </g>
     <g id="text_5">
      <!-- 4 -->
      <g transform="translate(271.95375 590.195313) scale(0.1 -0.1)">
       <defs>
        <path id="DejaVuSans-34" d="M 2419 4116 
L 825 1625 
L 2419 1625 
L 2419 4116 
z
M 2253 4666 
L 3047 4666 
L 3047 1625 
L 3713 1625 
L 3713 1100 
L 3047 1100 
L 3047 0 
L 2419 0 
L 2419 1100 
L 313 1100 
L 313 1709 
L 2253 4666 
z
" transform="scale(0.015625)"/>
       </defs>
       <use xlink:href="#DejaVuSans-34"/>
      </g>
     </g>
    </g>
    <g id="xtick_6">
     <g id="line2d_6">
      <g>
       <use xlink:href="#m5c2166ffd7" x="330.935" y="575.596875" style="stroke: #000000; stroke-width: 0.8"/>
      </g>
     </g>
     <g id="text_6">
      <!-- 5 -->
      <g transform="translate(327.75375 590.195313) scale(0.1 -0.1)">
       <defs>
        <path id="DejaVuSans-35" d="M 691 4666 
L 3169 4666 
L 3169 4134 
L 1269 4134 
L 1269 2991 
Q 1406 3038 1543 3061 
Q 1681 3084 1819 3084 
Q 2600 3084 3056 2656 
Q 3513 2228 3513 1497 
Q 3513 744 3044 326 
Q 2575 -91 1722 -91 
Q 1428 -91 1123 -41 
Q 819 9 494 109 
L 494 744 
Q 775 591 1075 516 
Q 1375 441 1709 441 
Q 2250 441 2565 725 
Q 2881 1009 2881 1497 
Q 2881 1984 2565 2268 
Q 2250 2553 1709 2553 
Q 1456 2553 1204 2497 
Q 953 2441 691 2322 
L 691 4666 
z
" transform="scale(0.015625)"/>
       </defs>
       <use xlink:href="#DejaVuSans-35"/>
      </g>
     </g>
    </g>
    <g id="xtick_7">
     <g id="line2d_7">
      <g>
       <use xlink:href="#m5c2166ffd7" x="386.735" y="575.596875" style="stroke: #000000; stroke-width: 0.8"/>
      </g>
     </g>
     <g id="text_7">
      <!-- 6 -->
      <g transform="translate(383.55375 590.195313) scale(0.1 -0.1)">
       <defs>
        <path id="DejaVuSans-36" d="M 2113 2584 
Q 1688 2584 1439 2293 
Q 1191 2003 1191 1497 
Q 1191 994 1439 701 
Q 1688 409 2113 409 
Q 2538 409 2786 701 
Q 3034 994 3034 1497 
Q 3034 2003 2786 2293 
Q 2538 2584 2113 2584 
z
M 3366 4563 
L 3366 3988 
Q 3128 4100 2886 4159 
Q 2644 4219 2406 4219 
Q 1781 4219 1451 3797 
Q 1122 3375 1075 2522 
Q 1259 2794 1537 2939 
Q 1816 3084 2150 3084 
Q 2853 3084 3261 2657 
Q 3669 2231 3669 1497 
Q 3669 778 3244 343 
Q 2819 -91 2113 -91 
Q 1303 -91 875 529 
Q 447 1150 447 2328 
Q 447 3434 972 4092 
Q 1497 4750 2381 4750 
Q 2619 4750 2861 4703 
Q 3103 4656 3366 4563 
z
" transform="scale(0.015625)"/>
       </defs>
       <use xlink:href="#DejaVuSans-36"/>
      </g>
     </g>
    </g>
    <g id="xtick_8">
     <g id="line2d_8">
      <g>
       <use xlink:href="#m5c2166ffd7" x="442.535" y="575.596875" style="stroke: #000000; stroke-width: 0.8"/>
      </g>
     </g>
     <g id="text_8">
      <!-- 7 -->
      <g transform="translate(439.35375 590.195313) scale(0.1 -0.1)">
       <defs>
        <path id="DejaVuSans-37" d="M 525 4666 
L 3525 4666 
L 3525 4397 
L 1831 0 
L 1172 0 
L 2766 4134 
L 525 4134 
L 525 4666 
z
" transform="scale(0.015625)"/>
       </defs>
       <use xlink:href="#DejaVuSans-37"/>
      </g>
     </g>
    </g>
    <g id="xtick_9">
     <g id="line2d_9">
      <g>
       <use xlink:href="#m5c2166ffd7" x="498.335" y="575.596875" style="stroke: #000000; stroke-width: 0.8"/>
      </g>
     </g>
     <g id="text_9">
      <!-- 8 -->
      <g transform="translate(495.15375 590.195313) scale(0.1 -0.1)">
       <defs>
        <path id="DejaVuSans-38" d="M 2034 2216 
Q 1584 2216 1326 1975 
Q 1069 1734 1069 1313 
Q 1069 891 1326 650 
Q 1584 409 2034 409 
Q 2484 409 2743 651 
Q 3003 894 3003 1313 
Q 3003 1734 2745 1975 
Q 2488 2216 2034 2216 
z
M 1403 2484 
Q 997 2584 770 2862 
Q 544 3141 544 3541 
Q 544 4100 942 4425 
Q 1341 4750 2034 4750 
Q 2731 4750 3128 4425 
Q 3525 4100 3525 3541 
Q 3525 3141 3298 2862 
Q 3072 2584 2669 2484 
Q 3125 2378 3379 2068 
Q 3634 1759 3634 1313 
Q 3634 634 3220 271 
Q 2806 -91 2034 -91 
Q 1263 -91 848 271 
Q 434 634 434 1313 
Q 434 1759 690 2068 
Q 947 2378 1403 2484 
z
M 1172 3481 
Q 1172 3119 1398 2916 
Q 1625 2713 2034 2713 
Q 2441 2713 2670 2916 
Q 2900 3119 2900 3481 
Q 2900 3844 2670 4047 
Q 2441 4250 2034 4250 
Q 1625 4250 1398 4047 
Q 1172 3844 1172 3481 
z
" transform="scale(0.015625)"/>
       </defs>
       <use xlink:href="#DejaVuSans-38"/>
      </g>
     </g>
    </g>
    <g id="xtick_10">
     <g id="line2d_10">
      <g>
       <use xlink:href="#m5c2166ffd7" x="554.135" y="575.596875" style="stroke: #000000; stroke-width: 0.8"/>
      </g>
     </g>
     <g id="text_10">
      <!-- 9 -->
      <g transform="translate(550.95375 590.195313) scale(0.1 -0.1)">
       <defs>
        <path id="DejaVuSans-39" d="M 703 97 
L 703 672 
Q 941 559 1184 500 
Q 1428 441 1663 441 
Q 2288 441 2617 861 
Q 2947 1281 2994 2138 
Q 2813 1869 2534 1725 
Q 2256 1581 1919 1581 
Q 1219 1581 811 2004 
Q 403 2428 403 3163 
Q 403 3881 828 4315 
Q 1253 4750 1959 4750 
Q 2769 4750 3195 4129 
Q 3622 3509 3622 2328 
Q 3622 1225 3098 567 
Q 2575 -91 1691 -91 
Q 1453 -91 1209 -44 
Q 966 3 703 97 
z
M 1959 2075 
Q 2384 2075 2632 2365 
Q 2881 2656 2881 3163 
Q 2881 3666 2632 3958 
Q 2384 4250 1959 4250 
Q 1534 4250 1286 3958 
Q 1038 3666 1038 3163 
Q 1038 2656 1286 2365 
Q 1534 2075 1959 2075 
z
" transform="scale(0.015625)"/>
       </defs>
       <use xlink:href="#DejaVuSans-39"/>
      </g>
     </g>
    </g>
    <g id="xtick_11">
     <g id="line2d_11">
      <g>
       <use xlink:href="#m5c2166ffd7" x="609.935" y="575.596875" style="stroke: #000000; stroke-width: 0.8"/>
      </g>
     </g>
     <g id="text_11">
      <!-- 10 -->
      <g transform="translate(603.5725 590.195313) scale(0.1 -0.1)">
       <use xlink:href="#DejaVuSans-31"/>
       <use xlink:href="#DejaVuSans-30" x="63.623047"/>
      </g>
     </g>
    </g>
    <g id="xtick_12">
     <g id="line2d_12">
      <g>
       <use xlink:href="#m5c2166ffd7" x="665.735" y="575.596875" style="stroke: #000000; stroke-width: 0.8"/>
      </g>
     </g>
     <g id="text_12">
      <!-- 11 -->
      <g transform="translate(659.3725 590.195313) scale(0.1 -0.1)">
       <use xlink:href="#DejaVuSans-31"/>
       <use xlink:href="#DejaVuSans-31" x="63.623047"/>
      </g>
     </g>
    </g>
    <g id="xtick_13">
     <g id="line2d_13">
      <g>
       <use xlink:href="#m5c2166ffd7" x="721.535" y="575.596875" style="stroke: #000000; stroke-width: 0.8"/>
      </g>
     </g>
     <g id="text_13">
      <!-- 12 -->
      <g transform="translate(715.1725 590.195313) scale(0.1 -0.1)">
       <use xlink:href="#DejaVuSans-31"/>
       <use xlink:href="#DejaVuSans-32" x="63.623047"/>
      </g>
     </g>
    </g>
    <g id="xtick_14">
     <g id="line2d_14">
      <g>
       <use xlink:href="#m5c2166ffd7" x="777.335" y="575.596875" style="stroke: #000000; stroke-width: 0.8"/>
      </g>
     </g>
     <g id="text_14">
      <!-- 13 -->
      <g transform="translate(770.9725 590.195313) scale(0.1 -0.1)">
       <use xlink:href="#DejaVuSans-31"/>
       <use xlink:href="#DejaVuSans-33" x="63.623047"/>
      </g>
     </g>
    </g>
    <g id="xtick_15">
     <g id="line2d_15">
      <g>
       <use xlink:href="#m5c2166ffd7" x="833.135" y="575.596875" style="stroke: #000000; stroke-width: 0.8"/>
      </g>
     </g>
     <g id="text_15">
      <!-- 14 -->
      <g transform="translate(826.7725 590.195313) scale(0.1 -0.1)">
       <use xlink:href="#DejaVuSans-31"/>
       <use xlink:href="#DejaVuSans-34" x="63.623047"/>
      </g>
     </g>
    </g>
    <g id="xtick_16">
     <g id="line2d_16">
      <g>
       <use xlink:href="#m5c2166ffd7" x="888.935" y="575.596875" style="stroke: #000000; stroke-width: 0.8"/>
      </g>
     </g>
     <g id="text_16">
      <!-- 15 -->
      <g transform="translate(882.5725 590.195313) scale(0.1 -0.1)">
       <use xlink:href="#DejaVuSans-31"/>
       <use xlink:href="#DejaVuSans-35" x="63.623047"/>
      </g>
     </g>
    </g>
    <g id="text_17">
     <!-- k -->
     <g transform="translate(465.8025 608.4325) scale(0.16 -0.16)">
      <defs>
       <path id="DejaVuSans-6b" d="M 581 4863 
L 1159 4863 
L 1159 1991 
L 2875 3500 
L 3609 3500 
L 1753 1863 
L 3688 0 
L 2938 0 
L 1159 1709 
L 1159 0 
L 581 0 
L 581 4863 
z
" transform="scale(0.015625)"/>
      </defs>
      <use xlink:href="#DejaVuSans-6b"/>
     </g>
    </g>
   </g>
   <g id="matplotlib.axis_2">
    <g id="ytick_1">
     <g id="line2d_17">
      <defs>
       <path id="m91b1e9b01f" d="M 0 0 
L -3.5 0 
" style="stroke: #000000; stroke-width: 0.8"/>
      </defs>
      <g>
       <use xlink:href="#m91b1e9b01f" x="51.935" y="517.421602" style="stroke: #000000; stroke-width: 0.8"/>
      </g>
     </g>
     <g id="text_18">
      <!-- 1000 -->
      <g transform="translate(19.485 521.22082) scale(0.1 -0.1)">
       <use xlink:href="#DejaVuSans-31"/>
       <use xlink:href="#DejaVuSans-30" x="63.623047"/>
       <use xlink:href="#DejaVuSans-30" x="127.246094"/>
       <use xlink:href="#DejaVuSans-30" x="190.869141"/>
      </g>
     </g>
    </g>
    <g id="ytick_2">
     <g id="line2d_18">
      <g>
       <use xlink:href="#m91b1e9b01f" x="51.935" y="429.464434" style="stroke: #000000; stroke-width: 0.8"/>
      </g>
     </g>
     <g id="text_19">
      <!-- 1200 -->
      <g transform="translate(19.485 433.263653) scale(0.1 -0.1)">
       <use xlink:href="#DejaVuSans-31"/>
       <use xlink:href="#DejaVuSans-32" x="63.623047"/>
       <use xlink:href="#DejaVuSans-30" x="127.246094"/>
       <use xlink:href="#DejaVuSans-30" x="190.869141"/>
      </g>
     </g>
    </g>
    <g id="ytick_3">
     <g id="line2d_19">
      <g>
       <use xlink:href="#m91b1e9b01f" x="51.935" y="341.507266" style="stroke: #000000; stroke-width: 0.8"/>
      </g>
     </g>
     <g id="text_20">
      <!-- 1400 -->
      <g transform="translate(19.485 345.306485) scale(0.1 -0.1)">
       <use xlink:href="#DejaVuSans-31"/>
       <use xlink:href="#DejaVuSans-34" x="63.623047"/>
       <use xlink:href="#DejaVuSans-30" x="127.246094"/>
       <use xlink:href="#DejaVuSans-30" x="190.869141"/>
      </g>
     </g>
    </g>
    <g id="ytick_4">
     <g id="line2d_20">
      <g>
       <use xlink:href="#m91b1e9b01f" x="51.935" y="253.550098" style="stroke: #000000; stroke-width: 0.8"/>
      </g>
     </g>
     <g id="text_21">
      <!-- 1600 -->
      <g transform="translate(19.485 257.349317) scale(0.1 -0.1)">
       <use xlink:href="#DejaVuSans-31"/>
       <use xlink:href="#DejaVuSans-36" x="63.623047"/>
       <use xlink:href="#DejaVuSans-30" x="127.246094"/>
       <use xlink:href="#DejaVuSans-30" x="190.869141"/>
      </g>
     </g>
    </g>
    <g id="ytick_5">
     <g id="line2d_21">
      <g>
       <use xlink:href="#m91b1e9b01f" x="51.935" y="165.59293" style="stroke: #000000; stroke-width: 0.8"/>
      </g>
     </g>
     <g id="text_22">
      <!-- 1800 -->
      <g transform="translate(19.485 169.392149) scale(0.1 -0.1)">
       <use xlink:href="#DejaVuSans-31"/>
       <use xlink:href="#DejaVuSans-38" x="63.623047"/>
       <use xlink:href="#DejaVuSans-30" x="127.246094"/>
       <use xlink:href="#DejaVuSans-30" x="190.869141"/>
      </g>
     </g>
    </g>
    <g id="ytick_6">
     <g id="line2d_22">
      <g>
       <use xlink:href="#m91b1e9b01f" x="51.935" y="77.635762" style="stroke: #000000; stroke-width: 0.8"/>
      </g>
     </g>
     <g id="text_23">
      <!-- 2000 -->
      <g transform="translate(19.485 81.434981) scale(0.1 -0.1)">
       <use xlink:href="#DejaVuSans-32"/>
       <use xlink:href="#DejaVuSans-30" x="63.623047"/>
       <use xlink:href="#DejaVuSans-30" x="127.246094"/>
       <use xlink:href="#DejaVuSans-30" x="190.869141"/>
      </g>
     </g>
    </g>
    <g id="text_24">
     <!-- Rating -->
     <g transform="translate(12.1575 324.185625) rotate(-90) scale(0.16 -0.16)">
      <defs>
       <path id="DejaVuSans-52" d="M 2841 2188 
Q 3044 2119 3236 1894 
Q 3428 1669 3622 1275 
L 4263 0 
L 3584 0 
L 2988 1197 
Q 2756 1666 2539 1819 
Q 2322 1972 1947 1972 
L 1259 1972 
L 1259 0 
L 628 0 
L 628 4666 
L 2053 4666 
Q 2853 4666 3247 4331 
Q 3641 3997 3641 3322 
Q 3641 2881 3436 2590 
Q 3231 2300 2841 2188 
z
M 1259 4147 
L 1259 2491 
L 2053 2491 
Q 2509 2491 2742 2702 
Q 2975 2913 2975 3322 
Q 2975 3731 2742 3939 
Q 2509 4147 2053 4147 
L 1259 4147 
z
" transform="scale(0.015625)"/>
       <path id="DejaVuSans-61" d="M 2194 1759 
Q 1497 1759 1228 1600 
Q 959 1441 959 1056 
Q 959 750 1161 570 
Q 1363 391 1709 391 
Q 2188 391 2477 730 
Q 2766 1069 2766 1631 
L 2766 1759 
L 2194 1759 
z
M 3341 1997 
L 3341 0 
L 2766 0 
L 2766 531 
Q 2569 213 2275 61 
Q 1981 -91 1556 -91 
Q 1019 -91 701 211 
Q 384 513 384 1019 
Q 384 1609 779 1909 
Q 1175 2209 1959 2209 
L 2766 2209 
L 2766 2266 
Q 2766 2663 2505 2880 
Q 2244 3097 1772 3097 
Q 1472 3097 1187 3025 
Q 903 2953 641 2809 
L 641 3341 
Q 956 3463 1253 3523 
Q 1550 3584 1831 3584 
Q 2591 3584 2966 3190 
Q 3341 2797 3341 1997 
z
" transform="scale(0.015625)"/>
       <path id="DejaVuSans-74" d="M 1172 4494 
L 1172 3500 
L 2356 3500 
L 2356 3053 
L 1172 3053 
L 1172 1153 
Q 1172 725 1289 603 
Q 1406 481 1766 481 
L 2356 481 
L 2356 0 
L 1766 0 
Q 1100 0 847 248 
Q 594 497 594 1153 
L 594 3053 
L 172 3053 
L 172 3500 
L 594 3500 
L 594 4494 
L 1172 4494 
z
" transform="scale(0.015625)"/>
       <path id="DejaVuSans-69" d="M 603 3500 
L 1178 3500 
L 1178 0 
L 603 0 
L 603 3500 
z
M 603 4863 
L 1178 4863 
L 1178 4134 
L 603 4134 
L 603 4863 
z
" transform="scale(0.015625)"/>
       <path id="DejaVuSans-6e" d="M 3513 2113 
L 3513 0 
L 2938 0 
L 2938 2094 
Q 2938 2591 2744 2837 
Q 2550 3084 2163 3084 
Q 1697 3084 1428 2787 
Q 1159 2491 1159 1978 
L 1159 0 
L 581 0 
L 581 3500 
L 1159 3500 
L 1159 2956 
Q 1366 3272 1645 3428 
Q 1925 3584 2291 3584 
Q 2894 3584 3203 3211 
Q 3513 2838 3513 2113 
z
" transform="scale(0.015625)"/>
       <path id="DejaVuSans-67" d="M 2906 1791 
Q 2906 2416 2648 2759 
Q 2391 3103 1925 3103 
Q 1463 3103 1205 2759 
Q 947 2416 947 1791 
Q 947 1169 1205 825 
Q 1463 481 1925 481 
Q 2391 481 2648 825 
Q 2906 1169 2906 1791 
z
M 3481 434 
Q 3481 -459 3084 -895 
Q 2688 -1331 1869 -1331 
Q 1566 -1331 1297 -1286 
Q 1028 -1241 775 -1147 
L 775 -588 
Q 1028 -725 1275 -790 
Q 1522 -856 1778 -856 
Q 2344 -856 2625 -561 
Q 2906 -266 2906 331 
L 2906 616 
Q 2728 306 2450 153 
Q 2172 0 1784 0 
Q 1141 0 747 490 
Q 353 981 353 1791 
Q 353 2603 747 3093 
Q 1141 3584 1784 3584 
Q 2172 3584 2450 3431 
Q 2728 3278 2906 2969 
L 2906 3500 
L 3481 3500 
L 3481 434 
z
" transform="scale(0.015625)"/>
      </defs>
      <use xlink:href="#DejaVuSans-52"/>
      <use xlink:href="#DejaVuSans-61" x="67.232422"/>
      <use xlink:href="#DejaVuSans-74" x="128.511719"/>
      <use xlink:href="#DejaVuSans-69" x="167.720703"/>
      <use xlink:href="#DejaVuSans-6e" x="195.503906"/>
      <use xlink:href="#DejaVuSans-67" x="258.882812"/>
     </g>
    </g>
   </g>
   <g id="line2d_23">
    <path d="M 51.935 210.019587 
L 107.735 250.313256 
L 163.535 300.16894 
L 219.335 302.85677 
L 275.135 303.308707 
L 330.935 303.59414 
L 386.735 307.399917 
L 442.535 311.728989 
L 498.335 312.585289 
L 554.135 316.414853 
L 609.935 284.612825 
L 665.735 264.680066 
L 721.535 250.122967 
L 777.335 216.108831 
L 833.135 187.791468 
L 888.935 196.176072 
" clip-path="url(#p9dc80c0da7)" style="fill: none; stroke: #1f77b4; stroke-width: 2; stroke-linecap: square"/>
    <defs>
     <path id="md05992066b" d="M 0 2 
C 0.530406 2 1.03916 1.789267 1.414214 1.414214 
C 1.789267 1.03916 2 0.530406 2 0 
C 2 -0.530406 1.789267 -1.03916 1.414214 -1.414214 
C 1.03916 -1.789267 0.530406 -2 0 -2 
C -0.530406 -2 -1.03916 -1.789267 -1.414214 -1.414214 
C -1.789267 -1.03916 -2 -0.530406 -2 0 
C -2 0.530406 -1.789267 1.03916 -1.414214 1.414214 
C -1.03916 1.789267 -0.530406 2 0 2 
z
" style="stroke: #1f77b4"/>
    </defs>
    <g clip-path="url(#p9dc80c0da7)">
     <use xlink:href="#md05992066b" x="51.935" y="210.019587" style="fill: #1f77b4; stroke: #1f77b4"/>
     <use xlink:href="#md05992066b" x="107.735" y="250.313256" style="fill: #1f77b4; stroke: #1f77b4"/>
     <use xlink:href="#md05992066b" x="163.535" y="300.16894" style="fill: #1f77b4; stroke: #1f77b4"/>
     <use xlink:href="#md05992066b" x="219.335" y="302.85677" style="fill: #1f77b4; stroke: #1f77b4"/>
     <use xlink:href="#md05992066b" x="275.135" y="303.308707" style="fill: #1f77b4; stroke: #1f77b4"/>
     <use xlink:href="#md05992066b" x="330.935" y="303.59414" style="fill: #1f77b4; stroke: #1f77b4"/>
     <use xlink:href="#md05992066b" x="386.735" y="307.399917" style="fill: #1f77b4; stroke: #1f77b4"/>
     <use xlink:href="#md05992066b" x="442.535" y="311.728989" style="fill: #1f77b4; stroke: #1f77b4"/>
     <use xlink:href="#md05992066b" x="498.335" y="312.585289" style="fill: #1f77b4; stroke: #1f77b4"/>
     <use xlink:href="#md05992066b" x="554.135" y="316.414853" style="fill: #1f77b4; stroke: #1f77b4"/>
     <use xlink:href="#md05992066b" x="609.935" y="284.612825" style="fill: #1f77b4; stroke: #1f77b4"/>
     <use xlink:href="#md05992066b" x="665.735" y="264.680066" style="fill: #1f77b4; stroke: #1f77b4"/>
     <use xlink:href="#md05992066b" x="721.535" y="250.122967" style="fill: #1f77b4; stroke: #1f77b4"/>
     <use xlink:href="#md05992066b" x="777.335" y="216.108831" style="fill: #1f77b4; stroke: #1f77b4"/>
     <use xlink:href="#md05992066b" x="833.135" y="187.791468" style="fill: #1f77b4; stroke: #1f77b4"/>
     <use xlink:href="#md05992066b" x="888.935" y="196.176072" style="fill: #1f77b4; stroke: #1f77b4"/>
    </g>
   </g>
   <g id="line2d_24">
    <path d="M 51.935 266.701885 
L 107.735 331.400101 
L 163.535 371.907845 
L 219.335 406.611778 
L 275.135 438.485164 
L 330.935 467.266356 
L 386.735 492.66992 
L 442.535 504.943552 
L 498.335 506.418291 
L 554.135 495.976189 
L 609.935 473.759963 
L 665.735 452.756829 
L 721.535 435.012392 
L 777.335 395.682061 
L 833.135 343.305049 
L 888.935 328.914453 
" clip-path="url(#p9dc80c0da7)" style="fill: none; stroke-dasharray: 7.4,3.2; stroke-dashoffset: 0; stroke: #ff7f0e; stroke-width: 2"/>
    <defs>
     <path id="m4334131f41" d="M -0.49999 0.49999 
L 0.50001 0.49999 
L 0.50001 -0.50001 
L -0.49999 -0.50001 
z
"/>
    </defs>
    <g clip-path="url(#p9dc80c0da7)">
     <use xlink:href="#m4334131f41" x="51.935" y="266.701885" style="fill: #ff7f0e"/>
     <use xlink:href="#m4334131f41" x="107.735" y="331.400101" style="fill: #ff7f0e"/>
     <use xlink:href="#m4334131f41" x="163.535" y="371.907845" style="fill: #ff7f0e"/>
     <use xlink:href="#m4334131f41" x="219.335" y="406.611778" style="fill: #ff7f0e"/>
     <use xlink:href="#m4334131f41" x="275.135" y="438.485164" style="fill: #ff7f0e"/>
     <use xlink:href="#m4334131f41" x="330.935" y="467.266356" style="fill: #ff7f0e"/>
     <use xlink:href="#m4334131f41" x="386.735" y="492.66992" style="fill: #ff7f0e"/>
     <use xlink:href="#m4334131f41" x="442.535" y="504.943552" style="fill: #ff7f0e"/>
     <use xlink:href="#m4334131f41" x="498.335" y="506.418291" style="fill: #ff7f0e"/>
     <use xlink:href="#m4334131f41" x="554.135" y="495.976189" style="fill: #ff7f0e"/>
     <use xlink:href="#m4334131f41" x="609.935" y="473.759963" style="fill: #ff7f0e"/>
     <use xlink:href="#m4334131f41" x="665.735" y="452.756829" style="fill: #ff7f0e"/>
     <use xlink:href="#m4334131f41" x="721.535" y="435.012392" style="fill: #ff7f0e"/>
     <use xlink:href="#m4334131f41" x="777.335" y="395.682061" style="fill: #ff7f0e"/>
     <use xlink:href="#m4334131f41" x="833.135" y="343.305049" style="fill: #ff7f0e"/>
     <use xlink:href="#m4334131f41" x="888.935" y="328.914453" style="fill: #ff7f0e"/>
    </g>
   </g>
   <g id="line2d_25">
    <path d="M 51.935 296.053943 
L 107.735 189.991683 
L 163.535 147.366976 
L 219.335 113.447985 
L 275.135 97.273431 
L 330.935 92.968145 
L 386.735 92.825428 
L 442.535 99.985047 
L 498.335 115.517376 
L 554.135 136.924874 
L 609.935 150.399705 
L 665.735 160.520694 
L 721.535 187.232495 
L 777.335 225.25459 
L 833.135 278.511688 
L 888.935 350.524133 
" clip-path="url(#p9dc80c0da7)" style="fill: none; stroke-dasharray: 12.8,3.2,2,3.2; stroke-dashoffset: 0; stroke: #2ca02c; stroke-width: 2"/>
    <defs>
     <path id="m86e5b70cd7" d="M 0 4 
C 1.060812 4 2.078319 3.578535 2.828427 2.828427 
C 3.578535 2.078319 4 1.060812 4 0 
C 4 -1.060812 3.578535 -2.078319 2.828427 -2.828427 
C 2.078319 -3.578535 1.060812 -4 0 -4 
C -1.060812 -4 -2.078319 -3.578535 -2.828427 -2.828427 
C -3.578535 -2.078319 -4 -1.060812 -4 0 
C -4 1.060812 -3.578535 2.078319 -2.828427 2.828427 
C -2.078319 3.578535 -1.060812 4 0 4 
z
" style="stroke: #2ca02c"/>
    </defs>
    <g clip-path="url(#p9dc80c0da7)">
     <use xlink:href="#m86e5b70cd7" x="51.935" y="296.053943" style="fill: #2ca02c; stroke: #2ca02c"/>
     <use xlink:href="#m86e5b70cd7" x="107.735" y="189.991683" style="fill: #2ca02c; stroke: #2ca02c"/>
     <use xlink:href="#m86e5b70cd7" x="163.535" y="147.366976" style="fill: #2ca02c; stroke: #2ca02c"/>
     <use xlink:href="#m86e5b70cd7" x="219.335" y="113.447985" style="fill: #2ca02c; stroke: #2ca02c"/>
     <use xlink:href="#m86e5b70cd7" x="275.135" y="97.273431" style="fill: #2ca02c; stroke: #2ca02c"/>
     <use xlink:href="#m86e5b70cd7" x="330.935" y="92.968145" style="fill: #2ca02c; stroke: #2ca02c"/>
     <use xlink:href="#m86e5b70cd7" x="386.735" y="92.825428" style="fill: #2ca02c; stroke: #2ca02c"/>
     <use xlink:href="#m86e5b70cd7" x="442.535" y="99.985047" style="fill: #2ca02c; stroke: #2ca02c"/>
     <use xlink:href="#m86e5b70cd7" x="498.335" y="115.517376" style="fill: #2ca02c; stroke: #2ca02c"/>
     <use xlink:href="#m86e5b70cd7" x="554.135" y="136.924874" style="fill: #2ca02c; stroke: #2ca02c"/>
     <use xlink:href="#m86e5b70cd7" x="609.935" y="150.399705" style="fill: #2ca02c; stroke: #2ca02c"/>
     <use xlink:href="#m86e5b70cd7" x="665.735" y="160.520694" style="fill: #2ca02c; stroke: #2ca02c"/>
     <use xlink:href="#m86e5b70cd7" x="721.535" y="187.232495" style="fill: #2ca02c; stroke: #2ca02c"/>
     <use xlink:href="#m86e5b70cd7" x="777.335" y="225.25459" style="fill: #2ca02c; stroke: #2ca02c"/>
     <use xlink:href="#m86e5b70cd7" x="833.135" y="278.511688" style="fill: #2ca02c; stroke: #2ca02c"/>
     <use xlink:href="#m86e5b70cd7" x="888.935" y="350.524133" style="fill: #2ca02c; stroke: #2ca02c"/>
    </g>
   </g>
   <g id="line2d_26">
    <path d="M 51.935 312.918295 
L 107.735 301.405818 
L 163.535 285.849703 
L 219.335 298.670415 
L 275.135 311.491128 
L 330.935 325.667649 
L 386.735 341.699486 
L 442.535 349.192111 
L 498.335 351.475577 
L 554.135 357.541035 
L 609.935 359.991004 
L 665.735 366.294323 
L 721.535 375.39251 
L 777.335 392.161717 
L 833.135 374.357814 
L 888.935 196.806404 
" clip-path="url(#p9dc80c0da7)" style="fill: none; stroke-dasharray: 2,3.3; stroke-dashoffset: 0; stroke: #d62728; stroke-width: 2"/>
    <defs>
     <path id="m69db28318f" d="M -0 4 
L 4 -4 
L -4 -4 
z
" style="stroke: #d62728; stroke-linejoin: miter"/>
    </defs>
    <g clip-path="url(#p9dc80c0da7)">
     <use xlink:href="#m69db28318f" x="51.935" y="312.918295" style="fill: #d62728; stroke: #d62728; stroke-linejoin: miter"/>
     <use xlink:href="#m69db28318f" x="107.735" y="301.405818" style="fill: #d62728; stroke: #d62728; stroke-linejoin: miter"/>
     <use xlink:href="#m69db28318f" x="163.535" y="285.849703" style="fill: #d62728; stroke: #d62728; stroke-linejoin: miter"/>
     <use xlink:href="#m69db28318f" x="219.335" y="298.670415" style="fill: #d62728; stroke: #d62728; stroke-linejoin: miter"/>
     <use xlink:href="#m69db28318f" x="275.135" y="311.491128" style="fill: #d62728; stroke: #d62728; stroke-linejoin: miter"/>
     <use xlink:href="#m69db28318f" x="330.935" y="325.667649" style="fill: #d62728; stroke: #d62728; stroke-linejoin: miter"/>
     <use xlink:href="#m69db28318f" x="386.735" y="341.699486" style="fill: #d62728; stroke: #d62728; stroke-linejoin: miter"/>
     <use xlink:href="#m69db28318f" x="442.535" y="349.192111" style="fill: #d62728; stroke: #d62728; stroke-linejoin: miter"/>
     <use xlink:href="#m69db28318f" x="498.335" y="351.475577" style="fill: #d62728; stroke: #d62728; stroke-linejoin: miter"/>
     <use xlink:href="#m69db28318f" x="554.135" y="357.541035" style="fill: #d62728; stroke: #d62728; stroke-linejoin: miter"/>
     <use xlink:href="#m69db28318f" x="609.935" y="359.991004" style="fill: #d62728; stroke: #d62728; stroke-linejoin: miter"/>
     <use xlink:href="#m69db28318f" x="665.735" y="366.294323" style="fill: #d62728; stroke: #d62728; stroke-linejoin: miter"/>
     <use xlink:href="#m69db28318f" x="721.535" y="375.39251" style="fill: #d62728; stroke: #d62728; stroke-linejoin: miter"/>
     <use xlink:href="#m69db28318f" x="777.335" y="392.161717" style="fill: #d62728; stroke: #d62728; stroke-linejoin: miter"/>
     <use xlink:href="#m69db28318f" x="833.135" y="374.357814" style="fill: #d62728; stroke: #d62728; stroke-linejoin: miter"/>
     <use xlink:href="#m69db28318f" x="888.935" y="196.806404" style="fill: #d62728; stroke: #d62728; stroke-linejoin: miter"/>
    </g>
   </g>
   <g id="line2d_27">
    <path d="M 51.935 217.512211 
L 107.735 153.384862 
L 163.535 122.03477 
L 219.335 127.220142 
L 275.135 125.555114 
L 330.935 123.01 
L 386.735 120.821678 
L 442.535 113.852348 
L 498.335 103.005883 
L 554.135 90.375459 
L 609.935 90.518176 
L 665.735 94.538028 
L 721.535 102.030652 
L 777.335 114.411322 
L 833.135 147.807019 
L 888.935 196.033355 
" clip-path="url(#p9dc80c0da7)" style="fill: none; stroke: #9467bd; stroke-width: 2; stroke-linecap: square"/>
    <defs>
     <path id="m1ec433def1" d="M 0 -4 
L -4 4 
L 4 4 
z
" style="stroke: #9467bd; stroke-linejoin: miter"/>
    </defs>
    <g clip-path="url(#p9dc80c0da7)">
     <use xlink:href="#m1ec433def1" x="51.935" y="217.512211" style="fill: #9467bd; stroke: #9467bd; stroke-linejoin: miter"/>
     <use xlink:href="#m1ec433def1" x="107.735" y="153.384862" style="fill: #9467bd; stroke: #9467bd; stroke-linejoin: miter"/>
     <use xlink:href="#m1ec433def1" x="163.535" y="122.03477" style="fill: #9467bd; stroke: #9467bd; stroke-linejoin: miter"/>
     <use xlink:href="#m1ec433def1" x="219.335" y="127.220142" style="fill: #9467bd; stroke: #9467bd; stroke-linejoin: miter"/>
     <use xlink:href="#m1ec433def1" x="275.135" y="125.555114" style="fill: #9467bd; stroke: #9467bd; stroke-linejoin: miter"/>
     <use xlink:href="#m1ec433def1" x="330.935" y="123.01" style="fill: #9467bd; stroke: #9467bd; stroke-linejoin: miter"/>
     <use xlink:href="#m1ec433def1" x="386.735" y="120.821678" style="fill: #9467bd; stroke: #9467bd; stroke-linejoin: miter"/>
     <use xlink:href="#m1ec433def1" x="442.535" y="113.852348" style="fill: #9467bd; stroke: #9467bd; stroke-linejoin: miter"/>
     <use xlink:href="#m1ec433def1" x="498.335" y="103.005883" style="fill: #9467bd; stroke: #9467bd; stroke-linejoin: miter"/>
     <use xlink:href="#m1ec433def1" x="554.135" y="90.375459" style="fill: #9467bd; stroke: #9467bd; stroke-linejoin: miter"/>
     <use xlink:href="#m1ec433def1" x="609.935" y="90.518176" style="fill: #9467bd; stroke: #9467bd; stroke-linejoin: miter"/>
     <use xlink:href="#m1ec433def1" x="665.735" y="94.538028" style="fill: #9467bd; stroke: #9467bd; stroke-linejoin: miter"/>
     <use xlink:href="#m1ec433def1" x="721.535" y="102.030652" style="fill: #9467bd; stroke: #9467bd; stroke-linejoin: miter"/>
     <use xlink:href="#m1ec433def1" x="777.335" y="114.411322" style="fill: #9467bd; stroke: #9467bd; stroke-linejoin: miter"/>
     <use xlink:href="#m1ec433def1" x="833.135" y="147.807019" style="fill: #9467bd; stroke: #9467bd; stroke-linejoin: miter"/>
     <use xlink:href="#m1ec433def1" x="888.935" y="196.033355" style="fill: #9467bd; stroke: #9467bd; stroke-linejoin: miter"/>
    </g>
   </g>
   <g id="line2d_28">
    <path d="M 51.935 244.675948 
L 107.735 272.125118 
L 163.535 269.413501 
L 219.335 249.290453 
L 275.135 234.947429 
L 330.935 231.022721 
L 386.735 235.61344 
L 442.535 243.272567 
L 498.335 254.190391 
L 554.135 254.547183 
L 609.935 261.266759 
L 665.735 247.625425 
L 721.535 231.569802 
L 777.335 223.494418 
L 833.135 229.571769 
L 888.935 240.727454 
" clip-path="url(#p9dc80c0da7)" style="fill: none; stroke-dasharray: 7.4,3.2; stroke-dashoffset: 0; stroke: #8c564b; stroke-width: 2"/>
    <defs>
     <path id="me021ae74ba" d="M -4 -0 
L 4 4 
L 4 -4 
z
" style="stroke: #8c564b; stroke-linejoin: miter"/>
    </defs>
    <g clip-path="url(#p9dc80c0da7)">
     <use xlink:href="#me021ae74ba" x="51.935" y="244.675948" style="fill: #8c564b; stroke: #8c564b; stroke-linejoin: miter"/>
     <use xlink:href="#me021ae74ba" x="107.735" y="272.125118" style="fill: #8c564b; stroke: #8c564b; stroke-linejoin: miter"/>
     <use xlink:href="#me021ae74ba" x="163.535" y="269.413501" style="fill: #8c564b; stroke: #8c564b; stroke-linejoin: miter"/>
     <use xlink:href="#me021ae74ba" x="219.335" y="249.290453" style="fill: #8c564b; stroke: #8c564b; stroke-linejoin: miter"/>
     <use xlink:href="#me021ae74ba" x="275.135" y="234.947429" style="fill: #8c564b; stroke: #8c564b; stroke-linejoin: miter"/>
     <use xlink:href="#me021ae74ba" x="330.935" y="231.022721" style="fill: #8c564b; stroke: #8c564b; stroke-linejoin: miter"/>
     <use xlink:href="#me021ae74ba" x="386.735" y="235.61344" style="fill: #8c564b; stroke: #8c564b; stroke-linejoin: miter"/>
     <use xlink:href="#me021ae74ba" x="442.535" y="243.272567" style="fill: #8c564b; stroke: #8c564b; stroke-linejoin: miter"/>
     <use xlink:href="#me021ae74ba" x="498.335" y="254.190391" style="fill: #8c564b; stroke: #8c564b; stroke-linejoin: miter"/>
     <use xlink:href="#me021ae74ba" x="554.135" y="254.547183" style="fill: #8c564b; stroke: #8c564b; stroke-linejoin: miter"/>
     <use xlink:href="#me021ae74ba" x="609.935" y="261.266759" style="fill: #8c564b; stroke: #8c564b; stroke-linejoin: miter"/>
     <use xlink:href="#me021ae74ba" x="665.735" y="247.625425" style="fill: #8c564b; stroke: #8c564b; stroke-linejoin: miter"/>
     <use xlink:href="#me021ae74ba" x="721.535" y="231.569802" style="fill: #8c564b; stroke: #8c564b; stroke-linejoin: miter"/>
     <use xlink:href="#me021ae74ba" x="777.335" y="223.494418" style="fill: #8c564b; stroke: #8c564b; stroke-linejoin: miter"/>
     <use xlink:href="#me021ae74ba" x="833.135" y="229.571769" style="fill: #8c564b; stroke: #8c564b; stroke-linejoin: miter"/>
     <use xlink:href="#me021ae74ba" x="888.935" y="240.727454" style="fill: #8c564b; stroke: #8c564b; stroke-linejoin: miter"/>
    </g>
   </g>
   <g id="line2d_29">
    <path d="M 51.935 306.686334 
L 107.735 325.406002 
L 163.535 332.660765 
L 219.335 342.888792 
L 275.135 362.107968 
L 330.935 375.047611 
L 386.735 387.130955 
L 442.535 397.43034 
L 498.335 403.614728 
L 554.135 407.801083 
L 609.935 407.372933 
L 665.735 390.960518 
L 721.535 386.274655 
L 777.335 364.84337 
L 833.135 305.175916 
L 888.935 314.416819 
" clip-path="url(#p9dc80c0da7)" style="fill: none; stroke-dasharray: 12.8,3.2,2,3.2; stroke-dashoffset: 0; stroke: #e377c2; stroke-width: 2"/>
    <defs>
     <path id="m56ba1f44a4" d="M 4 0 
L -4 -4 
L -4 4 
z
" style="stroke: #e377c2; stroke-linejoin: miter"/>
    </defs>
    <g clip-path="url(#p9dc80c0da7)">
     <use xlink:href="#m56ba1f44a4" x="51.935" y="306.686334" style="fill: #e377c2; stroke: #e377c2; stroke-linejoin: miter"/>
     <use xlink:href="#m56ba1f44a4" x="107.735" y="325.406002" style="fill: #e377c2; stroke: #e377c2; stroke-linejoin: miter"/>
     <use xlink:href="#m56ba1f44a4" x="163.535" y="332.660765" style="fill: #e377c2; stroke: #e377c2; stroke-linejoin: miter"/>
     <use xlink:href="#m56ba1f44a4" x="219.335" y="342.888792" style="fill: #e377c2; stroke: #e377c2; stroke-linejoin: miter"/>
     <use xlink:href="#m56ba1f44a4" x="275.135" y="362.107968" style="fill: #e377c2; stroke: #e377c2; stroke-linejoin: miter"/>
     <use xlink:href="#m56ba1f44a4" x="330.935" y="375.047611" style="fill: #e377c2; stroke: #e377c2; stroke-linejoin: miter"/>
     <use xlink:href="#m56ba1f44a4" x="386.735" y="387.130955" style="fill: #e377c2; stroke: #e377c2; stroke-linejoin: miter"/>
     <use xlink:href="#m56ba1f44a4" x="442.535" y="397.43034" style="fill: #e377c2; stroke: #e377c2; stroke-linejoin: miter"/>
     <use xlink:href="#m56ba1f44a4" x="498.335" y="403.614728" style="fill: #e377c2; stroke: #e377c2; stroke-linejoin: miter"/>
     <use xlink:href="#m56ba1f44a4" x="554.135" y="407.801083" style="fill: #e377c2; stroke: #e377c2; stroke-linejoin: miter"/>
     <use xlink:href="#m56ba1f44a4" x="609.935" y="407.372933" style="fill: #e377c2; stroke: #e377c2; stroke-linejoin: miter"/>
     <use xlink:href="#m56ba1f44a4" x="665.735" y="390.960518" style="fill: #e377c2; stroke: #e377c2; stroke-linejoin: miter"/>
     <use xlink:href="#m56ba1f44a4" x="721.535" y="386.274655" style="fill: #e377c2; stroke: #e377c2; stroke-linejoin: miter"/>
     <use xlink:href="#m56ba1f44a4" x="777.335" y="364.84337" style="fill: #e377c2; stroke: #e377c2; stroke-linejoin: miter"/>
     <use xlink:href="#m56ba1f44a4" x="833.135" y="305.175916" style="fill: #e377c2; stroke: #e377c2; stroke-linejoin: miter"/>
     <use xlink:href="#m56ba1f44a4" x="888.935" y="314.416819" style="fill: #e377c2; stroke: #e377c2; stroke-linejoin: miter"/>
    </g>
   </g>
   <g id="line2d_30">
    <path d="M 51.935 484.796718 
L 107.735 479.46863 
L 163.535 461.533903 
L 219.335 442.90938 
L 275.135 422.167893 
L 330.935 388.962485 
L 386.735 341.651914 
L 442.535 304.188793 
L 498.335 286.943864 
L 554.135 283.590022 
L 609.935 305.568387 
L 665.735 318.008522 
L 721.535 350.821459 
L 777.335 377.307292 
L 833.135 423.190696 
L 888.935 441.125422 
" clip-path="url(#p9dc80c0da7)" style="fill: none; stroke-dasharray: 2,3.3; stroke-dashoffset: 0; stroke: #bcbd22; stroke-width: 2"/>
    <defs>
     <path id="m11288b4791" d="M -4 4 
L 4 4 
L 4 -4 
L -4 -4 
z
" style="stroke: #bcbd22; stroke-linejoin: miter"/>
    </defs>
    <g clip-path="url(#p9dc80c0da7)">
     <use xlink:href="#m11288b4791" x="51.935" y="484.796718" style="fill: #bcbd22; stroke: #bcbd22; stroke-linejoin: miter"/>
     <use xlink:href="#m11288b4791" x="107.735" y="479.46863" style="fill: #bcbd22; stroke: #bcbd22; stroke-linejoin: miter"/>
     <use xlink:href="#m11288b4791" x="163.535" y="461.533903" style="fill: #bcbd22; stroke: #bcbd22; stroke-linejoin: miter"/>
     <use xlink:href="#m11288b4791" x="219.335" y="442.90938" style="fill: #bcbd22; stroke: #bcbd22; stroke-linejoin: miter"/>
     <use xlink:href="#m11288b4791" x="275.135" y="422.167893" style="fill: #bcbd22; stroke: #bcbd22; stroke-linejoin: miter"/>
     <use xlink:href="#m11288b4791" x="330.935" y="388.962485" style="fill: #bcbd22; stroke: #bcbd22; stroke-linejoin: miter"/>
     <use xlink:href="#m11288b4791" x="386.735" y="341.651914" style="fill: #bcbd22; stroke: #bcbd22; stroke-linejoin: miter"/>
     <use xlink:href="#m11288b4791" x="442.535" y="304.188793" style="fill: #bcbd22; stroke: #bcbd22; stroke-linejoin: miter"/>
     <use xlink:href="#m11288b4791" x="498.335" y="286.943864" style="fill: #bcbd22; stroke: #bcbd22; stroke-linejoin: miter"/>
     <use xlink:href="#m11288b4791" x="554.135" y="283.590022" style="fill: #bcbd22; stroke: #bcbd22; stroke-linejoin: miter"/>
     <use xlink:href="#m11288b4791" x="609.935" y="305.568387" style="fill: #bcbd22; stroke: #bcbd22; stroke-linejoin: miter"/>
     <use xlink:href="#m11288b4791" x="665.735" y="318.008522" style="fill: #bcbd22; stroke: #bcbd22; stroke-linejoin: miter"/>
     <use xlink:href="#m11288b4791" x="721.535" y="350.821459" style="fill: #bcbd22; stroke: #bcbd22; stroke-linejoin: miter"/>
     <use xlink:href="#m11288b4791" x="777.335" y="377.307292" style="fill: #bcbd22; stroke: #bcbd22; stroke-linejoin: miter"/>
     <use xlink:href="#m11288b4791" x="833.135" y="423.190696" style="fill: #bcbd22; stroke: #bcbd22; stroke-linejoin: miter"/>
     <use xlink:href="#m11288b4791" x="888.935" y="441.125422" style="fill: #bcbd22; stroke: #bcbd22; stroke-linejoin: miter"/>
    </g>
   </g>
   <g id="line2d_31">
    <path d="M 51.935 338.393217 
L 107.735 374.26267 
L 163.535 386.821735 
L 219.335 393.862423 
L 275.135 382.421305 
L 330.935 370.219031 
L 386.735 357.945399 
L 442.535 353.164391 
L 498.335 344.006739 
L 554.135 334.58744 
L 609.935 344.268386 
L 665.735 382.373733 
L 721.535 359.301207 
L 777.335 368.494538 
L 833.135 388.04672 
L 888.935 413.034027 
" clip-path="url(#p9dc80c0da7)" style="fill: none; stroke: #17becf; stroke-width: 2; stroke-linecap: square"/>
    <defs>
     <path id="m2a4e4efcda" d="M 0 -4 
L -3.804226 -1.236068 
L -2.351141 3.236068 
L 2.351141 3.236068 
L 3.804226 -1.236068 
z
" style="stroke: #17becf; stroke-linejoin: miter"/>
    </defs>
    <g clip-path="url(#p9dc80c0da7)">
     <use xlink:href="#m2a4e4efcda" x="51.935" y="338.393217" style="fill: #17becf; stroke: #17becf; stroke-linejoin: miter"/>
     <use xlink:href="#m2a4e4efcda" x="107.735" y="374.26267" style="fill: #17becf; stroke: #17becf; stroke-linejoin: miter"/>
     <use xlink:href="#m2a4e4efcda" x="163.535" y="386.821735" style="fill: #17becf; stroke: #17becf; stroke-linejoin: miter"/>
     <use xlink:href="#m2a4e4efcda" x="219.335" y="393.862423" style="fill: #17becf; stroke: #17becf; stroke-linejoin: miter"/>
     <use xlink:href="#m2a4e4efcda" x="275.135" y="382.421305" style="fill: #17becf; stroke: #17becf; stroke-linejoin: miter"/>
     <use xlink:href="#m2a4e4efcda" x="330.935" y="370.219031" style="fill: #17becf; stroke: #17becf; stroke-linejoin: miter"/>
     <use xlink:href="#m2a4e4efcda" x="386.735" y="357.945399" style="fill: #17becf; stroke: #17becf; stroke-linejoin: miter"/>
     <use xlink:href="#m2a4e4efcda" x="442.535" y="353.164391" style="fill: #17becf; stroke: #17becf; stroke-linejoin: miter"/>
     <use xlink:href="#m2a4e4efcda" x="498.335" y="344.006739" style="fill: #17becf; stroke: #17becf; stroke-linejoin: miter"/>
     <use xlink:href="#m2a4e4efcda" x="554.135" y="334.58744" style="fill: #17becf; stroke: #17becf; stroke-linejoin: miter"/>
     <use xlink:href="#m2a4e4efcda" x="609.935" y="344.268386" style="fill: #17becf; stroke: #17becf; stroke-linejoin: miter"/>
     <use xlink:href="#m2a4e4efcda" x="665.735" y="382.373733" style="fill: #17becf; stroke: #17becf; stroke-linejoin: miter"/>
     <use xlink:href="#m2a4e4efcda" x="721.535" y="359.301207" style="fill: #17becf; stroke: #17becf; stroke-linejoin: miter"/>
     <use xlink:href="#m2a4e4efcda" x="777.335" y="368.494538" style="fill: #17becf; stroke: #17becf; stroke-linejoin: miter"/>
     <use xlink:href="#m2a4e4efcda" x="833.135" y="388.04672" style="fill: #17becf; stroke: #17becf; stroke-linejoin: miter"/>
     <use xlink:href="#m2a4e4efcda" x="888.935" y="413.034027" style="fill: #17becf; stroke: #17becf; stroke-linejoin: miter"/>
    </g>
   </g>
   <g id="line2d_32">
    <path d="M 51.935 575.596875 
L 51.935 21.196875 
" clip-path="url(#p9dc80c0da7)" style="fill: none; stroke-dasharray: 3.7,1.6; stroke-dashoffset: 0; stroke: #000000; stroke-opacity: 0.5"/>
   </g>
   <g id="line2d_33">
    <path d="M 107.735 575.596875 
L 107.735 21.196875 
" clip-path="url(#p9dc80c0da7)" style="fill: none; stroke-dasharray: 3.7,1.6; stroke-dashoffset: 0; stroke: #000000; stroke-opacity: 0.5"/>
   </g>
   <g id="line2d_34">
    <path d="M 163.535 575.596875 
L 163.535 21.196875 
" clip-path="url(#p9dc80c0da7)" style="fill: none; stroke-dasharray: 3.7,1.6; stroke-dashoffset: 0; stroke: #000000; stroke-opacity: 0.5"/>
   </g>
   <g id="line2d_35">
    <path d="M 219.335 575.596875 
L 219.335 21.196875 
" clip-path="url(#p9dc80c0da7)" style="fill: none; stroke-dasharray: 3.7,1.6; stroke-dashoffset: 0; stroke: #000000; stroke-opacity: 0.5"/>
   </g>
   <g id="line2d_36">
    <path d="M 275.135 575.596875 
L 275.135 21.196875 
" clip-path="url(#p9dc80c0da7)" style="fill: none; stroke-dasharray: 3.7,1.6; stroke-dashoffset: 0; stroke: #000000; stroke-opacity: 0.5"/>
   </g>
   <g id="line2d_37">
    <path d="M 330.935 575.596875 
L 330.935 21.196875 
" clip-path="url(#p9dc80c0da7)" style="fill: none; stroke-dasharray: 3.7,1.6; stroke-dashoffset: 0; stroke: #000000; stroke-opacity: 0.5"/>
   </g>
   <g id="line2d_38">
    <path d="M 386.735 575.596875 
L 386.735 21.196875 
" clip-path="url(#p9dc80c0da7)" style="fill: none; stroke-dasharray: 3.7,1.6; stroke-dashoffset: 0; stroke: #000000; stroke-opacity: 0.5"/>
   </g>
   <g id="line2d_39">
    <path d="M 442.535 575.596875 
L 442.535 21.196875 
" clip-path="url(#p9dc80c0da7)" style="fill: none; stroke-dasharray: 3.7,1.6; stroke-dashoffset: 0; stroke: #000000; stroke-opacity: 0.5"/>
   </g>
   <g id="line2d_40">
    <path d="M 498.335 575.596875 
L 498.335 21.196875 
" clip-path="url(#p9dc80c0da7)" style="fill: none; stroke-dasharray: 3.7,1.6; stroke-dashoffset: 0; stroke: #000000; stroke-opacity: 0.5"/>
   </g>
   <g id="line2d_41">
    <path d="M 554.135 575.596875 
L 554.135 21.196875 
" clip-path="url(#p9dc80c0da7)" style="fill: none; stroke-dasharray: 3.7,1.6; stroke-dashoffset: 0; stroke: #000000; stroke-opacity: 0.5"/>
   </g>
   <g id="line2d_42">
    <path d="M 609.935 575.596875 
L 609.935 21.196875 
" clip-path="url(#p9dc80c0da7)" style="fill: none; stroke-dasharray: 3.7,1.6; stroke-dashoffset: 0; stroke: #000000; stroke-opacity: 0.5"/>
   </g>
   <g id="line2d_43">
    <path d="M 665.735 575.596875 
L 665.735 21.196875 
" clip-path="url(#p9dc80c0da7)" style="fill: none; stroke-dasharray: 3.7,1.6; stroke-dashoffset: 0; stroke: #000000; stroke-opacity: 0.5"/>
   </g>
   <g id="line2d_44">
    <path d="M 721.535 575.596875 
L 721.535 21.196875 
" clip-path="url(#p9dc80c0da7)" style="fill: none; stroke-dasharray: 3.7,1.6; stroke-dashoffset: 0; stroke: #000000; stroke-opacity: 0.5"/>
   </g>
   <g id="line2d_45">
    <path d="M 777.335 575.596875 
L 777.335 21.196875 
" clip-path="url(#p9dc80c0da7)" style="fill: none; stroke-dasharray: 3.7,1.6; stroke-dashoffset: 0; stroke: #000000; stroke-opacity: 0.5"/>
   </g>
   <g id="line2d_46">
    <path d="M 833.135 575.596875 
L 833.135 21.196875 
" clip-path="url(#p9dc80c0da7)" style="fill: none; stroke-dasharray: 3.7,1.6; stroke-dashoffset: 0; stroke: #000000; stroke-opacity: 0.5"/>
   </g>
   <g id="line2d_47">
    <path d="M 888.935 575.596875 
L 888.935 21.196875 
" clip-path="url(#p9dc80c0da7)" style="fill: none; stroke-dasharray: 3.7,1.6; stroke-dashoffset: 0; stroke: #000000; stroke-opacity: 0.5"/>
   </g>
   <g id="patch_3">
    <path d="M 51.935 575.596875 
L 51.935 21.196875 
" style="fill: none; stroke: #000000; stroke-width: 0.8; stroke-linejoin: miter; stroke-linecap: square"/>
   </g>
   <g id="patch_4">
    <path d="M 888.935 575.596875 
L 888.935 21.196875 
" style="fill: none; stroke: #000000; stroke-width: 0.8; stroke-linejoin: miter; stroke-linecap: square"/>
   </g>
   <g id="patch_5">
    <path d="M 51.935 575.596875 
L 888.935 575.596875 
" style="fill: none; stroke: #000000; stroke-width: 0.8; stroke-linejoin: miter; stroke-linecap: square"/>
   </g>
   <g id="patch_6">
    <path d="M 51.935 21.196875 
L 888.935 21.196875 
" style="fill: none; stroke: #000000; stroke-width: 0.8; stroke-linejoin: miter; stroke-linecap: square"/>
   </g>
   <g id="text_25">
    <!-- CEC 2017 Non-Shifted Rating Interval bands -->
    <g transform="translate(249.12875 15.196875) scale(0.2 -0.2)">
     <defs>
      <path id="DejaVuSans-43" d="M 4122 4306 
L 4122 3641 
Q 3803 3938 3442 4084 
Q 3081 4231 2675 4231 
Q 1875 4231 1450 3742 
Q 1025 3253 1025 2328 
Q 1025 1406 1450 917 
Q 1875 428 2675 428 
Q 3081 428 3442 575 
Q 3803 722 4122 1019 
L 4122 359 
Q 3791 134 3420 21 
Q 3050 -91 2638 -91 
Q 1578 -91 968 557 
Q 359 1206 359 2328 
Q 359 3453 968 4101 
Q 1578 4750 2638 4750 
Q 3056 4750 3426 4639 
Q 3797 4528 4122 4306 
z
" transform="scale(0.015625)"/>
      <path id="DejaVuSans-45" d="M 628 4666 
L 3578 4666 
L 3578 4134 
L 1259 4134 
L 1259 2753 
L 3481 2753 
L 3481 2222 
L 1259 2222 
L 1259 531 
L 3634 531 
L 3634 0 
L 628 0 
L 628 4666 
z
" transform="scale(0.015625)"/>
      <path id="DejaVuSans-20" transform="scale(0.015625)"/>
      <path id="DejaVuSans-4e" d="M 628 4666 
L 1478 4666 
L 3547 763 
L 3547 4666 
L 4159 4666 
L 4159 0 
L 3309 0 
L 1241 3903 
L 1241 0 
L 628 0 
L 628 4666 
z
" transform="scale(0.015625)"/>
      <path id="DejaVuSans-6f" d="M 1959 3097 
Q 1497 3097 1228 2736 
Q 959 2375 959 1747 
Q 959 1119 1226 758 
Q 1494 397 1959 397 
Q 2419 397 2687 759 
Q 2956 1122 2956 1747 
Q 2956 2369 2687 2733 
Q 2419 3097 1959 3097 
z
M 1959 3584 
Q 2709 3584 3137 3096 
Q 3566 2609 3566 1747 
Q 3566 888 3137 398 
Q 2709 -91 1959 -91 
Q 1206 -91 779 398 
Q 353 888 353 1747 
Q 353 2609 779 3096 
Q 1206 3584 1959 3584 
z
" transform="scale(0.015625)"/>
      <path id="DejaVuSans-2d" d="M 313 2009 
L 1997 2009 
L 1997 1497 
L 313 1497 
L 313 2009 
z
" transform="scale(0.015625)"/>
      <path id="DejaVuSans-53" d="M 3425 4513 
L 3425 3897 
Q 3066 4069 2747 4153 
Q 2428 4238 2131 4238 
Q 1616 4238 1336 4038 
Q 1056 3838 1056 3469 
Q 1056 3159 1242 3001 
Q 1428 2844 1947 2747 
L 2328 2669 
Q 3034 2534 3370 2195 
Q 3706 1856 3706 1288 
Q 3706 609 3251 259 
Q 2797 -91 1919 -91 
Q 1588 -91 1214 -16 
Q 841 59 441 206 
L 441 856 
Q 825 641 1194 531 
Q 1563 422 1919 422 
Q 2459 422 2753 634 
Q 3047 847 3047 1241 
Q 3047 1584 2836 1778 
Q 2625 1972 2144 2069 
L 1759 2144 
Q 1053 2284 737 2584 
Q 422 2884 422 3419 
Q 422 4038 858 4394 
Q 1294 4750 2059 4750 
Q 2388 4750 2728 4690 
Q 3069 4631 3425 4513 
z
" transform="scale(0.015625)"/>
      <path id="DejaVuSans-68" d="M 3513 2113 
L 3513 0 
L 2938 0 
L 2938 2094 
Q 2938 2591 2744 2837 
Q 2550 3084 2163 3084 
Q 1697 3084 1428 2787 
Q 1159 2491 1159 1978 
L 1159 0 
L 581 0 
L 581 4863 
L 1159 4863 
L 1159 2956 
Q 1366 3272 1645 3428 
Q 1925 3584 2291 3584 
Q 2894 3584 3203 3211 
Q 3513 2838 3513 2113 
z
" transform="scale(0.015625)"/>
      <path id="DejaVuSans-66" d="M 2375 4863 
L 2375 4384 
L 1825 4384 
Q 1516 4384 1395 4259 
Q 1275 4134 1275 3809 
L 1275 3500 
L 2222 3500 
L 2222 3053 
L 1275 3053 
L 1275 0 
L 697 0 
L 697 3053 
L 147 3053 
L 147 3500 
L 697 3500 
L 697 3744 
Q 697 4328 969 4595 
Q 1241 4863 1831 4863 
L 2375 4863 
z
" transform="scale(0.015625)"/>
      <path id="DejaVuSans-65" d="M 3597 1894 
L 3597 1613 
L 953 1613 
Q 991 1019 1311 708 
Q 1631 397 2203 397 
Q 2534 397 2845 478 
Q 3156 559 3463 722 
L 3463 178 
Q 3153 47 2828 -22 
Q 2503 -91 2169 -91 
Q 1331 -91 842 396 
Q 353 884 353 1716 
Q 353 2575 817 3079 
Q 1281 3584 2069 3584 
Q 2775 3584 3186 3129 
Q 3597 2675 3597 1894 
z
M 3022 2063 
Q 3016 2534 2758 2815 
Q 2500 3097 2075 3097 
Q 1594 3097 1305 2825 
Q 1016 2553 972 2059 
L 3022 2063 
z
" transform="scale(0.015625)"/>
      <path id="DejaVuSans-64" d="M 2906 2969 
L 2906 4863 
L 3481 4863 
L 3481 0 
L 2906 0 
L 2906 525 
Q 2725 213 2448 61 
Q 2172 -91 1784 -91 
Q 1150 -91 751 415 
Q 353 922 353 1747 
Q 353 2572 751 3078 
Q 1150 3584 1784 3584 
Q 2172 3584 2448 3432 
Q 2725 3281 2906 2969 
z
M 947 1747 
Q 947 1113 1208 752 
Q 1469 391 1925 391 
Q 2381 391 2643 752 
Q 2906 1113 2906 1747 
Q 2906 2381 2643 2742 
Q 2381 3103 1925 3103 
Q 1469 3103 1208 2742 
Q 947 2381 947 1747 
z
" transform="scale(0.015625)"/>
      <path id="DejaVuSans-49" d="M 628 4666 
L 1259 4666 
L 1259 0 
L 628 0 
L 628 4666 
z
" transform="scale(0.015625)"/>
      <path id="DejaVuSans-72" d="M 2631 2963 
Q 2534 3019 2420 3045 
Q 2306 3072 2169 3072 
Q 1681 3072 1420 2755 
Q 1159 2438 1159 1844 
L 1159 0 
L 581 0 
L 581 3500 
L 1159 3500 
L 1159 2956 
Q 1341 3275 1631 3429 
Q 1922 3584 2338 3584 
Q 2397 3584 2469 3576 
Q 2541 3569 2628 3553 
L 2631 2963 
z
" transform="scale(0.015625)"/>
      <path id="DejaVuSans-76" d="M 191 3500 
L 800 3500 
L 1894 563 
L 2988 3500 
L 3597 3500 
L 2284 0 
L 1503 0 
L 191 3500 
z
" transform="scale(0.015625)"/>
      <path id="DejaVuSans-6c" d="M 603 4863 
L 1178 4863 
L 1178 0 
L 603 0 
L 603 4863 
z
" transform="scale(0.015625)"/>
      <path id="DejaVuSans-62" d="M 3116 1747 
Q 3116 2381 2855 2742 
Q 2594 3103 2138 3103 
Q 1681 3103 1420 2742 
Q 1159 2381 1159 1747 
Q 1159 1113 1420 752 
Q 1681 391 2138 391 
Q 2594 391 2855 752 
Q 3116 1113 3116 1747 
z
M 1159 2969 
Q 1341 3281 1617 3432 
Q 1894 3584 2278 3584 
Q 2916 3584 3314 3078 
Q 3713 2572 3713 1747 
Q 3713 922 3314 415 
Q 2916 -91 2278 -91 
Q 1894 -91 1617 61 
Q 1341 213 1159 525 
L 1159 0 
L 581 0 
L 581 4863 
L 1159 4863 
L 1159 2969 
z
" transform="scale(0.015625)"/>
      <path id="DejaVuSans-73" d="M 2834 3397 
L 2834 2853 
Q 2591 2978 2328 3040 
Q 2066 3103 1784 3103 
Q 1356 3103 1142 2972 
Q 928 2841 928 2578 
Q 928 2378 1081 2264 
Q 1234 2150 1697 2047 
L 1894 2003 
Q 2506 1872 2764 1633 
Q 3022 1394 3022 966 
Q 3022 478 2636 193 
Q 2250 -91 1575 -91 
Q 1294 -91 989 -36 
Q 684 19 347 128 
L 347 722 
Q 666 556 975 473 
Q 1284 391 1588 391 
Q 1994 391 2212 530 
Q 2431 669 2431 922 
Q 2431 1156 2273 1281 
Q 2116 1406 1581 1522 
L 1381 1569 
Q 847 1681 609 1914 
Q 372 2147 372 2553 
Q 372 3047 722 3315 
Q 1072 3584 1716 3584 
Q 2034 3584 2315 3537 
Q 2597 3491 2834 3397 
z
" transform="scale(0.015625)"/>
     </defs>
     <use xlink:href="#DejaVuSans-43"/>
     <use xlink:href="#DejaVuSans-45" x="69.824219"/>
     <use xlink:href="#DejaVuSans-43" x="133.007812"/>
     <use xlink:href="#DejaVuSans-20" x="202.832031"/>
     <use xlink:href="#DejaVuSans-32" x="234.619141"/>
     <use xlink:href="#DejaVuSans-30" x="298.242188"/>
     <use xlink:href="#DejaVuSans-31" x="361.865234"/>
     <use xlink:href="#DejaVuSans-37" x="425.488281"/>
     <use xlink:href="#DejaVuSans-20" x="489.111328"/>
     <use xlink:href="#DejaVuSans-4e" x="520.898438"/>
     <use xlink:href="#DejaVuSans-6f" x="595.703125"/>
     <use xlink:href="#DejaVuSans-6e" x="656.884766"/>
     <use xlink:href="#DejaVuSans-2d" x="720.263672"/>
     <use xlink:href="#DejaVuSans-53" x="756.347656"/>
     <use xlink:href="#DejaVuSans-68" x="819.824219"/>
     <use xlink:href="#DejaVuSans-69" x="883.203125"/>
     <use xlink:href="#DejaVuSans-66" x="910.986328"/>
     <use xlink:href="#DejaVuSans-74" x="944.441406"/>
     <use xlink:href="#DejaVuSans-65" x="983.650391"/>
     <use xlink:href="#DejaVuSans-64" x="1045.173828"/>
     <use xlink:href="#DejaVuSans-20" x="1108.650391"/>
     <use xlink:href="#DejaVuSans-52" x="1140.4375"/>
     <use xlink:href="#DejaVuSans-61" x="1207.669922"/>
     <use xlink:href="#DejaVuSans-74" x="1268.949219"/>
     <use xlink:href="#DejaVuSans-69" x="1308.158203"/>
     <use xlink:href="#DejaVuSans-6e" x="1335.941406"/>
     <use xlink:href="#DejaVuSans-67" x="1399.320312"/>
     <use xlink:href="#DejaVuSans-20" x="1462.796875"/>
     <use xlink:href="#DejaVuSans-49" x="1494.583984"/>
     <use xlink:href="#DejaVuSans-6e" x="1524.076172"/>
     <use xlink:href="#DejaVuSans-74" x="1587.455078"/>
     <use xlink:href="#DejaVuSans-65" x="1626.664062"/>
     <use xlink:href="#DejaVuSans-72" x="1688.1875"/>
     <use xlink:href="#DejaVuSans-76" x="1729.300781"/>
     <use xlink:href="#DejaVuSans-61" x="1788.480469"/>
     <use xlink:href="#DejaVuSans-6c" x="1849.759766"/>
     <use xlink:href="#DejaVuSans-20" x="1877.542969"/>
     <use xlink:href="#DejaVuSans-62" x="1909.330078"/>
     <use xlink:href="#DejaVuSans-61" x="1972.806641"/>
     <use xlink:href="#DejaVuSans-6e" x="2034.085938"/>
     <use xlink:href="#DejaVuSans-64" x="2097.464844"/>
     <use xlink:href="#DejaVuSans-73" x="2160.941406"/>
    </g>
   </g>
   <g id="legend_1">
    <g id="patch_7">
     <path d="M 58.935 161.3 
L 199.781875 161.3 
Q 201.781875 161.3 201.781875 159.3 
L 201.781875 28.196875 
Q 201.781875 26.196875 199.781875 26.196875 
L 58.935 26.196875 
Q 56.935 26.196875 56.935 28.196875 
L 56.935 159.3 
Q 56.935 161.3 58.935 161.3 
z
" style="fill: #ffffff; opacity: 0.8; stroke: #cccccc; stroke-linejoin: miter"/>
    </g>
    <g id="patch_8">
     <path d="M 60.935 37.795313 
L 80.935 37.795313 
L 80.935 30.795313 
L 60.935 30.795313 
z
" style="fill: #8fbbda; fill-opacity: 0.3"/>
    </g>
    <g id="line2d_48">
     <path d="M 60.935 34.295313 
L 70.935 34.295313 
L 80.935 34.295313 
" style="fill: none; stroke: #1f77b4; stroke-width: 2; stroke-linecap: square"/>
     <g>
      <use xlink:href="#md05992066b" x="70.935" y="34.295313" style="fill: #1f77b4; stroke: #1f77b4"/>
     </g>
    </g>
    <g id="text_26">
     <!-- APGSK-IMODE -->
     <g transform="translate(88.935 37.795313) scale(0.1 -0.1)">
      <defs>
       <path id="DejaVuSans-41" d="M 2188 4044 
L 1331 1722 
L 3047 1722 
L 2188 4044 
z
M 1831 4666 
L 2547 4666 
L 4325 0 
L 3669 0 
L 3244 1197 
L 1141 1197 
L 716 0 
L 50 0 
L 1831 4666 
z
" transform="scale(0.015625)"/>
       <path id="DejaVuSans-50" d="M 1259 4147 
L 1259 2394 
L 2053 2394 
Q 2494 2394 2734 2622 
Q 2975 2850 2975 3272 
Q 2975 3691 2734 3919 
Q 2494 4147 2053 4147 
L 1259 4147 
z
M 628 4666 
L 2053 4666 
Q 2838 4666 3239 4311 
Q 3641 3956 3641 3272 
Q 3641 2581 3239 2228 
Q 2838 1875 2053 1875 
L 1259 1875 
L 1259 0 
L 628 0 
L 628 4666 
z
" transform="scale(0.015625)"/>
       <path id="DejaVuSans-47" d="M 3809 666 
L 3809 1919 
L 2778 1919 
L 2778 2438 
L 4434 2438 
L 4434 434 
Q 4069 175 3628 42 
Q 3188 -91 2688 -91 
Q 1594 -91 976 548 
Q 359 1188 359 2328 
Q 359 3472 976 4111 
Q 1594 4750 2688 4750 
Q 3144 4750 3555 4637 
Q 3966 4525 4313 4306 
L 4313 3634 
Q 3963 3931 3569 4081 
Q 3175 4231 2741 4231 
Q 1884 4231 1454 3753 
Q 1025 3275 1025 2328 
Q 1025 1384 1454 906 
Q 1884 428 2741 428 
Q 3075 428 3337 486 
Q 3600 544 3809 666 
z
" transform="scale(0.015625)"/>
       <path id="DejaVuSans-4b" d="M 628 4666 
L 1259 4666 
L 1259 2694 
L 3353 4666 
L 4166 4666 
L 1850 2491 
L 4331 0 
L 3500 0 
L 1259 2247 
L 1259 0 
L 628 0 
L 628 4666 
z
" transform="scale(0.015625)"/>
       <path id="DejaVuSans-4d" d="M 628 4666 
L 1569 4666 
L 2759 1491 
L 3956 4666 
L 4897 4666 
L 4897 0 
L 4281 0 
L 4281 4097 
L 3078 897 
L 2444 897 
L 1241 4097 
L 1241 0 
L 628 0 
L 628 4666 
z
" transform="scale(0.015625)"/>
       <path id="DejaVuSans-4f" d="M 2522 4238 
Q 1834 4238 1429 3725 
Q 1025 3213 1025 2328 
Q 1025 1447 1429 934 
Q 1834 422 2522 422 
Q 3209 422 3611 934 
Q 4013 1447 4013 2328 
Q 4013 3213 3611 3725 
Q 3209 4238 2522 4238 
z
M 2522 4750 
Q 3503 4750 4090 4092 
Q 4678 3434 4678 2328 
Q 4678 1225 4090 567 
Q 3503 -91 2522 -91 
Q 1538 -91 948 565 
Q 359 1222 359 2328 
Q 359 3434 948 4092 
Q 1538 4750 2522 4750 
z
" transform="scale(0.015625)"/>
       <path id="DejaVuSans-44" d="M 1259 4147 
L 1259 519 
L 2022 519 
Q 2988 519 3436 956 
Q 3884 1394 3884 2338 
Q 3884 3275 3436 3711 
Q 2988 4147 2022 4147 
L 1259 4147 
z
M 628 4666 
L 1925 4666 
Q 3281 4666 3915 4102 
Q 4550 3538 4550 2338 
Q 4550 1131 3912 565 
Q 3275 0 1925 0 
L 628 0 
L 628 4666 
z
" transform="scale(0.015625)"/>
      </defs>
      <use xlink:href="#DejaVuSans-41"/>
      <use xlink:href="#DejaVuSans-50" x="68.408203"/>
      <use xlink:href="#DejaVuSans-47" x="128.710938"/>
      <use xlink:href="#DejaVuSans-53" x="206.201172"/>
      <use xlink:href="#DejaVuSans-4b" x="269.677734"/>
      <use xlink:href="#DejaVuSans-2d" x="324.753906"/>
      <use xlink:href="#DejaVuSans-49" x="360.837891"/>
      <use xlink:href="#DejaVuSans-4d" x="390.330078"/>
      <use xlink:href="#DejaVuSans-4f" x="476.609375"/>
      <use xlink:href="#DejaVuSans-44" x="555.320312"/>
      <use xlink:href="#DejaVuSans-45" x="632.322266"/>
     </g>
    </g>
    <g id="patch_9">
     <path d="M 60.935 52.473438 
L 80.935 52.473438 
L 80.935 45.473438 
L 60.935 45.473438 
z
" style="fill: #ffbf86; fill-opacity: 0.3"/>
    </g>
    <g id="line2d_49">
     <path d="M 60.935 48.973438 
L 70.935 48.973438 
L 80.935 48.973438 
" style="fill: none; stroke-dasharray: 7.4,3.2; stroke-dashoffset: 0; stroke: #ff7f0e; stroke-width: 2"/>
     <g>
      <use xlink:href="#m4334131f41" x="70.935" y="48.973438" style="fill: #ff7f0e"/>
     </g>
    </g>
    <g id="text_27">
     <!-- DEDMNA -->
     <g transform="translate(88.935 52.473438) scale(0.1 -0.1)">
      <use xlink:href="#DejaVuSans-44"/>
      <use xlink:href="#DejaVuSans-45" x="77.001953"/>
      <use xlink:href="#DejaVuSans-44" x="140.185547"/>
      <use xlink:href="#DejaVuSans-4d" x="217.1875"/>
      <use xlink:href="#DejaVuSans-4e" x="303.466797"/>
      <use xlink:href="#DejaVuSans-41" x="378.271484"/>
     </g>
    </g>
    <g id="patch_10">
     <path d="M 60.935 67.151563 
L 80.935 67.151563 
L 80.935 60.151563 
L 60.935 60.151563 
z
" style="fill: #96d096; fill-opacity: 0.3"/>
    </g>
    <g id="line2d_50">
     <path d="M 60.935 63.651563 
L 70.935 63.651563 
L 80.935 63.651563 
" style="fill: none; stroke-dasharray: 12.8,3.2,2,3.2; stroke-dashoffset: 0; stroke: #2ca02c; stroke-width: 2"/>
     <g>
      <use xlink:href="#m86e5b70cd7" x="70.935" y="63.651563" style="fill: #2ca02c; stroke: #2ca02c"/>
     </g>
    </g>
    <g id="text_28">
     <!-- j21 -->
     <g transform="translate(88.935 67.151563) scale(0.1 -0.1)">
      <defs>
       <path id="DejaVuSans-6a" d="M 603 3500 
L 1178 3500 
L 1178 -63 
Q 1178 -731 923 -1031 
Q 669 -1331 103 -1331 
L -116 -1331 
L -116 -844 
L 38 -844 
Q 366 -844 484 -692 
Q 603 -541 603 -63 
L 603 3500 
z
M 603 4863 
L 1178 4863 
L 1178 4134 
L 603 4134 
L 603 4863 
z
" transform="scale(0.015625)"/>
      </defs>
      <use xlink:href="#DejaVuSans-6a"/>
      <use xlink:href="#DejaVuSans-32" x="27.783203"/>
      <use xlink:href="#DejaVuSans-31" x="91.40625"/>
     </g>
    </g>
    <g id="patch_11">
     <path d="M 60.935 81.829688 
L 80.935 81.829688 
L 80.935 74.829688 
L 60.935 74.829688 
z
" style="fill: #eb9393; fill-opacity: 0.3"/>
    </g>
    <g id="line2d_51">
     <path d="M 60.935 78.329688 
L 70.935 78.329688 
L 80.935 78.329688 
" style="fill: none; stroke-dasharray: 2,3.3; stroke-dashoffset: 0; stroke: #d62728; stroke-width: 2"/>
     <g>
      <use xlink:href="#m69db28318f" x="70.935" y="78.329688" style="fill: #d62728; stroke: #d62728; stroke-linejoin: miter"/>
     </g>
    </g>
    <g id="text_29">
     <!-- LSHADE -->
     <g transform="translate(88.935 81.829688) scale(0.1 -0.1)">
      <defs>
       <path id="DejaVuSans-4c" d="M 628 4666 
L 1259 4666 
L 1259 531 
L 3531 531 
L 3531 0 
L 628 0 
L 628 4666 
z
" transform="scale(0.015625)"/>
       <path id="DejaVuSans-48" d="M 628 4666 
L 1259 4666 
L 1259 2753 
L 3553 2753 
L 3553 4666 
L 4184 4666 
L 4184 0 
L 3553 0 
L 3553 2222 
L 1259 2222 
L 1259 0 
L 628 0 
L 628 4666 
z
" transform="scale(0.015625)"/>
      </defs>
      <use xlink:href="#DejaVuSans-4c"/>
      <use xlink:href="#DejaVuSans-53" x="55.712891"/>
      <use xlink:href="#DejaVuSans-48" x="119.189453"/>
      <use xlink:href="#DejaVuSans-41" x="194.384766"/>
      <use xlink:href="#DejaVuSans-44" x="262.792969"/>
      <use xlink:href="#DejaVuSans-45" x="339.794922"/>
     </g>
    </g>
    <g id="patch_12">
     <path d="M 60.935 96.507813 
L 80.935 96.507813 
L 80.935 89.507813 
L 60.935 89.507813 
z
" style="fill: #cab3de; fill-opacity: 0.3"/>
    </g>
    <g id="line2d_52">
     <path d="M 60.935 93.007813 
L 70.935 93.007813 
L 80.935 93.007813 
" style="fill: none; stroke: #9467bd; stroke-width: 2; stroke-linecap: square"/>
     <g>
      <use xlink:href="#m1ec433def1" x="70.935" y="93.007813" style="fill: #9467bd; stroke: #9467bd; stroke-linejoin: miter"/>
     </g>
    </g>
    <g id="text_30">
     <!-- MadDE -->
     <g transform="translate(88.935 96.507813) scale(0.1 -0.1)">
      <use xlink:href="#DejaVuSans-4d"/>
      <use xlink:href="#DejaVuSans-61" x="86.279297"/>
      <use xlink:href="#DejaVuSans-64" x="147.558594"/>
      <use xlink:href="#DejaVuSans-44" x="211.035156"/>
      <use xlink:href="#DejaVuSans-45" x="288.037109"/>
     </g>
    </g>
    <g id="patch_13">
     <path d="M 60.935 111.185938 
L 80.935 111.185938 
L 80.935 104.185938 
L 60.935 104.185938 
z
" style="fill: #c6aba5; fill-opacity: 0.3"/>
    </g>
    <g id="line2d_53">
     <path d="M 60.935 107.685938 
L 70.935 107.685938 
L 80.935 107.685938 
" style="fill: none; stroke-dasharray: 7.4,3.2; stroke-dashoffset: 0; stroke: #8c564b; stroke-width: 2"/>
     <g>
      <use xlink:href="#me021ae74ba" x="70.935" y="107.685938" style="fill: #8c564b; stroke: #8c564b; stroke-linejoin: miter"/>
     </g>
    </g>
    <g id="text_31">
     <!-- MLS-LSHADE -->
     <g transform="translate(88.935 111.185938) scale(0.1 -0.1)">
      <use xlink:href="#DejaVuSans-4d"/>
      <use xlink:href="#DejaVuSans-4c" x="86.279297"/>
      <use xlink:href="#DejaVuSans-53" x="141.992188"/>
      <use xlink:href="#DejaVuSans-2d" x="205.46875"/>
      <use xlink:href="#DejaVuSans-4c" x="241.552734"/>
      <use xlink:href="#DejaVuSans-53" x="297.265625"/>
      <use xlink:href="#DejaVuSans-48" x="360.742188"/>
      <use xlink:href="#DejaVuSans-41" x="435.9375"/>
      <use xlink:href="#DejaVuSans-44" x="504.345703"/>
      <use xlink:href="#DejaVuSans-45" x="581.347656"/>
     </g>
    </g>
    <g id="patch_14">
     <path d="M 60.935 125.864063 
L 80.935 125.864063 
L 80.935 118.864063 
L 60.935 118.864063 
z
" style="fill: #f1bbe0; fill-opacity: 0.3"/>
    </g>
    <g id="line2d_54">
     <path d="M 60.935 122.364063 
L 70.935 122.364063 
L 80.935 122.364063 
" style="fill: none; stroke-dasharray: 12.8,3.2,2,3.2; stroke-dashoffset: 0; stroke: #e377c2; stroke-width: 2"/>
     <g>
      <use xlink:href="#m56ba1f44a4" x="70.935" y="122.364063" style="fill: #e377c2; stroke: #e377c2; stroke-linejoin: miter"/>
     </g>
    </g>
    <g id="text_32">
     <!-- NL-SHADE-RSP -->
     <g transform="translate(88.935 125.864063) scale(0.1 -0.1)">
      <use xlink:href="#DejaVuSans-4e"/>
      <use xlink:href="#DejaVuSans-4c" x="74.804688"/>
      <use xlink:href="#DejaVuSans-2d" x="128.767578"/>
      <use xlink:href="#DejaVuSans-53" x="164.851562"/>
      <use xlink:href="#DejaVuSans-48" x="228.328125"/>
      <use xlink:href="#DejaVuSans-41" x="303.523438"/>
      <use xlink:href="#DejaVuSans-44" x="371.931641"/>
      <use xlink:href="#DejaVuSans-45" x="448.933594"/>
      <use xlink:href="#DejaVuSans-2d" x="512.117188"/>
      <use xlink:href="#DejaVuSans-52" x="548.201172"/>
      <use xlink:href="#DejaVuSans-53" x="617.683594"/>
      <use xlink:href="#DejaVuSans-50" x="681.160156"/>
     </g>
    </g>
    <g id="patch_15">
     <path d="M 60.935 140.542188 
L 80.935 140.542188 
L 80.935 133.542188 
L 60.935 133.542188 
z
" style="fill: #dede90; fill-opacity: 0.3"/>
    </g>
    <g id="line2d_55">
     <path d="M 60.935 137.042188 
L 70.935 137.042188 
L 80.935 137.042188 
" style="fill: none; stroke-dasharray: 2,3.3; stroke-dashoffset: 0; stroke: #bcbd22; stroke-width: 2"/>
     <g>
      <use xlink:href="#m11288b4791" x="70.935" y="137.042188" style="fill: #bcbd22; stroke: #bcbd22; stroke-linejoin: miter"/>
     </g>
    </g>
    <g id="text_33">
     <!-- RB-IPOP-CMAES-PPMF -->
     <g transform="translate(88.935 140.542188) scale(0.1 -0.1)">
      <defs>
       <path id="DejaVuSans-42" d="M 1259 2228 
L 1259 519 
L 2272 519 
Q 2781 519 3026 730 
Q 3272 941 3272 1375 
Q 3272 1813 3026 2020 
Q 2781 2228 2272 2228 
L 1259 2228 
z
M 1259 4147 
L 1259 2741 
L 2194 2741 
Q 2656 2741 2882 2914 
Q 3109 3088 3109 3444 
Q 3109 3797 2882 3972 
Q 2656 4147 2194 4147 
L 1259 4147 
z
M 628 4666 
L 2241 4666 
Q 2963 4666 3353 4366 
Q 3744 4066 3744 3513 
Q 3744 3084 3544 2831 
Q 3344 2578 2956 2516 
Q 3422 2416 3680 2098 
Q 3938 1781 3938 1306 
Q 3938 681 3513 340 
Q 3088 0 2303 0 
L 628 0 
L 628 4666 
z
" transform="scale(0.015625)"/>
       <path id="DejaVuSans-46" d="M 628 4666 
L 3309 4666 
L 3309 4134 
L 1259 4134 
L 1259 2759 
L 3109 2759 
L 3109 2228 
L 1259 2228 
L 1259 0 
L 628 0 
L 628 4666 
z
" transform="scale(0.015625)"/>
      </defs>
      <use xlink:href="#DejaVuSans-52"/>
      <use xlink:href="#DejaVuSans-42" x="69.482422"/>
      <use xlink:href="#DejaVuSans-2d" x="138.085938"/>
      <use xlink:href="#DejaVuSans-49" x="174.169922"/>
      <use xlink:href="#DejaVuSans-50" x="203.662109"/>
      <use xlink:href="#DejaVuSans-4f" x="263.964844"/>
      <use xlink:href="#DejaVuSans-50" x="342.675781"/>
      <use xlink:href="#DejaVuSans-2d" x="400.728516"/>
      <use xlink:href="#DejaVuSans-43" x="436.8125"/>
      <use xlink:href="#DejaVuSans-4d" x="506.636719"/>
      <use xlink:href="#DejaVuSans-41" x="592.916016"/>
      <use xlink:href="#DejaVuSans-45" x="661.324219"/>
      <use xlink:href="#DejaVuSans-53" x="724.507812"/>
      <use xlink:href="#DejaVuSans-2d" x="787.984375"/>
      <use xlink:href="#DejaVuSans-50" x="824.068359"/>
      <use xlink:href="#DejaVuSans-50" x="884.371094"/>
      <use xlink:href="#DejaVuSans-4d" x="944.673828"/>
      <use xlink:href="#DejaVuSans-46" x="1030.953125"/>
     </g>
    </g>
    <g id="patch_16">
     <path d="M 60.935 155.220313 
L 80.935 155.220313 
L 80.935 148.220313 
L 60.935 148.220313 
z
" style="fill: #8bdee7; fill-opacity: 0.3"/>
    </g>
    <g id="line2d_56">
     <path d="M 60.935 151.720313 
L 70.935 151.720313 
L 80.935 151.720313 
" style="fill: none; stroke: #17becf; stroke-width: 2; stroke-linecap: square"/>
     <g>
      <use xlink:href="#m2a4e4efcda" x="70.935" y="151.720313" style="fill: #17becf; stroke: #17becf; stroke-linejoin: miter"/>
     </g>
    </g>
    <g id="text_34">
     <!-- SOMA-CLP -->
     <g transform="translate(88.935 155.220313) scale(0.1 -0.1)">
      <use xlink:href="#DejaVuSans-53"/>
      <use xlink:href="#DejaVuSans-4f" x="63.476562"/>
      <use xlink:href="#DejaVuSans-4d" x="142.1875"/>
      <use xlink:href="#DejaVuSans-41" x="228.466797"/>
      <use xlink:href="#DejaVuSans-2d" x="294.625"/>
      <use xlink:href="#DejaVuSans-43" x="330.708984"/>
      <use xlink:href="#DejaVuSans-4c" x="400.533203"/>
      <use xlink:href="#DejaVuSans-50" x="456.246094"/>
     </g>
    </g>
   </g>
  </g>
 </g>
 <defs>
  <clipPath id="p9dc80c0da7">
   <rect x="51.935" y="21.196875" width="837" height="554.4"/>
  </clipPath>
 </defs>
</svg>
