<?xml version="1.0" encoding="utf-8" standalone="no"?>
<!DOCTYPE svg PUBLIC "-//W3C//DTD SVG 1.1//EN"
  "http://www.w3.org/Graphics/SVG/1.1/DTD/svg11.dtd">
<svg xmlns:xlink="http://www.w3.org/1999/xlink" width="895.2975pt" height="611.76pt" viewBox="0 0 895.2975 611.76" xmlns="http://www.w3.org/2000/svg" version="1.1">
 <metadata>
  <rdf:RDF xmlns:dc="http://purl.org/dc/elements/1.1/" xmlns:cc="http://creativecommons.org/ns#" xmlns:rdf="http://www.w3.org/1999/02/22-rdf-syntax-ns#">
   <cc:Work>
    <dc:type rdf:resource="http://purl.org/dc/dcmitype/StillImage"/>
    <dc:date>2023-11-21T09:41:58.424521</dc:date>
    <dc:format>image/svg+xml</dc:format>
    <dc:creator>
     <cc:Agent>
      <dc:title>Matplotlib v3.8.1, https://matplotlib.org/</dc:title>
     </cc:Agent>
    </dc:creator>
   </cc:Work>
  </rdf:RDF>
 </metadata>
 <defs>
  <style type="text/css">*{stroke-linejoin: round; stroke-linecap: butt}</style>
 </defs>
 <g id="figure_1">
  <g id="patch_1">
   <path d="M -0 611.76 
L 895.2975 611.76 
L 895.2975 0 
L -0 0 
z
" style="fill: #ffffff"/>
  </g>
  <g id="axes_1">
   <g id="patch_2">
    <path d="M 51.935 575.596875 
L 888.935 575.596875 
L 888.935 21.196875 
L 51.935 21.196875 
z
" style="fill: #ffffff"/>
   </g>
   <g id="PolyCollection_1">
    <defs>
     <path id="m38cffbe381" d="M 51.935 -276.657394 
L 51.935 -382.531816 
L 116.319615 -366.320987 
L 180.704231 -376.821887 
L 245.088846 -400.363728 
L 309.473462 -445.630146 
L 373.858077 -472.982049 
L 438.242692 -476.079659 
L 502.627308 -471.691377 
L 567.011923 -465.108955 
L 631.396538 -460.58128 
L 695.781154 -461.970043 
L 760.165769 -450.472744 
L 824.550385 -446.032836 
L 888.935 -440.859826 
L 888.935 -334.985403 
L 888.935 -334.985403 
L 824.550385 -340.158413 
L 760.165769 -344.598322 
L 695.781154 -356.09562 
L 631.396538 -354.706858 
L 567.011923 -359.234532 
L 502.627308 -365.816955 
L 438.242692 -370.205237 
L 373.858077 -367.107626 
L 309.473462 -339.755724 
L 245.088846 -294.489306 
L 180.704231 -270.947465 
L 116.319615 -260.446565 
L 51.935 -276.657394 
z
"/>
    </defs>
    <g clip-path="url(#p841fba702d)">
     <use xlink:href="#m38cffbe381" x="0" y="611.76" style="fill: #8fbbda; fill-opacity: 0.3"/>
    </g>
   </g>
   <g id="PolyCollection_2">
    <defs>
     <path id="mcd10754d80" d="M 51.935 -257.534811 
L 51.935 -363.409233 
L 116.319615 -288.570958 
L 180.704231 -257.739407 
L 245.088846 -222.457621 
L 309.473462 -195.487757 
L 373.858077 -215.735806 
L 438.242692 -244.440331 
L 502.627308 -237.801119 
L 567.011923 -224.037402 
L 631.396538 -209.927785 
L 695.781154 -200.614303 
L 760.165769 -189.679737 
L 824.550385 -185.57024 
L 888.935 -180.366254 
L 888.935 -74.491832 
L 888.935 -74.491832 
L 824.550385 -79.695818 
L 760.165769 -83.805315 
L 695.781154 -94.73988 
L 631.396538 -104.053363 
L 567.011923 -118.16298 
L 502.627308 -131.926697 
L 438.242692 -138.565909 
L 373.858077 -109.861383 
L 309.473462 -89.613335 
L 245.088846 -116.583198 
L 180.704231 -151.864984 
L 116.319615 -182.696536 
L 51.935 -257.534811 
z
"/>
    </defs>
    <g clip-path="url(#p841fba702d)">
     <use xlink:href="#mcd10754d80" x="0" y="611.76" style="fill: #ffbf86; fill-opacity: 0.3"/>
    </g>
   </g>
   <g id="PolyCollection_3">
    <defs>
     <path id="m35a3341ed6" d="M 51.935 -86.381494 
L 51.935 -192.255916 
L 116.319615 -209.303101 
L 180.704231 -223.944474 
L 245.088846 -243.603976 
L 309.473462 -287.300938 
L 373.858077 -334.838937 
L 438.242692 -341.694982 
L 502.627308 -361.591968 
L 567.011923 -385.144135 
L 631.396538 -397.823688 
L 695.781154 -417.942669 
L 760.165769 -484.515486 
L 824.550385 -487.79379 
L 888.935 -496.456775 
L 888.935 -390.582353 
L 888.935 -390.582353 
L 824.550385 -381.919368 
L 760.165769 -378.641063 
L 695.781154 -312.068247 
L 631.396538 -291.949265 
L 567.011923 -279.269712 
L 502.627308 -255.717546 
L 438.242692 -235.82056 
L 373.858077 -228.964515 
L 309.473462 -181.426516 
L 245.088846 -137.729554 
L 180.704231 -118.070052 
L 116.319615 -103.428678 
L 51.935 -86.381494 
z
"/>
    </defs>
    <g clip-path="url(#p841fba702d)">
     <use xlink:href="#m35a3341ed6" x="0" y="611.76" style="fill: #96d096; fill-opacity: 0.3"/>
    </g>
   </g>
   <g id="PolyCollection_4">
    <defs>
     <path id="m5ebf1b1530" d="M 51.935 -432.487863 
L 51.935 -538.362285 
L 116.319615 -538.093825 
L 180.704231 -534.810358 
L 245.088846 -527.789107 
L 309.473462 -515.594846 
L 373.858077 -480.917095 
L 438.242692 -446.900167 
L 502.627308 -424.303096 
L 567.011923 -412.934865 
L 631.396538 -394.452455 
L 695.781154 -390.203565 
L 760.165769 -385.582963 
L 824.550385 -384.003181 
L 888.935 -370.213651 
L 888.935 -264.339229 
L 888.935 -264.339229 
L 824.550385 -278.128759 
L 760.165769 -279.70854 
L 695.781154 -284.329143 
L 631.396538 -288.578032 
L 567.011923 -307.060443 
L 502.627308 -318.428674 
L 438.242692 -341.025744 
L 373.858077 -375.042672 
L 309.473462 -409.720424 
L 245.088846 -421.914685 
L 180.704231 -428.935936 
L 116.319615 -432.219403 
L 51.935 -432.487863 
z
"/>
    </defs>
    <g clip-path="url(#p841fba702d)">
     <use xlink:href="#m5ebf1b1530" x="0" y="611.76" style="fill: #eb9393; fill-opacity: 0.3"/>
    </g>
   </g>
   <g id="PolyCollection_5">
    <defs>
     <path id="m51ae210c32" d="M 51.935 -136.376931 
L 51.935 -242.251353 
L 116.319615 -268.126728 
L 180.704231 -281.043764 
L 245.088846 -271.82321 
L 309.473462 -258.709991 
L 373.858077 -273.702427 
L 438.242692 -314.038481 
L 502.627308 -338.57672 
L 567.011923 -357.425682 
L 631.396538 -364.01843 
L 695.781154 -387.32795 
L 760.165769 -402.991535 
L 824.550385 -429.909772 
L 888.935 -473.142092 
L 888.935 -367.267669 
L 888.935 -367.267669 
L 824.550385 -324.03535 
L 760.165769 -297.117113 
L 695.781154 -281.453528 
L 631.396538 -258.144007 
L 567.011923 -251.551259 
L 502.627308 -232.702298 
L 438.242692 -208.164059 
L 373.858077 -167.828005 
L 309.473462 -152.835569 
L 245.088846 -165.948788 
L 180.704231 -175.169342 
L 116.319615 -162.252305 
L 51.935 -136.376931 
z
"/>
    </defs>
    <g clip-path="url(#p841fba702d)">
     <use xlink:href="#m51ae210c32" x="0" y="611.76" style="fill: #cab3de; fill-opacity: 0.3"/>
    </g>
   </g>
   <g id="PolyCollection_6">
    <defs>
     <path id="m2d04bfb9a4" d="M 51.935 -98.214367 
L 51.935 -204.088789 
L 116.319615 -188.249673 
L 180.704231 -182.291935 
L 245.088846 -205.585968 
L 309.473462 -252.710952 
L 373.858077 -323.610098 
L 438.242692 -377.456897 
L 502.627308 -439.858265 
L 567.011923 -487.313661 
L 631.396538 -504.820324 
L 695.781154 -504.087223 
L 760.165769 -494.014825 
L 824.550385 -489.285806 
L 888.935 -483.075097 
L 888.935 -377.200674 
L 888.935 -377.200674 
L 824.550385 -383.411384 
L 760.165769 -388.140403 
L 695.781154 -398.2128 
L 631.396538 -398.945902 
L 567.011923 -381.439238 
L 502.627308 -333.983843 
L 438.242692 -271.582475 
L 373.858077 -217.735676 
L 309.473462 -146.83653 
L 245.088846 -99.711545 
L 180.704231 -76.417513 
L 116.319615 -82.375251 
L 51.935 -98.214367 
z
"/>
    </defs>
    <g clip-path="url(#p841fba702d)">
     <use xlink:href="#m2d04bfb9a4" x="0" y="611.76" style="fill: #c6aba5; fill-opacity: 0.3"/>
    </g>
   </g>
   <g id="PolyCollection_7">
    <defs>
     <path id="m60d2134a60" d="M 51.935 -194.818519 
L 51.935 -300.692942 
L 116.319615 -350.657402 
L 180.704231 -358.86607 
L 245.088846 -388.468903 
L 309.473462 -422.047003 
L 373.858077 -445.924419 
L 438.242692 -456.688616 
L 502.627308 -460.98397 
L 567.011923 -458.733039 
L 631.396538 -506.33299 
L 695.781154 -495.88888 
L 760.165769 -475.202003 
L 824.550385 -466.7352 
L 888.935 -454.189877 
L 888.935 -348.315455 
L 888.935 -348.315455 
L 824.550385 -360.860778 
L 760.165769 -369.327581 
L 695.781154 -390.014457 
L 631.396538 -400.458568 
L 567.011923 -352.858617 
L 502.627308 -355.109547 
L 438.242692 -350.814194 
L 373.858077 -340.049997 
L 309.473462 -316.172581 
L 245.088846 -282.594481 
L 180.704231 -252.991648 
L 116.319615 -244.78298 
L 51.935 -194.818519 
z
"/>
    </defs>
    <g clip-path="url(#p841fba702d)">
     <use xlink:href="#m60d2134a60" x="0" y="611.76" style="fill: #f1bbe0; fill-opacity: 0.3"/>
    </g>
   </g>
   <g id="PolyCollection_8">
    <defs>
     <path id="m3bb85279c0" d="M 51.935 -275.562905 
L 51.935 -381.437327 
L 116.319615 -410.998859 
L 180.704231 -418.236942 
L 245.088846 -412.888401 
L 309.473462 -375.541541 
L 373.858077 -309.448854 
L 438.242692 -266.474669 
L 502.627308 -236.99574 
L 567.011923 -217.253635 
L 631.396538 -203.717076 
L 695.781154 -195.751054 
L 760.165769 -188.848545 
L 824.550385 -186.68538 
L 888.935 -182.173194 
L 888.935 -76.298771 
L 888.935 -76.298771 
L 824.550385 -80.810957 
L 760.165769 -82.974122 
L 695.781154 -89.876631 
L 631.396538 -97.842654 
L 567.011923 -111.379212 
L 502.627308 -131.121318 
L 438.242692 -160.600246 
L 373.858077 -203.574432 
L 309.473462 -269.667119 
L 245.088846 -307.013979 
L 180.704231 -312.36252 
L 116.319615 -305.124436 
L 51.935 -275.562905 
z
"/>
    </defs>
    <g clip-path="url(#p841fba702d)">
     <use xlink:href="#m3bb85279c0" x="0" y="611.76" style="fill: #dede90; fill-opacity: 0.3"/>
    </g>
   </g>
   <g id="PolyCollection_9">
    <defs>
     <path id="m09be93c358" d="M 51.935 -459.488703 
L 51.935 -565.363125 
L 116.319615 -560.293369 
L 180.704231 -555.43012 
L 245.088846 -545.837852 
L 309.473462 -526.808197 
L 373.858077 -491.867149 
L 438.242692 -467.612857 
L 502.627308 -447.116999 
L 567.011923 -430.111117 
L 631.396538 -410.090226 
L 695.781154 -403.833052 
L 760.165769 -395.226857 
L 824.550385 -395.071977 
L 888.935 -391.334193 
L 888.935 -285.459771 
L 888.935 -285.459771 
L 824.550385 -289.197555 
L 760.165769 -289.352435 
L 695.781154 -297.95863 
L 631.396538 -304.215804 
L 567.011923 -324.236694 
L 502.627308 -341.242577 
L 438.242692 -361.738434 
L 373.858077 -385.992726 
L 309.473462 -420.933775 
L 245.088846 -439.96343 
L 180.704231 -449.555698 
L 116.319615 -454.418946 
L 51.935 -459.488703 
z
"/>
    </defs>
    <g clip-path="url(#p841fba702d)">
     <use xlink:href="#m09be93c358" x="0" y="611.76" style="fill: #8bdee7; fill-opacity: 0.3"/>
    </g>
   </g>
   <g id="PolyCollection_10">
    <defs>
     <path id="m2b68ff64a8" d="M 51.935 -362.781297 
L 51.935 -468.655719 
L 116.319615 -458.433604 
L 180.704231 -449.863547 
L 245.088846 -420.229738 
L 309.473462 -359.217133 
L 373.858077 -290.021673 
L 438.242692 -247.661846 
L 502.627308 -220.12925 
L 567.011923 -200.986016 
L 631.396538 -187.284251 
L 695.781154 -181.429767 
L 760.165769 -172.513811 
L 824.550385 -167.960323 
L 888.935 -167.237547 
L 888.935 -61.363125 
L 888.935 -61.363125 
L 824.550385 -62.085901 
L 760.165769 -66.639389 
L 695.781154 -75.555345 
L 631.396538 -81.409829 
L 567.011923 -95.111594 
L 502.627308 -114.254828 
L 438.242692 -141.787424 
L 373.858077 -184.14725 
L 309.473462 -253.342711 
L 245.088846 -314.355316 
L 180.704231 -343.989125 
L 116.319615 -352.559181 
L 51.935 -362.781297 
z
"/>
    </defs>
    <g clip-path="url(#p841fba702d)">
     <use xlink:href="#m2b68ff64a8" x="0" y="611.76" style="fill: #8fbbda; fill-opacity: 0.3"/>
    </g>
   </g>
   <g id="matplotlib.axis_1">
    <g id="xtick_1">
     <g id="line2d_1">
      <defs>
       <path id="mf2c95f9e82" d="M 0 0 
L 0 3.5 
" style="stroke: #000000; stroke-width: 0.8"/>
      </defs>
      <g>
       <use xlink:href="#mf2c95f9e82" x="51.935" y="575.596875" style="stroke: #000000; stroke-width: 0.8"/>
      </g>
     </g>
     <g id="text_1">
      <!-- 0 -->
      <g transform="translate(48.75375 590.195313) scale(0.1 -0.1)">
       <defs>
        <path id="DejaVuSans-30" d="M 2034 4250 
Q 1547 4250 1301 3770 
Q 1056 3291 1056 2328 
Q 1056 1369 1301 889 
Q 1547 409 2034 409 
Q 2525 409 2770 889 
Q 3016 1369 3016 2328 
Q 3016 3291 2770 3770 
Q 2525 4250 2034 4250 
z
M 2034 4750 
Q 2819 4750 3233 4129 
Q 3647 3509 3647 2328 
Q 3647 1150 3233 529 
Q 2819 -91 2034 -91 
Q 1250 -91 836 529 
Q 422 1150 422 2328 
Q 422 3509 836 4129 
Q 1250 4750 2034 4750 
z
" transform="scale(0.015625)"/>
       </defs>
       <use xlink:href="#DejaVuSans-30"/>
      </g>
     </g>
    </g>
    <g id="xtick_2">
     <g id="line2d_2">
      <g>
       <use xlink:href="#mf2c95f9e82" x="116.319615" y="575.596875" style="stroke: #000000; stroke-width: 0.8"/>
      </g>
     </g>
     <g id="text_2">
      <!-- 1 -->
      <g transform="translate(113.138365 590.195313) scale(0.1 -0.1)">
       <defs>
        <path id="DejaVuSans-31" d="M 794 531 
L 1825 531 
L 1825 4091 
L 703 3866 
L 703 4441 
L 1819 4666 
L 2450 4666 
L 2450 531 
L 3481 531 
L 3481 0 
L 794 0 
L 794 531 
z
" transform="scale(0.015625)"/>
       </defs>
       <use xlink:href="#DejaVuSans-31"/>
      </g>
     </g>
    </g>
    <g id="xtick_3">
     <g id="line2d_3">
      <g>
       <use xlink:href="#mf2c95f9e82" x="180.704231" y="575.596875" style="stroke: #000000; stroke-width: 0.8"/>
      </g>
     </g>
     <g id="text_3">
      <!-- 2 -->
      <g transform="translate(177.522981 590.195313) scale(0.1 -0.1)">
       <defs>
        <path id="DejaVuSans-32" d="M 1228 531 
L 3431 531 
L 3431 0 
L 469 0 
L 469 531 
Q 828 903 1448 1529 
Q 2069 2156 2228 2338 
Q 2531 2678 2651 2914 
Q 2772 3150 2772 3378 
Q 2772 3750 2511 3984 
Q 2250 4219 1831 4219 
Q 1534 4219 1204 4116 
Q 875 4013 500 3803 
L 500 4441 
Q 881 4594 1212 4672 
Q 1544 4750 1819 4750 
Q 2544 4750 2975 4387 
Q 3406 4025 3406 3419 
Q 3406 3131 3298 2873 
Q 3191 2616 2906 2266 
Q 2828 2175 2409 1742 
Q 1991 1309 1228 531 
z
" transform="scale(0.015625)"/>
       </defs>
       <use xlink:href="#DejaVuSans-32"/>
      </g>
     </g>
    </g>
    <g id="xtick_4">
     <g id="line2d_4">
      <g>
       <use xlink:href="#mf2c95f9e82" x="245.088846" y="575.596875" style="stroke: #000000; stroke-width: 0.8"/>
      </g>
     </g>
     <g id="text_4">
      <!-- 3 -->
      <g transform="translate(241.907596 590.195313) scale(0.1 -0.1)">
       <defs>
        <path id="DejaVuSans-33" d="M 2597 2516 
Q 3050 2419 3304 2112 
Q 3559 1806 3559 1356 
Q 3559 666 3084 287 
Q 2609 -91 1734 -91 
Q 1441 -91 1130 -33 
Q 819 25 488 141 
L 488 750 
Q 750 597 1062 519 
Q 1375 441 1716 441 
Q 2309 441 2620 675 
Q 2931 909 2931 1356 
Q 2931 1769 2642 2001 
Q 2353 2234 1838 2234 
L 1294 2234 
L 1294 2753 
L 1863 2753 
Q 2328 2753 2575 2939 
Q 2822 3125 2822 3475 
Q 2822 3834 2567 4026 
Q 2313 4219 1838 4219 
Q 1578 4219 1281 4162 
Q 984 4106 628 3988 
L 628 4550 
Q 988 4650 1302 4700 
Q 1616 4750 1894 4750 
Q 2613 4750 3031 4423 
Q 3450 4097 3450 3541 
Q 3450 3153 3228 2886 
Q 3006 2619 2597 2516 
z
" transform="scale(0.015625)"/>
       </defs>
       <use xlink:href="#DejaVuSans-33"/>
      </g>
     </g>
    </g>
    <g id="xtick_5">
     <g id="line2d_5">
      <g>
       <use xlink:href="#mf2c95f9e82" x="309.473462" y="575.596875" style="stroke: #000000; stroke-width: 0.8"/>
      </g>
     </g>
     <g id="text_5">
      <!-- 4 -->
      <g transform="translate(306.292212 590.195313) scale(0.1 -0.1)">
       <defs>
        <path id="DejaVuSans-34" d="M 2419 4116 
L 825 1625 
L 2419 1625 
L 2419 4116 
z
M 2253 4666 
L 3047 4666 
L 3047 1625 
L 3713 1625 
L 3713 1100 
L 3047 1100 
L 3047 0 
L 2419 0 
L 2419 1100 
L 313 1100 
L 313 1709 
L 2253 4666 
z
" transform="scale(0.015625)"/>
       </defs>
       <use xlink:href="#DejaVuSans-34"/>
      </g>
     </g>
    </g>
    <g id="xtick_6">
     <g id="line2d_6">
      <g>
       <use xlink:href="#mf2c95f9e82" x="373.858077" y="575.596875" style="stroke: #000000; stroke-width: 0.8"/>
      </g>
     </g>
     <g id="text_6">
      <!-- 5 -->
      <g transform="translate(370.676827 590.195313) scale(0.1 -0.1)">
       <defs>
        <path id="DejaVuSans-35" d="M 691 4666 
L 3169 4666 
L 3169 4134 
L 1269 4134 
L 1269 2991 
Q 1406 3038 1543 3061 
Q 1681 3084 1819 3084 
Q 2600 3084 3056 2656 
Q 3513 2228 3513 1497 
Q 3513 744 3044 326 
Q 2575 -91 1722 -91 
Q 1428 -91 1123 -41 
Q 819 9 494 109 
L 494 744 
Q 775 591 1075 516 
Q 1375 441 1709 441 
Q 2250 441 2565 725 
Q 2881 1009 2881 1497 
Q 2881 1984 2565 2268 
Q 2250 2553 1709 2553 
Q 1456 2553 1204 2497 
Q 953 2441 691 2322 
L 691 4666 
z
" transform="scale(0.015625)"/>
       </defs>
       <use xlink:href="#DejaVuSans-35"/>
      </g>
     </g>
    </g>
    <g id="xtick_7">
     <g id="line2d_7">
      <g>
       <use xlink:href="#mf2c95f9e82" x="438.242692" y="575.596875" style="stroke: #000000; stroke-width: 0.8"/>
      </g>
     </g>
     <g id="text_7">
      <!-- 6 -->
      <g transform="translate(435.061442 590.195313) scale(0.1 -0.1)">
       <defs>
        <path id="DejaVuSans-36" d="M 2113 2584 
Q 1688 2584 1439 2293 
Q 1191 2003 1191 1497 
Q 1191 994 1439 701 
Q 1688 409 2113 409 
Q 2538 409 2786 701 
Q 3034 994 3034 1497 
Q 3034 2003 2786 2293 
Q 2538 2584 2113 2584 
z
M 3366 4563 
L 3366 3988 
Q 3128 4100 2886 4159 
Q 2644 4219 2406 4219 
Q 1781 4219 1451 3797 
Q 1122 3375 1075 2522 
Q 1259 2794 1537 2939 
Q 1816 3084 2150 3084 
Q 2853 3084 3261 2657 
Q 3669 2231 3669 1497 
Q 3669 778 3244 343 
Q 2819 -91 2113 -91 
Q 1303 -91 875 529 
Q 447 1150 447 2328 
Q 447 3434 972 4092 
Q 1497 4750 2381 4750 
Q 2619 4750 2861 4703 
Q 3103 4656 3366 4563 
z
" transform="scale(0.015625)"/>
       </defs>
       <use xlink:href="#DejaVuSans-36"/>
      </g>
     </g>
    </g>
    <g id="xtick_8">
     <g id="line2d_8">
      <g>
       <use xlink:href="#mf2c95f9e82" x="502.627308" y="575.596875" style="stroke: #000000; stroke-width: 0.8"/>
      </g>
     </g>
     <g id="text_8">
      <!-- 7 -->
      <g transform="translate(499.446058 590.195313) scale(0.1 -0.1)">
       <defs>
        <path id="DejaVuSans-37" d="M 525 4666 
L 3525 4666 
L 3525 4397 
L 1831 0 
L 1172 0 
L 2766 4134 
L 525 4134 
L 525 4666 
z
" transform="scale(0.015625)"/>
       </defs>
       <use xlink:href="#DejaVuSans-37"/>
      </g>
     </g>
    </g>
    <g id="xtick_9">
     <g id="line2d_9">
      <g>
       <use xlink:href="#mf2c95f9e82" x="567.011923" y="575.596875" style="stroke: #000000; stroke-width: 0.8"/>
      </g>
     </g>
     <g id="text_9">
      <!-- 8 -->
      <g transform="translate(563.830673 590.195313) scale(0.1 -0.1)">
       <defs>
        <path id="DejaVuSans-38" d="M 2034 2216 
Q 1584 2216 1326 1975 
Q 1069 1734 1069 1313 
Q 1069 891 1326 650 
Q 1584 409 2034 409 
Q 2484 409 2743 651 
Q 3003 894 3003 1313 
Q 3003 1734 2745 1975 
Q 2488 2216 2034 2216 
z
M 1403 2484 
Q 997 2584 770 2862 
Q 544 3141 544 3541 
Q 544 4100 942 4425 
Q 1341 4750 2034 4750 
Q 2731 4750 3128 4425 
Q 3525 4100 3525 3541 
Q 3525 3141 3298 2862 
Q 3072 2584 2669 2484 
Q 3125 2378 3379 2068 
Q 3634 1759 3634 1313 
Q 3634 634 3220 271 
Q 2806 -91 2034 -91 
Q 1263 -91 848 271 
Q 434 634 434 1313 
Q 434 1759 690 2068 
Q 947 2378 1403 2484 
z
M 1172 3481 
Q 1172 3119 1398 2916 
Q 1625 2713 2034 2713 
Q 2441 2713 2670 2916 
Q 2900 3119 2900 3481 
Q 2900 3844 2670 4047 
Q 2441 4250 2034 4250 
Q 1625 4250 1398 4047 
Q 1172 3844 1172 3481 
z
" transform="scale(0.015625)"/>
       </defs>
       <use xlink:href="#DejaVuSans-38"/>
      </g>
     </g>
    </g>
    <g id="xtick_10">
     <g id="line2d_10">
      <g>
       <use xlink:href="#mf2c95f9e82" x="631.396538" y="575.596875" style="stroke: #000000; stroke-width: 0.8"/>
      </g>
     </g>
     <g id="text_10">
      <!-- 9 -->
      <g transform="translate(628.215288 590.195313) scale(0.1 -0.1)">
       <defs>
        <path id="DejaVuSans-39" d="M 703 97 
L 703 672 
Q 941 559 1184 500 
Q 1428 441 1663 441 
Q 2288 441 2617 861 
Q 2947 1281 2994 2138 
Q 2813 1869 2534 1725 
Q 2256 1581 1919 1581 
Q 1219 1581 811 2004 
Q 403 2428 403 3163 
Q 403 3881 828 4315 
Q 1253 4750 1959 4750 
Q 2769 4750 3195 4129 
Q 3622 3509 3622 2328 
Q 3622 1225 3098 567 
Q 2575 -91 1691 -91 
Q 1453 -91 1209 -44 
Q 966 3 703 97 
z
M 1959 2075 
Q 2384 2075 2632 2365 
Q 2881 2656 2881 3163 
Q 2881 3666 2632 3958 
Q 2384 4250 1959 4250 
Q 1534 4250 1286 3958 
Q 1038 3666 1038 3163 
Q 1038 2656 1286 2365 
Q 1534 2075 1959 2075 
z
" transform="scale(0.015625)"/>
       </defs>
       <use xlink:href="#DejaVuSans-39"/>
      </g>
     </g>
    </g>
    <g id="xtick_11">
     <g id="line2d_11">
      <g>
       <use xlink:href="#mf2c95f9e82" x="695.781154" y="575.596875" style="stroke: #000000; stroke-width: 0.8"/>
      </g>
     </g>
     <g id="text_11">
      <!-- 10 -->
      <g transform="translate(689.418654 590.195313) scale(0.1 -0.1)">
       <use xlink:href="#DejaVuSans-31"/>
       <use xlink:href="#DejaVuSans-30" x="63.623047"/>
      </g>
     </g>
    </g>
    <g id="xtick_12">
     <g id="line2d_12">
      <g>
       <use xlink:href="#mf2c95f9e82" x="760.165769" y="575.596875" style="stroke: #000000; stroke-width: 0.8"/>
      </g>
     </g>
     <g id="text_12">
      <!-- 11 -->
      <g transform="translate(753.803269 590.195313) scale(0.1 -0.1)">
       <use xlink:href="#DejaVuSans-31"/>
       <use xlink:href="#DejaVuSans-31" x="63.623047"/>
      </g>
     </g>
    </g>
    <g id="xtick_13">
     <g id="line2d_13">
      <g>
       <use xlink:href="#mf2c95f9e82" x="824.550385" y="575.596875" style="stroke: #000000; stroke-width: 0.8"/>
      </g>
     </g>
     <g id="text_13">
      <!-- 12 -->
      <g transform="translate(818.187885 590.195313) scale(0.1 -0.1)">
       <use xlink:href="#DejaVuSans-31"/>
       <use xlink:href="#DejaVuSans-32" x="63.623047"/>
      </g>
     </g>
    </g>
    <g id="xtick_14">
     <g id="line2d_14">
      <g>
       <use xlink:href="#mf2c95f9e82" x="888.935" y="575.596875" style="stroke: #000000; stroke-width: 0.8"/>
      </g>
     </g>
     <g id="text_14">
      <!-- 13 -->
      <g transform="translate(882.5725 590.195313) scale(0.1 -0.1)">
       <use xlink:href="#DejaVuSans-31"/>
       <use xlink:href="#DejaVuSans-33" x="63.623047"/>
      </g>
     </g>
    </g>
    <g id="text_15">
     <!-- k -->
     <g transform="translate(465.8025 608.4325) scale(0.16 -0.16)">
      <defs>
       <path id="DejaVuSans-6b" d="M 581 4863 
L 1159 4863 
L 1159 1991 
L 2875 3500 
L 3609 3500 
L 1753 1863 
L 3688 0 
L 2938 0 
L 1159 1709 
L 1159 0 
L 581 0 
L 581 4863 
z
" transform="scale(0.015625)"/>
      </defs>
      <use xlink:href="#DejaVuSans-6b"/>
     </g>
    </g>
   </g>
   <g id="matplotlib.axis_2">
    <g id="ytick_1">
     <g id="line2d_15">
      <defs>
       <path id="m3df5434b40" d="M 0 0 
L -3.5 0 
" style="stroke: #000000; stroke-width: 0.8"/>
      </defs>
      <g>
       <use xlink:href="#m3df5434b40" x="51.935" y="565.478416" style="stroke: #000000; stroke-width: 0.8"/>
      </g>
     </g>
     <g id="text_16">
      <!-- 1000 -->
      <g transform="translate(19.485 569.277635) scale(0.1 -0.1)">
       <use xlink:href="#DejaVuSans-31"/>
       <use xlink:href="#DejaVuSans-30" x="63.623047"/>
       <use xlink:href="#DejaVuSans-30" x="127.246094"/>
       <use xlink:href="#DejaVuSans-30" x="190.869141"/>
      </g>
     </g>
    </g>
    <g id="ytick_2">
     <g id="line2d_16">
      <g>
       <use xlink:href="#m3df5434b40" x="51.935" y="459.603994" style="stroke: #000000; stroke-width: 0.8"/>
      </g>
     </g>
     <g id="text_17">
      <!-- 1200 -->
      <g transform="translate(19.485 463.403213) scale(0.1 -0.1)">
       <use xlink:href="#DejaVuSans-31"/>
       <use xlink:href="#DejaVuSans-32" x="63.623047"/>
       <use xlink:href="#DejaVuSans-30" x="127.246094"/>
       <use xlink:href="#DejaVuSans-30" x="190.869141"/>
      </g>
     </g>
    </g>
    <g id="ytick_3">
     <g id="line2d_17">
      <g>
       <use xlink:href="#m3df5434b40" x="51.935" y="353.729572" style="stroke: #000000; stroke-width: 0.8"/>
      </g>
     </g>
     <g id="text_18">
      <!-- 1400 -->
      <g transform="translate(19.485 357.528791) scale(0.1 -0.1)">
       <use xlink:href="#DejaVuSans-31"/>
       <use xlink:href="#DejaVuSans-34" x="63.623047"/>
       <use xlink:href="#DejaVuSans-30" x="127.246094"/>
       <use xlink:href="#DejaVuSans-30" x="190.869141"/>
      </g>
     </g>
    </g>
    <g id="ytick_4">
     <g id="line2d_18">
      <g>
       <use xlink:href="#m3df5434b40" x="51.935" y="247.855149" style="stroke: #000000; stroke-width: 0.8"/>
      </g>
     </g>
     <g id="text_19">
      <!-- 1600 -->
      <g transform="translate(19.485 251.654368) scale(0.1 -0.1)">
       <use xlink:href="#DejaVuSans-31"/>
       <use xlink:href="#DejaVuSans-36" x="63.623047"/>
       <use xlink:href="#DejaVuSans-30" x="127.246094"/>
       <use xlink:href="#DejaVuSans-30" x="190.869141"/>
      </g>
     </g>
    </g>
    <g id="ytick_5">
     <g id="line2d_19">
      <g>
       <use xlink:href="#m3df5434b40" x="51.935" y="141.980727" style="stroke: #000000; stroke-width: 0.8"/>
      </g>
     </g>
     <g id="text_20">
      <!-- 1800 -->
      <g transform="translate(19.485 145.779946) scale(0.1 -0.1)">
       <use xlink:href="#DejaVuSans-31"/>
       <use xlink:href="#DejaVuSans-38" x="63.623047"/>
       <use xlink:href="#DejaVuSans-30" x="127.246094"/>
       <use xlink:href="#DejaVuSans-30" x="190.869141"/>
      </g>
     </g>
    </g>
    <g id="ytick_6">
     <g id="line2d_20">
      <g>
       <use xlink:href="#m3df5434b40" x="51.935" y="36.106305" style="stroke: #000000; stroke-width: 0.8"/>
      </g>
     </g>
     <g id="text_21">
      <!-- 2000 -->
      <g transform="translate(19.485 39.905523) scale(0.1 -0.1)">
       <use xlink:href="#DejaVuSans-32"/>
       <use xlink:href="#DejaVuSans-30" x="63.623047"/>
       <use xlink:href="#DejaVuSans-30" x="127.246094"/>
       <use xlink:href="#DejaVuSans-30" x="190.869141"/>
      </g>
     </g>
    </g>
    <g id="text_22">
     <!-- Rating -->
     <g transform="translate(12.1575 324.185625) rotate(-90) scale(0.16 -0.16)">
      <defs>
       <path id="DejaVuSans-52" d="M 2841 2188 
Q 3044 2119 3236 1894 
Q 3428 1669 3622 1275 
L 4263 0 
L 3584 0 
L 2988 1197 
Q 2756 1666 2539 1819 
Q 2322 1972 1947 1972 
L 1259 1972 
L 1259 0 
L 628 0 
L 628 4666 
L 2053 4666 
Q 2853 4666 3247 4331 
Q 3641 3997 3641 3322 
Q 3641 2881 3436 2590 
Q 3231 2300 2841 2188 
z
M 1259 4147 
L 1259 2491 
L 2053 2491 
Q 2509 2491 2742 2702 
Q 2975 2913 2975 3322 
Q 2975 3731 2742 3939 
Q 2509 4147 2053 4147 
L 1259 4147 
z
" transform="scale(0.015625)"/>
       <path id="DejaVuSans-61" d="M 2194 1759 
Q 1497 1759 1228 1600 
Q 959 1441 959 1056 
Q 959 750 1161 570 
Q 1363 391 1709 391 
Q 2188 391 2477 730 
Q 2766 1069 2766 1631 
L 2766 1759 
L 2194 1759 
z
M 3341 1997 
L 3341 0 
L 2766 0 
L 2766 531 
Q 2569 213 2275 61 
Q 1981 -91 1556 -91 
Q 1019 -91 701 211 
Q 384 513 384 1019 
Q 384 1609 779 1909 
Q 1175 2209 1959 2209 
L 2766 2209 
L 2766 2266 
Q 2766 2663 2505 2880 
Q 2244 3097 1772 3097 
Q 1472 3097 1187 3025 
Q 903 2953 641 2809 
L 641 3341 
Q 956 3463 1253 3523 
Q 1550 3584 1831 3584 
Q 2591 3584 2966 3190 
Q 3341 2797 3341 1997 
z
" transform="scale(0.015625)"/>
       <path id="DejaVuSans-74" d="M 1172 4494 
L 1172 3500 
L 2356 3500 
L 2356 3053 
L 1172 3053 
L 1172 1153 
Q 1172 725 1289 603 
Q 1406 481 1766 481 
L 2356 481 
L 2356 0 
L 1766 0 
Q 1100 0 847 248 
Q 594 497 594 1153 
L 594 3053 
L 172 3053 
L 172 3500 
L 594 3500 
L 594 4494 
L 1172 4494 
z
" transform="scale(0.015625)"/>
       <path id="DejaVuSans-69" d="M 603 3500 
L 1178 3500 
L 1178 0 
L 603 0 
L 603 3500 
z
M 603 4863 
L 1178 4863 
L 1178 4134 
L 603 4134 
L 603 4863 
z
" transform="scale(0.015625)"/>
       <path id="DejaVuSans-6e" d="M 3513 2113 
L 3513 0 
L 2938 0 
L 2938 2094 
Q 2938 2591 2744 2837 
Q 2550 3084 2163 3084 
Q 1697 3084 1428 2787 
Q 1159 2491 1159 1978 
L 1159 0 
L 581 0 
L 581 3500 
L 1159 3500 
L 1159 2956 
Q 1366 3272 1645 3428 
Q 1925 3584 2291 3584 
Q 2894 3584 3203 3211 
Q 3513 2838 3513 2113 
z
" transform="scale(0.015625)"/>
       <path id="DejaVuSans-67" d="M 2906 1791 
Q 2906 2416 2648 2759 
Q 2391 3103 1925 3103 
Q 1463 3103 1205 2759 
Q 947 2416 947 1791 
Q 947 1169 1205 825 
Q 1463 481 1925 481 
Q 2391 481 2648 825 
Q 2906 1169 2906 1791 
z
M 3481 434 
Q 3481 -459 3084 -895 
Q 2688 -1331 1869 -1331 
Q 1566 -1331 1297 -1286 
Q 1028 -1241 775 -1147 
L 775 -588 
Q 1028 -725 1275 -790 
Q 1522 -856 1778 -856 
Q 2344 -856 2625 -561 
Q 2906 -266 2906 331 
L 2906 616 
Q 2728 306 2450 153 
Q 2172 0 1784 0 
Q 1141 0 747 490 
Q 353 981 353 1791 
Q 353 2603 747 3093 
Q 1141 3584 1784 3584 
Q 2172 3584 2450 3431 
Q 2728 3278 2906 2969 
L 2906 3500 
L 3481 3500 
L 3481 434 
z
" transform="scale(0.015625)"/>
      </defs>
      <use xlink:href="#DejaVuSans-52"/>
      <use xlink:href="#DejaVuSans-61" x="67.232422"/>
      <use xlink:href="#DejaVuSans-74" x="128.511719"/>
      <use xlink:href="#DejaVuSans-69" x="167.720703"/>
      <use xlink:href="#DejaVuSans-6e" x="195.503906"/>
      <use xlink:href="#DejaVuSans-67" x="258.882812"/>
     </g>
    </g>
   </g>
   <g id="line2d_21">
    <path d="M 51.935 282.165395 
L 116.319615 298.376224 
L 180.704231 287.875324 
L 245.088846 264.333483 
L 309.473462 219.067065 
L 373.858077 191.715163 
L 438.242692 188.617552 
L 502.627308 193.005834 
L 567.011923 199.588256 
L 631.396538 204.115931 
L 695.781154 202.727169 
L 760.165769 214.224467 
L 824.550385 218.664376 
L 888.935 223.837385 
" clip-path="url(#p841fba702d)" style="fill: none; stroke: #1f77b4; stroke-width: 2; stroke-linecap: square"/>
    <defs>
     <path id="m1110380a45" d="M 0 2 
C 0.530406 2 1.03916 1.789267 1.414214 1.414214 
C 1.789267 1.03916 2 0.530406 2 0 
C 2 -0.530406 1.789267 -1.03916 1.414214 -1.414214 
C 1.03916 -1.789267 0.530406 -2 0 -2 
C -0.530406 -2 -1.03916 -1.789267 -1.414214 -1.414214 
C -1.789267 -1.03916 -2 -0.530406 -2 0 
C -2 0.530406 -1.789267 1.03916 -1.414214 1.414214 
C -1.03916 1.789267 -0.530406 2 0 2 
z
" style="stroke: #1f77b4"/>
    </defs>
    <g clip-path="url(#p841fba702d)">
     <use xlink:href="#m1110380a45" x="51.935" y="282.165395" style="fill: #1f77b4; stroke: #1f77b4"/>
     <use xlink:href="#m1110380a45" x="116.319615" y="298.376224" style="fill: #1f77b4; stroke: #1f77b4"/>
     <use xlink:href="#m1110380a45" x="180.704231" y="287.875324" style="fill: #1f77b4; stroke: #1f77b4"/>
     <use xlink:href="#m1110380a45" x="245.088846" y="264.333483" style="fill: #1f77b4; stroke: #1f77b4"/>
     <use xlink:href="#m1110380a45" x="309.473462" y="219.067065" style="fill: #1f77b4; stroke: #1f77b4"/>
     <use xlink:href="#m1110380a45" x="373.858077" y="191.715163" style="fill: #1f77b4; stroke: #1f77b4"/>
     <use xlink:href="#m1110380a45" x="438.242692" y="188.617552" style="fill: #1f77b4; stroke: #1f77b4"/>
     <use xlink:href="#m1110380a45" x="502.627308" y="193.005834" style="fill: #1f77b4; stroke: #1f77b4"/>
     <use xlink:href="#m1110380a45" x="567.011923" y="199.588256" style="fill: #1f77b4; stroke: #1f77b4"/>
     <use xlink:href="#m1110380a45" x="631.396538" y="204.115931" style="fill: #1f77b4; stroke: #1f77b4"/>
     <use xlink:href="#m1110380a45" x="695.781154" y="202.727169" style="fill: #1f77b4; stroke: #1f77b4"/>
     <use xlink:href="#m1110380a45" x="760.165769" y="214.224467" style="fill: #1f77b4; stroke: #1f77b4"/>
     <use xlink:href="#m1110380a45" x="824.550385" y="218.664376" style="fill: #1f77b4; stroke: #1f77b4"/>
     <use xlink:href="#m1110380a45" x="888.935" y="223.837385" style="fill: #1f77b4; stroke: #1f77b4"/>
    </g>
   </g>
   <g id="line2d_22">
    <path d="M 51.935 301.287978 
L 116.319615 376.126253 
L 180.704231 406.957805 
L 245.088846 442.23959 
L 309.473462 469.209454 
L 373.858077 448.961406 
L 438.242692 420.25688 
L 502.627308 426.896092 
L 567.011923 440.659809 
L 631.396538 454.769426 
L 695.781154 464.082909 
L 760.165769 475.017474 
L 824.550385 479.126971 
L 888.935 484.330957 
" clip-path="url(#p841fba702d)" style="fill: none; stroke-dasharray: 7.4,3.2; stroke-dashoffset: 0; stroke: #ff7f0e; stroke-width: 2"/>
    <defs>
     <path id="m48a0aa749f" d="M -0.49999 0.49999 
L 0.50001 0.49999 
L 0.50001 -0.50001 
L -0.49999 -0.50001 
z
"/>
    </defs>
    <g clip-path="url(#p841fba702d)">
     <use xlink:href="#m48a0aa749f" x="51.935" y="301.287978" style="fill: #ff7f0e"/>
     <use xlink:href="#m48a0aa749f" x="116.319615" y="376.126253" style="fill: #ff7f0e"/>
     <use xlink:href="#m48a0aa749f" x="180.704231" y="406.957805" style="fill: #ff7f0e"/>
     <use xlink:href="#m48a0aa749f" x="245.088846" y="442.23959" style="fill: #ff7f0e"/>
     <use xlink:href="#m48a0aa749f" x="309.473462" y="469.209454" style="fill: #ff7f0e"/>
     <use xlink:href="#m48a0aa749f" x="373.858077" y="448.961406" style="fill: #ff7f0e"/>
     <use xlink:href="#m48a0aa749f" x="438.242692" y="420.25688" style="fill: #ff7f0e"/>
     <use xlink:href="#m48a0aa749f" x="502.627308" y="426.896092" style="fill: #ff7f0e"/>
     <use xlink:href="#m48a0aa749f" x="567.011923" y="440.659809" style="fill: #ff7f0e"/>
     <use xlink:href="#m48a0aa749f" x="631.396538" y="454.769426" style="fill: #ff7f0e"/>
     <use xlink:href="#m48a0aa749f" x="695.781154" y="464.082909" style="fill: #ff7f0e"/>
     <use xlink:href="#m48a0aa749f" x="760.165769" y="475.017474" style="fill: #ff7f0e"/>
     <use xlink:href="#m48a0aa749f" x="824.550385" y="479.126971" style="fill: #ff7f0e"/>
     <use xlink:href="#m48a0aa749f" x="888.935" y="484.330957" style="fill: #ff7f0e"/>
    </g>
   </g>
   <g id="line2d_23">
    <path d="M 51.935 472.441295 
L 116.319615 455.394111 
L 180.704231 440.752737 
L 245.088846 421.093235 
L 309.473462 377.396273 
L 373.858077 329.858274 
L 438.242692 323.002229 
L 502.627308 303.105243 
L 567.011923 279.553077 
L 631.396538 266.873523 
L 695.781154 246.754542 
L 760.165769 180.181725 
L 824.550385 176.903421 
L 888.935 168.240436 
" clip-path="url(#p841fba702d)" style="fill: none; stroke-dasharray: 12.8,3.2,2,3.2; stroke-dashoffset: 0; stroke: #2ca02c; stroke-width: 2"/>
    <defs>
     <path id="m17364a3679" d="M 0 4 
C 1.060812 4 2.078319 3.578535 2.828427 2.828427 
C 3.578535 2.078319 4 1.060812 4 0 
C 4 -1.060812 3.578535 -2.078319 2.828427 -2.828427 
C 2.078319 -3.578535 1.060812 -4 0 -4 
C -1.060812 -4 -2.078319 -3.578535 -2.828427 -2.828427 
C -3.578535 -2.078319 -4 -1.060812 -4 0 
C -4 1.060812 -3.578535 2.078319 -2.828427 2.828427 
C -2.078319 3.578535 -1.060812 4 0 4 
z
" style="stroke: #2ca02c"/>
    </defs>
    <g clip-path="url(#p841fba702d)">
     <use xlink:href="#m17364a3679" x="51.935" y="472.441295" style="fill: #2ca02c; stroke: #2ca02c"/>
     <use xlink:href="#m17364a3679" x="116.319615" y="455.394111" style="fill: #2ca02c; stroke: #2ca02c"/>
     <use xlink:href="#m17364a3679" x="180.704231" y="440.752737" style="fill: #2ca02c; stroke: #2ca02c"/>
     <use xlink:href="#m17364a3679" x="245.088846" y="421.093235" style="fill: #2ca02c; stroke: #2ca02c"/>
     <use xlink:href="#m17364a3679" x="309.473462" y="377.396273" style="fill: #2ca02c; stroke: #2ca02c"/>
     <use xlink:href="#m17364a3679" x="373.858077" y="329.858274" style="fill: #2ca02c; stroke: #2ca02c"/>
     <use xlink:href="#m17364a3679" x="438.242692" y="323.002229" style="fill: #2ca02c; stroke: #2ca02c"/>
     <use xlink:href="#m17364a3679" x="502.627308" y="303.105243" style="fill: #2ca02c; stroke: #2ca02c"/>
     <use xlink:href="#m17364a3679" x="567.011923" y="279.553077" style="fill: #2ca02c; stroke: #2ca02c"/>
     <use xlink:href="#m17364a3679" x="631.396538" y="266.873523" style="fill: #2ca02c; stroke: #2ca02c"/>
     <use xlink:href="#m17364a3679" x="695.781154" y="246.754542" style="fill: #2ca02c; stroke: #2ca02c"/>
     <use xlink:href="#m17364a3679" x="760.165769" y="180.181725" style="fill: #2ca02c; stroke: #2ca02c"/>
     <use xlink:href="#m17364a3679" x="824.550385" y="176.903421" style="fill: #2ca02c; stroke: #2ca02c"/>
     <use xlink:href="#m17364a3679" x="888.935" y="168.240436" style="fill: #2ca02c; stroke: #2ca02c"/>
    </g>
   </g>
   <g id="line2d_24">
    <path d="M 51.935 126.334926 
L 116.319615 126.603386 
L 180.704231 129.886853 
L 245.088846 136.908104 
L 309.473462 149.102365 
L 373.858077 183.780116 
L 438.242692 217.797045 
L 502.627308 240.394115 
L 567.011923 251.762346 
L 631.396538 270.244756 
L 695.781154 274.493646 
L 760.165769 279.114248 
L 824.550385 280.69403 
L 888.935 294.48356 
" clip-path="url(#p841fba702d)" style="fill: none; stroke-dasharray: 2,3.3; stroke-dashoffset: 0; stroke: #d62728; stroke-width: 2"/>
    <defs>
     <path id="mcc3cfe2287" d="M -0 4 
L 4 -4 
L -4 -4 
z
" style="stroke: #d62728; stroke-linejoin: miter"/>
    </defs>
    <g clip-path="url(#p841fba702d)">
     <use xlink:href="#mcc3cfe2287" x="51.935" y="126.334926" style="fill: #d62728; stroke: #d62728; stroke-linejoin: miter"/>
     <use xlink:href="#mcc3cfe2287" x="116.319615" y="126.603386" style="fill: #d62728; stroke: #d62728; stroke-linejoin: miter"/>
     <use xlink:href="#mcc3cfe2287" x="180.704231" y="129.886853" style="fill: #d62728; stroke: #d62728; stroke-linejoin: miter"/>
     <use xlink:href="#mcc3cfe2287" x="245.088846" y="136.908104" style="fill: #d62728; stroke: #d62728; stroke-linejoin: miter"/>
     <use xlink:href="#mcc3cfe2287" x="309.473462" y="149.102365" style="fill: #d62728; stroke: #d62728; stroke-linejoin: miter"/>
     <use xlink:href="#mcc3cfe2287" x="373.858077" y="183.780116" style="fill: #d62728; stroke: #d62728; stroke-linejoin: miter"/>
     <use xlink:href="#mcc3cfe2287" x="438.242692" y="217.797045" style="fill: #d62728; stroke: #d62728; stroke-linejoin: miter"/>
     <use xlink:href="#mcc3cfe2287" x="502.627308" y="240.394115" style="fill: #d62728; stroke: #d62728; stroke-linejoin: miter"/>
     <use xlink:href="#mcc3cfe2287" x="567.011923" y="251.762346" style="fill: #d62728; stroke: #d62728; stroke-linejoin: miter"/>
     <use xlink:href="#mcc3cfe2287" x="631.396538" y="270.244756" style="fill: #d62728; stroke: #d62728; stroke-linejoin: miter"/>
     <use xlink:href="#mcc3cfe2287" x="695.781154" y="274.493646" style="fill: #d62728; stroke: #d62728; stroke-linejoin: miter"/>
     <use xlink:href="#mcc3cfe2287" x="760.165769" y="279.114248" style="fill: #d62728; stroke: #d62728; stroke-linejoin: miter"/>
     <use xlink:href="#mcc3cfe2287" x="824.550385" y="280.69403" style="fill: #d62728; stroke: #d62728; stroke-linejoin: miter"/>
     <use xlink:href="#mcc3cfe2287" x="888.935" y="294.48356" style="fill: #d62728; stroke: #d62728; stroke-linejoin: miter"/>
    </g>
   </g>
   <g id="line2d_25">
    <path d="M 51.935 422.445858 
L 116.319615 396.570483 
L 180.704231 383.653447 
L 245.088846 392.874001 
L 309.473462 405.98722 
L 373.858077 390.994784 
L 438.242692 350.65873 
L 502.627308 326.120491 
L 567.011923 307.27153 
L 631.396538 300.678782 
L 695.781154 277.369261 
L 760.165769 261.705676 
L 824.550385 234.787439 
L 888.935 191.555119 
" clip-path="url(#p841fba702d)" style="fill: none; stroke: #9467bd; stroke-width: 2; stroke-linecap: square"/>
    <defs>
     <path id="m0e9a7c81e1" d="M 0 -4 
L -4 4 
L 4 4 
z
" style="stroke: #9467bd; stroke-linejoin: miter"/>
    </defs>
    <g clip-path="url(#p841fba702d)">
     <use xlink:href="#m0e9a7c81e1" x="51.935" y="422.445858" style="fill: #9467bd; stroke: #9467bd; stroke-linejoin: miter"/>
     <use xlink:href="#m0e9a7c81e1" x="116.319615" y="396.570483" style="fill: #9467bd; stroke: #9467bd; stroke-linejoin: miter"/>
     <use xlink:href="#m0e9a7c81e1" x="180.704231" y="383.653447" style="fill: #9467bd; stroke: #9467bd; stroke-linejoin: miter"/>
     <use xlink:href="#m0e9a7c81e1" x="245.088846" y="392.874001" style="fill: #9467bd; stroke: #9467bd; stroke-linejoin: miter"/>
     <use xlink:href="#m0e9a7c81e1" x="309.473462" y="405.98722" style="fill: #9467bd; stroke: #9467bd; stroke-linejoin: miter"/>
     <use xlink:href="#m0e9a7c81e1" x="373.858077" y="390.994784" style="fill: #9467bd; stroke: #9467bd; stroke-linejoin: miter"/>
     <use xlink:href="#m0e9a7c81e1" x="438.242692" y="350.65873" style="fill: #9467bd; stroke: #9467bd; stroke-linejoin: miter"/>
     <use xlink:href="#m0e9a7c81e1" x="502.627308" y="326.120491" style="fill: #9467bd; stroke: #9467bd; stroke-linejoin: miter"/>
     <use xlink:href="#m0e9a7c81e1" x="567.011923" y="307.27153" style="fill: #9467bd; stroke: #9467bd; stroke-linejoin: miter"/>
     <use xlink:href="#m0e9a7c81e1" x="631.396538" y="300.678782" style="fill: #9467bd; stroke: #9467bd; stroke-linejoin: miter"/>
     <use xlink:href="#m0e9a7c81e1" x="695.781154" y="277.369261" style="fill: #9467bd; stroke: #9467bd; stroke-linejoin: miter"/>
     <use xlink:href="#m0e9a7c81e1" x="760.165769" y="261.705676" style="fill: #9467bd; stroke: #9467bd; stroke-linejoin: miter"/>
     <use xlink:href="#m0e9a7c81e1" x="824.550385" y="234.787439" style="fill: #9467bd; stroke: #9467bd; stroke-linejoin: miter"/>
     <use xlink:href="#m0e9a7c81e1" x="888.935" y="191.555119" style="fill: #9467bd; stroke: #9467bd; stroke-linejoin: miter"/>
    </g>
   </g>
   <g id="line2d_26">
    <path d="M 51.935 460.608422 
L 116.319615 476.447538 
L 180.704231 482.405276 
L 245.088846 459.111243 
L 309.473462 411.986259 
L 373.858077 341.087113 
L 438.242692 287.240314 
L 502.627308 224.838946 
L 567.011923 177.38355 
L 631.396538 159.876887 
L 695.781154 160.609988 
L 760.165769 170.682386 
L 824.550385 175.411405 
L 888.935 181.622114 
" clip-path="url(#p841fba702d)" style="fill: none; stroke-dasharray: 7.4,3.2; stroke-dashoffset: 0; stroke: #8c564b; stroke-width: 2"/>
    <defs>
     <path id="md188dc2779" d="M -4 -0 
L 4 4 
L 4 -4 
z
" style="stroke: #8c564b; stroke-linejoin: miter"/>
    </defs>
    <g clip-path="url(#p841fba702d)">
     <use xlink:href="#md188dc2779" x="51.935" y="460.608422" style="fill: #8c564b; stroke: #8c564b; stroke-linejoin: miter"/>
     <use xlink:href="#md188dc2779" x="116.319615" y="476.447538" style="fill: #8c564b; stroke: #8c564b; stroke-linejoin: miter"/>
     <use xlink:href="#md188dc2779" x="180.704231" y="482.405276" style="fill: #8c564b; stroke: #8c564b; stroke-linejoin: miter"/>
     <use xlink:href="#md188dc2779" x="245.088846" y="459.111243" style="fill: #8c564b; stroke: #8c564b; stroke-linejoin: miter"/>
     <use xlink:href="#md188dc2779" x="309.473462" y="411.986259" style="fill: #8c564b; stroke: #8c564b; stroke-linejoin: miter"/>
     <use xlink:href="#md188dc2779" x="373.858077" y="341.087113" style="fill: #8c564b; stroke: #8c564b; stroke-linejoin: miter"/>
     <use xlink:href="#md188dc2779" x="438.242692" y="287.240314" style="fill: #8c564b; stroke: #8c564b; stroke-linejoin: miter"/>
     <use xlink:href="#md188dc2779" x="502.627308" y="224.838946" style="fill: #8c564b; stroke: #8c564b; stroke-linejoin: miter"/>
     <use xlink:href="#md188dc2779" x="567.011923" y="177.38355" style="fill: #8c564b; stroke: #8c564b; stroke-linejoin: miter"/>
     <use xlink:href="#md188dc2779" x="631.396538" y="159.876887" style="fill: #8c564b; stroke: #8c564b; stroke-linejoin: miter"/>
     <use xlink:href="#md188dc2779" x="695.781154" y="160.609988" style="fill: #8c564b; stroke: #8c564b; stroke-linejoin: miter"/>
     <use xlink:href="#md188dc2779" x="760.165769" y="170.682386" style="fill: #8c564b; stroke: #8c564b; stroke-linejoin: miter"/>
     <use xlink:href="#md188dc2779" x="824.550385" y="175.411405" style="fill: #8c564b; stroke: #8c564b; stroke-linejoin: miter"/>
     <use xlink:href="#md188dc2779" x="888.935" y="181.622114" style="fill: #8c564b; stroke: #8c564b; stroke-linejoin: miter"/>
    </g>
   </g>
   <g id="line2d_27">
    <path d="M 51.935 364.00427 
L 116.319615 314.039809 
L 180.704231 305.831141 
L 245.088846 276.228308 
L 309.473462 242.650208 
L 373.858077 218.772792 
L 438.242692 208.008595 
L 502.627308 203.713241 
L 567.011923 205.964172 
L 631.396538 158.364221 
L 695.781154 168.808331 
L 760.165769 189.495208 
L 824.550385 197.962011 
L 888.935 210.507334 
" clip-path="url(#p841fba702d)" style="fill: none; stroke-dasharray: 12.8,3.2,2,3.2; stroke-dashoffset: 0; stroke: #e377c2; stroke-width: 2"/>
    <defs>
     <path id="m57f6b8be94" d="M 4 0 
L -4 -4 
L -4 4 
z
" style="stroke: #e377c2; stroke-linejoin: miter"/>
    </defs>
    <g clip-path="url(#p841fba702d)">
     <use xlink:href="#m57f6b8be94" x="51.935" y="364.00427" style="fill: #e377c2; stroke: #e377c2; stroke-linejoin: miter"/>
     <use xlink:href="#m57f6b8be94" x="116.319615" y="314.039809" style="fill: #e377c2; stroke: #e377c2; stroke-linejoin: miter"/>
     <use xlink:href="#m57f6b8be94" x="180.704231" y="305.831141" style="fill: #e377c2; stroke: #e377c2; stroke-linejoin: miter"/>
     <use xlink:href="#m57f6b8be94" x="245.088846" y="276.228308" style="fill: #e377c2; stroke: #e377c2; stroke-linejoin: miter"/>
     <use xlink:href="#m57f6b8be94" x="309.473462" y="242.650208" style="fill: #e377c2; stroke: #e377c2; stroke-linejoin: miter"/>
     <use xlink:href="#m57f6b8be94" x="373.858077" y="218.772792" style="fill: #e377c2; stroke: #e377c2; stroke-linejoin: miter"/>
     <use xlink:href="#m57f6b8be94" x="438.242692" y="208.008595" style="fill: #e377c2; stroke: #e377c2; stroke-linejoin: miter"/>
     <use xlink:href="#m57f6b8be94" x="502.627308" y="203.713241" style="fill: #e377c2; stroke: #e377c2; stroke-linejoin: miter"/>
     <use xlink:href="#m57f6b8be94" x="567.011923" y="205.964172" style="fill: #e377c2; stroke: #e377c2; stroke-linejoin: miter"/>
     <use xlink:href="#m57f6b8be94" x="631.396538" y="158.364221" style="fill: #e377c2; stroke: #e377c2; stroke-linejoin: miter"/>
     <use xlink:href="#m57f6b8be94" x="695.781154" y="168.808331" style="fill: #e377c2; stroke: #e377c2; stroke-linejoin: miter"/>
     <use xlink:href="#m57f6b8be94" x="760.165769" y="189.495208" style="fill: #e377c2; stroke: #e377c2; stroke-linejoin: miter"/>
     <use xlink:href="#m57f6b8be94" x="824.550385" y="197.962011" style="fill: #e377c2; stroke: #e377c2; stroke-linejoin: miter"/>
     <use xlink:href="#m57f6b8be94" x="888.935" y="210.507334" style="fill: #e377c2; stroke: #e377c2; stroke-linejoin: miter"/>
    </g>
   </g>
   <g id="line2d_28">
    <path d="M 51.935 283.259884 
L 116.319615 253.698353 
L 180.704231 246.460269 
L 245.088846 251.80881 
L 309.473462 289.15567 
L 373.858077 355.248357 
L 438.242692 398.222542 
L 502.627308 427.701471 
L 567.011923 447.443576 
L 631.396538 460.980135 
L 695.781154 468.946157 
L 760.165769 475.848667 
L 824.550385 478.011831 
L 888.935 482.524018 
" clip-path="url(#p841fba702d)" style="fill: none; stroke-dasharray: 2,3.3; stroke-dashoffset: 0; stroke: #bcbd22; stroke-width: 2"/>
    <defs>
     <path id="m32a60f0154" d="M -4 4 
L 4 4 
L 4 -4 
L -4 -4 
z
" style="stroke: #bcbd22; stroke-linejoin: miter"/>
    </defs>
    <g clip-path="url(#p841fba702d)">
     <use xlink:href="#m32a60f0154" x="51.935" y="283.259884" style="fill: #bcbd22; stroke: #bcbd22; stroke-linejoin: miter"/>
     <use xlink:href="#m32a60f0154" x="116.319615" y="253.698353" style="fill: #bcbd22; stroke: #bcbd22; stroke-linejoin: miter"/>
     <use xlink:href="#m32a60f0154" x="180.704231" y="246.460269" style="fill: #bcbd22; stroke: #bcbd22; stroke-linejoin: miter"/>
     <use xlink:href="#m32a60f0154" x="245.088846" y="251.80881" style="fill: #bcbd22; stroke: #bcbd22; stroke-linejoin: miter"/>
     <use xlink:href="#m32a60f0154" x="309.473462" y="289.15567" style="fill: #bcbd22; stroke: #bcbd22; stroke-linejoin: miter"/>
     <use xlink:href="#m32a60f0154" x="373.858077" y="355.248357" style="fill: #bcbd22; stroke: #bcbd22; stroke-linejoin: miter"/>
     <use xlink:href="#m32a60f0154" x="438.242692" y="398.222542" style="fill: #bcbd22; stroke: #bcbd22; stroke-linejoin: miter"/>
     <use xlink:href="#m32a60f0154" x="502.627308" y="427.701471" style="fill: #bcbd22; stroke: #bcbd22; stroke-linejoin: miter"/>
     <use xlink:href="#m32a60f0154" x="567.011923" y="447.443576" style="fill: #bcbd22; stroke: #bcbd22; stroke-linejoin: miter"/>
     <use xlink:href="#m32a60f0154" x="631.396538" y="460.980135" style="fill: #bcbd22; stroke: #bcbd22; stroke-linejoin: miter"/>
     <use xlink:href="#m32a60f0154" x="695.781154" y="468.946157" style="fill: #bcbd22; stroke: #bcbd22; stroke-linejoin: miter"/>
     <use xlink:href="#m32a60f0154" x="760.165769" y="475.848667" style="fill: #bcbd22; stroke: #bcbd22; stroke-linejoin: miter"/>
     <use xlink:href="#m32a60f0154" x="824.550385" y="478.011831" style="fill: #bcbd22; stroke: #bcbd22; stroke-linejoin: miter"/>
     <use xlink:href="#m32a60f0154" x="888.935" y="482.524018" style="fill: #bcbd22; stroke: #bcbd22; stroke-linejoin: miter"/>
    </g>
   </g>
   <g id="line2d_29">
    <path d="M 51.935 99.334086 
L 116.319615 104.403842 
L 180.704231 109.267091 
L 245.088846 118.859359 
L 309.473462 137.889014 
L 373.858077 172.830063 
L 438.242692 197.084354 
L 502.627308 217.580212 
L 567.011923 234.586095 
L 631.396538 254.606985 
L 695.781154 260.864159 
L 760.165769 269.470354 
L 824.550385 269.625234 
L 888.935 273.363018 
" clip-path="url(#p841fba702d)" style="fill: none; stroke: #17becf; stroke-width: 2; stroke-linecap: square"/>
    <defs>
     <path id="mbafcc80bc0" d="M 0 -4 
L -3.804226 -1.236068 
L -2.351141 3.236068 
L 2.351141 3.236068 
L 3.804226 -1.236068 
z
" style="stroke: #17becf; stroke-linejoin: miter"/>
    </defs>
    <g clip-path="url(#p841fba702d)">
     <use xlink:href="#mbafcc80bc0" x="51.935" y="99.334086" style="fill: #17becf; stroke: #17becf; stroke-linejoin: miter"/>
     <use xlink:href="#mbafcc80bc0" x="116.319615" y="104.403842" style="fill: #17becf; stroke: #17becf; stroke-linejoin: miter"/>
     <use xlink:href="#mbafcc80bc0" x="180.704231" y="109.267091" style="fill: #17becf; stroke: #17becf; stroke-linejoin: miter"/>
     <use xlink:href="#mbafcc80bc0" x="245.088846" y="118.859359" style="fill: #17becf; stroke: #17becf; stroke-linejoin: miter"/>
     <use xlink:href="#mbafcc80bc0" x="309.473462" y="137.889014" style="fill: #17becf; stroke: #17becf; stroke-linejoin: miter"/>
     <use xlink:href="#mbafcc80bc0" x="373.858077" y="172.830063" style="fill: #17becf; stroke: #17becf; stroke-linejoin: miter"/>
     <use xlink:href="#mbafcc80bc0" x="438.242692" y="197.084354" style="fill: #17becf; stroke: #17becf; stroke-linejoin: miter"/>
     <use xlink:href="#mbafcc80bc0" x="502.627308" y="217.580212" style="fill: #17becf; stroke: #17becf; stroke-linejoin: miter"/>
     <use xlink:href="#mbafcc80bc0" x="567.011923" y="234.586095" style="fill: #17becf; stroke: #17becf; stroke-linejoin: miter"/>
     <use xlink:href="#mbafcc80bc0" x="631.396538" y="254.606985" style="fill: #17becf; stroke: #17becf; stroke-linejoin: miter"/>
     <use xlink:href="#mbafcc80bc0" x="695.781154" y="260.864159" style="fill: #17becf; stroke: #17becf; stroke-linejoin: miter"/>
     <use xlink:href="#mbafcc80bc0" x="760.165769" y="269.470354" style="fill: #17becf; stroke: #17becf; stroke-linejoin: miter"/>
     <use xlink:href="#mbafcc80bc0" x="824.550385" y="269.625234" style="fill: #17becf; stroke: #17becf; stroke-linejoin: miter"/>
     <use xlink:href="#mbafcc80bc0" x="888.935" y="273.363018" style="fill: #17becf; stroke: #17becf; stroke-linejoin: miter"/>
    </g>
   </g>
   <g id="line2d_30">
    <path d="M 51.935 196.041492 
L 116.319615 206.263607 
L 180.704231 214.833664 
L 245.088846 244.467473 
L 309.473462 305.480078 
L 373.858077 374.675538 
L 438.242692 417.035365 
L 502.627308 444.567961 
L 567.011923 463.711195 
L 631.396538 477.41296 
L 695.781154 483.267444 
L 760.165769 492.1834 
L 824.550385 496.736888 
L 888.935 497.459664 
" clip-path="url(#p841fba702d)" style="fill: none; stroke-dasharray: 7.4,3.2; stroke-dashoffset: 0; stroke: #1f77b4; stroke-width: 2"/>
    <defs>
     <path id="m757593e87d" d="M 0 -4 
L -0.898056 -1.236068 
L -3.804226 -1.236068 
L -1.453085 0.472136 
L -2.351141 3.236068 
L -0 1.527864 
L 2.351141 3.236068 
L 1.453085 0.472136 
L 3.804226 -1.236068 
L 0.898056 -1.236068 
z
" style="stroke: #1f77b4; stroke-linejoin: bevel"/>
    </defs>
    <g clip-path="url(#p841fba702d)">
     <use xlink:href="#m757593e87d" x="51.935" y="196.041492" style="fill: #1f77b4; stroke: #1f77b4; stroke-linejoin: bevel"/>
     <use xlink:href="#m757593e87d" x="116.319615" y="206.263607" style="fill: #1f77b4; stroke: #1f77b4; stroke-linejoin: bevel"/>
     <use xlink:href="#m757593e87d" x="180.704231" y="214.833664" style="fill: #1f77b4; stroke: #1f77b4; stroke-linejoin: bevel"/>
     <use xlink:href="#m757593e87d" x="245.088846" y="244.467473" style="fill: #1f77b4; stroke: #1f77b4; stroke-linejoin: bevel"/>
     <use xlink:href="#m757593e87d" x="309.473462" y="305.480078" style="fill: #1f77b4; stroke: #1f77b4; stroke-linejoin: bevel"/>
     <use xlink:href="#m757593e87d" x="373.858077" y="374.675538" style="fill: #1f77b4; stroke: #1f77b4; stroke-linejoin: bevel"/>
     <use xlink:href="#m757593e87d" x="438.242692" y="417.035365" style="fill: #1f77b4; stroke: #1f77b4; stroke-linejoin: bevel"/>
     <use xlink:href="#m757593e87d" x="502.627308" y="444.567961" style="fill: #1f77b4; stroke: #1f77b4; stroke-linejoin: bevel"/>
     <use xlink:href="#m757593e87d" x="567.011923" y="463.711195" style="fill: #1f77b4; stroke: #1f77b4; stroke-linejoin: bevel"/>
     <use xlink:href="#m757593e87d" x="631.396538" y="477.41296" style="fill: #1f77b4; stroke: #1f77b4; stroke-linejoin: bevel"/>
     <use xlink:href="#m757593e87d" x="695.781154" y="483.267444" style="fill: #1f77b4; stroke: #1f77b4; stroke-linejoin: bevel"/>
     <use xlink:href="#m757593e87d" x="760.165769" y="492.1834" style="fill: #1f77b4; stroke: #1f77b4; stroke-linejoin: bevel"/>
     <use xlink:href="#m757593e87d" x="824.550385" y="496.736888" style="fill: #1f77b4; stroke: #1f77b4; stroke-linejoin: bevel"/>
     <use xlink:href="#m757593e87d" x="888.935" y="497.459664" style="fill: #1f77b4; stroke: #1f77b4; stroke-linejoin: bevel"/>
    </g>
   </g>
   <g id="line2d_31">
    <path d="M 51.935 575.596875 
L 51.935 21.196875 
" clip-path="url(#p841fba702d)" style="fill: none; stroke-dasharray: 3.7,1.6; stroke-dashoffset: 0; stroke: #000000; stroke-opacity: 0.5"/>
   </g>
   <g id="line2d_32">
    <path d="M 116.319615 575.596875 
L 116.319615 21.196875 
" clip-path="url(#p841fba702d)" style="fill: none; stroke-dasharray: 3.7,1.6; stroke-dashoffset: 0; stroke: #000000; stroke-opacity: 0.5"/>
   </g>
   <g id="line2d_33">
    <path d="M 180.704231 575.596875 
L 180.704231 21.196875 
" clip-path="url(#p841fba702d)" style="fill: none; stroke-dasharray: 3.7,1.6; stroke-dashoffset: 0; stroke: #000000; stroke-opacity: 0.5"/>
   </g>
   <g id="line2d_34">
    <path d="M 245.088846 575.596875 
L 245.088846 21.196875 
" clip-path="url(#p841fba702d)" style="fill: none; stroke-dasharray: 3.7,1.6; stroke-dashoffset: 0; stroke: #000000; stroke-opacity: 0.5"/>
   </g>
   <g id="line2d_35">
    <path d="M 309.473462 575.596875 
L 309.473462 21.196875 
" clip-path="url(#p841fba702d)" style="fill: none; stroke-dasharray: 3.7,1.6; stroke-dashoffset: 0; stroke: #000000; stroke-opacity: 0.5"/>
   </g>
   <g id="line2d_36">
    <path d="M 373.858077 575.596875 
L 373.858077 21.196875 
" clip-path="url(#p841fba702d)" style="fill: none; stroke-dasharray: 3.7,1.6; stroke-dashoffset: 0; stroke: #000000; stroke-opacity: 0.5"/>
   </g>
   <g id="line2d_37">
    <path d="M 438.242692 575.596875 
L 438.242692 21.196875 
" clip-path="url(#p841fba702d)" style="fill: none; stroke-dasharray: 3.7,1.6; stroke-dashoffset: 0; stroke: #000000; stroke-opacity: 0.5"/>
   </g>
   <g id="line2d_38">
    <path d="M 502.627308 575.596875 
L 502.627308 21.196875 
" clip-path="url(#p841fba702d)" style="fill: none; stroke-dasharray: 3.7,1.6; stroke-dashoffset: 0; stroke: #000000; stroke-opacity: 0.5"/>
   </g>
   <g id="line2d_39">
    <path d="M 567.011923 575.596875 
L 567.011923 21.196875 
" clip-path="url(#p841fba702d)" style="fill: none; stroke-dasharray: 3.7,1.6; stroke-dashoffset: 0; stroke: #000000; stroke-opacity: 0.5"/>
   </g>
   <g id="line2d_40">
    <path d="M 631.396538 575.596875 
L 631.396538 21.196875 
" clip-path="url(#p841fba702d)" style="fill: none; stroke-dasharray: 3.7,1.6; stroke-dashoffset: 0; stroke: #000000; stroke-opacity: 0.5"/>
   </g>
   <g id="line2d_41">
    <path d="M 695.781154 575.596875 
L 695.781154 21.196875 
" clip-path="url(#p841fba702d)" style="fill: none; stroke-dasharray: 3.7,1.6; stroke-dashoffset: 0; stroke: #000000; stroke-opacity: 0.5"/>
   </g>
   <g id="line2d_42">
    <path d="M 760.165769 575.596875 
L 760.165769 21.196875 
" clip-path="url(#p841fba702d)" style="fill: none; stroke-dasharray: 3.7,1.6; stroke-dashoffset: 0; stroke: #000000; stroke-opacity: 0.5"/>
   </g>
   <g id="line2d_43">
    <path d="M 824.550385 575.596875 
L 824.550385 21.196875 
" clip-path="url(#p841fba702d)" style="fill: none; stroke-dasharray: 3.7,1.6; stroke-dashoffset: 0; stroke: #000000; stroke-opacity: 0.5"/>
   </g>
   <g id="line2d_44">
    <path d="M 888.935 575.596875 
L 888.935 21.196875 
" clip-path="url(#p841fba702d)" style="fill: none; stroke-dasharray: 3.7,1.6; stroke-dashoffset: 0; stroke: #000000; stroke-opacity: 0.5"/>
   </g>
   <g id="patch_3">
    <path d="M 51.935 575.596875 
L 51.935 21.196875 
" style="fill: none; stroke: #000000; stroke-width: 0.8; stroke-linejoin: miter; stroke-linecap: square"/>
   </g>
   <g id="patch_4">
    <path d="M 888.935 575.596875 
L 888.935 21.196875 
" style="fill: none; stroke: #000000; stroke-width: 0.8; stroke-linejoin: miter; stroke-linecap: square"/>
   </g>
   <g id="patch_5">
    <path d="M 51.935 575.596875 
L 888.935 575.596875 
" style="fill: none; stroke: #000000; stroke-width: 0.8; stroke-linejoin: miter; stroke-linecap: square"/>
   </g>
   <g id="patch_6">
    <path d="M 51.935 21.196875 
L 888.935 21.196875 
" style="fill: none; stroke: #000000; stroke-width: 0.8; stroke-linejoin: miter; stroke-linecap: square"/>
   </g>
   <g id="text_23">
    <!-- CEC 2017 Rating Interval bands -->
    <g transform="translate(311.083438 15.196875) scale(0.2 -0.2)">
     <defs>
      <path id="DejaVuSans-43" d="M 4122 4306 
L 4122 3641 
Q 3803 3938 3442 4084 
Q 3081 4231 2675 4231 
Q 1875 4231 1450 3742 
Q 1025 3253 1025 2328 
Q 1025 1406 1450 917 
Q 1875 428 2675 428 
Q 3081 428 3442 575 
Q 3803 722 4122 1019 
L 4122 359 
Q 3791 134 3420 21 
Q 3050 -91 2638 -91 
Q 1578 -91 968 557 
Q 359 1206 359 2328 
Q 359 3453 968 4101 
Q 1578 4750 2638 4750 
Q 3056 4750 3426 4639 
Q 3797 4528 4122 4306 
z
" transform="scale(0.015625)"/>
      <path id="DejaVuSans-45" d="M 628 4666 
L 3578 4666 
L 3578 4134 
L 1259 4134 
L 1259 2753 
L 3481 2753 
L 3481 2222 
L 1259 2222 
L 1259 531 
L 3634 531 
L 3634 0 
L 628 0 
L 628 4666 
z
" transform="scale(0.015625)"/>
      <path id="DejaVuSans-20" transform="scale(0.015625)"/>
      <path id="DejaVuSans-49" d="M 628 4666 
L 1259 4666 
L 1259 0 
L 628 0 
L 628 4666 
z
" transform="scale(0.015625)"/>
      <path id="DejaVuSans-65" d="M 3597 1894 
L 3597 1613 
L 953 1613 
Q 991 1019 1311 708 
Q 1631 397 2203 397 
Q 2534 397 2845 478 
Q 3156 559 3463 722 
L 3463 178 
Q 3153 47 2828 -22 
Q 2503 -91 2169 -91 
Q 1331 -91 842 396 
Q 353 884 353 1716 
Q 353 2575 817 3079 
Q 1281 3584 2069 3584 
Q 2775 3584 3186 3129 
Q 3597 2675 3597 1894 
z
M 3022 2063 
Q 3016 2534 2758 2815 
Q 2500 3097 2075 3097 
Q 1594 3097 1305 2825 
Q 1016 2553 972 2059 
L 3022 2063 
z
" transform="scale(0.015625)"/>
      <path id="DejaVuSans-72" d="M 2631 2963 
Q 2534 3019 2420 3045 
Q 2306 3072 2169 3072 
Q 1681 3072 1420 2755 
Q 1159 2438 1159 1844 
L 1159 0 
L 581 0 
L 581 3500 
L 1159 3500 
L 1159 2956 
Q 1341 3275 1631 3429 
Q 1922 3584 2338 3584 
Q 2397 3584 2469 3576 
Q 2541 3569 2628 3553 
L 2631 2963 
z
" transform="scale(0.015625)"/>
      <path id="DejaVuSans-76" d="M 191 3500 
L 800 3500 
L 1894 563 
L 2988 3500 
L 3597 3500 
L 2284 0 
L 1503 0 
L 191 3500 
z
" transform="scale(0.015625)"/>
      <path id="DejaVuSans-6c" d="M 603 4863 
L 1178 4863 
L 1178 0 
L 603 0 
L 603 4863 
z
" transform="scale(0.015625)"/>
      <path id="DejaVuSans-62" d="M 3116 1747 
Q 3116 2381 2855 2742 
Q 2594 3103 2138 3103 
Q 1681 3103 1420 2742 
Q 1159 2381 1159 1747 
Q 1159 1113 1420 752 
Q 1681 391 2138 391 
Q 2594 391 2855 752 
Q 3116 1113 3116 1747 
z
M 1159 2969 
Q 1341 3281 1617 3432 
Q 1894 3584 2278 3584 
Q 2916 3584 3314 3078 
Q 3713 2572 3713 1747 
Q 3713 922 3314 415 
Q 2916 -91 2278 -91 
Q 1894 -91 1617 61 
Q 1341 213 1159 525 
L 1159 0 
L 581 0 
L 581 4863 
L 1159 4863 
L 1159 2969 
z
" transform="scale(0.015625)"/>
      <path id="DejaVuSans-64" d="M 2906 2969 
L 2906 4863 
L 3481 4863 
L 3481 0 
L 2906 0 
L 2906 525 
Q 2725 213 2448 61 
Q 2172 -91 1784 -91 
Q 1150 -91 751 415 
Q 353 922 353 1747 
Q 353 2572 751 3078 
Q 1150 3584 1784 3584 
Q 2172 3584 2448 3432 
Q 2725 3281 2906 2969 
z
M 947 1747 
Q 947 1113 1208 752 
Q 1469 391 1925 391 
Q 2381 391 2643 752 
Q 2906 1113 2906 1747 
Q 2906 2381 2643 2742 
Q 2381 3103 1925 3103 
Q 1469 3103 1208 2742 
Q 947 2381 947 1747 
z
" transform="scale(0.015625)"/>
      <path id="DejaVuSans-73" d="M 2834 3397 
L 2834 2853 
Q 2591 2978 2328 3040 
Q 2066 3103 1784 3103 
Q 1356 3103 1142 2972 
Q 928 2841 928 2578 
Q 928 2378 1081 2264 
Q 1234 2150 1697 2047 
L 1894 2003 
Q 2506 1872 2764 1633 
Q 3022 1394 3022 966 
Q 3022 478 2636 193 
Q 2250 -91 1575 -91 
Q 1294 -91 989 -36 
Q 684 19 347 128 
L 347 722 
Q 666 556 975 473 
Q 1284 391 1588 391 
Q 1994 391 2212 530 
Q 2431 669 2431 922 
Q 2431 1156 2273 1281 
Q 2116 1406 1581 1522 
L 1381 1569 
Q 847 1681 609 1914 
Q 372 2147 372 2553 
Q 372 3047 722 3315 
Q 1072 3584 1716 3584 
Q 2034 3584 2315 3537 
Q 2597 3491 2834 3397 
z
" transform="scale(0.015625)"/>
     </defs>
     <use xlink:href="#DejaVuSans-43"/>
     <use xlink:href="#DejaVuSans-45" x="69.824219"/>
     <use xlink:href="#DejaVuSans-43" x="133.007812"/>
     <use xlink:href="#DejaVuSans-20" x="202.832031"/>
     <use xlink:href="#DejaVuSans-32" x="234.619141"/>
     <use xlink:href="#DejaVuSans-30" x="298.242188"/>
     <use xlink:href="#DejaVuSans-31" x="361.865234"/>
     <use xlink:href="#DejaVuSans-37" x="425.488281"/>
     <use xlink:href="#DejaVuSans-20" x="489.111328"/>
     <use xlink:href="#DejaVuSans-52" x="520.898438"/>
     <use xlink:href="#DejaVuSans-61" x="588.130859"/>
     <use xlink:href="#DejaVuSans-74" x="649.410156"/>
     <use xlink:href="#DejaVuSans-69" x="688.619141"/>
     <use xlink:href="#DejaVuSans-6e" x="716.402344"/>
     <use xlink:href="#DejaVuSans-67" x="779.78125"/>
     <use xlink:href="#DejaVuSans-20" x="843.257812"/>
     <use xlink:href="#DejaVuSans-49" x="875.044922"/>
     <use xlink:href="#DejaVuSans-6e" x="904.537109"/>
     <use xlink:href="#DejaVuSans-74" x="967.916016"/>
     <use xlink:href="#DejaVuSans-65" x="1007.125"/>
     <use xlink:href="#DejaVuSans-72" x="1068.648438"/>
     <use xlink:href="#DejaVuSans-76" x="1109.761719"/>
     <use xlink:href="#DejaVuSans-61" x="1168.941406"/>
     <use xlink:href="#DejaVuSans-6c" x="1230.220703"/>
     <use xlink:href="#DejaVuSans-20" x="1258.003906"/>
     <use xlink:href="#DejaVuSans-62" x="1289.791016"/>
     <use xlink:href="#DejaVuSans-61" x="1353.267578"/>
     <use xlink:href="#DejaVuSans-6e" x="1414.546875"/>
     <use xlink:href="#DejaVuSans-64" x="1477.925781"/>
     <use xlink:href="#DejaVuSans-73" x="1541.402344"/>
    </g>
   </g>
   <g id="legend_1">
    <g id="patch_7">
     <path d="M 58.935 175.978125 
L 175.700625 175.978125 
Q 177.700625 175.978125 177.700625 173.978125 
L 177.700625 28.196875 
Q 177.700625 26.196875 175.700625 26.196875 
L 58.935 26.196875 
Q 56.935 26.196875 56.935 28.196875 
L 56.935 173.978125 
Q 56.935 175.978125 58.935 175.978125 
z
" style="fill: #ffffff; opacity: 0.8; stroke: #cccccc; stroke-linejoin: miter"/>
    </g>
    <g id="patch_8">
     <path d="M 60.935 37.795313 
L 80.935 37.795313 
L 80.935 30.795313 
L 60.935 30.795313 
z
" style="fill: #8fbbda; fill-opacity: 0.3"/>
    </g>
    <g id="line2d_45">
     <path d="M 60.935 34.295313 
L 70.935 34.295313 
L 80.935 34.295313 
" style="fill: none; stroke: #1f77b4; stroke-width: 2; stroke-linecap: square"/>
     <g>
      <use xlink:href="#m1110380a45" x="70.935" y="34.295313" style="fill: #1f77b4; stroke: #1f77b4"/>
     </g>
    </g>
    <g id="text_24">
     <!-- DES -->
     <g transform="translate(88.935 37.795313) scale(0.1 -0.1)">
      <defs>
       <path id="DejaVuSans-44" d="M 1259 4147 
L 1259 519 
L 2022 519 
Q 2988 519 3436 956 
Q 3884 1394 3884 2338 
Q 3884 3275 3436 3711 
Q 2988 4147 2022 4147 
L 1259 4147 
z
M 628 4666 
L 1925 4666 
Q 3281 4666 3915 4102 
Q 4550 3538 4550 2338 
Q 4550 1131 3912 565 
Q 3275 0 1925 0 
L 628 0 
L 628 4666 
z
" transform="scale(0.015625)"/>
       <path id="DejaVuSans-53" d="M 3425 4513 
L 3425 3897 
Q 3066 4069 2747 4153 
Q 2428 4238 2131 4238 
Q 1616 4238 1336 4038 
Q 1056 3838 1056 3469 
Q 1056 3159 1242 3001 
Q 1428 2844 1947 2747 
L 2328 2669 
Q 3034 2534 3370 2195 
Q 3706 1856 3706 1288 
Q 3706 609 3251 259 
Q 2797 -91 1919 -91 
Q 1588 -91 1214 -16 
Q 841 59 441 206 
L 441 856 
Q 825 641 1194 531 
Q 1563 422 1919 422 
Q 2459 422 2753 634 
Q 3047 847 3047 1241 
Q 3047 1584 2836 1778 
Q 2625 1972 2144 2069 
L 1759 2144 
Q 1053 2284 737 2584 
Q 422 2884 422 3419 
Q 422 4038 858 4394 
Q 1294 4750 2059 4750 
Q 2388 4750 2728 4690 
Q 3069 4631 3425 4513 
z
" transform="scale(0.015625)"/>
      </defs>
      <use xlink:href="#DejaVuSans-44"/>
      <use xlink:href="#DejaVuSans-45" x="77.001953"/>
      <use xlink:href="#DejaVuSans-53" x="140.185547"/>
     </g>
    </g>
    <g id="patch_9">
     <path d="M 60.935 52.473438 
L 80.935 52.473438 
L 80.935 45.473438 
L 60.935 45.473438 
z
" style="fill: #ffbf86; fill-opacity: 0.3"/>
    </g>
    <g id="line2d_46">
     <path d="M 60.935 48.973438 
L 70.935 48.973438 
L 80.935 48.973438 
" style="fill: none; stroke-dasharray: 7.4,3.2; stroke-dashoffset: 0; stroke: #ff7f0e; stroke-width: 2"/>
     <g>
      <use xlink:href="#m48a0aa749f" x="70.935" y="48.973438" style="fill: #ff7f0e"/>
     </g>
    </g>
    <g id="text_25">
     <!-- DYYPO -->
     <g transform="translate(88.935 52.473438) scale(0.1 -0.1)">
      <defs>
       <path id="DejaVuSans-59" d="M -13 4666 
L 666 4666 
L 1959 2747 
L 3244 4666 
L 3922 4666 
L 2272 2222 
L 2272 0 
L 1638 0 
L 1638 2222 
L -13 4666 
z
" transform="scale(0.015625)"/>
       <path id="DejaVuSans-50" d="M 1259 4147 
L 1259 2394 
L 2053 2394 
Q 2494 2394 2734 2622 
Q 2975 2850 2975 3272 
Q 2975 3691 2734 3919 
Q 2494 4147 2053 4147 
L 1259 4147 
z
M 628 4666 
L 2053 4666 
Q 2838 4666 3239 4311 
Q 3641 3956 3641 3272 
Q 3641 2581 3239 2228 
Q 2838 1875 2053 1875 
L 1259 1875 
L 1259 0 
L 628 0 
L 628 4666 
z
" transform="scale(0.015625)"/>
       <path id="DejaVuSans-4f" d="M 2522 4238 
Q 1834 4238 1429 3725 
Q 1025 3213 1025 2328 
Q 1025 1447 1429 934 
Q 1834 422 2522 422 
Q 3209 422 3611 934 
Q 4013 1447 4013 2328 
Q 4013 3213 3611 3725 
Q 3209 4238 2522 4238 
z
M 2522 4750 
Q 3503 4750 4090 4092 
Q 4678 3434 4678 2328 
Q 4678 1225 4090 567 
Q 3503 -91 2522 -91 
Q 1538 -91 948 565 
Q 359 1222 359 2328 
Q 359 3434 948 4092 
Q 1538 4750 2522 4750 
z
" transform="scale(0.015625)"/>
      </defs>
      <use xlink:href="#DejaVuSans-44"/>
      <use xlink:href="#DejaVuSans-59" x="71.501953"/>
      <use xlink:href="#DejaVuSans-59" x="132.585938"/>
      <use xlink:href="#DejaVuSans-50" x="193.669922"/>
      <use xlink:href="#DejaVuSans-4f" x="253.972656"/>
     </g>
    </g>
    <g id="patch_10">
     <path d="M 60.935 67.151563 
L 80.935 67.151563 
L 80.935 60.151563 
L 60.935 60.151563 
z
" style="fill: #96d096; fill-opacity: 0.3"/>
    </g>
    <g id="line2d_47">
     <path d="M 60.935 63.651563 
L 70.935 63.651563 
L 80.935 63.651563 
" style="fill: none; stroke-dasharray: 12.8,3.2,2,3.2; stroke-dashoffset: 0; stroke: #2ca02c; stroke-width: 2"/>
     <g>
      <use xlink:href="#m17364a3679" x="70.935" y="63.651563" style="fill: #2ca02c; stroke: #2ca02c"/>
     </g>
    </g>
    <g id="text_26">
     <!-- EBOwithCMAR -->
     <g transform="translate(88.935 67.151563) scale(0.1 -0.1)">
      <defs>
       <path id="DejaVuSans-42" d="M 1259 2228 
L 1259 519 
L 2272 519 
Q 2781 519 3026 730 
Q 3272 941 3272 1375 
Q 3272 1813 3026 2020 
Q 2781 2228 2272 2228 
L 1259 2228 
z
M 1259 4147 
L 1259 2741 
L 2194 2741 
Q 2656 2741 2882 2914 
Q 3109 3088 3109 3444 
Q 3109 3797 2882 3972 
Q 2656 4147 2194 4147 
L 1259 4147 
z
M 628 4666 
L 2241 4666 
Q 2963 4666 3353 4366 
Q 3744 4066 3744 3513 
Q 3744 3084 3544 2831 
Q 3344 2578 2956 2516 
Q 3422 2416 3680 2098 
Q 3938 1781 3938 1306 
Q 3938 681 3513 340 
Q 3088 0 2303 0 
L 628 0 
L 628 4666 
z
" transform="scale(0.015625)"/>
       <path id="DejaVuSans-77" d="M 269 3500 
L 844 3500 
L 1563 769 
L 2278 3500 
L 2956 3500 
L 3675 769 
L 4391 3500 
L 4966 3500 
L 4050 0 
L 3372 0 
L 2619 2869 
L 1863 0 
L 1184 0 
L 269 3500 
z
" transform="scale(0.015625)"/>
       <path id="DejaVuSans-68" d="M 3513 2113 
L 3513 0 
L 2938 0 
L 2938 2094 
Q 2938 2591 2744 2837 
Q 2550 3084 2163 3084 
Q 1697 3084 1428 2787 
Q 1159 2491 1159 1978 
L 1159 0 
L 581 0 
L 581 4863 
L 1159 4863 
L 1159 2956 
Q 1366 3272 1645 3428 
Q 1925 3584 2291 3584 
Q 2894 3584 3203 3211 
Q 3513 2838 3513 2113 
z
" transform="scale(0.015625)"/>
       <path id="DejaVuSans-4d" d="M 628 4666 
L 1569 4666 
L 2759 1491 
L 3956 4666 
L 4897 4666 
L 4897 0 
L 4281 0 
L 4281 4097 
L 3078 897 
L 2444 897 
L 1241 4097 
L 1241 0 
L 628 0 
L 628 4666 
z
" transform="scale(0.015625)"/>
       <path id="DejaVuSans-41" d="M 2188 4044 
L 1331 1722 
L 3047 1722 
L 2188 4044 
z
M 1831 4666 
L 2547 4666 
L 4325 0 
L 3669 0 
L 3244 1197 
L 1141 1197 
L 716 0 
L 50 0 
L 1831 4666 
z
" transform="scale(0.015625)"/>
      </defs>
      <use xlink:href="#DejaVuSans-45"/>
      <use xlink:href="#DejaVuSans-42" x="63.183594"/>
      <use xlink:href="#DejaVuSans-4f" x="130.037109"/>
      <use xlink:href="#DejaVuSans-77" x="208.748047"/>
      <use xlink:href="#DejaVuSans-69" x="290.535156"/>
      <use xlink:href="#DejaVuSans-74" x="318.318359"/>
      <use xlink:href="#DejaVuSans-68" x="357.527344"/>
      <use xlink:href="#DejaVuSans-43" x="420.90625"/>
      <use xlink:href="#DejaVuSans-4d" x="490.730469"/>
      <use xlink:href="#DejaVuSans-41" x="577.009766"/>
      <use xlink:href="#DejaVuSans-52" x="645.417969"/>
     </g>
    </g>
    <g id="patch_11">
     <path d="M 60.935 81.829688 
L 80.935 81.829688 
L 80.935 74.829688 
L 60.935 74.829688 
z
" style="fill: #eb9393; fill-opacity: 0.3"/>
    </g>
    <g id="line2d_48">
     <path d="M 60.935 78.329688 
L 70.935 78.329688 
L 80.935 78.329688 
" style="fill: none; stroke-dasharray: 2,3.3; stroke-dashoffset: 0; stroke: #d62728; stroke-width: 2"/>
     <g>
      <use xlink:href="#mcc3cfe2287" x="70.935" y="78.329688" style="fill: #d62728; stroke: #d62728; stroke-linejoin: miter"/>
     </g>
    </g>
    <g id="text_27">
     <!-- IDEbestNsize -->
     <g transform="translate(88.935 81.829688) scale(0.1 -0.1)">
      <defs>
       <path id="DejaVuSans-4e" d="M 628 4666 
L 1478 4666 
L 3547 763 
L 3547 4666 
L 4159 4666 
L 4159 0 
L 3309 0 
L 1241 3903 
L 1241 0 
L 628 0 
L 628 4666 
z
" transform="scale(0.015625)"/>
       <path id="DejaVuSans-7a" d="M 353 3500 
L 3084 3500 
L 3084 2975 
L 922 459 
L 3084 459 
L 3084 0 
L 275 0 
L 275 525 
L 2438 3041 
L 353 3041 
L 353 3500 
z
" transform="scale(0.015625)"/>
      </defs>
      <use xlink:href="#DejaVuSans-49"/>
      <use xlink:href="#DejaVuSans-44" x="29.492188"/>
      <use xlink:href="#DejaVuSans-45" x="106.494141"/>
      <use xlink:href="#DejaVuSans-62" x="169.677734"/>
      <use xlink:href="#DejaVuSans-65" x="233.154297"/>
      <use xlink:href="#DejaVuSans-73" x="294.677734"/>
      <use xlink:href="#DejaVuSans-74" x="346.777344"/>
      <use xlink:href="#DejaVuSans-4e" x="385.986328"/>
      <use xlink:href="#DejaVuSans-73" x="460.791016"/>
      <use xlink:href="#DejaVuSans-69" x="512.890625"/>
      <use xlink:href="#DejaVuSans-7a" x="540.673828"/>
      <use xlink:href="#DejaVuSans-65" x="593.164062"/>
     </g>
    </g>
    <g id="patch_12">
     <path d="M 60.935 96.507813 
L 80.935 96.507813 
L 80.935 89.507813 
L 60.935 89.507813 
z
" style="fill: #cab3de; fill-opacity: 0.3"/>
    </g>
    <g id="line2d_49">
     <path d="M 60.935 93.007813 
L 70.935 93.007813 
L 80.935 93.007813 
" style="fill: none; stroke: #9467bd; stroke-width: 2; stroke-linecap: square"/>
     <g>
      <use xlink:href="#m0e9a7c81e1" x="70.935" y="93.007813" style="fill: #9467bd; stroke: #9467bd; stroke-linejoin: miter"/>
     </g>
    </g>
    <g id="text_28">
     <!-- jSO -->
     <g transform="translate(88.935 96.507813) scale(0.1 -0.1)">
      <defs>
       <path id="DejaVuSans-6a" d="M 603 3500 
L 1178 3500 
L 1178 -63 
Q 1178 -731 923 -1031 
Q 669 -1331 103 -1331 
L -116 -1331 
L -116 -844 
L 38 -844 
Q 366 -844 484 -692 
Q 603 -541 603 -63 
L 603 3500 
z
M 603 4863 
L 1178 4863 
L 1178 4134 
L 603 4134 
L 603 4863 
z
" transform="scale(0.015625)"/>
      </defs>
      <use xlink:href="#DejaVuSans-6a"/>
      <use xlink:href="#DejaVuSans-53" x="27.783203"/>
      <use xlink:href="#DejaVuSans-4f" x="91.259766"/>
     </g>
    </g>
    <g id="patch_13">
     <path d="M 60.935 111.185938 
L 80.935 111.185938 
L 80.935 104.185938 
L 60.935 104.185938 
z
" style="fill: #c6aba5; fill-opacity: 0.3"/>
    </g>
    <g id="line2d_50">
     <path d="M 60.935 107.685938 
L 70.935 107.685938 
L 80.935 107.685938 
" style="fill: none; stroke-dasharray: 7.4,3.2; stroke-dashoffset: 0; stroke: #8c564b; stroke-width: 2"/>
     <g>
      <use xlink:href="#md188dc2779" x="70.935" y="107.685938" style="fill: #8c564b; stroke: #8c564b; stroke-linejoin: miter"/>
     </g>
    </g>
    <g id="text_29">
     <!-- LSHADE-SPACMA -->
     <g transform="translate(88.935 111.185938) scale(0.1 -0.1)">
      <defs>
       <path id="DejaVuSans-4c" d="M 628 4666 
L 1259 4666 
L 1259 531 
L 3531 531 
L 3531 0 
L 628 0 
L 628 4666 
z
" transform="scale(0.015625)"/>
       <path id="DejaVuSans-48" d="M 628 4666 
L 1259 4666 
L 1259 2753 
L 3553 2753 
L 3553 4666 
L 4184 4666 
L 4184 0 
L 3553 0 
L 3553 2222 
L 1259 2222 
L 1259 0 
L 628 0 
L 628 4666 
z
" transform="scale(0.015625)"/>
       <path id="DejaVuSans-2d" d="M 313 2009 
L 1997 2009 
L 1997 1497 
L 313 1497 
L 313 2009 
z
" transform="scale(0.015625)"/>
      </defs>
      <use xlink:href="#DejaVuSans-4c"/>
      <use xlink:href="#DejaVuSans-53" x="55.712891"/>
      <use xlink:href="#DejaVuSans-48" x="119.189453"/>
      <use xlink:href="#DejaVuSans-41" x="194.384766"/>
      <use xlink:href="#DejaVuSans-44" x="262.792969"/>
      <use xlink:href="#DejaVuSans-45" x="339.794922"/>
      <use xlink:href="#DejaVuSans-2d" x="402.978516"/>
      <use xlink:href="#DejaVuSans-53" x="439.0625"/>
      <use xlink:href="#DejaVuSans-50" x="502.539062"/>
      <use xlink:href="#DejaVuSans-41" x="556.466797"/>
      <use xlink:href="#DejaVuSans-43" x="623.125"/>
      <use xlink:href="#DejaVuSans-4d" x="692.949219"/>
      <use xlink:href="#DejaVuSans-41" x="779.228516"/>
     </g>
    </g>
    <g id="patch_14">
     <path d="M 60.935 125.864063 
L 80.935 125.864063 
L 80.935 118.864063 
L 60.935 118.864063 
z
" style="fill: #f1bbe0; fill-opacity: 0.3"/>
    </g>
    <g id="line2d_51">
     <path d="M 60.935 122.364063 
L 70.935 122.364063 
L 80.935 122.364063 
" style="fill: none; stroke-dasharray: 12.8,3.2,2,3.2; stroke-dashoffset: 0; stroke: #e377c2; stroke-width: 2"/>
     <g>
      <use xlink:href="#m57f6b8be94" x="70.935" y="122.364063" style="fill: #e377c2; stroke: #e377c2; stroke-linejoin: miter"/>
     </g>
    </g>
    <g id="text_30">
     <!-- MM-OED -->
     <g transform="translate(88.935 125.864063) scale(0.1 -0.1)">
      <use xlink:href="#DejaVuSans-4d"/>
      <use xlink:href="#DejaVuSans-4d" x="86.279297"/>
      <use xlink:href="#DejaVuSans-2d" x="172.558594"/>
      <use xlink:href="#DejaVuSans-4f" x="211.392578"/>
      <use xlink:href="#DejaVuSans-45" x="290.103516"/>
      <use xlink:href="#DejaVuSans-44" x="353.287109"/>
     </g>
    </g>
    <g id="patch_15">
     <path d="M 60.935 140.542188 
L 80.935 140.542188 
L 80.935 133.542188 
L 60.935 133.542188 
z
" style="fill: #dede90; fill-opacity: 0.3"/>
    </g>
    <g id="line2d_52">
     <path d="M 60.935 137.042188 
L 70.935 137.042188 
L 80.935 137.042188 
" style="fill: none; stroke-dasharray: 2,3.3; stroke-dashoffset: 0; stroke: #bcbd22; stroke-width: 2"/>
     <g>
      <use xlink:href="#m32a60f0154" x="70.935" y="137.042188" style="fill: #bcbd22; stroke: #bcbd22; stroke-linejoin: miter"/>
     </g>
    </g>
    <g id="text_31">
     <!-- PPSO -->
     <g transform="translate(88.935 140.542188) scale(0.1 -0.1)">
      <use xlink:href="#DejaVuSans-50"/>
      <use xlink:href="#DejaVuSans-50" x="60.302734"/>
      <use xlink:href="#DejaVuSans-53" x="120.605469"/>
      <use xlink:href="#DejaVuSans-4f" x="184.082031"/>
     </g>
    </g>
    <g id="patch_16">
     <path d="M 60.935 155.220313 
L 80.935 155.220313 
L 80.935 148.220313 
L 60.935 148.220313 
z
" style="fill: #8bdee7; fill-opacity: 0.3"/>
    </g>
    <g id="line2d_53">
     <path d="M 60.935 151.720313 
L 70.935 151.720313 
L 80.935 151.720313 
" style="fill: none; stroke: #17becf; stroke-width: 2; stroke-linecap: square"/>
     <g>
      <use xlink:href="#mbafcc80bc0" x="70.935" y="151.720313" style="fill: #17becf; stroke: #17becf; stroke-linejoin: miter"/>
     </g>
    </g>
    <g id="text_32">
     <!-- RB-IPOP-CMA-ES -->
     <g transform="translate(88.935 155.220313) scale(0.1 -0.1)">
      <use xlink:href="#DejaVuSans-52"/>
      <use xlink:href="#DejaVuSans-42" x="69.482422"/>
      <use xlink:href="#DejaVuSans-2d" x="138.085938"/>
      <use xlink:href="#DejaVuSans-49" x="174.169922"/>
      <use xlink:href="#DejaVuSans-50" x="203.662109"/>
      <use xlink:href="#DejaVuSans-4f" x="263.964844"/>
      <use xlink:href="#DejaVuSans-50" x="342.675781"/>
      <use xlink:href="#DejaVuSans-2d" x="400.728516"/>
      <use xlink:href="#DejaVuSans-43" x="436.8125"/>
      <use xlink:href="#DejaVuSans-4d" x="506.636719"/>
      <use xlink:href="#DejaVuSans-41" x="592.916016"/>
      <use xlink:href="#DejaVuSans-2d" x="659.074219"/>
      <use xlink:href="#DejaVuSans-45" x="695.158203"/>
      <use xlink:href="#DejaVuSans-53" x="758.341797"/>
     </g>
    </g>
    <g id="patch_17">
     <path d="M 60.935 169.898438 
L 80.935 169.898438 
L 80.935 162.898438 
L 60.935 162.898438 
z
" style="fill: #8fbbda; fill-opacity: 0.3"/>
    </g>
    <g id="line2d_54">
     <path d="M 60.935 166.398438 
L 70.935 166.398438 
L 80.935 166.398438 
" style="fill: none; stroke-dasharray: 7.4,3.2; stroke-dashoffset: 0; stroke: #1f77b4; stroke-width: 2"/>
     <g>
      <use xlink:href="#m757593e87d" x="70.935" y="166.398438" style="fill: #1f77b4; stroke: #1f77b4; stroke-linejoin: bevel"/>
     </g>
    </g>
    <g id="text_33">
     <!-- TLBO-FL -->
     <g transform="translate(88.935 169.898438) scale(0.1 -0.1)">
      <defs>
       <path id="DejaVuSans-54" d="M -19 4666 
L 3928 4666 
L 3928 4134 
L 2272 4134 
L 2272 0 
L 1638 0 
L 1638 4134 
L -19 4134 
L -19 4666 
z
" transform="scale(0.015625)"/>
       <path id="DejaVuSans-46" d="M 628 4666 
L 3309 4666 
L 3309 4134 
L 1259 4134 
L 1259 2759 
L 3109 2759 
L 3109 2228 
L 1259 2228 
L 1259 0 
L 628 0 
L 628 4666 
z
" transform="scale(0.015625)"/>
      </defs>
      <use xlink:href="#DejaVuSans-54"/>
      <use xlink:href="#DejaVuSans-4c" x="61.083984"/>
      <use xlink:href="#DejaVuSans-42" x="116.796875"/>
      <use xlink:href="#DejaVuSans-4f" x="183.650391"/>
      <use xlink:href="#DejaVuSans-2d" x="265.111328"/>
      <use xlink:href="#DejaVuSans-46" x="301.195312"/>
      <use xlink:href="#DejaVuSans-4c" x="358.714844"/>
     </g>
    </g>
   </g>
  </g>
 </g>
 <defs>
  <clipPath id="p841fba702d">
   <rect x="51.935" y="21.196875" width="837" height="554.4"/>
  </clipPath>
 </defs>
</svg>
